<?xml version="1.0" encoding="UTF-8" standalone="no"?>
<!DOCTYPE svg PUBLIC "-//W3C//DTD SVG 1.1//EN"
"http://www.w3.org/Graphics/SVG/1.1/DTD/svg11.dtd">


<!-- Page 1 -->
<svg x="0" y="0" width="632" height="432" viewBox="0 0 632 432" version="1.1" xmlns="http://www.w3.org/2000/svg" xmlns:xlink="http://www.w3.org/1999/xlink"
style="display: block;margin-left: auto;margin-right: auto;">
<defs>

<style type="text/css"><![CDATA[
text { white-space: pre; }
path, image { pointer-events: none; }

.s1_1{
font-size: 20.08px;
font-family: Arial_8;
fill: #000000;
}

.g0_1{
fill: #FFFFFF;
}
.g1_1{
fill: none;
stroke: #000000;
stroke-width: 0.55;
stroke-linecap: round;
stroke-linejoin: round;
}
.g2_1{
}

]]></style>

</defs>
<path d="M0,0
L0,432
L632,432
L632,0 Z " 
fill="#FFFFFF" stroke="none" />
<path d="M618.4,416.7L13.9,14.1V416.7Z" class="g0_1" />
<path d="M13.9,14.1H618.4V416.7Z" class="g0_1" />
<path d="M618.4,416.7L13.9,14.1V416.7Z" class="g0_1" />
<path d="M13.9,14.1H618.4V416.7Z" class="g0_1" />
<path d="M476.5,216.5v-2.6m0,0v-2.4M475.9,208.6V206m0,0v-2.4m-.3,-2.9v-2m0,0l-.6,-2.4m0,0v-.6m-.3,-2.9V191m0,0l-.6,-2.6m0,0V188m-.5,-2.5l-.4,-1.9m0,0l-.6,-2.5m0,0v-.6m-.3,-2.9l-.6,-1.5m0,0l-.9,-2.4m0,0v-.9m-.5,-2.5l-.4,-1.5m0,0l-.9,-2.4m0,0l-.6,-.9m-.9,-2.9v-1.1m0,0l-.9,-1.9m0,0l-.6,-1.4m-.9,-2.6l-.5,-.9m0,0l-1,-2.4m0,0l-.5,-1.5m-1.3,-2.5v-.6m0,0l-1.1,-2.4m0,0l-.4,-1.4M458.9,140.9l-1.5,-2.4m0,0l-.9,-2M455,134.1l-.9,-2m0,0l-1.4,-2m-1.3,-2.4l-1.1,-2m0,0L449,123.9m0,0v-.6m-2,-2.4l-.9,-1.6m0,0l-1.5,-1.8m0,0l-.4,-.6m-1.4,-2.4l-1,-1.1m0,0L440,111.6m0,0l-.5,-.6M438,108.7l-.9,-1.1m0,0l-1.9,-1.9m0,0l-.5,-.5m-2.4,-2.4l-.6,-.6m0,0l-1.2,-2m0,0l-1,-.9m-2.3,-2l-.6,-.4m0,0l-1.4,-1.4m0,0L423.7,94m-1.8,-2h-.6m0,0l-1.8,-1.5m0,0L418,89M415.6,87l-1.8,-1.4m0,0L412,84.1m-2.4,-1.5l-1.5,-.9m0,0l-1.8,-1.5m0,0l-.6,-.5m-2.4,-1.5l-1.4,-.9m0,0L400,76.2m0,0l-.9,-.4m-2.4,-1.4l-.9,-.6m0,0l-2,-1.4m0,0l-.9,-.6m-2.8,-.9l-.5,-.6m0,0l-2.4,-.9m0,0l-1.5,-.9M383,67.4l-2.4,-.9m0,0l-2,-.9m-2.4,-1.1l-2.4,-.9m0,0L371.6,63m-2.4,-.9l-2,-.6m0,0l-2.4,-.9m0,0h-.3m-3,-.5l-1.4,-.4m0,0l-1.9,-1.1m0,0h-.9m-2.9,-.9h-.9m0,0l-2.4,-.6m0,0h-1.5m-2.7,-.5h-.6m0,0l-2.4,-.4m0,0l-1.8,-.5M339.2,55.7l-2.4,-.6m0,0H335m-2.8,0h-2.4m0,0h-2.4M324.5,54.8l-1.8,.3m0,0h-2.4m0,0h-.6m-2.7,0h-1.5m0,0h-2.4m0,0h-.9m-2.9,.6h-.9m0,0l-2.4,.5m0,0l-1.5,.4m-2.7,.5h-.6m0,0h-2.4m0,0l-1.8,.6M294.1,58.2l-2.4,.4m0,0l-1.9,1.1M286.9,60.1l-1.8,.5m0,0l-2.4,.9M280,62.6l-1.5,.4m0,0l-2.4,.6m0,0l-.9,.5m-2.4,.9l-1.5,.6m0,0l-1.8,.9m0,0l-1.1,.5m-2.7,1l-1,.5m0,0l-2,.9m0,0l-1.3,.6M258.5,71.4l-2.4,1m0,0l-1.5,.9m-2.7,1.4l-2,1.5m0,0l-1.8,1.1M245.7,79.1l-1.9,1.1m0,0l-2,1.5M239.1,83.2l-.9,.9m0,0l-2.1,1.5m0,0l-.9,.5m-1.8,1.8l-.9,1.1m0,0l-2.1,1.5m0,0l-.9,.6m-2.4,1.8l-.5,.5m0,0l-1.8,2.1m0,0l-.9,.9m-1.9,2l-.5,.4m0,0l-1.9,1.4m0,0l-1.1,1.5m-1.8,2l-.6,.6m0,0l-1.2,1.4m0,0l-1.5,1.5m-1.8,2.4l-1.5,2m0,0l-2,1.8m-1.3,2l-1.5,2.1m0,0l-1.4,1.8M202,121.9l-.9,2m0,0l-1.5,1.8m0,0v.6m-1.4,2.3l-.9,1.1m0,0l-1.5,2.4m0,0l-.4,.6m-1.4,2.9l-.6,.9m0,0l-.9,2m0,0l-.5,1m-1.3,2.9l-.6,.5m0,0l-.9,2.4m0,0l-.6,1.5m-1.4,2.4v.5m0,0l-.9,2.6m0,0l-.4,1.5m-1.5,2.9v.4m0,0l-.9,2.5m0,0l-.9,1.5m-.5,2.9l-1,2.4m0,0l-.9,2m-.5,3l-.6,2.3m0,0l-.9,2.4m-.4,3l-.5,2m0,0l-.6,2.5M176.4,186.6l-.6,1.8m0,0l-.4,2.6m0,0v.3m0,3l-.5,2m0,0l-.4,2.4m0,0v.5m0,3l-.5,1.4m0,0V206m0,0v1.1m0,2.9l-.6,1.5m0,0v2.4m0,0V215m0,2.9v.9m0,0v2.4m0,0v1.5m.6,2.9v1.1m0,0v2.4m0,0l.5,1.5m0,2.9v.6m0,0l.4,2.3m0,0l.5,1.5m0,2.9v1m0,0l.4,2.5m0,0l.6,1.5m.3,2.9v.6m0,0l.6,2.4m0,0l.5,2M178.2,256.6l.9,2.4m0,0l.6,2m.5,2.9l.9,2.4m0,0l1,2m.5,3l.9,1.8m0,0l.9,2.6M185.3,278.6l1,2m0,0l.9,2.4M188.6,285.9l.6,1.5m0,0l.9,2.4m0,0v.5m1.5,2.4l.9,1.5m0,0l.9,2m0,0l.6,.9m1.4,2.6l.4,.9m0,0l1.5,2.4m0,0l.3,1.1m1.5,2.4l.5,.5m0,0l1.5,2m0,0l.9,1.5m1.5,2.4l.4,.5m0,0l1.4,1.9m0,0l1,1.4M208.1,319.3l2,1.8m0,0l.9,1.5m1.8,2.6l2.1,1.8m0,0l1.2,1.5M218.2,330.5l1.4,2m0,0l1.9,1.5M223.9,336.4l.9,1.1m0,0l1.8,1.8m0,0l.5,.5m2.4,1.5l.9,.9m0,0l2.1,1.5m0,0l.3,.5m2.4,2.1l.9,.9m0,0l2.1,1.4m0,0l.9,.6m2.3,1.8h.4m0,0l2,1.5m0,0l1.3,1.1m2.4,1.5l.6,.3m0,0l1.8,1.1m0,0l2,.9m2.4,1.5l1.8,1.5m0,0l2.4,.9m2.4,1.5l1.8,.5m0,0l2,.9m0,0l.4,.6m2.9,.9l1.5,.5m0,0l1.8,1m0,0l.9,.5m3,1.1l.9,.4m0,0l2.4,.5m0,0l.9,.6m2.9,.9h.4m0,0l2.4,.9m0,0l1.5,.6m2.7,.5h.5m0,0l1.9,.9m0,0l2.4,.6m2.9,.3l1.8,.6m0,0h2.4m0,0h.6m2.4,.5l1.8,.4m0,0l2.4,.6m0,0h.5m2.8,0l1.4,.5m0,0h2.4m0,0h.9m3,0h.9m0,0h2.4m0,0l1.2,.4m3,-.4h.5m0,0h2.4m0,0h1.9M334.4,377.6h2.4m0,0l2.4,-.5m2.9,0l1.8,-.6m0,0l2.4,-.4m0,0h.6m2.7,-.5h1.5m0,0l2.4,-.6m0,0h.5m2.8,-.3l1.4,-.6m0,0l1.9,-.9m0,0l1.4,-.5m3,-.6h.3m0,0l2.4,-.9m0,0l1.5,-.6M371.6,369.7l2.2,-.5m0,0l2,-.9M378.6,367.2l2,-1m0,0l2.4,-.9m2.4,-1.1l1.8,-.9m0,0l2.4,-.9m0,0h.5m2.2,-1.5l1.5,-.5m0,0l2,-1.5m0,0l.9,-.5m2.4,-1.5l.9,-.4m0,0l1.9,-1.1m0,0l.9,-.9m2.4,-1.5l1.1,-.5m0,0l1.8,-1.5m0,0l1.5,-.3M412,348.6l1.8,-1.4m0,0l1.8,-1.5m2,-2l1.9,-1.5m0,0l1.8,-1.4M423.7,338.9l1.5,-1.4m0,0l1.4,-1.7m0,0l.6,-.4m1.8,-2l1.5,-.9m0,0l1.2,-2m0,0l.6,-.6m1.8,-1.8l1.1,-1.1m0,0l1.9,-1.8m0,0l.5,-1.1m1.9,-1.9l.5,-1.1m0,0l1.8,-1.8m0,0l.4,-1.1m2,-2.4l.4,-.5m0,0l1.5,-1.9m0,0L447,312m1.4,-2.6l.6,-.4m0,0l1.3,-2m0,0l1.1,-1.4m1.3,-2.6l1.4,-2.4m0,0l.9,-2M456.5,296.2l.9,-2m0,0l1.5,-2.4m.9,-2.4l.9,-2m0,0l1.1,-2.4M463.1,282.1l.5,-1.5m0,0l1,-2.5m0,0v-.4m1.4,-3.1l.6,-1.5m0,0l.9,-1.8m0,0v-1.1m.9,-3l.6,-.9m0,0l.9,-2.4m0,0v-1.1m.9,-2.9V259m0,0l.9,-2.4m0,0v-1.1m.9,-2.9v-.9m0,0l.6,-2.4m0,0l.4,-1.5m.5,-2.9v-.6m0,0l.6,-2.5m0,0v-1.9M475,237v-.6m0,0l.6,-2.3m0,0V232M475.9,229.1v-2.4m0,0v-2.5m.6,-2.4v-.6m0,0v-2.4m0,0v-2" class="g1_1" />
<text x="57" y="89" dx="0,0,-0.2,-0.1,-0.2,-0.4,-0.3,-0.5,-0.6,-0.2,-0.4,-0.2,0.3,-0.4,-0.3,-0.8,-0.2" class="s1_1">Target Population</text>
<path d="M437.6,198.7l-1.1,2.9h1.1Z" class="g2_1" />
<path d="M437.6,198.7h-1.1v2.9Z" class="g2_1" />
<path d="M437.6,196.3l-1.1,2.4h1.1Z" class="g2_1" />
<path d="M437.6,196.3h-1.1v2.4Z" class="g2_1" />
<path d="M437.6,193.4l-1.1,2.9h1.1Z" class="g2_1" />
<path d="M437.6,193.4h-1.1v2.9Z" class="g2_1" />
<path d="M437.6,191l-1.1,2.4h1.1Z" class="g2_1" />
<path d="M437.6,191h-1.1v2.4Z" class="g2_1" />
<path d="M437.6,191h-.5Z" class="g2_1" />
<path d="M437.1,188l-.6,3h1.1Z" class="g2_1" />
<path d="M437.1,188h-1l.4,3Z" class="g2_1" />
<path d="M436.1,188l.4,-.5Z" class="g2_1" />
<path d="M437.1,185.5l-1,2.5h1Z" class="g2_1" />
<path d="M437.1,185.5h-1V188Z" class="g2_1" />
<path d="M437.1,182.5l-1,3h1Z" class="g2_1" />
<path d="M437.1,182.5h-1v3Z" class="g2_1" />
<path d="M437.1,182.5h-.6Z" class="g2_1" />
<path d="M436.5,180.2l-.4,2.3h1Z" class="g2_1" />
<path d="M436.5,180.2h-.9l.5,2.3Z" class="g2_1" />
<path d="M435.6,180.2h.5Z" class="g2_1" />
<path d="M436.1,177.2l-.5,3h.9Z" class="g2_1" />
<path d="M436.1,177.2h-.9l.4,3Z" class="g2_1" />
<path d="M436.1,177.2h-.5Z" class="g2_1" />
<path d="M435.6,174.7l-.4,2.5h.9Z" class="g2_1" />
<path d="M435.6,174.7h-.9l.5,2.5Z" class="g2_1" />
<path d="M434.7,174.7h.5Z" class="g2_1" />
<path d="M435.6,171.7l-.9,3h.9Z" class="g2_1" />
<path d="M435.6,171.7h-.9v3Z" class="g2_1" />
<path d="M435.6,171.7h-.4Z" class="g2_1" />
<path d="M435.2,169.3l-.5,2.4h.9Z" class="g2_1" />
<path d="M435.2,169.3h-1.1l.6,2.4Z" class="g2_1" />
<path d="M434.1,169.3h.6Z" class="g2_1" />
<path d="M434.7,166.4l-.6,2.9h1.1Z" class="g2_1" />
<path d="M434.7,166.4h-.9l.3,2.9Z" class="g2_1" />
<path d="M434.7,166.4h-.6Z" class="g2_1" />
<path d="M434.1,164l-.3,2.4h.9Z" class="g2_1" />
<path d="M434.1,164h-.9l.6,2.4Z" class="g2_1" />
<path d="M434.1,164v0h-.3Z" class="g2_1" />
<path d="M434.1,164v0Z" class="g2_1" />
<path d="M433.2,161.5V164h.9Z" class="g2_1" />
<path d="M433.2,161.5h-.9l.9,2.5Z" class="g2_1" />
<path d="M432.3,161.5v0h.5Z" class="g2_1" />
<path d="M432.3,161.5v0Z" class="g2_1" />
<path d="M432.8,158.5l-.5,3h.9Z" class="g2_1" />
<path d="M432.8,158.5h-1.1l.6,3Z" class="g2_1" />
<path d="M432.8,158.5h-.5Z" class="g2_1" />
<path d="M432.3,156.1l-.6,2.4h1.1Z" class="g2_1" />
<path d="M432.3,156.1h-.9l.3,2.4Z" class="g2_1" />
<path d="M431.7,153.8l-.3,2.3h.9Z" class="g2_1" />
<path d="M431.7,153.8h-.9l.6,2.3Z" class="g2_1" />
<path d="M431.7,153.8h-.3Z" class="g2_1" />
<path d="M430.8,150.8v3h.9Z" class="g2_1" />
<path d="M430.8,150.8h-.9l.9,3Z" class="g2_1" />
<path d="M429.9,150.8h.6Z" class="g2_1" />
<path d="M430.5,148.3l-.6,2.5h.9Z" class="g2_1" />
<path d="M430.5,148.3h-1l.4,2.5Z" class="g2_1" />
<path d="M430.5,148.3h-.6Z" class="g2_1" />
<path d="M429.5,145.9v2.4h1Z" class="g2_1" />
<path d="M429.5,145.9h-1.1l1.1,2.4Z" class="g2_1" />
<path d="M428.4,145.9h.6Z" class="g2_1" />
<path d="M428.4,142.9v3h1.1Z" class="g2_1" />
<path d="M428.4,142.9h-.9l.9,3Z" class="g2_1" />
<path d="M428.4,142.9v0h-.3Z" class="g2_1" />
<path d="M428.4,142.9v0Z" class="g2_1" />
<path d="M427.5,140.4v2.5h.9Z" class="g2_1" />
<path d="M427.5,140.4h-.9l.9,2.5Z" class="g2_1" />
<path d="M426.6,140.4h.6Z" class="g2_1" />
<path d="M427.2,138l-.6,2.4h.9Z" class="g2_1" />
<path d="M427.2,138h-1.1l.5,2.4Z" class="g2_1" />
<path d="M427.2,138h-.6Z" class="g2_1" />
<path d="M426.1,135.6V138h1.1Z" class="g2_1" />
<path d="M426.1,135.6h-.9l.9,2.4Z" class="g2_1" />
<path d="M425.2,133v2.6h.9Z" class="g2_1" />
<path d="M425.2,133h-1l1,2.6Z" class="g2_1" />
<path d="M424.2,130.7V133h1Z" class="g2_1" />
<path d="M424.2,130.7h-.9l.9,2.3Z" class="g2_1" />
<path d="M424.2,130.1v.6h-.5Z" class="g2_1" />
<path d="M424.2,130.1v.6Z" class="g2_1" />
<path d="M422.8,127.7l.5,3.5l.9,-1.1Z" class="g2_1" />
<path d="M422.8,127.7l-.9,.9l1.4,2.6Z" class="g2_1" />
<path d="M421.9,128.3v.3l.5,-.3Z" class="g2_1" />
<path d="M421.9,128.3v.3Z" class="g2_1" />
<path d="M421.9,125.7v2.6h.9Z" class="g2_1" />
<path d="M421.9,125.7h-1l1,2.6Z" class="g2_1" />
<path d="M420.9,123.3v2.4h1Z" class="g2_1" />
<path d="M420.9,123.3H420l.9,2.4Z" class="g2_1" />
<path d="M420,120.9v2.4h.9Z" class="g2_1" />
<path d="M420,120.9h-.9l.9,2.4Z" class="g2_1" />
<path d="M420,120.4v.5h-.5Z" class="g2_1" />
<path d="M420,120.4v.5Z" class="g2_1" />
<path d="M418.6,117.8l.5,3.5l.9,-.9Z" class="g2_1" />
<path d="M418.6,117.8l-1,1.1l1.5,2.4Z" class="g2_1" />
<path d="M417.6,118.4v.5l.4,-.5Z" class="g2_1" />
<path d="M417.6,118.4v.5Z" class="g2_1" />
<path d="M417.6,116v2.4h1Z" class="g2_1" />
<path d="M417.6,116h-.9l.9,2.4Z" class="g2_1" />
<path d="M417.6,115.4v.6h-.5Z" class="g2_1" />
<path d="M417.6,115.4v.6Z" class="g2_1" />
<path d="M416.2,113.1l.5,3.3l.9,-1Z" class="g2_1" />
<path d="M416.2,113.1l-.9,.9l1.4,2.4Z" class="g2_1" />
<path d="M416.2,113.1l-.6,.3Z" class="g2_1" />
<path d="M414.7,111l.6,3l.9,-.9Z" class="g2_1" />
<path d="M414.7,111l-.9,1l1.5,2Z" class="g2_1" />
<path d="M413.8,111.6v.4l.5,-.4Z" class="g2_1" />
<path d="M413.8,111.6v.4Z" class="g2_1" />
<path d="M413.8,109v2.6h.9Z" class="g2_1" />
<path d="M413.8,109h-.9l.9,2.6Z" class="g2_1" />
<path d="M413.8,108.7v.3h-.6Z" class="g2_1" />
<path d="M413.8,108.7v.3Z" class="g2_1" />
<path d="M412.3,106.1l.6,3.5l.9,-.9Z" class="g2_1" />
<path d="M412.3,106.1l-.9,1.1l1.5,2.4Z" class="g2_1" />
<path d="M412.3,106.1l-.3,.5Z" class="g2_1" />
<path d="M410.9,104.3l.5,2.9l.9,-1.1Z" class="g2_1" />
<path d="M410.9,104.3l-1,.9l1.5,2Z" class="g2_1" />
<path d="M409.9,105.2l.6,-.6Z" class="g2_1" />
<path d="M409.6,101.7l.3,3.5l1,-.9Z" class="g2_1" />
<path d="M409.6,101.7l-1,1.1l1.3,2.4Z" class="g2_1" />
<path d="M408.1,99.3l.5,3.5l1,-1.1Z" class="g2_1" />
<path d="M408.1,99.3l-.9,.9l1.4,2.6Z" class="g2_1" />
<path d="M408.1,99.3v0l-.6,.6Z" class="g2_1" />
<path d="M408.1,99.3v0Z" class="g2_1" />
<path d="M406.6,97.3l.6,2.9l.9,-.9Z" class="g2_1" />
<path d="M406.6,97.3l-.9,1.1l1.5,1.8Z" class="g2_1" />
<path d="M405.2,95.5l.5,2.9l.9,-1.1Z" class="g2_1" />
<path d="M405.2,95.5l-1,.9l1.5,2Z" class="g2_1" />
<path d="M404.2,96.4l.6,-.6Z" class="g2_1" />
<path d="M403.9,92.9l.3,3.5l1,-.9Z" class="g2_1" />
<path d="M403.9,92.9L402.8,94l1.4,2.4Z" class="g2_1" />
<path d="M403.9,92.9v0l-.6,.5Z" class="g2_1" />
<path d="M403.9,92.9v0Z" class="g2_1" />
<path d="M402.4,91.1l.4,2.9l1.1,-1.1Z" class="g2_1" />
<path d="M402.4,91.1l-.9,.9l1.3,2Z" class="g2_1" />
<path d="M402.4,91.1l-.5,.3Z" class="g2_1" />
<path d="M400.6,89l.9,3l.9,-.9Z" class="g2_1" />
<path d="M400.6,89l-1.1,1l2,2Z" class="g2_1" />
<path d="M399.5,90l.5,-.4Z" class="g2_1" />
<path d="M399.1,87l.4,3l1.1,-1Z" class="g2_1" />
<path d="M399.1,87l-.9,.9l1.3,2.1Z" class="g2_1" />
<path d="M399.1,87l-.5,.6Z" class="g2_1" />
<path d="M397.1,84.6l1.1,3.3l.9,-.9Z" class="g2_1" />
<path d="M397.1,84.6l-.9,1l2,2.3Z" class="g2_1" />
<path d="M396.2,85.6v0l.5,-.6Z" class="g2_1" />
<path d="M396.2,85.6v0Z" class="g2_1" />
<path d="M395.8,82.6l.4,3l.9,-1Z" class="g2_1" />
<path d="M395.8,82.6l-1.1,.9l1.5,2.1Z" class="g2_1" />
<path d="M395.8,82.6l-.5,.6Z" class="g2_1" />
<path d="M393.8,80.6l.9,2.9l1.1,-.9Z" class="g2_1" />
<path d="M393.8,80.6l-.9,1.1l1.8,1.8Z" class="g2_1" />
<path d="M392.9,81.7l.5,-.5Z" class="g2_1" />
<path d="M392.3,78.8l.6,2.9l.9,-1.1Z" class="g2_1" />
<path d="M392.3,78.8l-.9,.9l1.5,2Z" class="g2_1" />
<path d="M392.3,78.8v0l-.3,.3Z" class="g2_1" />
<path d="M392.3,78.8v0Z" class="g2_1" />
<path d="M390.5,76.8l.9,2.9l.9,-.9Z" class="g2_1" />
<path d="M390.5,76.8l-.9,.9l1.8,2Z" class="g2_1" />
<path d="M390.1,77.3l.4,-.5Z" class="g2_1" />
<path d="M390.5,76.8v0Z" class="g2_1" />
<path d="M389,75.3l.6,2.4l.9,-.9Z" class="g2_1" />
<path d="M389,75.3l-.9,.9l1.5,1.5Z" class="g2_1" />
<path d="M388.7,75.8l.3,-.5Z" class="g2_1" />
<path d="M387.2,73.3l.9,2.9l.9,-.9Z" class="g2_1" />
<path d="M387.2,73.3l-.9,1.1l1.8,1.8Z" class="g2_1" />
<path d="M386.7,73.8l.5,-.5Z" class="g2_1" />
<path d="M385.4,71.4l.9,3l.9,-1.1Z" class="g2_1" />
<path d="M385.4,71.4l-1.1,1l2,2Z" class="g2_1" />
<path d="M385.4,71.4l-.6,.4Z" class="g2_1" />
<path d="M383.4,70l.9,2.4l1.1,-1Z" class="g2_1" />
<path d="M383.4,70l-1,.9l1.9,1.5Z" class="g2_1" />
<path d="M382.4,70.9l.6,-.6Z" class="g2_1" />
<path d="M381.5,68l.9,2.9l1,-.9Z" class="g2_1" />
<path d="M381.5,68l-.9,.9l1.8,2Z" class="g2_1" />
<path d="M381,68.5l.5,-.5Z" class="g2_1" />
<path d="M379.7,65.9l.9,3l.9,-.9Z" class="g2_1" />
<path d="M379.7,65.9L378.6,67l2,1.9Z" class="g2_1" />
<path d="M379.7,65.9l-.6,.6Z" class="g2_1" />
<path d="M377.7,64.5l.9,2.5l1.1,-1.1Z" class="g2_1" />
<path d="M377.7,64.5l-1,1.1l1.9,1.4Z" class="g2_1" />
<path d="M375.8,63l.9,2.6l1,-1.1Z" class="g2_1" />
<path d="M375.8,63l-.9,1.1l1.8,1.5Z" class="g2_1" />
<path d="M374.9,64.1l.4,-.5Z" class="g2_1" />
<path d="M373.8,61.2l1.1,2.9l.9,-1.1Z" class="g2_1" />
<path d="M373.8,61.2l-.9,.9l2,2Z" class="g2_1" />
<path d="M373.8,61.2l-.4,.3Z" class="g2_1" />
<path d="M372,59.7l.9,2.4l.9,-.9Z" class="g2_1" />
<path d="M372,59.7l-.9,.9l1.8,1.5Z" class="g2_1" />
<path d="M370.2,58.2l.9,2.4l.9,-.9Z" class="g2_1" />
<path d="M370.2,58.2l-1,1l1.9,1.4Z" class="g2_1" />
<path d="M370.2,58.2v0l-.6,.4Z" class="g2_1" />
<path d="M370.2,58.2v0Z" class="g2_1" />
<path d="M367.8,56.6l1.4,2.6l1,-1Z" class="g2_1" />
<path d="M367.8,56.6l-.9,1.1l2.3,1.5Z" class="g2_1" />
<path d="M366.9,57.7l.3,-.6Z" class="g2_1" />
<path d="M365.8,55.1l1.1,2.6l.9,-1.1Z" class="g2_1" />
<path d="M365.8,55.1l-1,1.1l2.1,1.5Z" class="g2_1" />
<path d="M363.9,53.7l.9,2.5l1,-1.1Z" class="g2_1" />
<path d="M364.8,56.2L363,54.8l.9,-1.1Z" class="g2_1" />
<path d="M363.9,53.7v0l-.5,.5Z" class="g2_1" />
<path d="M363.9,53.7v0Z" class="g2_1" />
<path d="M361.5,52.2l1.5,2.6l.9,-1.1Z" class="g2_1" />
<path d="M363,54.8l-2.4,-1.5l.9,-1.1Z" class="g2_1" />
<path d="M360.6,53.3l.6,-.6Z" class="g2_1" />
<path d="M359.7,50.7l.9,2.6l.9,-1.1Z" class="g2_1" />
<path d="M359.7,50.7l-.9,1.1l1.8,1.5Z" class="g2_1" />
<path d="M359.2,50.7h.5l-.5,.6Z" class="g2_1" />
<path d="M359.2,50.7h.5Z" class="g2_1" />
<path d="M356.8,49.8l2.4,2V50.7Z" class="g2_1" />
<path d="M356.8,49.8v.9l2.4,1.1Z" class="g2_1" />
<path d="M356.4,50.7h.4v-.3Z" class="g2_1" />
<path d="M356.4,50.7h.4Z" class="g2_1" />
<path d="M355.3,48.3l1.1,2.4l.9,-.9Z" class="g2_1" />
<path d="M355.3,48.3l-.9,1l2,1.4Z" class="g2_1" />
<path d="M355.3,48.3l-.4,.6Z" class="g2_1" />
<path d="M352.9,46.9l1.5,2.4l.9,-1Z" class="g2_1" />
<path d="M352.9,46.9l-.9,.9l2.4,1.5Z" class="g2_1" />
<path d="M352.5,46.9h.4l-.4,.5Z" class="g2_1" />
<path d="M352.5,46.9v0h.4Z" class="g2_1" />
<path d="M350.7,46l1.8,1.8v-.9Z" class="g2_1" />
<path d="M350.7,46v.9l1.8,.9Z" class="g2_1" />
<path d="M350.7,46v.3Z" class="g2_1" />
<path d="M348.3,44.9l2.4,2V46Z" class="g2_1" />
<path d="M348.3,44.9V46l2.4,.9Z" class="g2_1" />
<path d="M347.8,46h.5v-.6Z" class="g2_1" />
<path d="M347.8,46h.5Z" class="g2_1" />
<path d="M346.3,43.4l1.5,2.6l.9,-1.1Z" class="g2_1" />
<path d="M346.3,43.4l-.9,1.1l2.4,1.5Z" class="g2_1" />
<path d="M345.9,43.4h.4l-.4,.5Z" class="g2_1" />
<path d="M345.9,43.4h.4Z" class="g2_1" />
<path d="M343.9,42.5l2,2V43.4Z" class="g2_1" />
<path d="M343.9,42.5v.9l2,1.1Z" class="g2_1" />
<path d="M343.9,42.5V43Z" class="g2_1" />
<path d="M343.9,42.5v0Z" class="g2_1" />
<path d="M341.6,41.6l2.3,1.8v-.9Z" class="g2_1" />
<path d="M341.6,41.6v.9l2.3,.9Z" class="g2_1" />
<path d="M339.2,40.5l2.4,2v-.9Z" class="g2_1" />
<path d="M339.2,40.5v1.1l2.4,.9Z" class="g2_1" />
<path d="M336.8,39.5l2.4,2.1V40.5Z" class="g2_1" />
<path d="M336.8,39.5v1l2.4,1.1Z" class="g2_1" />
<path d="M336.8,40.5v-.4Z" class="g2_1" />
<path d="M335,38.6l1.8,1.9v-1Z" class="g2_1" />
<path d="M335,38.6v.9l1.8,1Z" class="g2_1" />
<path d="M335,38.6V39Z" class="g2_1" />
<path d="M332.6,37.5l2.4,2v-.9Z" class="g2_1" />
<path d="M332.6,37.5v1.1l2.4,.9Z" class="g2_1" />
<path d="M330.2,36.6l2.4,2V37.5Z" class="g2_1" />
<path d="M330.2,36.6v.9l2.4,1.1Z" class="g2_1" />
<path d="M330.2,36.6v.6Z" class="g2_1" />
<path d="M327.8,36.1l2.4,1.4v-.9Z" class="g2_1" />
<path d="M327.8,36.1v1.1l2.4,.3Z" class="g2_1" />
<path d="M327.8,37.2v-.6Z" class="g2_1" />
<path d="M325.4,35.1l2.4,2.1V36.1Z" class="g2_1" />
<path d="M325.4,35.1v1l2.4,1.1Z" class="g2_1" />
<path d="M323,34.2l2.4,1.9v-1Z" class="g2_1" />
<path d="M323,34.2v.9l2.4,1Z" class="g2_1" />
<path d="M323,34.2v.4Z" class="g2_1" />
<path d="M320.6,33.7l2.4,1.4v-.9Z" class="g2_1" />
<path d="M320.6,33.7v.9l2.4,.5Z" class="g2_1" />
<path d="M318.3,33.1l2.3,1.5v-.9Z" class="g2_1" />
<path d="M318.3,33.1v1.1l2.3,.4Z" class="g2_1" />
<path d="M318.3,34.2v-.5Z" class="g2_1" />
<path d="M315.9,32.2l2.4,2V33.1Z" class="g2_1" />
<path d="M315.9,32.2v.9l2.4,1.1Z" class="g2_1" />
<path d="M315.9,32.2v.6Z" class="g2_1" />
<path d="M313.5,31.7l2.4,1.4v-.9Z" class="g2_1" />
<path d="M313.5,31.7v1.1l2.4,.3Z" class="g2_1" />
<path d="M311.3,31.3l2.2,1.5V31.7Z" class="g2_1" />
<path d="M311.3,31.3v.9l2.2,.6Z" class="g2_1" />
<path d="M308.9,30.7l2.4,1.5v-.9Z" class="g2_1" />
<path d="M308.9,30.7v1l2.4,.5Z" class="g2_1" />
<path d="M306.5,30.2l2.4,1.5v-1Z" class="g2_1" />
<path d="M306.5,30.2v1.1l2.4,.4Z" class="g2_1" />
<path d="M304.2,29.8l2.3,1.5V30.2Z" class="g2_1" />
<path d="M304.2,29.8v.9l2.3,.6Z" class="g2_1" />
<path d="M304.2,29.8l-.6,.4Z" class="g2_1" />
<path d="M301.8,29.8l2.4,.9v-.9Z" class="g2_1" />
<path d="M304.2,30.7h-2.4v-.9Z" class="g2_1" />
<path d="M301.8,30.7v0v-.5Z" class="g2_1" />
<path d="M301.8,30.7v0Z" class="g2_1" />
<path d="M299.4,29.3l2.4,1.4v-.9Z" class="g2_1" />
<path d="M299.4,29.3v.9l2.4,.5Z" class="g2_1" />
<path d="M299.4,29.3l-.6,.5Z" class="g2_1" />
<path d="M297,29.3l2.4,.9v-.9Z" class="g2_1" />
<path d="M299.4,30.2H297v-.9Z" class="g2_1" />
<path d="M297,30.2v-.4Z" class="g2_1" />
<path d="M294.6,28.7l2.4,1.5v-.9Z" class="g2_1" />
<path d="M294.6,28.7v1.1l2.4,.4Z" class="g2_1" />
<path d="M294.6,28.7v0l-.5,.6Z" class="g2_1" />
<path d="M294.6,28.7v0Z" class="g2_1" />
<path d="M292.2,28.7l2.4,1.1V28.7Z" class="g2_1" />
<path d="M294.6,29.8h-2.4V28.7Z" class="g2_1" />
<path d="M292.2,29.8v-.5Z" class="g2_1" />
<path d="M289.3,28.4l2.9,1.4V28.7Z" class="g2_1" />
<path d="M289.3,28.4v.9l2.9,.5Z" class="g2_1" />
<path d="M289.3,28.4v.3Z" class="g2_1" />
<path d="M289.3,28.4v0Z" class="g2_1" />
<path d="M286.9,28.4l2.4,.9v-.9Z" class="g2_1" />
<path d="M289.3,29.3h-2.4v-.9Z" class="g2_1" />
<path d="M284.5,28.4l2.4,.9v-.9Z" class="g2_1" />
<path d="M286.9,29.3h-2.4v-.9Z" class="g2_1" />
<path d="M282.3,28.4l2.2,.9v-.9Z" class="g2_1" />
<path d="M284.5,29.3h-2.2v-.9Z" class="g2_1" />
<path d="M280,28.4l2.3,.9v-.9Z" class="g2_1" />
<path d="M282.3,29.3H280v-.9Z" class="g2_1" />
<path d="M277.6,28.4l2.4,.9v-.9Z" class="g2_1" />
<path d="M280,29.3h-2.4v-.9Z" class="g2_1" />
<path d="M275.2,28.4l2.4,.9v-.9Z" class="g2_1" />
<path d="M277.6,29.3h-2.4v-.9Z" class="g2_1" />
<path d="M275.2,28.4v.3Z" class="g2_1" />
<path d="M275.2,28.4v0Z" class="g2_1" />
<path d="M272.2,28.7l3,.6v-.9Z" class="g2_1" />
<path d="M272.2,28.7v1.1l3,-.5Z" class="g2_1" />
<path d="M272.2,29.8v-.5Z" class="g2_1" />
<path d="M269.9,28.7l2.3,1.1V28.7Z" class="g2_1" />
<path d="M272.2,29.8h-2.3V28.7Z" class="g2_1" />
<path d="M269.9,28.7v.6Z" class="g2_1" />
<path d="M269.9,28.7v0Z" class="g2_1" />
<path d="M267.5,29.3l2.4,.5V28.7Z" class="g2_1" />
<path d="M267.5,29.3v.9l2.4,-.4Z" class="g2_1" />
<path d="M267.5,30.2v-.4Z" class="g2_1" />
<path d="M265.1,29.3l2.4,.9v-.9Z" class="g2_1" />
<path d="M267.5,30.2h-2.4v-.9Z" class="g2_1" />
<path d="M265.1,29.3v.5Z" class="g2_1" />
<path d="M262.7,29.8l2.4,.4v-.9Z" class="g2_1" />
<path d="M262.7,29.8v.9l2.4,-.5Z" class="g2_1" />
<path d="M262.7,30.7v0v-.5Z" class="g2_1" />
<path d="M262.7,30.7v0Z" class="g2_1" />
<path d="M260.3,29.8l2.4,.9v-.9Z" class="g2_1" />
<path d="M262.7,30.7h-2.4v-.9Z" class="g2_1" />
<path d="M260.3,29.8v.4Z" class="g2_1" />
<path d="M257.9,30.2l2.4,.5v-.9Z" class="g2_1" />
<path d="M257.9,30.2v1.1l2.4,-.6Z" class="g2_1" />
<path d="M255.6,30.7l2.3,.6V30.2Z" class="g2_1" />
<path d="M255.6,30.7v1l2.3,-.4Z" class="g2_1" />
<path d="M253.4,31.3l2.2,.4v-1Z" class="g2_1" />
<path d="M253.4,31.3v.9l2.2,-.5Z" class="g2_1" />
<path d="M251,31.7l2.4,.5v-.9Z" class="g2_1" />
<path d="M251,31.7v1.1l2.4,-.6Z" class="g2_1" />
<path d="M248.6,32.2l2.4,.6V31.7Z" class="g2_1" />
<path d="M248.6,32.2v.9l2.4,-.3Z" class="g2_1" />
<path d="M248.6,32.2v.6Z" class="g2_1" />
<path d="M246.2,33.1h2.4v-.9Z" class="g2_1" />
<path d="M246.2,33.1v1.1l2.4,-1.1Z" class="g2_1" />
<path d="M246.2,34.2v-.5Z" class="g2_1" />
<path d="M243.8,33.7l2.4,.5V33.1Z" class="g2_1" />
<path d="M243.8,33.7v.9l2.4,-.4Z" class="g2_1" />
<path d="M241.4,34.2l2.4,.4v-.9Z" class="g2_1" />
<path d="M241.4,34.2v.9l2.4,-.5Z" class="g2_1" />
<path d="M241.4,34.2v.4Z" class="g2_1" />
<path d="M239.1,35.1h2.3v-.9Z" class="g2_1" />
<path d="M239.1,35.1v1l2.3,-1Z" class="g2_1" />
<path d="M236.7,36.1h2.4v-1Z" class="g2_1" />
<path d="M236.7,36.1v1.1l2.4,-1.1Z" class="g2_1" />
<path d="M236.7,37.2v-.6Z" class="g2_1" />
<path d="M234.3,36.6l2.4,.6V36.1Z" class="g2_1" />
<path d="M234.3,36.6v.9l2.4,-.3Z" class="g2_1" />
<path d="M234.3,36.6v.6Z" class="g2_1" />
<path d="M231.9,37.5h2.4v-.9Z" class="g2_1" />
<path d="M231.9,37.5v1.1l2.4,-1.1Z" class="g2_1" />
<path d="M229.5,38.6h2.4V37.5Z" class="g2_1" />
<path d="M229.5,38.6v.9l2.4,-.9Z" class="g2_1" />
<path d="M229.5,38.6V39Z" class="g2_1" />
<path d="M227.7,39.5h1.8v-.9Z" class="g2_1" />
<path d="M227.7,39.5v1l1.8,-1Z" class="g2_1" />
<path d="M227.7,40.5v-.4Z" class="g2_1" />
<path d="M225.3,40.5h2.4v-1Z" class="g2_1" />
<path d="M225.3,40.5v1.1l2.4,-1.1Z" class="g2_1" />
<path d="M222.9,41.6h2.4V40.5Z" class="g2_1" />
<path d="M222.9,41.6v.9l2.4,-.9Z" class="g2_1" />
<path d="M220.6,42.5h2.3v-.9Z" class="g2_1" />
<path d="M220.6,42.5v.9l2.3,-.9Z" class="g2_1" />
<path d="M220.6,42.5V43Z" class="g2_1" />
<path d="M220.6,42.5v0Z" class="g2_1" />
<path d="M218.5,43.4h2.1v-.9Z" class="g2_1" />
<path d="M218.5,43.4v1.1l2.1,-1.1Z" class="g2_1" />
<path d="M218.2,43.4h.3v.5Z" class="g2_1" />
<path d="M218.2,43.4h.3Z" class="g2_1" />
<path d="M215.8,44.9l3.3,-.4l-.9,-1.1Z" class="g2_1" />
<path d="M215.8,44.9l.9,1.1l2.4,-1.5Z" class="g2_1" />
<path d="M216.1,46h.6l-.6,-.6Z" class="g2_1" />
<path d="M216.1,46h.6Z" class="g2_1" />
<path d="M213.9,46h2.2V44.9Z" class="g2_1" />
<path d="M213.9,46v.9l2.2,-.9Z" class="g2_1" />
<path d="M213.9,46v.3Z" class="g2_1" />
<path d="M211.9,46.9h2V46Z" class="g2_1" />
<path d="M211.9,46.9v.9l2,-.9Z" class="g2_1" />
<path d="M211.6,46.9h.3v.5Z" class="g2_1" />
<path d="M211.6,46.9h.3Z" class="g2_1" />
<path d="M209.2,48.3l3.3,-.5l-.9,-.9Z" class="g2_1" />
<path d="M209.2,48.3l.9,1l2.4,-1.5Z" class="g2_1" />
<path d="M209.2,48.3l.4,.6Z" class="g2_1" />
<path d="M207.2,49.8l2.9,-.5l-.9,-1Z" class="g2_1" />
<path d="M207.2,49.8l.9,.9l2,-1.4Z" class="g2_1" />
<path d="M207.7,50.7h.4l-.4,-.3Z" class="g2_1" />
<path d="M207.7,50.7h.4Z" class="g2_1" />
<path d="M205.3,50.7h2.4v-.9Z" class="g2_1" />
<path d="M205.3,50.7v1.1l2.4,-1.1Z" class="g2_1" />
<path d="M204.8,50.7h.5v.6Z" class="g2_1" />
<path d="M204.8,50.7h.5Z" class="g2_1" />
<path d="M202.9,52.2l2.8,-.4l-.9,-1.1Z" class="g2_1" />
<path d="M202.9,52.2l1,1.1l1.8,-1.5Z" class="g2_1" />
<path d="M203.9,53.3l-.4,-.6Z" class="g2_1" />
<path d="M200.6,53.7l3.3,-.4l-1,-1.1Z" class="g2_1" />
<path d="M200.6,53.7l.9,1.1l2.4,-1.5Z" class="g2_1" />
<path d="M200.6,53.7v0l.5,.5Z" class="g2_1" />
<path d="M200.6,53.7v0Z" class="g2_1" />
<path d="M198.7,55.1l2.8,-.3l-.9,-1.1Z" class="g2_1" />
<path d="M198.7,55.1l.9,1.1l1.9,-1.4Z" class="g2_1" />
<path d="M196.7,56.6l2.9,-.4l-.9,-1.1Z" class="g2_1" />
<path d="M196.7,56.6l.9,1.1l2,-1.5Z" class="g2_1" />
<path d="M197.6,57.7l-.3,-.6Z" class="g2_1" />
<path d="M194.3,58.2l3.3,-.5l-.9,-1.1Z" class="g2_1" />
<path d="M194.3,58.2l1.1,1l2.2,-1.5Z" class="g2_1" />
<path d="M194.3,58.2v0l.6,.4Z" class="g2_1" />
<path d="M194.3,58.2v0Z" class="g2_1" />
<path d="M192.5,59.7l2.9,-.5l-1.1,-1Z" class="g2_1" />
<path d="M192.5,59.7l.9,.9l2,-1.4Z" class="g2_1" />
<path d="M190.7,61.2l2.7,-.6l-.9,-.9Z" class="g2_1" />
<path d="M190.7,61.2l.9,.9l1.8,-1.5Z" class="g2_1" />
<path d="M190.7,61.2l.3,.3Z" class="g2_1" />
<path d="M188.6,63l3,-.9l-.9,-.9Z" class="g2_1" />
<path d="M188.6,63l1,1.1l2,-2Z" class="g2_1" />
<path d="M189.6,64.1l-.4,-.5Z" class="g2_1" />
<path d="M186.8,64.5l2.8,-.4l-1,-1.1Z" class="g2_1" />
<path d="M186.8,64.5l.9,1.1l1.9,-1.5Z" class="g2_1" />
<path d="M185,65.9l2.7,-.3l-.9,-1.1Z" class="g2_1" />
<path d="M185,65.9l.9,1.1l1.8,-1.4Z" class="g2_1" />
<path d="M185,65.9l.3,.6Z" class="g2_1" />
<path d="M183,68l2.9,-1L185,65.9Z" class="g2_1" />
<path d="M183,68l.9,.9l2,-1.9Z" class="g2_1" />
<path d="M183.5,68.5L183,68Z" class="g2_1" />
<path d="M181.1,70l2.8,-1.1L183,68Z" class="g2_1" />
<path d="M181.1,70l1,.9l1.8,-2Z" class="g2_1" />
<path d="M182.1,70.9l-.6,-.6Z" class="g2_1" />
<path d="M179.1,71.4l3,-.5l-1,-.9Z" class="g2_1" />
<path d="M179.1,71.4l1.1,1l1.9,-1.5Z" class="g2_1" />
<path d="M179.1,71.4l.6,.4Z" class="g2_1" />
<path d="M177.3,73.3l2.9,-.9l-1.1,-1Z" class="g2_1" />
<path d="M177.3,73.3l.9,1.1l2,-2Z" class="g2_1" />
<path d="M177.8,73.8l-.5,-.5Z" class="g2_1" />
<path d="M175.4,75.3l2.8,-.9l-.9,-1.1Z" class="g2_1" />
<path d="M175.4,75.3l1,.9l1.8,-1.8Z" class="g2_1" />
<path d="M175.8,75.8l-.4,-.5Z" class="g2_1" />
<path d="M174,76.8l2.4,-.6l-1,-.9Z" class="g2_1" />
<path d="M174,76.8l.9,.9l1.5,-1.5Z" class="g2_1" />
<path d="M174.5,77.3l-.5,-.5Z" class="g2_1" />
<path d="M174,76.8v0Z" class="g2_1" />
<path d="M172.1,78.8l2.8,-1.1l-.9,-.9Z" class="g2_1" />
<path d="M172.1,78.8l1,.9l1.8,-2Z" class="g2_1" />
<path d="M172.1,78.8v0l.4,.3Z" class="g2_1" />
<path d="M172.1,78.8v0Z" class="g2_1" />
<path d="M170.7,80.6l2.4,-.9l-1,-.9Z" class="g2_1" />
<path d="M170.7,80.6l.9,1.1l1.5,-2Z" class="g2_1" />
<path d="M171.6,81.7l-.5,-.5Z" class="g2_1" />
<path d="M168.7,82.6l2.9,-.9l-.9,-1.1Z" class="g2_1" />
<path d="M168.7,82.6l1.1,.9l1.8,-1.8Z" class="g2_1" />
<path d="M168.7,82.6l.5,.6Z" class="g2_1" />
<path d="M167.4,84.6l2.4,-1.1l-1.1,-.9Z" class="g2_1" />
<path d="M167.4,84.6l.9,1l1.5,-2.1Z" class="g2_1" />
<path d="M168.3,85.6v0l-.5,-.6Z" class="g2_1" />
<path d="M168.3,85.6v0Z" class="g2_1" />
<path d="M165.4,87l2.9,-1.4l-.9,-1Z" class="g2_1" />
<path d="M165.4,87l1.1,.9l1.8,-2.3Z" class="g2_1" />
<path d="M165.4,87l.5,.6Z" class="g2_1" />
<path d="M164.1,89l2.4,-1.1L165.4,87Z" class="g2_1" />
<path d="M164.1,89l.9,1l1.5,-2.1Z" class="g2_1" />
<path d="M165,90l-.5,-.4Z" class="g2_1" />
<path d="M162.1,91.1L165,90l-.9,-1Z" class="g2_1" />
<path d="M162.1,91.1l.9,.9l2,-2Z" class="g2_1" />
<path d="M162.1,91.1l.5,.3Z" class="g2_1" />
<path d="M160.6,92.9L163,92l-.9,-.9Z" class="g2_1" />
<path d="M160.6,92.9l1.1,1.1L163,92Z" class="g2_1" />
<path d="M160.6,92.9v0l.5,.5Z" class="g2_1" />
<path d="M160.6,92.9v0Z" class="g2_1" />
<path d="M159.3,95.5L161.7,94l-1.1,-1.1Z" class="g2_1" />
<path d="M159.3,95.5l.9,.9L161.7,94Z" class="g2_1" />
<path d="M160.2,96.4l-.5,-.6Z" class="g2_1" />
<path d="M157.8,97.3l2.4,-.9l-.9,-.9Z" class="g2_1" />
<path d="M157.8,97.3l1,1.1l1.4,-2Z" class="g2_1" />
<path d="M156.4,99.3l2.4,-.9l-1,-1.1Z" class="g2_1" />
<path d="M156.4,99.3l.9,.9l1.5,-1.8Z" class="g2_1" />
<path d="M156.4,99.3v0l.5,.6Z" class="g2_1" />
<path d="M156.4,99.3v0Z" class="g2_1" />
<path d="M154.9,101.7l2.4,-1.5l-.9,-.9Z" class="g2_1" />
<path d="M154.9,101.7l1.1,1.1l1.3,-2.6Z" class="g2_1" />
<path d="M153.6,104.3l2.4,-1.5l-1.1,-1.1Z" class="g2_1" />
<path d="M153.6,104.3l1,.9l1.4,-2.4Z" class="g2_1" />
<path d="M154.6,105.2l-.6,-.6Z" class="g2_1" />
<path d="M152.2,106.1l2.4,-.9l-1,-.9Z" class="g2_1" />
<path d="M152.2,106.1l.9,1.1l1.5,-2Z" class="g2_1" />
<path d="M152.2,106.1l.3,.5Z" class="g2_1" />
<path d="M150.7,108.7l2.4,-1.5l-.9,-1.1Z" class="g2_1" />
<path d="M150.7,108.7l.9,.9l1.5,-2.4Z" class="g2_1" />
<path d="M150.7,109v-.3l.6,.3Z" class="g2_1" />
<path d="M150.7,109v0v-.3Z" class="g2_1" />
<path d="M149.8,111.6l1.8,-2.6h-.9Z" class="g2_1" />
<path d="M149.8,111.6h.9l.9,-2.6Z" class="g2_1" />
<path d="M150.7,112v-.4h-.6Z" class="g2_1" />
<path d="M150.7,112v-.4Z" class="g2_1" />
<path d="M148.3,113.1l2.4,-1.1l-.9,-1Z" class="g2_1" />
<path d="M148.3,113.1l.9,.9l1.5,-2Z" class="g2_1" />
<path d="M148.3,113.1l.6,.3Z" class="g2_1" />
<path d="M146.8,115.4l2.4,-1.4l-.9,-.9Z" class="g2_1" />
<path d="M146.8,115.4l1,1l1.4,-2.4Z" class="g2_1" />
<path d="M146.8,116v-.6l.6,.6Z" class="g2_1" />
<path d="M146.8,116v-.6Z" class="g2_1" />
<path d="M145.9,118.4l1.9,-2.4h-1Z" class="g2_1" />
<path d="M145.9,118.4h.9l1,-2.4Z" class="g2_1" />
<path d="M146.8,118.9v-.5h-.3Z" class="g2_1" />
<path d="M146.8,118.9v-.5Z" class="g2_1" />
<path d="M144.5,120.4l2.3,-1.5l-.9,-1.1Z" class="g2_1" />
<path d="M144.5,120.4l1.1,.9l1.2,-2.4Z" class="g2_1" />
<path d="M144.5,120.9v-.5l.5,.5Z" class="g2_1" />
<path d="M144.5,120.9v-.5Z" class="g2_1" />
<path d="M143.6,123.3l2,-2.4h-1.1Z" class="g2_1" />
<path d="M143.6,123.3h.9l1.1,-2.4Z" class="g2_1" />
<path d="M142.6,125.7l1.9,-2.4h-.9Z" class="g2_1" />
<path d="M142.6,125.7h1l.9,-2.4Z" class="g2_1" />
<path d="M141.7,128.3l1.9,-2.6h-1Z" class="g2_1" />
<path d="M141.7,128.3h.9l1,-2.6Z" class="g2_1" />
<path d="M142.6,128.6v-.3h-.5Z" class="g2_1" />
<path d="M142.6,128.6v-.3Z" class="g2_1" />
<path d="M140.3,130.1l2.3,-1.5l-.9,-.9Z" class="g2_1" />
<path d="M140.3,130.1l.9,1.1l1.4,-2.6Z" class="g2_1" />
<path d="M140.3,130.7v-.6l.5,.6Z" class="g2_1" />
<path d="M140.3,130.7v-.6Z" class="g2_1" />
<path d="M139.3,133l1.9,-2.3h-.9Z" class="g2_1" />
<path d="M139.3,133h1l.9,-2.3Z" class="g2_1" />
<path d="M138.4,135.6l1.9,-2.6h-1Z" class="g2_1" />
<path d="M138.4,135.6h.9l1,-2.6Z" class="g2_1" />
<path d="M137.5,138l1.8,-2.4h-.9Z" class="g2_1" />
<path d="M137.5,138h.9l.9,-2.4Z" class="g2_1" />
<path d="M137.5,138h.4Z" class="g2_1" />
<path d="M137,140.4l1.4,-2.4h-.9Z" class="g2_1" />
<path d="M137,140.4h.9l.5,-2.4Z" class="g2_1" />
<path d="M137.9,140.4h-.4Z" class="g2_1" />
<path d="M136,142.9l1.9,-2.5H137Z" class="g2_1" />
<path d="M136,142.9h1l.9,-2.5Z" class="g2_1" />
<path d="M136,142.9v0h.4Z" class="g2_1" />
<path d="M136,142.9v0Z" class="g2_1" />
<path d="M135.1,145.9l1.9,-3h-1Z" class="g2_1" />
<path d="M135.1,145.9h.9l1,-3Z" class="g2_1" />
<path d="M136,145.9h-.5Z" class="g2_1" />
<path d="M134,148.3l2,-2.4h-.9Z" class="g2_1" />
<path d="M134,148.3h1.1l.9,-2.4Z" class="g2_1" />
<path d="M134,148.3h.6Z" class="g2_1" />
<path d="M133.6,150.8l1.5,-2.5H134Z" class="g2_1" />
<path d="M133.6,150.8h1l.5,-2.5Z" class="g2_1" />
<path d="M134.6,150.8H134Z" class="g2_1" />
<path d="M132.7,153.8l1.9,-3h-1Z" class="g2_1" />
<path d="M132.7,153.8h.9l1,-3Z" class="g2_1" />
<path d="M132.7,153.8h.4Z" class="g2_1" />
<path d="M132.2,156.1l1.4,-2.3h-.9Z" class="g2_1" />
<path d="M132.2,156.1h.9l.5,-2.3Z" class="g2_1" />
<path d="M131.6,158.5l1.5,-2.4h-.9Z" class="g2_1" />
<path d="M131.6,158.5h1.1l.4,-2.4Z" class="g2_1" />
<path d="M131.6,158.5h.6Z" class="g2_1" />
<path d="M131.3,161.5l1.4,-3h-1.1Z" class="g2_1" />
<path d="M131.3,161.5h.9l.5,-3Z" class="g2_1" />
<path d="M132.2,161.5v0h-.6Z" class="g2_1" />
<path d="M132.2,161.5v0Z" class="g2_1" />
<path d="M130.3,164l1.9,-2.5h-.9Z" class="g2_1" />
<path d="M130.3,164h1l.9,-2.5Z" class="g2_1" />
<path d="M130.3,164v0h.4Z" class="g2_1" />
<path d="M130.3,164v0Z" class="g2_1" />
<path d="M129.8,166.4l1.5,-2.4h-1Z" class="g2_1" />
<path d="M129.8,166.4h.9l.6,-2.4Z" class="g2_1" />
<path d="M129.8,166.4h.5Z" class="g2_1" />
<path d="M129.3,169.3l1.4,-2.9h-.9Z" class="g2_1" />
<path d="M129.3,169.3h1l.4,-2.9Z" class="g2_1" />
<path d="M130.3,169.3h-.5Z" class="g2_1" />
<path d="M128.9,171.7l1.4,-2.4h-1Z" class="g2_1" />
<path d="M128.9,171.7h.9l.5,-2.4Z" class="g2_1" />
<path d="M128.9,171.7h.4Z" class="g2_1" />
<path d="M128.9,174.7l.9,-3h-.9Z" class="g2_1" />
<path d="M128.9,174.7h.9v-3Z" class="g2_1" />
<path d="M129.8,174.7h-.5Z" class="g2_1" />
<path d="M128.3,177.2l1.5,-2.5h-.9Z" class="g2_1" />
<path d="M128.3,177.2h1l.5,-2.5Z" class="g2_1" />
<path d="M128.3,177.2h.6Z" class="g2_1" />
<path d="M128,180.2l1.3,-3h-1Z" class="g2_1" />
<path d="M128,180.2h.9l.4,-3Z" class="g2_1" />
<path d="M128.9,180.2h-.6Z" class="g2_1" />
<path d="M127.4,182.5l1.5,-2.3H128Z" class="g2_1" />
<path d="M127.4,182.5h.9l.6,-2.3Z" class="g2_1" />
<path d="M127.4,182.5h.6Z" class="g2_1" />
<path d="M127.4,185.5l.9,-3h-.9Z" class="g2_1" />
<path d="M127.4,185.5h.9v-3Z" class="g2_1" />
<path d="M127.4,188l.9,-2.5h-.9Z" class="g2_1" />
<path d="M127.4,188h.9v-2.5Z" class="g2_1" />
<path d="M128.3,188H128Z" class="g2_1" />
<path d="M127.1,191l1.2,-3h-.9Z" class="g2_1" />
<path d="M127.1,191h.9l.3,-3Z" class="g2_1" />
<path d="M127.1,191l.3,.3Z" class="g2_1" />
<path d="M127.1,193.4L128,191h-.9Z" class="g2_1" />
<path d="M127.1,193.4h.9V191Z" class="g2_1" />
<path d="M127.1,196.3l.9,-2.9h-.9Z" class="g2_1" />
<path d="M127.1,196.3h.9v-2.9Z" class="g2_1" />
<path d="M127.1,198.7l.9,-2.4h-.9Z" class="g2_1" />
<path d="M127.1,198.7h.9v-2.4Z" class="g2_1" />
<path d="M127.1,201.6l.9,-2.9h-.9Z" class="g2_1" />
<path d="M127.1,201.6h.9v-2.9Z" class="g2_1" />
<path d="M127.1,204.5l.9,-2.9h-.9Z" class="g2_1" />
<path d="M127.1,204.5h.9v-2.9Z" class="g2_1" />
<path d="M127.1,207.1l.9,-2.6h-.9Z" class="g2_1" />
<path d="M127.1,207.1h.9v-2.6Z" class="g2_1" />
<path d="M127.1,210l.9,-2.9h-.9Z" class="g2_1" />
<path d="M127.1,210h.9v-2.9Z" class="g2_1" />
<path d="M127.1,212.4L128,210h-.9Z" class="g2_1" />
<path d="M127.1,212.4h.9V210Z" class="g2_1" />
<path d="M127.1,212.4h.3Z" class="g2_1" />
<path d="M127.4,215.4l.6,-3h-.9Z" class="g2_1" />
<path d="M127.4,215.4h.9l-.3,-3Z" class="g2_1" />
<path d="M128.3,215.4l-.3,.5Z" class="g2_1" />
<path d="M127.4,217.9l.9,-2.5h-.9Z" class="g2_1" />
<path d="M127.4,217.9h.9v-2.5Z" class="g2_1" />
<path d="M127.4,220.9l.9,-3h-.9Z" class="g2_1" />
<path d="M127.4,220.9h.9v-3Z" class="g2_1" />
<path d="M127.4,220.9v0h.6Z" class="g2_1" />
<path d="M127.4,220.9v0Z" class="g2_1" />
<path d="M128,223.2l.3,-2.3h-.9Z" class="g2_1" />
<path d="M128,223.2h.9l-.6,-2.3Z" class="g2_1" />
<path d="M128.9,223.2v0h-.6Z" class="g2_1" />
<path d="M128.9,223.2v0Z" class="g2_1" />
<path d="M128.3,226.2l.6,-3H128Z" class="g2_1" />
<path d="M128.3,226.2h1l-.4,-3Z" class="g2_1" />
<path d="M128.3,226.2h.6Z" class="g2_1" />
<path d="M128.9,228.6l.4,-2.4h-1Z" class="g2_1" />
<path d="M128.9,228.6h.9l-.5,-2.4Z" class="g2_1" />
<path d="M129.8,228.6h-.5Z" class="g2_1" />
<path d="M128.9,231.5l.9,-2.9h-.9Z" class="g2_1" />
<path d="M128.9,231.5h.9v-2.9Z" class="g2_1" />
<path d="M128.9,231.5h.4Z" class="g2_1" />
<path d="M129.3,234.1l.5,-2.6h-.9Z" class="g2_1" />
<path d="M129.3,234.1h1l-.5,-2.6Z" class="g2_1" />
<path d="M130.3,234.1h-.5Z" class="g2_1" />
<path d="M129.8,237l.5,-2.9h-1Z" class="g2_1" />
<path d="M129.8,237h.9l-.4,-2.9Z" class="g2_1" />
<path d="M129.8,237v0h.5Z" class="g2_1" />
<path d="M129.8,237v0Z" class="g2_1" />
<path d="M130.3,239.4l.4,-2.4h-.9Z" class="g2_1" />
<path d="M130.3,239.4h1l-.6,-2.4Z" class="g2_1" />
<path d="M130.3,239.4v0h.4Z" class="g2_1" />
<path d="M130.3,239.4v0Z" class="g2_1" />
<path d="M131.3,241.8v-2.4h-1Z" class="g2_1" />
<path d="M131.3,241.8h.9l-.9,-2.4Z" class="g2_1" />
<path d="M132.2,241.8v0h-.6Z" class="g2_1" />
<path d="M132.2,241.8v0Z" class="g2_1" />
<path d="M131.6,244.9l.6,-3.1h-.9Z" class="g2_1" />
<path d="M131.6,244.9h1.1l-.5,-3.1Z" class="g2_1" />
<path d="M131.6,244.9h.6Z" class="g2_1" />
<path d="M132.2,247.3l.5,-2.4h-1.1Z" class="g2_1" />
<path d="M132.2,247.3h.9l-.4,-2.4Z" class="g2_1" />
<path d="M132.7,249.6l.4,-2.3h-.9Z" class="g2_1" />
<path d="M132.7,249.6h.9l-.5,-2.3Z" class="g2_1" />
<path d="M132.7,249.6h.4Z" class="g2_1" />
<path d="M132.7,249.6h.9v3Z" class="g2_1" />
<path d="M133.6,252.6h1l-1,-3Z" class="g2_1" />
<path d="M134.6,252.6H134Z" class="g2_1" />
<path d="M134,255.1l.6,-2.5h-1Z" class="g2_1" />
<path d="M134,255.1h1.1l-.5,-2.5Z" class="g2_1" />
<path d="M134,255.1h.6Z" class="g2_1" />
<path d="M135.1,257.5v-2.4H134Z" class="g2_1" />
<path d="M135.1,257.5h.9l-.9,-2.4Z" class="g2_1" />
<path d="M136,257.5v0h-.5Z" class="g2_1" />
<path d="M136,257.5v0Z" class="g2_1" />
<path d="M135.1,257.5h.9v3Z" class="g2_1" />
<path d="M136,260.5h1l-1,-3Z" class="g2_1" />
<path d="M136,260.5h.4Z" class="g2_1" />
<path d="M136,260.5h1v2.3Z" class="g2_1" />
<path d="M137,262.8h.9l-.9,-2.3Z" class="g2_1" />
<path d="M137.9,262.8h-.4Z" class="g2_1" />
<path d="M137.5,265.4l.4,-2.6H137Z" class="g2_1" />
<path d="M137.5,265.4h.9l-.5,-2.6Z" class="g2_1" />
<path d="M137.5,265.4h.4Z" class="g2_1" />
<path d="M137.5,265.4h.9v2.4Z" class="g2_1" />
<path d="M138.4,267.8h.9l-.9,-2.4Z" class="g2_1" />
<path d="M138.4,267.8h.9v2.4Z" class="g2_1" />
<path d="M139.3,270.2h1l-1,-2.4Z" class="g2_1" />
<path d="M139.3,270.2h1v2.5Z" class="g2_1" />
<path d="M140.3,272.7h.9l-.9,-2.5Z" class="g2_1" />
<path d="M140.3,273.1v-.4h.5Z" class="g2_1" />
<path d="M140.3,273.1v-.4Z" class="g2_1" />
<path d="M141.7,275.7l-.5,-3.5l-.9,.9Z" class="g2_1" />
<path d="M141.7,275.7l.9,-1.1l-1.4,-2.4Z" class="g2_1" />
<path d="M142.6,275.1v-.5l-.5,.5Z" class="g2_1" />
<path d="M142.6,275.1v-.5Z" class="g2_1" />
<path d="M141.7,275.1h.9v2.6Z" class="g2_1" />
<path d="M142.6,277.7h1l-1,-2.6Z" class="g2_1" />
<path d="M142.6,277.7h1v2.4Z" class="g2_1" />
<path d="M143.6,280.1h.9l-.9,-2.4Z" class="g2_1" />
<path d="M143.6,280.1h.9v2.4Z" class="g2_1" />
<path d="M144.5,280.1l1.1,2.4h-1.1Z" class="g2_1" />
<path d="M144.5,283v-.5h.5Z" class="g2_1" />
<path d="M144.5,283v-.5Z" class="g2_1" />
<path d="M144.5,283l1.1,-.9l.3,3.3Z" class="g2_1" />
<path d="M145.9,285.4l.9,-.9l-1.2,-2.4Z" class="g2_1" />
<path d="M146.8,285v-.5l-.3,.5Z" class="g2_1" />
<path d="M146.8,285v-.5Z" class="g2_1" />
<path d="M145.9,285h.9v2.4Z" class="g2_1" />
<path d="M146.8,287.4h1l-1,-2.4Z" class="g2_1" />
<path d="M146.8,288v-.6h.6Z" class="g2_1" />
<path d="M146.8,288v-.6Z" class="g2_1" />
<path d="M148.3,290.3l-.5,-3.4l-1,1.1Z" class="g2_1" />
<path d="M148.3,290.3l.9,-.9l-1.4,-2.5Z" class="g2_1" />
<path d="M148.3,290.3l.6,-.5Z" class="g2_1" />
<path d="M149.8,292.4l-.6,-3l-.9,.9Z" class="g2_1" />
<path d="M149.8,292.4l.9,-1.1l-1.5,-1.9Z" class="g2_1" />
<path d="M150.7,291.8v-.5l-.6,.5Z" class="g2_1" />
<path d="M150.7,291.8v-.5Z" class="g2_1" />
<path d="M149.8,291.8h.9v2.4Z" class="g2_1" />
<path d="M150.7,294.2h.9l-.9,-2.4Z" class="g2_1" />
<path d="M150.7,294.7v-.5h.6Z" class="g2_1" />
<path d="M150.7,294.7v-.5Z" class="g2_1" />
<path d="M152.2,297.1l-.6,-3.3l-.9,.9Z" class="g2_1" />
<path d="M152.2,297.1l.9,-.9l-1.5,-2.4Z" class="g2_1" />
<path d="M152.2,297.1l.3,-.3Z" class="g2_1" />
<path d="M153.6,299.1l-.5,-2.9l-.9,.9Z" class="g2_1" />
<path d="M153.6,299.1l1,-.9l-1.5,-2Z" class="g2_1" />
<path d="M154.6,298.2l-.6,.4Z" class="g2_1" />
<path d="M154.9,301.5l-.3,-3.3l-1,.9Z" class="g2_1" />
<path d="M154.9,301.5l1.1,-.9l-1.4,-2.4Z" class="g2_1" />
<path d="M156.4,304.1l-.4,-3.5l-1.1,.9Z" class="g2_1" />
<path d="M156.4,304.1l.9,-1.1L156,300.6Z" class="g2_1" />
<path d="M156.4,304.1l.5,-.6Z" class="g2_1" />
<path d="M157.8,306.1l-.5,-3.1l-.9,1.1Z" class="g2_1" />
<path d="M157.8,306.1l1,-1.1l-1.5,-2Z" class="g2_1" />
<path d="M159.3,307.9l-.5,-2.9l-1,1.1Z" class="g2_1" />
<path d="M159.3,307.9l.9,-.9l-1.4,-2Z" class="g2_1" />
<path d="M160.2,307l-.5,.6Z" class="g2_1" />
<path d="M160.6,310.5l-.4,-3.5l-.9,.9Z" class="g2_1" />
<path d="M160.6,310.5l1.1,-1.1L160.2,307Z" class="g2_1" />
<path d="M160.6,310.5v0l.5,-.5Z" class="g2_1" />
<path d="M160.6,310.5v0Z" class="g2_1" />
<path d="M162.1,312.3l-.4,-2.9l-1.1,1.1Z" class="g2_1" />
<path d="M162.1,312.3l.9,-.9l-1.3,-2Z" class="g2_1" />
<path d="M162.1,312.3l.5,-.3Z" class="g2_1" />
<path d="M164.1,314.4l-1.1,-3l-.9,.9Z" class="g2_1" />
<path d="M164.1,314.4l.9,-1l-2,-2Z" class="g2_1" />
<path d="M165,313.4l-.5,.4Z" class="g2_1" />
<path d="M165.4,316.4l-.4,-3l-.9,1Z" class="g2_1" />
<path d="M165.4,316.4l1.1,-1.1L165,313.4Z" class="g2_1" />
<path d="M165.4,316.4l.5,-.6Z" class="g2_1" />
<path d="M167.4,318.8l-.9,-3.5l-1.1,1.1Z" class="g2_1" />
<path d="M167.4,318.8l.9,-1l-1.8,-2.5Z" class="g2_1" />
<path d="M168.3,317.8l-.5,.4Z" class="g2_1" />
<path d="M168.7,320.8l-.4,-3l-.9,1Z" class="g2_1" />
<path d="M168.7,320.8l1.1,-1.1l-1.5,-1.9Z" class="g2_1" />
<path d="M168.7,320.8l.5,-.6Z" class="g2_1" />
<path d="M170.7,322.6l-.9,-2.9l-1.1,1.1Z" class="g2_1" />
<path d="M170.7,322.6l.9,-.9l-1.8,-2Z" class="g2_1" />
<path d="M171.6,321.7l-.5,.5Z" class="g2_1" />
<path d="M172.1,324.6l-.5,-2.9l-.9,.9Z" class="g2_1" />
<path d="M172.1,324.6l1,-.9l-1.5,-2Z" class="g2_1" />
<path d="M172.1,324.6l.4,-.5Z" class="g2_1" />
<path d="M174,326.6l-.9,-2.9l-1,.9Z" class="g2_1" />
<path d="M174,326.6l.9,-1.1l-1.8,-1.8Z" class="g2_1" />
<path d="M174.5,326.1l-.5,.5Z" class="g2_1" />
<path d="M174,326.6v0Z" class="g2_1" />
<path d="M175.4,328.1l-.5,-2.6l-.9,1.1Z" class="g2_1" />
<path d="M175.4,328.1l1,-1.1l-1.5,-1.5Z" class="g2_1" />
<path d="M175.8,327.6l-.4,.5Z" class="g2_1" />
<path d="M177.3,329.9l-.9,-2.9l-1,1.1Z" class="g2_1" />
<path d="M177.3,329.9l.9,-.9l-1.8,-2Z" class="g2_1" />
<path d="M177.8,329.6l-.5,.3Z" class="g2_1" />
<path d="M179.1,332l-.9,-3l-.9,.9Z" class="g2_1" />
<path d="M179.1,332l1.1,-1l-2,-2Z" class="g2_1" />
<path d="M179.1,332l.6,-.6Z" class="g2_1" />
<path d="M181.1,333.4l-.9,-2.4l-1.1,1Z" class="g2_1" />
<path d="M181.1,333.4l1,-.9L180.2,331Z" class="g2_1" />
<path d="M182.1,332.5l-.6,.4Z" class="g2_1" />
<path d="M183,335.4l-.9,-2.9l-1,.9Z" class="g2_1" />
<path d="M183,335.4l.9,-1.1l-1.8,-1.8Z" class="g2_1" />
<path d="M183.5,334.9l-.5,.5Z" class="g2_1" />
<path d="M185,337.5l-1.1,-3.2l-.9,1.1Z" class="g2_1" />
<path d="M185,337.5l.9,-1.1l-2,-2.1Z" class="g2_1" />
<path d="M185,337.5l.3,-.6Z" class="g2_1" />
<path d="M186.8,338.9l-.9,-2.5l-.9,1.1Z" class="g2_1" />
<path d="M186.8,338.9l.9,-1.1l-1.8,-1.4Z" class="g2_1" />
<path d="M188.6,340.4l-.9,-2.6l-.9,1.1Z" class="g2_1" />
<path d="M188.6,340.4l1,-1.1l-1.9,-1.5Z" class="g2_1" />
<path d="M189.6,339.3l-.4,.5Z" class="g2_1" />
<path d="M190.7,342.2l-1.1,-2.9l-1,1.1Z" class="g2_1" />
<path d="M190.7,342.2l.9,-.9l-2,-2Z" class="g2_1" />
<path d="M190.7,342.2l.3,-.3Z" class="g2_1" />
<path d="M192.5,343.7l-.9,-2.4l-.9,.9Z" class="g2_1" />
<path d="M192.5,343.7l.9,-.9l-1.8,-1.5Z" class="g2_1" />
<path d="M194.3,345.2l-.9,-2.4l-.9,.9Z" class="g2_1" />
<path d="M194.3,345.2l1.1,-1l-2,-1.4Z" class="g2_1" />
<path d="M194.3,345.2l.6,-.4Z" class="g2_1" />
<path d="M196.7,346.6l-1.3,-2.4l-1.1,1Z" class="g2_1" />
<path d="M196.7,346.6l.9,-.9l-2.2,-1.5Z" class="g2_1" />
<path d="M197.6,345.7l-.3,.6Z" class="g2_1" />
<path d="M198.7,348.1l-1.1,-2.4l-.9,.9Z" class="g2_1" />
<path d="M198.7,348.1l.9,-.9l-2,-1.5Z" class="g2_1" />
<path d="M200.6,349.6l-1,-2.4l-.9,.9Z" class="g2_1" />
<path d="M200.6,349.6l.9,-1l-1.9,-1.4Z" class="g2_1" />
<path d="M200.6,349.6v0l.5,-.4Z" class="g2_1" />
<path d="M200.6,349.6v0Z" class="g2_1" />
<path d="M202.9,351l-1.4,-2.4l-.9,1Z" class="g2_1" />
<path d="M202.9,351l1,-.9l-2.4,-1.5Z" class="g2_1" />
<path d="M203.9,350.1l-.4,.6Z" class="g2_1" />
<path d="M204.8,352.5l-.9,-2.4l-1,.9Z" class="g2_1" />
<path d="M204.8,352.5l.9,-.9l-1.8,-1.5Z" class="g2_1" />
<path d="M205.3,352.5h-.5l.5,-.4Z" class="g2_1" />
<path d="M205.3,352.5h-.5Z" class="g2_1" />
<path d="M207.7,353.6l-2.4,-2v.9Z" class="g2_1" />
<path d="M207.7,353.6v-1.1l-2.4,-.9Z" class="g2_1" />
<path d="M208.1,352.5h-.4v.5Z" class="g2_1" />
<path d="M208.1,352.5h-.4Z" class="g2_1" />
<path d="M209.2,355.1l-1.1,-2.6l-.9,1.1Z" class="g2_1" />
<path d="M209.2,355.1l.9,-1.1l-2,-1.5Z" class="g2_1" />
<path d="M209.2,355.1l.4,-.6Z" class="g2_1" />
<path d="M211.6,356.5L210.1,354l-.9,1.1Z" class="g2_1" />
<path d="M211.6,356.5l.9,-1.1L210.1,354Z" class="g2_1" />
<path d="M211.9,356.5h-.3l.3,-.5Z" class="g2_1" />
<path d="M211.9,356.5v0h-.3Z" class="g2_1" />
<path d="M213.9,357.4l-2,-2v1.1Z" class="g2_1" />
<path d="M213.9,357.4v-.9l-2,-1.1Z" class="g2_1" />
<path d="M213.9,357.4v-.5Z" class="g2_1" />
<path d="M216.1,358.4l-2.2,-1.9v.9Z" class="g2_1" />
<path d="M216.1,358.4v-1l-2.2,-.9Z" class="g2_1" />
<path d="M216.7,357.4h-.6v.6Z" class="g2_1" />
<path d="M216.7,357.4h-.6Z" class="g2_1" />
<path d="M218.2,359.8l-1.5,-2.4l-.9,1Z" class="g2_1" />
<path d="M218.2,359.8l.9,-.9l-2.4,-1.5Z" class="g2_1" />
<path d="M218.5,359.8h-.3l.3,-.3Z" class="g2_1" />
<path d="M218.5,359.8h-.3Z" class="g2_1" />
<path d="M220.6,360.9l-2.1,-2v.9Z" class="g2_1" />
<path d="M220.6,360.9v-1.1l-2.1,-.9Z" class="g2_1" />
<path d="M220.6,360.9v0v-.5Z" class="g2_1" />
<path d="M220.6,360.9v0Z" class="g2_1" />
<path d="M222.9,361.8l-2.3,-2v1.1Z" class="g2_1" />
<path d="M222.9,361.8v-.9l-2.3,-1.1Z" class="g2_1" />
<path d="M225.3,362.8l-2.4,-1.9v.9Z" class="g2_1" />
<path d="M225.3,362.8v-1l-2.4,-.9Z" class="g2_1" />
<path d="M227.7,363.9l-2.4,-2.1v1Z" class="g2_1" />
<path d="M227.7,363.9v-1.1l-2.4,-1Z" class="g2_1" />
<path d="M227.7,362.8v.5Z" class="g2_1" />
<path d="M229.5,364.8l-1.8,-2v1.1Z" class="g2_1" />
<path d="M229.5,364.8v-.9l-1.8,-1.1Z" class="g2_1" />
<path d="M229.5,364.8v-.6Z" class="g2_1" />
<path d="M231.9,365.7l-2.4,-1.8v.9Z" class="g2_1" />
<path d="M231.9,365.7v-.9l-2.4,-.9Z" class="g2_1" />
<path d="M234.3,366.8l-2.4,-2v.9Z" class="g2_1" />
<path d="M234.3,366.8v-1.1l-2.4,-.9Z" class="g2_1" />
<path d="M234.3,366.8v-.6Z" class="g2_1" />
<path d="M236.7,367.2l-2.4,-1.5v1.1Z" class="g2_1" />
<path d="M236.7,367.2v-1l-2.4,-.5Z" class="g2_1" />
<path d="M236.7,366.2v.6Z" class="g2_1" />
<path d="M239.1,368.3l-2.4,-2.1v1Z" class="g2_1" />
<path d="M239.1,368.3v-1.1l-2.4,-1Z" class="g2_1" />
<path d="M241.4,369.2l-2.3,-2v1.1Z" class="g2_1" />
<path d="M241.4,369.2v-.9l-2.3,-1.1Z" class="g2_1" />
<path d="M241.4,369.2v-.4Z" class="g2_1" />
<path d="M243.8,369.7l-2.4,-1.4v.9Z" class="g2_1" />
<path d="M243.8,369.7v-.9l-2.4,-.5Z" class="g2_1" />
<path d="M246.2,370.3l-2.4,-1.5v.9Z" class="g2_1" />
<path d="M246.2,370.3v-1.1l-2.4,-.4Z" class="g2_1" />
<path d="M246.2,369.2v.5Z" class="g2_1" />
<path d="M248.6,371.2l-2.4,-2v1.1Z" class="g2_1" />
<path d="M248.6,371.2v-.9l-2.4,-1.1Z" class="g2_1" />
<path d="M248.6,371.2v-.6Z" class="g2_1" />
<path d="M251,371.7l-2.4,-1.4v.9Z" class="g2_1" />
<path d="M251,371.7v-1.1l-2.4,-.3Z" class="g2_1" />
<path d="M253.4,372.1L251,370.6v1.1Z" class="g2_1" />
<path d="M253.4,372.1v-.9l-2.4,-.6Z" class="g2_1" />
<path d="M255.6,372.7l-2.2,-1.5v.9Z" class="g2_1" />
<path d="M255.6,372.7v-1l-2.2,-.5Z" class="g2_1" />
<path d="M257.9,373.2l-2.3,-1.5v1Z" class="g2_1" />
<path d="M257.9,373.2v-1.1l-2.3,-.4Z" class="g2_1" />
<path d="M260.3,373.6l-2.4,-1.5v1.1Z" class="g2_1" />
<path d="M260.3,373.6v-.9l-2.4,-.6Z" class="g2_1" />
<path d="M260.3,373.6l.6,-.4Z" class="g2_1" />
<path d="M262.7,373.6l-2.4,-.9v.9Z" class="g2_1" />
<path d="M260.3,372.7h2.4v.9Z" class="g2_1" />
<path d="M262.7,372.7v.5Z" class="g2_1" />
<path d="M265.1,374.1l-2.4,-1.4v.9Z" class="g2_1" />
<path d="M265.1,374.1v-.9l-2.4,-.5Z" class="g2_1" />
<path d="M265.1,374.1l.6,-.5Z" class="g2_1" />
<path d="M267.5,374.1l-2.4,-.9v.9Z" class="g2_1" />
<path d="M265.1,373.2h2.4v.9Z" class="g2_1" />
<path d="M267.5,373.2v.4Z" class="g2_1" />
<path d="M269.9,374.7l-2.4,-1.5v.9Z" class="g2_1" />
<path d="M269.9,374.7v-1.1l-2.4,-.4Z" class="g2_1" />
<path d="M269.9,374.7v0l.5,-.6Z" class="g2_1" />
<path d="M269.9,374.7v0Z" class="g2_1" />
<path d="M272.2,374.7l-2.3,-1.1v1.1Z" class="g2_1" />
<path d="M269.9,373.6h2.3v1.1Z" class="g2_1" />
<path d="M272.2,373.6v.5Z" class="g2_1" />
<path d="M275.2,375l-3,-1.4v1.1Z" class="g2_1" />
<path d="M275.2,375v-.9l-3,-.5Z" class="g2_1" />
<path d="M275.2,375v-.3Z" class="g2_1" />
<path d="M277.6,375l-2.4,-.9v.9Z" class="g2_1" />
<path d="M275.2,374.1h2.4v.9Z" class="g2_1" />
<path d="M280,375l-2.4,-.9v.9Z" class="g2_1" />
<path d="M277.6,374.1H280v.9Z" class="g2_1" />
<path d="M282.3,375l-2.3,-.9v.9Z" class="g2_1" />
<path d="M280,374.1h2.3v.9Z" class="g2_1" />
<path d="M284.5,375l-2.2,-.9v.9Z" class="g2_1" />
<path d="M282.3,374.1h2.2v.9Z" class="g2_1" />
<path d="M286.9,375l-2.4,-.9v.9Z" class="g2_1" />
<path d="M284.5,374.1h2.4v.9Z" class="g2_1" />
<path d="M289.3,375l-2.4,-.9v.9Z" class="g2_1" />
<path d="M286.9,374.1h2.4v.9Z" class="g2_1" />
<path d="M289.3,375v-.3Z" class="g2_1" />
<path d="M292.2,374.7l-2.9,-.6v.9Z" class="g2_1" />
<path d="M292.2,374.7v-1.1l-2.9,.5Z" class="g2_1" />
<path d="M292.2,373.6v.5Z" class="g2_1" />
<path d="M294.6,374.7l-2.4,-1.1v1.1Z" class="g2_1" />
<path d="M292.2,373.6h2.4v1.1Z" class="g2_1" />
<path d="M294.6,374.7v0v-.6Z" class="g2_1" />
<path d="M294.6,374.7v0Z" class="g2_1" />
<path d="M297,374.1l-2.4,-.5v1.1Z" class="g2_1" />
<path d="M297,374.1v-.9l-2.4,.4Z" class="g2_1" />
<path d="M297,373.2v.4Z" class="g2_1" />
<path d="M299.4,374.1l-2.4,-.9v.9Z" class="g2_1" />
<path d="M297,373.2h2.4v.9Z" class="g2_1" />
<path d="M299.4,374.1v-.5Z" class="g2_1" />
<path d="M301.8,373.6l-2.4,-.4v.9Z" class="g2_1" />
<path d="M301.8,373.6v-.9l-2.4,.5Z" class="g2_1" />
<path d="M301.8,372.7v.5Z" class="g2_1" />
<path d="M304.2,373.6l-2.4,-.9v.9Z" class="g2_1" />
<path d="M301.8,372.7h2.4v.9Z" class="g2_1" />
<path d="M304.2,373.6v-.4Z" class="g2_1" />
<path d="M306.5,373.2l-2.3,-.5v.9Z" class="g2_1" />
<path d="M306.5,373.2v-1.1l-2.3,.6Z" class="g2_1" />
<path d="M308.9,372.7l-2.4,-.6v1.1Z" class="g2_1" />
<path d="M308.9,372.7v-1l-2.4,.4Z" class="g2_1" />
<path d="M311.3,372.1l-2.4,-.4v1Z" class="g2_1" />
<path d="M311.3,372.1v-.9l-2.4,.5Z" class="g2_1" />
<path d="M313.5,371.7l-2.2,-.5v.9Z" class="g2_1" />
<path d="M313.5,371.7v-1.1l-2.2,.6Z" class="g2_1" />
<path d="M315.9,371.2l-2.4,-.6v1.1Z" class="g2_1" />
<path d="M315.9,371.2v-.9l-2.4,.3Z" class="g2_1" />
<path d="M315.9,371.2v-.6Z" class="g2_1" />
<path d="M318.3,370.3h-2.4v.9Z" class="g2_1" />
<path d="M318.3,370.3v-1.1l-2.4,1.1Z" class="g2_1" />
<path d="M318.3,369.2v.5Z" class="g2_1" />
<path d="M320.6,369.7l-2.3,-.5v1.1Z" class="g2_1" />
<path d="M320.6,369.7v-.9l-2.3,.4Z" class="g2_1" />
<path d="M323,369.2l-2.4,-.4v.9Z" class="g2_1" />
<path d="M323,369.2v-.9l-2.4,.5Z" class="g2_1" />
<path d="M323,369.2v-.4Z" class="g2_1" />
<path d="M325.4,368.3H323v.9Z" class="g2_1" />
<path d="M325.4,368.3v-1.1l-2.4,1.1Z" class="g2_1" />
<path d="M327.8,367.2h-2.4v1.1Z" class="g2_1" />
<path d="M327.8,367.2v-1l-2.4,1Z" class="g2_1" />
<path d="M327.8,366.2v.6Z" class="g2_1" />
<path d="M330.2,366.8l-2.4,-.6v1Z" class="g2_1" />
<path d="M330.2,366.8v-1.1l-2.4,.5Z" class="g2_1" />
<path d="M330.2,366.8v-.6Z" class="g2_1" />
<path d="M332.6,365.7h-2.4v1.1Z" class="g2_1" />
<path d="M332.6,365.7v-.9l-2.4,.9Z" class="g2_1" />
<path d="M335,364.8h-2.4v.9Z" class="g2_1" />
<path d="M335,364.8v-.9l-2.4,.9Z" class="g2_1" />
<path d="M335,364.8v-.6Z" class="g2_1" />
<path d="M336.8,363.9H335v.9Z" class="g2_1" />
<path d="M336.8,363.9v-1.1l-1.8,1.1Z" class="g2_1" />
<path d="M336.8,362.8v.5Z" class="g2_1" />
<path d="M339.2,362.8h-2.4v1.1Z" class="g2_1" />
<path d="M339.2,362.8v-1l-2.4,1Z" class="g2_1" />
<path d="M341.6,361.8h-2.4v1Z" class="g2_1" />
<path d="M341.6,361.8v-.9l-2.4,.9Z" class="g2_1" />
<path d="M343.9,360.9h-2.3v.9Z" class="g2_1" />
<path d="M343.9,360.9v-1.1l-2.3,1.1Z" class="g2_1" />
<path d="M343.9,360.9v0v-.5Z" class="g2_1" />
<path d="M343.9,360.9v0Z" class="g2_1" />
<path d="M345.9,359.8h-2v1.1Z" class="g2_1" />
<path d="M345.9,359.8v-.9l-2,.9Z" class="g2_1" />
<path d="M346.3,359.8h-.4v-.3Z" class="g2_1" />
<path d="M346.3,359.8h-.4Z" class="g2_1" />
<path d="M348.7,358.4l-3.3,.5l.9,.9Z" class="g2_1" />
<path d="M348.7,358.4l-.9,-1l-2.4,1.5Z" class="g2_1" />
<path d="M348.3,357.4h-.5l.5,.6Z" class="g2_1" />
<path d="M348.3,357.4h-.5Z" class="g2_1" />
<path d="M350.7,357.4h-2.4v1Z" class="g2_1" />
<path d="M350.7,357.4v-.9l-2.4,.9Z" class="g2_1" />
<path d="M350.7,357.4v-.5Z" class="g2_1" />
<path d="M352.5,356.5h-1.8v.9Z" class="g2_1" />
<path d="M352.5,356.5v-1.1l-1.8,1.1Z" class="g2_1" />
<path d="M352.9,356.5h-.4V356Z" class="g2_1" />
<path d="M352.9,356.5h-.4Z" class="g2_1" />
<path d="M355.3,355.1l-3.3,.3l.9,1.1Z" class="g2_1" />
<path d="M355.3,355.1l-.9,-1.1l-2.4,1.4Z" class="g2_1" />
<path d="M355.3,355.1l-.4,-.6Z" class="g2_1" />
<path d="M357.3,353.6l-2.9,.4l.9,1.1Z" class="g2_1" />
<path d="M357.3,353.6l-.9,-1.1l-2,1.5Z" class="g2_1" />
<path d="M356.8,352.5h-.4l.4,.5Z" class="g2_1" />
<path d="M356.8,352.5h-.4Z" class="g2_1" />
<path d="M359.2,352.5h-2.4v1.1Z" class="g2_1" />
<path d="M359.2,352.5v-.9l-2.4,.9Z" class="g2_1" />
<path d="M359.7,352.5h-.5v-.4Z" class="g2_1" />
<path d="M359.7,352.5h-.5Z" class="g2_1" />
<path d="M361.5,351l-2.7,.6l.9,.9Z" class="g2_1" />
<path d="M361.5,351l-.9,-.9l-1.8,1.5Z" class="g2_1" />
<path d="M360.6,350.1l.6,.6Z" class="g2_1" />
<path d="M363.9,349.6l-3.3,.5l.9,.9Z" class="g2_1" />
<path d="M363.9,349.6l-.9,-1l-2.4,1.5Z" class="g2_1" />
<path d="M363.9,349.6v0l-.5,-.4Z" class="g2_1" />
<path d="M363.9,349.6v0Z" class="g2_1" />
<path d="M365.8,348.1l-2.8,.5l.9,1Z" class="g2_1" />
<path d="M365.8,348.1l-1,-.9l-1.8,1.4Z" class="g2_1" />
<path d="M367.8,346.6l-3,.6l1,.9Z" class="g2_1" />
<path d="M367.8,346.6l-.9,-.9l-2.1,1.5Z" class="g2_1" />
<path d="M366.9,345.7l.3,.6Z" class="g2_1" />
<path d="M370.2,345.2l-3.3,.5l.9,.9Z" class="g2_1" />
<path d="M370.2,345.2l-1,-1l-2.3,1.5Z" class="g2_1" />
<path d="M370.2,345.2l-.6,-.4Z" class="g2_1" />
<path d="M372,343.7l-2.8,.5l1,1Z" class="g2_1" />
<path d="M372,343.7l-.9,-.9l-1.9,1.4Z" class="g2_1" />
<path d="M373.8,342.2l-2.7,.6l.9,.9Z" class="g2_1" />
<path d="M373.8,342.2l-.9,-.9l-1.8,1.5Z" class="g2_1" />
<path d="M373.8,342.2l-.4,-.3Z" class="g2_1" />
<path d="M375.8,340.4l-2.9,.9l.9,.9Z" class="g2_1" />
<path d="M375.8,340.4l-.9,-1.1l-2,2Z" class="g2_1" />
<path d="M374.9,339.3l.4,.5Z" class="g2_1" />
<path d="M377.7,338.9l-2.8,.4l.9,1.1Z" class="g2_1" />
<path d="M377.7,338.9l-1,-1.1l-1.8,1.5Z" class="g2_1" />
<path d="M379.7,337.5l-3,.3l1,1.1Z" class="g2_1" />
<path d="M379.7,337.5l-1.1,-1.1l-1.9,1.4Z" class="g2_1" />
<path d="M379.7,337.5l-.6,-.6Z" class="g2_1" />
<path d="M381.5,335.4l-2.9,1l1.1,1.1Z" class="g2_1" />
<path d="M381.5,335.4l-.9,-1.1l-2,2.1Z" class="g2_1" />
<path d="M381,334.9l.5,.5Z" class="g2_1" />
<path d="M383.4,333.4l-2.8,.9l.9,1.1Z" class="g2_1" />
<path d="M383.4,333.4l-1,-.9l-1.8,1.8Z" class="g2_1" />
<path d="M382.4,332.5l.6,.4Z" class="g2_1" />
<path d="M385.4,332l-3,.5l1,.9Z" class="g2_1" />
<path d="M385.4,332l-1.1,-1l-1.9,1.5Z" class="g2_1" />
<path d="M385.4,332l-.6,-.6Z" class="g2_1" />
<path d="M387.2,329.9l-2.9,1.1l1.1,1Z" class="g2_1" />
<path d="M387.2,329.9l-.9,-.9l-2,2Z" class="g2_1" />
<path d="M386.7,329.6l.5,.3Z" class="g2_1" />
<path d="M389,328.1l-2.7,.9l.9,.9Z" class="g2_1" />
<path d="M389,328.1l-.9,-1.1l-1.8,2Z" class="g2_1" />
<path d="M388.7,327.6l.3,.5Z" class="g2_1" />
<path d="M390.5,326.6l-2.4,.4l.9,1.1Z" class="g2_1" />
<path d="M390.5,326.6l-.9,-1.1l-1.5,1.5Z" class="g2_1" />
<path d="M390.1,326.1l.4,.5Z" class="g2_1" />
<path d="M390.5,326.6v0Z" class="g2_1" />
<path d="M392.3,324.6l-2.7,.9l.9,1.1Z" class="g2_1" />
<path d="M392.3,324.6l-.9,-.9l-1.8,1.8Z" class="g2_1" />
<path d="M392.3,324.6l-.3,-.5Z" class="g2_1" />
<path d="M393.8,322.6l-2.4,1.1l.9,.9Z" class="g2_1" />
<path d="M393.8,322.6l-.9,-.9l-1.5,2Z" class="g2_1" />
<path d="M392.9,321.7l.5,.5Z" class="g2_1" />
<path d="M395.8,320.8l-2.9,.9l.9,.9Z" class="g2_1" />
<path d="M395.8,320.8l-1.1,-1.1l-1.8,2Z" class="g2_1" />
<path d="M395.8,320.8l-.5,-.6Z" class="g2_1" />
<path d="M397.1,318.8l-2.4,.9l1.1,1.1Z" class="g2_1" />
<path d="M397.1,318.8l-.9,-1l-1.5,1.9Z" class="g2_1" />
<path d="M396.2,317.8l.5,.4Z" class="g2_1" />
<path d="M399.1,316.4l-2.9,1.4l.9,1Z" class="g2_1" />
<path d="M399.1,316.4l-.9,-1.1l-2,2.5Z" class="g2_1" />
<path d="M399.1,316.4l-.5,-.6Z" class="g2_1" />
<path d="M400.6,314.4l-2.4,.9l.9,1.1Z" class="g2_1" />
<path d="M400.6,314.4l-1.1,-1l-1.3,1.9Z" class="g2_1" />
<path d="M399.5,313.4l.5,.4Z" class="g2_1" />
<path d="M402.4,312.3l-2.9,1.1l1.1,1Z" class="g2_1" />
<path d="M402.4,312.3l-.9,-.9l-2,2Z" class="g2_1" />
<path d="M402.4,312.3l-.5,-.3Z" class="g2_1" />
<path d="M403.9,310.5l-2.4,.9l.9,.9Z" class="g2_1" />
<path d="M403.9,310.5l-1.1,-1.1l-1.3,2Z" class="g2_1" />
<path d="M403.9,310.5v0l-.6,-.5Z" class="g2_1" />
<path d="M403.9,310.5v0Z" class="g2_1" />
<path d="M405.2,307.9l-2.4,1.5l1.1,1.1Z" class="g2_1" />
<path d="M405.2,307.9l-1,-.9l-1.4,2.4Z" class="g2_1" />
<path d="M404.2,307l.6,.6Z" class="g2_1" />
<path d="M406.6,306.1l-2.4,.9l1,.9Z" class="g2_1" />
<path d="M406.6,306.1l-.9,-1.1l-1.5,2Z" class="g2_1" />
<path d="M408.1,304.1l-2.4,.9l.9,1.1Z" class="g2_1" />
<path d="M408.1,304.1l-.9,-1.1l-1.5,2Z" class="g2_1" />
<path d="M408.1,304.1l-.6,-.6Z" class="g2_1" />
<path d="M409.6,301.5l-2.4,1.5l.9,1.1Z" class="g2_1" />
<path d="M409.6,301.5l-1,-.9l-1.4,2.4Z" class="g2_1" />
<path d="M410.9,299.1l-2.3,1.5l1,.9Z" class="g2_1" />
<path d="M410.9,299.1l-1,-.9l-1.3,2.4Z" class="g2_1" />
<path d="M409.9,298.2l.6,.4Z" class="g2_1" />
<path d="M412.3,297.1l-2.4,1.1l1,.9Z" class="g2_1" />
<path d="M412.3,297.1l-.9,-.9l-1.5,2Z" class="g2_1" />
<path d="M412.3,297.1l-.3,-.3Z" class="g2_1" />
<path d="M413.8,294.7l-2.4,1.5l.9,.9Z" class="g2_1" />
<path d="M413.8,294.7l-.9,-.9l-1.5,2.4Z" class="g2_1" />
<path d="M413.8,294.2v.5l-.6,-.5Z" class="g2_1" />
<path d="M413.8,294.2v.5Z" class="g2_1" />
<path d="M414.7,291.8l-1.8,2.4h.9Z" class="g2_1" />
<path d="M414.7,291.8h-.9l-.9,2.4Z" class="g2_1" />
<path d="M413.8,291.3v.5h.5Z" class="g2_1" />
<path d="M413.8,291.3v.5Z" class="g2_1" />
<path d="M416.2,290.3l-2.4,1l.9,1.1Z" class="g2_1" />
<path d="M416.2,290.3l-.9,-.9l-1.5,1.9Z" class="g2_1" />
<path d="M416.2,290.3l-.6,-.5Z" class="g2_1" />
<path d="M417.6,288l-2.3,1.4l.9,.9Z" class="g2_1" />
<path d="M417.6,288l-.9,-1.1l-1.4,2.5Z" class="g2_1" />
<path d="M417.6,287.4v.6l-.5,-.6Z" class="g2_1" />
<path d="M417.6,287.4v.6Z" class="g2_1" />
<path d="M418.6,285l-1.9,2.4h.9Z" class="g2_1" />
<path d="M418.6,285h-1l-.9,2.4Z" class="g2_1" />
<path d="M417.6,284.5v.5h.4Z" class="g2_1" />
<path d="M417.6,284.5v.5Z" class="g2_1" />
<path d="M420,283l-2.4,1.5l1,.9Z" class="g2_1" />
<path d="M420,283l-.9,-.9l-1.5,2.4Z" class="g2_1" />
<path d="M420,282.5v.5l-.5,-.5Z" class="g2_1" />
<path d="M420,282.5v.5Z" class="g2_1" />
<path d="M420.9,280.1l-1.8,2.4h.9Z" class="g2_1" />
<path d="M420.9,280.1H420l-.9,2.4Z" class="g2_1" />
<path d="M421.9,277.7l-1.9,2.4h.9Z" class="g2_1" />
<path d="M421.9,277.7h-1l-.9,2.4Z" class="g2_1" />
<path d="M422.8,275.1l-1.9,2.6h1Z" class="g2_1" />
<path d="M422.8,275.1h-.9l-1,2.6Z" class="g2_1" />
<path d="M421.9,274.6v.5h.5Z" class="g2_1" />
<path d="M421.9,274.6v.5Z" class="g2_1" />
<path d="M424.2,273.1l-2.3,1.5l.9,1.1Z" class="g2_1" />
<path d="M424.2,273.1l-.9,-.9l-1.4,2.4Z" class="g2_1" />
<path d="M424.2,272.7v.4l-.5,-.4Z" class="g2_1" />
<path d="M424.2,272.7v.4Z" class="g2_1" />
<path d="M425.2,270.2l-1.9,2.5h.9Z" class="g2_1" />
<path d="M425.2,270.2h-1l-.9,2.5Z" class="g2_1" />
<path d="M426.1,267.8l-1.9,2.4h1Z" class="g2_1" />
<path d="M426.1,267.8h-.9l-1,2.4Z" class="g2_1" />
<path d="M427.2,265.4l-2,2.4h.9Z" class="g2_1" />
<path d="M427.2,265.4h-1.1l-.9,2.4Z" class="g2_1" />
<path d="M427.2,265.4h-.6Z" class="g2_1" />
<path d="M427.5,262.8l-1.4,2.6h1.1Z" class="g2_1" />
<path d="M427.5,262.8h-.9l-.5,2.6Z" class="g2_1" />
<path d="M426.6,262.8h.6Z" class="g2_1" />
<path d="M428.4,260.5l-1.8,2.3h.9Z" class="g2_1" />
<path d="M428.4,260.5h-.9l-.9,2.3Z" class="g2_1" />
<path d="M428.4,260.5h-.3Z" class="g2_1" />
<path d="M429.5,257.5l-2,3h.9Z" class="g2_1" />
<path d="M429.5,257.5h-1.1l-.9,3Z" class="g2_1" />
<path d="M428.4,257.5v0h.6Z" class="g2_1" />
<path d="M428.4,257.5v0Z" class="g2_1" />
<path d="M430.5,255.1l-2.1,2.4h1.1Z" class="g2_1" />
<path d="M430.5,255.1h-1l-1.1,2.4Z" class="g2_1" />
<path d="M430.5,255.1h-.6Z" class="g2_1" />
<path d="M430.8,252.6l-1.3,2.5h1Z" class="g2_1" />
<path d="M430.8,252.6h-.9l-.4,2.5Z" class="g2_1" />
<path d="M429.9,252.6h.6Z" class="g2_1" />
<path d="M431.7,249.6l-1.8,3h.9Z" class="g2_1" />
<path d="M431.7,249.6h-.9l-.9,3Z" class="g2_1" />
<path d="M431.7,249.6h-.3Z" class="g2_1" />
<path d="M432.3,247.3l-1.5,2.3h.9Z" class="g2_1" />
<path d="M432.3,247.3h-.9l-.6,2.3Z" class="g2_1" />
<path d="M432.8,244.9l-1.4,2.4h.9Z" class="g2_1" />
<path d="M432.8,244.9h-1.1l-.3,2.4Z" class="g2_1" />
<path d="M432.8,244.9h-.5Z" class="g2_1" />
<path d="M433.2,241.8l-1.5,3.1h1.1Z" class="g2_1" />
<path d="M433.2,241.8h-.9l-.6,3.1Z" class="g2_1" />
<path d="M432.3,241.8v0h.5Z" class="g2_1" />
<path d="M432.3,241.8v0Z" class="g2_1" />
<path d="M434.1,239.4l-1.8,2.4h.9Z" class="g2_1" />
<path d="M434.1,239.4h-.9l-.9,2.4Z" class="g2_1" />
<path d="M434.1,239.4v0h-.3Z" class="g2_1" />
<path d="M434.1,239.4v0Z" class="g2_1" />
<path d="M434.7,237l-1.5,2.4h.9Z" class="g2_1" />
<path d="M434.7,237h-.9l-.6,2.4Z" class="g2_1" />
<path d="M434.7,237v0h-.6Z" class="g2_1" />
<path d="M434.7,237v0Z" class="g2_1" />
<path d="M435.2,234.1l-1.4,2.9h.9Z" class="g2_1" />
<path d="M435.2,234.1h-1.1l-.3,2.9Z" class="g2_1" />
<path d="M434.1,234.1h.6Z" class="g2_1" />
<path d="M435.6,231.5l-1.5,2.6h1.1Z" class="g2_1" />
<path d="M435.6,231.5h-.9l-.6,2.6Z" class="g2_1" />
<path d="M435.6,231.5h-.4Z" class="g2_1" />
<path d="M435.6,228.6l-.9,2.9h.9Z" class="g2_1" />
<path d="M435.6,228.6h-.9v2.9Z" class="g2_1" />
<path d="M434.7,228.6h.5Z" class="g2_1" />
<path d="M436.1,226.2l-1.4,2.4h.9Z" class="g2_1" />
<path d="M436.1,226.2h-.9l-.5,2.4Z" class="g2_1" />
<path d="M436.1,226.2h-.5Z" class="g2_1" />
<path d="M436.5,223.2l-1.3,3h.9Z" class="g2_1" />
<path d="M436.5,223.2h-.9l-.4,3Z" class="g2_1" />
<path d="M435.6,223.2v0h.5Z" class="g2_1" />
<path d="M435.6,223.2v0Z" class="g2_1" />
<path d="M437.1,220.9l-1.5,2.3h.9Z" class="g2_1" />
<path d="M437.1,220.9h-1l-.5,2.3Z" class="g2_1" />
<path d="M437.1,220.9v0h-.6Z" class="g2_1" />
<path d="M437.1,220.9v0Z" class="g2_1" />
<path d="M437.1,217.9l-1,3h1Z" class="g2_1" />
<path d="M437.1,217.9h-1v3Z" class="g2_1" />
<path d="M437.1,215.4l-1,2.5h1Z" class="g2_1" />
<path d="M437.1,215.4h-1v2.5Z" class="g2_1" />
<path d="M436.1,215.4h.4Z" class="g2_1" />
<path d="M437.6,212.4l-1.5,3h1Z" class="g2_1" />
<path d="M437.6,212.4h-1.1l-.4,3Z" class="g2_1" />
<path d="M437.6,212.4l-.5,-.5Z" class="g2_1" />
<path d="M437.6,210l-1.1,2.4h1.1Z" class="g2_1" />
<path d="M437.6,210h-1.1v2.4Z" class="g2_1" />
<path d="M437.6,207.1l-1.1,2.9h1.1Z" class="g2_1" />
<path d="M437.6,207.1h-1.1V210Z" class="g2_1" />
<path d="M437.6,204.5l-1.1,2.6h1.1Z" class="g2_1" />
<path d="M437.6,204.5h-1.1v2.6Z" class="g2_1" />
<path d="M437.6,201.6l-1.1,2.9h1.1Z" class="g2_1" />
<path d="M437.6,201.6h-1.1v2.9Z" class="g2_1" />
<text x="421" y="106" dx="0,-0.4,0.1,-0.4,0.3" class="s1_1">Frame</text>
<path d="M463.6,218.8v-2m0,0v-.3m0,-1.5v-.6m0,0v-2m-.5,-1.4v-1m0,0v-1.4m0,-1.5V206m0,0l-.4,-1.5m0,-1.4v-1.5m0,0v-.9m-.5,-1.5l-.4,-2m0,0v-.4M461.8,195.4l-.5,-2M460.7,191.9V191m0,0l-.4,-1.5m-.5,-1.5v-1.1m0,0l-.4,-1.4m0,-1.5l-.5,-1.5m0,0v-.9m-.4,-1.4l-1.1,-1.5m0,0v-.6m-.4,-1.4l-.5,-2.4M456.1,172.8l-.5,-.5m0,0l-.6,-1.5m-.3,-1.5l-.6,-.9m0,0l-.4,-1.4m-.5,-1.5l-.5,-1.1m0,0l-.4,-.9m-.6,-1.5l-.9,-1.5m0,0l-.5,-.5M449.9,158.5l-.9,-1.8M448.1,155.2v-.5m0,0l-1.1,-2m-.4,-1l-.5,-.9m0,0l-1,-1.6m-.5,-.9l-.4,-1m0,0l-.9,-1.1m-.5,-1.4l-1,-1.5m0,0l-.5,-.4m-.9,-1.4l-.9,-1.5m0,0l-.6,-.5m-.4,-1l-1.4,-2M436.1,135.6l-.5,-.5m0,0l-.9,-2.1m-.9,-.9l-.6,-.5m0,0l-.9,-1.5m-.9,-.9l-.9,-.9m0,0l-1,-1.1m-1.1,-.9l-.9,-1m0,0l-.3,-.5M426.1,123.3l-1.3,-1.4M423.7,120.9l-.4,-.5m0,0l-1.4,-1.5m-1,-1.1l-.5,-.3m0,0l-1.3,-1.1m-1.1,-1l-.9,-.9m0,0l-.9,-.5m-.9,-.9L413.8,112m0,0l-.6,-.4m-.9,-1.1L410.5,109M409,108.1l-1.8,-1.5m-.9,-.9h-.6m0,0l-1.8,-1.4m-1.1,-.6l-.9,-.5m0,0l-1,-1m-1.4,-.5l-.9,-.9m0,0l-.9,-.6m-1.5,-.3l-1.5,-1.1m0,0l-.3,-.4M392.9,97.8l-1.5,-.9m0,0l-.3,-.5M389.6,95.8l-1.8,-.9M386.3,94.4l-.6,-.4m0,0l-1.4,-1.1M383,92.5h-1.1m0,0L380.6,92m-1.5,-.9l-.9,-.6m0,0h-.9M375.8,90l-2,-1m0,0h-.4M372,88.5l-1.8,-.6M368.7,87h-.6m0,0l-1.8,-.5m-1.5,-.4h-.9m0,0l-1.4,-.5m-1.3,0L360.1,85m0,0l-.9,-.4m-1.5,0l-1.8,-.5m0,0h-.6m-1.3,0l-2,-.6m0,0h-.4m-1.4,-.3h-.6m0,0h-1.8M346.3,82.6h-.4m0,0h-2m-1.4,0l-.9,-.5m0,0h-1.3m-1.5,0h-1.5m0,0h-.9m-1.4,0l-1.9,-.4m0,0h-.5M331.1,81.7h-1.8m0,0h-.6m-1.3,.4h-.5m0,0H325m-1.4,0h-.9m0,0h-1.5m-1.5,0l-.9,.5m0,0h-1.5m-1.4,0l-1.3,.6m0,0h-.5m-1.5,0l-2.4,.3M308.9,84.1h-.5m0,0h-1.9M305.1,84.6h-.9m0,0l-1.5,.4m-1.5,0l-.9,.6m0,0l-1.5,.5m-1.4,0l-1.3,.4m0,0H295m-.9,.5l-1.9,.9m0,0h-.5M290.4,88.5l-2,.5m0,0H288m-1.1,1h-.3m0,0l-2.1,.5m-1.2,.6l-1,.3m0,0l-1.1,.6m-1.2,.5l-1.5,.4m0,0l-.9,.5m-1.5,.6l-1.5,.9m0,0l-.5,.6M272.8,95.8l-2,1.1M269.5,97.8l-2,1M266,99.3l-.3,.6m0,0l-1.5,.9m-1.5,.5l-.9,.9m0,0l-.9,.6m-.9,.9l-1.5,.6m0,0l-.9,.3m-.9,1.1l-1.5,.9m0,0l-.6,.6M253.4,108.1l-1.5,.9m0,0l-.5,.6m-1,.5l-.5,.4m0,0l-1.3,1.5m-1.1,1.1l-.9,.3m0,0l-.9,1.1m-1,.4l-.9,1.1m0,0l-.9,.9m-1.5,.9l-.9,1.1m0,0l-.5,.4m-.9,1.1l-1.5,1.5m0,0l-.5,.5M236.1,123.3l-1.2,2m-1.1,1l-.4,.5m0,0l-1.5,1.5m-.9,.9l-.6,.5m0,0l-.9,1.5m-.9,.9l-.9,.9m0,0l-.6,1.1m-.5,1l-1.3,1.4m0,0l-.5,.6m-.9,.9v.5m0,0l-1,1.5M222,141.5l-.5,.3m0,0l-.9,1.5M220,144.8l-.4,.5m0,0l-1.1,1.5m-.9,.9l-.4,1.5m0,0l-.5,1.1m-.9,.9l-.6,1.5m0,0l-.3,1.1m-.6,.9l-.9,2m0,0v.4M212.5,158.5l-.9,2M211,162l-.5,.6m0,0l-.9,1.4m-.4,1.5l-.6,.9m0,0l-.5,1.5m-.4,.9l-.5,1.5m0,0l-.4,1.1m0,1.4l-1.1,1.5m0,0v.4m-.4,1.4v.6m0,0l-.5,2M204.4,180.2l-.5,.3m0,0l-.4,2m-.6,1.5v.6m0,0l-.5,1.4m0,1.5L202,189m0,0l-.5,.9m0,1.4l-.4,2.1m0,0v.5M200.6,195.4v1.8m0,0v.6m-.6,1.4v.6m0,0l-.4,1.8m0,1.5v.5m0,0l-.5,2m0,1.5v.9m0,0v1.5m0,1.5l-.4,1.4m0,0v1.1m0,1.5v1.8m0,0v.6M198.7,218.8v2.1m0,0v.3m0,1.5v.5m0,0v2.1m.4,1.4v.9m0,0v1m0,1.4v1.5m0,0v1.1m.5,1.5v1.8m0,0v.5m.4,1.5l.6,2.4M200.6,241.8v.5m0,0l.5,2M201.5,245.8v.9m0,0l.5,1.5m0,1.4l.4,1.1m0,0l.5,1.5m0,1.5l.6,1.4m0,0v.4m.4,1.5l.9,2m0,0v.5M205.3,261l.4,2.4m.6,.9l.5,1.1m0,0l.4,1.5m.5,1.4l.4,1m0,0l.5,.9m.6,1.4l.4,1.5m0,0l.5,1.1m.4,.9l1.1,2m0,0v.6M212.5,279.2l.9,1.8M213.9,282.5l.4,.5m0,0l.9,1.5m.6,1.4l.3,1m0,0l.6,1.1m.9,1.4l.6,.9m0,0l.9,1m.5,1.4l1,1.5m0,0l.3,.5m.6,1l1.4,2M223.9,299.1l1.4,2.1m.9,.9l.4,.5m0,0l1.1,1.5m.9,1.5l.4,.5m0,0l1.1,.9m.9,1.5l.9,.9m0,0l.6,.6m.9,.9l1.5,1.4m0,0l.3,.6m.9,.9v.6m0,0l1.5,1.4m.9,.9l.6,.6m0,0l1.4,1.5m.9,.9l.4,.5m0,0l1.5,.9m.9,1.1l.9,1m0,0l1.1,.5m.9,.9l1.5,.9m0,0l.4,.6m.9,.9l2,1.5M253.4,329.6l1.8,1.4m.9,.4l.6,.6m0,0l1.2,.9m1.5,1.1l.9,.3m0,0l1.1,.6m1,.9l1.4,1.1m0,0l.9,.6m1,.3l1.8,1.1m0,0h.5M269.5,339.8l1.3,1m0,0h.5m.9,1.1h.6m0,0l1.8,.9m1.5,.5l.4,.4m0,0l1.4,1.1m1.5,0l.9,.4m0,0l1.5,.5m.9,.9l1.5,.6m0,0h.9M286.6,347.7l1.8,.9M289.8,349.2h.6m0,0l1.8,.4M293.7,350.1l.4,.6m0,0l1.4,.3m1.5,0l1.5,.6m0,0l.9,.5m1.4,0l1.3,.4m0,0l1.1,.5m1.3,0l2,.6m0,0h.4M308.4,353.6l1.8,.4m0,0h.6m1.4,.5h.4m0,0h2m1.3,.6h.5m0,0h1.9m1.4,0l.9,.3m0,0h1.1m1.3,0h2m0,0h.4m1.5,0l2.4,.6M330.7,356h.4m0,0h2M334.4,355.4h1.1m0,0h1.3m1.5,0h1.4m0,0h.9m1.5,0l1.5,-.3m0,0h.9m1.4,0l1.9,-.6m0,0h.5m1.3,0L352,354m1.5,-.4h.5m0,0h1.9m1.4,-.6h.9m0,0l1.5,-.5m1.5,0l.9,-.4m0,0l.9,-.5m1.5,0l1.8,-.6m0,0h.6m1.2,-.3l2.1,-1.1m0,0h.3M372,349.2l1.8,-.6M375.3,347.7h.5m0,0l1.9,-.5m1.4,-.6l.9,-.3m0,0l1,-.6m1.4,-.5l1.5,-.4m0,0l.9,-.6m.9,-.5l2.1,-.9m0,0h.3m.9,-.9h.6m0,0l1.8,-1.1m.9,-1h.6m0,0l1.8,-.9m1.1,-.5l.9,-.6m0,0l1.5,-.3m.9,-1.1l1.5,-1m0,0l.9,-.5m.9,-.9l1.5,-.6m0,0l.3,-.5M405.7,332l1.5,-1m0,0l.3,-.5m1.1,-.6l.4,-.3m0,0l1.5,-1.1M412,327.6l.3,-.6m0,0l.9,-.9m1.5,-.9l.9,-1.1m0,0l1.1,-.4m.9,-1.1l1,-.9m0,0l.9,-.6m.9,-.9l1.5,-1.4m0,0l.5,-.6M423.3,317.3l1.5,-1.5m0,0l.4,-.5M426.1,314.4l1.4,-2.1m.9,-.9l.6,-.5m0,0l.9,-.9m.9,-1l.9,-1.1m0,0l1.1,-.9m1,-1.4l.9,-1.1m0,0l.5,-.4m.4,-1.5l1.5,-1.4m0,0v-.6m.9,-.9l.5,-.6m0,0l1,-1.4M440.4,296.2l.5,-.5m0,0l.9,-1.5m.4,-.9l.6,-.9m0,0l.9,-1.1m.5,-1.5l.9,-1.5m0,0l.6,-.3m.4,-1.5L447,285m0,0l.5,-.5m.6,-1.5l.9,-2m0,0v-.4m.9,-1.1v-.3m0,0l.9,-2.1m.6,-.9l.3,-1.1m0,0l.6,-1.4m.9,-1.5l.5,-.9m0,0l.4,-1.1m.6,-1.5l.3,-1.5m0,0v-.9m.6,-.9l.9,-2m0,0v-.6m.5,-1.4V261m0,0l.4,-2m.6,-1.5l.5,-.5m0,0l.4,-1.5m.5,-1.5v-.9m0,0l.4,-1.4m0,-1.5l.5,-1.5m0,0v-.9m.4,-1.5l.6,-2m0,0v-.5M461.8,242.3v-2m0,0v-.4m.4,-1.1v-.9m0,0l.5,-1.5m0,-1.4v-.9m0,0l.4,-1.5m0,-1.5v-1.4m0,0v-1.1m0,-1.5l.5,-1.8m0,0v-.6m0,-1.5v-2.3M463.6,219.4v-.6" class="g1_1" />
<text x="229" y="218" dx="0,-0.6,-0.1,-0.3,-0.4,-0.2,0.3,-0.5,-0.6,-0.2,-0.4,-0.2,0.3,-0.2,-0.5,-0.6,-0.4" class="s1_1">Actual Population</text>
<path d="M71.9,401.1l-51.4,-.9v.9Z" class="g2_1" />
<path d="M20.5,400.2H71.9v.9Z" class="g2_1" />
<text x="77" y="406" dx="0,0,-0.2,-0.1,-0.2,-0.4,-0.3,-0.5,-0.6,-0.2,-0.2,-0.4,0.3,-0.2,-0.5,-0.6,-0.4" class="s1_1">Target Population</text>
<path d="M249.9,403.1h4.7m3,0h4.8m2.7,0h4.8m2.9,0h4.8m2.7,0h4.8m2.9,0h4.8m2.7,0h4.8m2.9,0h1.3" class="g1_1" />
<text x="310" y="409" dx="0,-0.4,-0.1,-0.2,0.3" class="s1_1">Frame</text>
<path d="M389,404h2.4m1.5,0h2.4m1.4,0h2.4m1.5,0h2.2m1.4,0h2.4m1.5,0h2.4m1.5,0h2.3m1.3,0H418m1.5,0h2.4m1.4,0h2.4m1.5,0h2.3m1.3,0h2.4m1.5,0h2.4m1.4,0h2.4m1.3,0h2.4m1.5,0h.9" class="g1_1" />
<text x="446" y="409" dx="0,-0.6,0,-0.5,-0.2,-0.4,0.3,-0.3,-0.6,-0.4,-0.2,-0.4,0.3,-0.2,-0.5,-0.6,-0.2" class="s1_1">Actual Population</text>
<path d="M13.2,14.1h.7v-.8h-.7v.8Z" class="g2_1" />
<path d="M13.2,14.1h.7v-.8h-.7v.8Z" class="g2_1" />
<path d="M13.9,14.1h605v-.8H13.9v.8Z" class="g2_1" />
<path d="M618.9,14.1h.8v-.8h-.8v.8Z" class="g2_1" />
<path d="M618.9,14.1h.8v-.8h-.8v.8Z" class="g2_1" />
<path d="M13.2,417.2h.7V14.1h-.7V417.2Z" class="g2_1" />
<path d="M618.9,417.2h.8V14.1h-.8V417.2Z" class="g2_1" />
<path d="M13.2,417.9h.7v-.7h-.7v.7Z" class="g2_1" />
<path d="M13.2,417.9h.7v-.7h-.7v.7Z" class="g2_1" />
<path d="M13.9,417.9h605v-.7H13.9v.7Z" class="g2_1" />
<path d="M618.9,417.9h.8v-.7h-.8v.7Z" class="g2_1" />
<path d="M618.9,417.9h.8v-.7h-.8v.7Z" class="g2_1" />


<!-- Any embedded fonts defined here -->
<style type="text/css" ><![CDATA[

@font-face {
	font-family: Arial_8;
	src: url("fonts/Arial_8.woff") format("woff");
}

]]></style>

</svg>
