<?xml version="1.0" encoding="UTF-8" standalone="no"?>
<!DOCTYPE svg PUBLIC "-//W3C//DTD SVG 1.1//EN"
"http://www.w3.org/Graphics/SVG/1.1/DTD/svg11.dtd">


<!-- Page 1 -->
<svg x="0" y="0" width="632" height="460" viewBox="0 0 632 460" version="1.1" xmlns="http://www.w3.org/2000/svg" xmlns:xlink="http://www.w3.org/1999/xlink"
style="display: block;margin-left: auto;margin-right: auto;">
<defs>

<style type="text/css"><![CDATA[
text { white-space: pre; }
path, image { pointer-events: none; }

.s1_1{
font-size: 22.97px;
font-family: Arial_8;
fill: #000000;
}
.s2_1{
font-size: 22.00px;
font-family: Arial_8;
fill: #000000;
}

.g0_1{
fill: #FFFFFF;
}
.g1_1{
fill: none;
stroke: #000000;
stroke-width: 0.55;
stroke-linecap: round;
stroke-linejoin: round;
}
.g2_1{
}

]]></style>

</defs>
<path d="M0,0
L0,460
L632,460
L632,0 Z " 
fill="#FFFFFF" stroke="none" />
<path d="M618.4,454.4L13.9,14.1V454.4Z" class="g0_1" />
<path d="M13.9,14.1H618.4V454.4Z" class="g0_1" />
<path d="M618.4,454.4L13.9,14.1V454.4Z" class="g0_1" />
<path d="M13.9,14.1H618.4V454.4Z" class="g0_1" />
<path d="M481.2,223.2v-2.3m0,0v-2.4m-.5,-3v-1.4m0,0v-2.6m0,0v-.9m-.4,-2.9v-1m0,0l-.5,-2.5m0,0l-.6,-1.5M479.2,199.8l-.3,-2.4m0,0l-.6,-2m-.3,-3l-.6,-1.8m0,0L477,188m0,0v-.3m-1.1,-3l-.3,-1.1m0,0l-.6,-2.3m0,0v-1m-.9,-2.9l-.5,-.5m0,0l-1,-2.4m0,0l-.3,-1.5M471.2,170.1l-.9,-2.6m0,0l-1,-1.8M467.9,163.1l-.4,-1.8m0,0l-.9,-2m0,0l-.6,-1m-.9,-2.5l-.5,-.9m0,0l-1,-2.1m0,0l-.9,-1.4M461.3,149v-.6m0,0l-1.5,-1.8m0,0l-.9,-2m-1.5,-2.4l-1.3,-1.5m0,0l-1.1,-2m0,0l-.3,-.5m-1.5,-2.4l-.9,-.9m0,0l-1.5,-2m0,0l-.5,-1m-1.9,-2.5l-.3,-.4m0,0l-1.5,-2m0,0l-1.5,-.9m-1.4,-2l-.4,-.6m0,0l-1.5,-1.8m0,0l-1.4,-1.1m-1.9,-2.4l-2,-1.5m0,0l-1.3,-1.4m0,0l-.5,-.6m-1.9,-1.8l-1.4,-1.1m0,0l-1.5,-1.5m0,0l-.4,-.4m-2.3,-2l-1.1,-.9m0,0l-1.9,-1.5m0,0l-.9,-.5m-2.4,-2l-.5,-.4m0,0l-1.8,-1.1m0,0l-1.5,-.9M414.7,98.6l-1.8,-1.5m0,0l-2,-.9M408.1,94.7l-1.5,-.9m0,0l-1.8,-1.5m0,0h-.6m-2.3,-1.4l-1.3,-1.1m0,0l-2,-.9m0,0l-.9,-.6m-3,-.9l-.3,-.6m0,0L392,85.9m0,0l-1.5,-.5m-2.4,-1.5h-.3m0,0L385.4,83m0,0l-2,-.6M381,81.5l-2.4,-.9m0,0l-2.4,-.5m-2.4,-1L372,78.6m0,0L369.6,78m0,0h-.4m-2.9,-.9l-1.5,-.5m0,0L363,76.2m0,0l-1.5,-.5m-2.3,-.6h-1m0,0l-2.3,-.4m0,0l-1.5,-.5m-2.8,0h-.5m0,0l-2.4,-.6m0,0l-1.8,-.3M343.9,73.3h-2.3m0,0l-2.4,-.6m-2.8,0h-2m0,0h-2.2m0,0h-.5m-3,0h-1.3m0,0H325m0,0h-1.1m-2.7,0h-.9m0,0l-2.4,.6m0,0h-1.5m-2.9,0h-.4m0,0l-2.3,.3m0,0l-1.9,.6M306,74.2l-2.4,.5m0,0l-1.8,.4m-3,.6l-2.4,.5m0,0l-1.8,.4m0,0h-.5m-2.8,1.1l-1.5,.3m0,0l-2.3,.6m0,0h-.6m-2.7,.9l-.9,.6m0,0l-2.4,.5m0,0l-1.5,.4M277,82.1l-.9,.3m0,0l-2,.6m0,0l-1.9,.5M269.9,85h-.4m0,0l-2,.9m0,0l-1.8,.9m-3,1.1l-1.8,1m0,0l-1.9,.9m0,0l-.5,.5m-2.4,1.5l-1.5,.5m0,0l-1.8,1.5m0,0l-.5,.4m-2.8,1.4l-.9,.6m0,0l-2,.9m0,0l-.9,1.1m-2.4,1.5l-.4,.3m0,0l-2,1.5m0,0l-1.5,1.1m-2.3,1.5l-1.9,1.4m0,0l-1.8,1.5M231,108.8l-1.5,1.5m0,0l-1.4,1.5m0,0l-.4,.5m-2.4,2l-.9,1m0,0l-1.5,1.4m0,0l-.9,.9m-2,2.1l-.4,.5m0,0l-2,1.5m0,0l-.9,1.4M214.9,125.5l-2.1,1.5m0,0l-1.2,2m-1.5,1.8l-1.5,2.1m0,0l-1.4,2M205.3,137.3l-.9,1.4m0,0l-.9,2m0,0l-.6,1m-1.8,2.3l-.5,.6m0,0l-1,2m0,0l-.9,1.5m-1.4,2.4l-1.5,2.3m0,0l-.9,2.1m-1.5,2.3l-.3,2.1m0,0l-1.1,2m0,0l-.4,.3m-.9,3l-.6,1.1m0,0l-.9,1.8m0,0l-.6,1.5m-.9,2.9l-.5,.6m0,0l-.4,2m0,0l-.9,1.8m-.9,2.6l-.6,2.4m0,0l-.5,2.3M183,186.6l-.4,1.4m0,0l-.5,2.6m0,0v.9m-1,2.4V195m0,0l-.5,2.4m0,0l-.4,1.5m0,2.9v.5m0,0l-.5,1.9m0,0l-.6,2.5m0,3l-.3,1.8m0,0v2.6m0,0v.3m-.6,3v1.1m0,0v2.4m0,0v1.4m0,3v.5m0,0v2.4m0,0l.6,2m0,2.9V235m0,0l.3,2.5m0,0v.4m0,2.9l.6,1.5m0,0l.5,2m0,0v.9m.4,3v1.1m0,0l.5,2.4m0,0l.4,1.4M182.1,256.1l.5,2.3m0,0l.4,2.6m.9,2.4l.5,2m0,0l.6,2.4m0,0v.5m1.3,2.4l.5,1.5m0,0l.4,2m0,0l.5,1.5m.9,2.4l.6,.9m0,0l.9,2m0,0l.9,1.5M192,285.4l1.1,1.8m0,0l.9,2.6M195.4,292.2l.4,1.4m0,0l1.5,2.4m0,0l.3,.6m1.5,2.4l.5,1.1m0,0l1,1.8m0,0l.9,1.5M203.5,305.9l.9,1.9m0,0l1.3,2m2,2.4l.9,1.4m0,0l1.5,2m0,0l.4,.6m1.4,2.4l.9,.9m0,0l2.1,1.5m0,0l.3,1.1m2,1.8l.4,1.1m0,0l2,1.5m0,0l1,.9m1.8,2l.5,.4m0,0l1.5,1.4m0,0l1.3,1.5m2.4,2l1.4,1.5m0,0l1.9,2M233.8,340l1.4,1.1m0,0l1.9,1.5m0,0l.5,.4m2.4,1.4l.9,.6m0,0l2,1.4m0,0l.9,1m2.4,1.4l.4,.6m0,0l2,.9m0,0l1.8,1.1M252.8,352.9l1.8,1.4m0,0l2.1,.9M259.4,356.7l1.5,.9m0,0l2.4,1.1m0,0h.5m2.2,1.5l1.5,.4m0,0l2,1.1m0,0l.9,.3m2.8,1.1l.9,.4m0,0l2,.5m0,0l1.5,.6m2.7,1.5h.6m0,0l2.4,.3m0,0l1.2,1.1m3,.4l2.3,.5m0,0l2.4,1m2.4,.5l1.8,.6m0,0l2.4,.3m0,0h.6m2.7,.6l1.5,.5m0,0l2.4,.4m0,0h.9m2.9,.5h1m0,0l2.3,.6m0,0h1.5m2.7,0h.6m0,0l2.4,.4m0,0h1.8M325,373.8h2.4m0,0h2.4m2.8,0h1.8m0,0h2.4m0,0h.5m3,0l1.3,-.4m0,0h2.3m0,0h.9m3,-.6h.9m0,0l2.4,-.5m0,0h.9m2.9,-.4h1m0,0l2.3,-.5m0,0l1.5,-.6m2.8,-.3h.5m0,0l1.8,-.6m0,0l2.4,-.5m2.4,-1l2.4,-.5m0,0l2.4,-.4M377.3,366.4l1.3,-.3m0,0L381,365m0,0h.5m2.8,-1l1.1,-.5m0,0l2.4,-.9m0,0l.9,-.6m2.7,-.9l.6,-.5m0,0l2.4,-1m0,0l1.4,-.5m2.4,-1.5h.4m0,0l2,-.9m0,0l1.8,-.9m2.4,-1.5l1.8,-1.4m0,0l2,-1.1m0,0l.4,-.4m2.4,-1.5l1.5,-.5m0,0l1.8,-1.5m0,0l.6,-.5m2.3,-1.9l1,-.5m0,0l1.8,-.9m0,0l1.5,-1.1m1.8,-1.9h.5m0,0l1.9,-1.4m0,0l1.4,-1.5M429.9,336.2l1.5,-1.5m0,0l1.8,-1.5M435.2,331.2l1.3,-1.4m0,0l2,-1.5m0,0l.4,-.4m2,-2l.9,-.9m0,0l1.5,-2m0,0l.4,-.9m2.4,-2.1l.5,-.5m0,0l1.5,-1.8m0,0l.9,-1.5M450.8,313.6l1.5,-1.8m0,0l1.4,-2m1.3,-2l1.1,-1.9m0,0l1.3,-2m0,0l.6,-.5m1.4,-2.4l.4,-.9m0,0l1.5,-2.1m0,0l.5,-.9m1.3,-2.5l.5,-1m0,0l1,-2m0,0l.9,-1.4M466.6,287.2l.9,-1.8m0,0l.9,-2.6m1.5,-2.4l.4,-1.4m0,0l.9,-2.4m0,0l.5,-.9m.9,-2.6v-.9m0,0l1,-2.4m0,0l.5,-1.1m.9,-2.9v-.4m0,0l.6,-2.6m0,0l.9,-1.8m.5,-2.9l.4,-2m0,0L478,254m0,0v-.3m.3,-3l.6,-1.4m0,0l.3,-2.6m0,0v-.9m.6,-2.9v-.6m0,0l.5,-2.4m0,0v-2M480.7,235v-2.4m0,0v-2m0,0v-.4m.5,-2.9v-1.5m0,0v-2.6" class="g1_1" />
<text x="89" y="86" dx="0,-0.7,-0.5,0,-0.5,-0.5,-0.2,-0.2,-0.7,-0.5,-0.3,-0.5,-0.3,-0.5,-0.2,-0.3,-0.5" class="s1_1">Target Population</text>
<path d="M442.2,214.4l-.9,3h.9Z" class="g2_1" />
<path d="M442.2,214.4h-.9v3Z" class="g2_1" />
<path d="M442.2,212.1l-.9,2.3h.9Z" class="g2_1" />
<path d="M442.2,212.1h-.9v2.3Z" class="g2_1" />
<path d="M442.2,209.1l-.9,3h.9Z" class="g2_1" />
<path d="M442.2,209.1h-.9v3Z" class="g2_1" />
<path d="M442.2,206.7l-.9,2.4h.9Z" class="g2_1" />
<path d="M442.2,206.7h-.9v2.4Z" class="g2_1" />
<path d="M442.2,206.7h-.4Z" class="g2_1" />
<path d="M441.8,203.8l-.5,2.9h.9Z" class="g2_1" />
<path d="M441.8,203.8h-.9l.4,2.9Z" class="g2_1" />
<path d="M440.9,203.8h.4Z" class="g2_1" />
<path d="M441.8,201.2l-.9,2.6h.9Z" class="g2_1" />
<path d="M441.8,201.2h-.9v2.6Z" class="g2_1" />
<path d="M441.8,198.3l-.9,2.9h.9Z" class="g2_1" />
<path d="M441.8,198.3h-.9v2.9Z" class="g2_1" />
<path d="M441.8,198.3v0h-.5Z" class="g2_1" />
<path d="M441.8,198.3v0Z" class="g2_1" />
<path d="M441.3,195.4l-.4,2.9h.9Z" class="g2_1" />
<path d="M441.3,195.4h-.9l.5,2.9Z" class="g2_1" />
<path d="M441.3,195.4h-.4Z" class="g2_1" />
<path d="M440.9,193l-.5,2.4h.9Z" class="g2_1" />
<path d="M440.9,193H440l.4,2.4Z" class="g2_1" />
<path d="M440,193h.4Z" class="g2_1" />
<path d="M440.4,190.1L440,193h.9Z" class="g2_1" />
<path d="M440.4,190.1h-.9l.5,2.9Z" class="g2_1" />
<path d="M439.5,190.1h.5Z" class="g2_1" />
<path d="M440.4,187.7l-.9,2.4h.9Z" class="g2_1" />
<path d="M440.4,187.7h-.9v2.4Z" class="g2_1" />
<path d="M440.4,187.7H440Z" class="g2_1" />
<path d="M440,184.7l-.5,3h.9Z" class="g2_1" />
<path d="M440,184.7h-1.1l.6,3Z" class="g2_1" />
<path d="M440,184.7h-.5Z" class="g2_1" />
<path d="M439.5,182.2l-.6,2.5H440Z" class="g2_1" />
<path d="M439.5,182.2h-1l.4,2.5Z" class="g2_1" />
<path d="M438.5,182.2v0h.4Z" class="g2_1" />
<path d="M438.5,182.2v0Z" class="g2_1" />
<path d="M438.9,179.2l-.4,3h1Z" class="g2_1" />
<path d="M438.9,179.2H438l.5,3Z" class="g2_1" />
<path d="M438.9,179.2h-.4Z" class="g2_1" />
<path d="M438,176.9v2.3h.9Z" class="g2_1" />
<path d="M438,176.9h-.9l.9,2.3Z" class="g2_1" />
<path d="M437.1,176.9h.5Z" class="g2_1" />
<path d="M437.6,173.9l-.5,3h.9Z" class="g2_1" />
<path d="M437.6,173.9h-1.1l.6,3Z" class="g2_1" />
<path d="M437.6,173.9h-.5Z" class="g2_1" />
<path d="M437.1,171.5l-.6,2.4h1.1Z" class="g2_1" />
<path d="M437.1,171.5h-1l.4,2.4Z" class="g2_1" />
<path d="M436.5,169l-.4,2.5h1Z" class="g2_1" />
<path d="M436.5,169h-.9l.5,2.5Z" class="g2_1" />
<path d="M436.5,169h-.4Z" class="g2_1" />
<path d="M435.6,166v3h.9Z" class="g2_1" />
<path d="M435.6,166h-.9l.9,3Z" class="g2_1" />
<path d="M434.7,166v0h.5Z" class="g2_1" />
<path d="M434.7,166v0Z" class="g2_1" />
<path d="M435.2,163.7l-.5,2.3h.9Z" class="g2_1" />
<path d="M435.2,163.7h-1.1l.6,2.3Z" class="g2_1" />
<path d="M435.2,163.7v0h-.5Z" class="g2_1" />
<path d="M435.2,163.7v0Z" class="g2_1" />
<path d="M434.1,161.3v2.4h1.1Z" class="g2_1" />
<path d="M434.1,161.3h-.9l.9,2.4Z" class="g2_1" />
<path d="M433.2,161.3v0h.6Z" class="g2_1" />
<path d="M433.2,161.3v0Z" class="g2_1" />
<path d="M433.2,158.3v3h.9Z" class="g2_1" />
<path d="M433.2,158.3h-.9l.9,3Z" class="g2_1" />
<path d="M433.2,158.3h-.4Z" class="g2_1" />
<path d="M432.3,155.8v2.5h.9Z" class="g2_1" />
<path d="M432.3,155.8h-.9l.9,2.5Z" class="g2_1" />
<path d="M431.4,155.8h.3Z" class="g2_1" />
<path d="M431.7,153.4l-.3,2.4h.9Z" class="g2_1" />
<path d="M431.7,153.4h-.9l.6,2.4Z" class="g2_1" />
<path d="M431.7,153.4h-.3Z" class="g2_1" />
<path d="M430.8,151v2.4h.9Z" class="g2_1" />
<path d="M430.8,151h-.9l.9,2.4Z" class="g2_1" />
<path d="M429.9,148.4V151h.9Z" class="g2_1" />
<path d="M429.9,148.4H429l.9,2.6Z" class="g2_1" />
<path d="M429,146.1v2.3h.9Z" class="g2_1" />
<path d="M429,146.1h-.9l.9,2.3Z" class="g2_1" />
<path d="M429,146.1h-.6Z" class="g2_1" />
<path d="M427.5,143.1l.6,3h.9Z" class="g2_1" />
<path d="M427.5,143.1h-.9l1.5,3Z" class="g2_1" />
<path d="M426.6,143.1v0h.6Z" class="g2_1" />
<path d="M426.6,143.1v0Z" class="g2_1" />
<path d="M426.6,140.7v2.4h.9Z" class="g2_1" />
<path d="M426.6,140.7h-.9l.9,2.4Z" class="g2_1" />
<path d="M425.7,138.2v2.5h.9Z" class="g2_1" />
<path d="M425.7,138.2h-.9l.9,2.5Z" class="g2_1" />
<path d="M424.8,135.8v2.4h.9Z" class="g2_1" />
<path d="M424.8,135.8h-1.1l1.1,2.4Z" class="g2_1" />
<path d="M424.8,135.2v.6h-.6Z" class="g2_1" />
<path d="M424.8,135.2v.6Z" class="g2_1" />
<path d="M423.3,133.4l.4,2.9l1.1,-1.1Z" class="g2_1" />
<path d="M423.3,133.4l-.9,.9l1.3,2Z" class="g2_1" />
<path d="M422.4,133.8v.5l.4,-.5Z" class="g2_1" />
<path d="M422.4,133.8v.5Z" class="g2_1" />
<path d="M422.4,131.4v2.4h.9Z" class="g2_1" />
<path d="M422.4,131.4h-1.1l1.1,2.4Z" class="g2_1" />
<path d="M422.4,130.8v.6h-.5Z" class="g2_1" />
<path d="M422.4,130.8v.6Z" class="g2_1" />
<path d="M420.9,128.5l.4,3.4l1.1,-1.1Z" class="g2_1" />
<path d="M420.9,128.5l-.9,.9l1.3,2.5Z" class="g2_1" />
<path d="M419.5,126.1l.5,3.3l.9,-.9Z" class="g2_1" />
<path d="M419.5,126.1l-.9,.9l1.4,2.4Z" class="g2_1" />
<path d="M418.6,126.4v.6l.5,-.6Z" class="g2_1" />
<path d="M418.6,126.4v.6Z" class="g2_1" />
<path d="M418.6,124.1v2.3h.9Z" class="g2_1" />
<path d="M418.6,124.1h-1l1,2.3Z" class="g2_1" />
<path d="M418.6,123.5v.6H418Z" class="g2_1" />
<path d="M418.6,123.5v.6Z" class="g2_1" />
<path d="M417.1,121.7l.5,2.9l1,-1.1Z" class="g2_1" />
<path d="M417.1,121.7l-.9,.9l1.4,2Z" class="g2_1" />
<path d="M416.2,122.6v0l.5,-.6Z" class="g2_1" />
<path d="M416.2,122.6v0Z" class="g2_1" />
<path d="M415.6,119.1l.6,3.5l.9,-.9Z" class="g2_1" />
<path d="M415.6,119.1l-.9,1.1l1.5,2.4Z" class="g2_1" />
<path d="M414.3,116.7l.4,3.5l.9,-1.1Z" class="g2_1" />
<path d="M414.3,116.7l-1.1,.9l1.5,2.6Z" class="g2_1" />
<path d="M414.3,116.7l-.5,.6Z" class="g2_1" />
<path d="M412.9,114.7l.3,2.9l1.1,-.9Z" class="g2_1" />
<path d="M412.9,114.7l-.9,1.1l1.2,1.8Z" class="g2_1" />
<path d="M412,115.8v0l.3,-.5Z" class="g2_1" />
<path d="M412,115.8v0Z" class="g2_1" />
<path d="M411.4,112.3l.6,3.5l.9,-1.1Z" class="g2_1" />
<path d="M411.4,112.3l-.9,.9l1.5,2.6Z" class="g2_1" />
<path d="M411.4,112.3l-.5,.6Z" class="g2_1" />
<path d="M409.9,110.3l.6,2.9l.9,-.9Z" class="g2_1" />
<path d="M409.9,110.3l-.9,1.1l1.5,1.8Z" class="g2_1" />
<path d="M409,111.4l.6,-.5Z" class="g2_1" />
<path d="M408.6,107.9l.4,3.5l.9,-1.1Z" class="g2_1" />
<path d="M408.6,107.9l-1.1,.9l1.5,2.6Z" class="g2_1" />
<path d="M408.6,107.9l-.5,.6Z" class="g2_1" />
<path d="M407.2,105.9l.3,2.9l1.1,-.9Z" class="g2_1" />
<path d="M407.2,105.9l-.9,1.1l1.2,1.8Z" class="g2_1" />
<path d="M407.2,105.9l-.6,.6Z" class="g2_1" />
<path d="M405.2,104.1l1.1,2.9l.9,-1.1Z" class="g2_1" />
<path d="M405.2,104.1l-1,.9l2.1,2Z" class="g2_1" />
<path d="M404.2,105l.6,-.6Z" class="g2_1" />
<path d="M403.9,102.1l.3,2.9l1,-.9Z" class="g2_1" />
<path d="M403.9,102.1l-1.1,.9l1.4,2Z" class="g2_1" />
<path d="M403.9,102.1v0l-.6,.5Z" class="g2_1" />
<path d="M403.9,102.1v0Z" class="g2_1" />
<path d="M401.9,99.7l.9,3.3l1.1,-.9Z" class="g2_1" />
<path d="M401.9,99.7l-1,.9l1.9,2.4Z" class="g2_1" />
<path d="M400.9,100.6l.6,-.6Z" class="g2_1" />
<path d="M400.6,97.7l.3,2.9l1,-.9Z" class="g2_1" />
<path d="M400.6,97.7l-1.1,.9l1.4,2Z" class="g2_1" />
<path d="M400.6,97.7l-.6,.5Z" class="g2_1" />
<path d="M398.6,95.6l.9,3l1.1,-.9Z" class="g2_1" />
<path d="M398.6,95.6l-.9,1.1l1.8,1.9Z" class="g2_1" />
<path d="M397.7,96.7l.5,-.5Z" class="g2_1" />
<path d="M397.1,93.8l.6,2.9l.9,-1.1Z" class="g2_1" />
<path d="M397.1,93.8l-.9,.9l1.5,2Z" class="g2_1" />
<path d="M397.1,93.8l-.4,.4Z" class="g2_1" />
<path d="M395.3,91.8l.9,2.9l.9,-.9Z" class="g2_1" />
<path d="M395.3,91.8l-.9,.9l1.8,2Z" class="g2_1" />
<path d="M394.7,92.3l.6,-.5Z" class="g2_1" />
<path d="M393.8,90.3l.6,2.4l.9,-.9Z" class="g2_1" />
<path d="M393.8,90.3l-.9,.9l1.5,1.5Z" class="g2_1" />
<path d="M393.4,90.9l.4,-.6Z" class="g2_1" />
<path d="M393.8,90.3v0Z" class="g2_1" />
<path d="M392,88.3l.9,2.9l.9,-.9Z" class="g2_1" />
<path d="M392,88.3l-.9,1.1l1.8,1.8Z" class="g2_1" />
<path d="M391.4,88.9l.6,-.6Z" class="g2_1" />
<path d="M392,88.3v0Z" class="g2_1" />
<path d="M390.1,86.5l1,2.9l.9,-1.1Z" class="g2_1" />
<path d="M390.1,86.5l-1.1,.9l2.1,2Z" class="g2_1" />
<path d="M389.6,86.8l.5,-.3Z" class="g2_1" />
<path d="M388.1,84.5l.9,2.9l1.1,-.9Z" class="g2_1" />
<path d="M388.1,84.5l-.9,.9l1.8,2Z" class="g2_1" />
<path d="M388.1,84.5l-.3,.5Z" class="g2_1" />
<path d="M386.3,83l.9,2.4l.9,-.9Z" class="g2_1" />
<path d="M386.3,83l-.9,.9l1.8,1.5Z" class="g2_1" />
<path d="M385.4,83.9l.3,-.4Z" class="g2_1" />
<path d="M384.3,81l1.1,2.9l.9,-.9Z" class="g2_1" />
<path d="M384.3,81l-.9,1.1l2,1.8Z" class="g2_1" />
<path d="M384.3,81v0l-.4,.5Z" class="g2_1" />
<path d="M384.3,81v0Z" class="g2_1" />
<path d="M382.4,79.5l1,2.6l.9,-1.1Z" class="g2_1" />
<path d="M382.4,79.5l-.9,1.1l1.9,1.5Z" class="g2_1" />
<path d="M381.5,80.6l.4,-.5Z" class="g2_1" />
<path d="M380.6,77.7l.9,2.9l.9,-1.1Z" class="g2_1" />
<path d="M380.6,77.7l-.9,.9l1.8,2Z" class="g2_1" />
<path d="M380,78l.6,-.3Z" class="g2_1" />
<path d="M378.6,76.2l1.1,2.4l.9,-.9Z" class="g2_1" />
<path d="M379.7,78.6l-2,-1.5l.9,-.9Z" class="g2_1" />
<path d="M376.7,74.7l1,2.4l.9,-.9Z" class="g2_1" />
<path d="M376.7,74.7l-.9,1l1.9,1.4Z" class="g2_1" />
<path d="M374.9,73.3l.9,2.4l.9,-1Z" class="g2_1" />
<path d="M374.9,73.3l-1.1,.9l2,1.5Z" class="g2_1" />
<path d="M373.8,74.2v0l.6,-.6Z" class="g2_1" />
<path d="M373.8,74.2v0Z" class="g2_1" />
<path d="M372.5,71.3l1.3,2.9l1.1,-.9Z" class="g2_1" />
<path d="M372.5,71.3l-.9,.9l2.2,2Z" class="g2_1" />
<path d="M372.5,71.3l-.5,.5Z" class="g2_1" />
<path d="M370.5,69.8l1.1,2.4l.9,-.9Z" class="g2_1" />
<path d="M370.5,69.8l-.9,.9l2,1.5Z" class="g2_1" />
<path d="M370.2,69.8h.3l-.3,.5Z" class="g2_1" />
<path d="M370.2,69.8h.3Z" class="g2_1" />
<path d="M368.1,68.9l2.1,1.8v-.9Z" class="g2_1" />
<path d="M368.1,68.9v.9l2.1,.9Z" class="g2_1" />
<path d="M367.8,69.8h.3v-.6Z" class="g2_1" />
<path d="M367.8,69.8h.3Z" class="g2_1" />
<path d="M366.3,67.4l1.5,2.4l.9,-.9Z" class="g2_1" />
<path d="M366.3,67.4l-.9,.9l2.4,1.5Z" class="g2_1" />
<path d="M365.4,68.3l.4,-.5Z" class="g2_1" />
<path d="M364.5,65.9l.9,2.4l.9,-.9Z" class="g2_1" />
<path d="M364.5,65.9l-1.1,1l2,1.4Z" class="g2_1" />
<path d="M364.5,65.9l-.6,.4Z" class="g2_1" />
<path d="M362.1,64.5l1.3,2.4l1.1,-1Z" class="g2_1" />
<path d="M362.1,64.5l-.9,.9l2.2,1.5Z" class="g2_1" />
<path d="M361.2,65.4v0l.3,-.6Z" class="g2_1" />
<path d="M361.2,65.4v0Z" class="g2_1" />
<path d="M360.1,63l1.1,2.4l.9,-.9Z" class="g2_1" />
<path d="M360.1,63l-.9,.9l2,1.5Z" class="g2_1" />
<path d="M359.7,63h.4l-.4,.4Z" class="g2_1" />
<path d="M359.7,63v0h.4Z" class="g2_1" />
<path d="M357.3,61.9l2.4,2V63Z" class="g2_1" />
<path d="M357.3,61.9V63l2.4,.9Z" class="g2_1" />
<path d="M356.8,63h.5v-.5Z" class="g2_1" />
<path d="M356.8,63h.5Z" class="g2_1" />
<path d="M355.9,60.4l.9,2.6l.9,-1.1Z" class="g2_1" />
<path d="M355.9,60.4l-1,1.1l1.9,1.5Z" class="g2_1" />
<path d="M355.3,60.4h.6l-.6,.6Z" class="g2_1" />
<path d="M355.3,60.4v0h.6Z" class="g2_1" />
<path d="M352.9,59.5l2.4,2V60.4Z" class="g2_1" />
<path d="M352.9,59.5v.9l2.4,1.1Z" class="g2_1" />
<path d="M350.7,58.6l2.2,1.8v-.9Z" class="g2_1" />
<path d="M350.7,58.6v.9l2.2,.9Z" class="g2_1" />
<path d="M350.2,59.5h.5V59Z" class="g2_1" />
<path d="M350.2,59.5h.5Z" class="g2_1" />
<path d="M349.2,57.1l1,2.4l.9,-.9Z" class="g2_1" />
<path d="M349.2,57.1l-.9,1l1.9,1.4Z" class="g2_1" />
<path d="M348.7,57.1h.5l-.5,.4Z" class="g2_1" />
<path d="M348.7,57.1h.5Z" class="g2_1" />
<path d="M346.3,56l2.4,2.1v-1Z" class="g2_1" />
<path d="M346.3,56v1.1l2.4,1Z" class="g2_1" />
<path d="M343.9,55.1l2.4,2V56Z" class="g2_1" />
<path d="M343.9,55.1V56l2.4,1.1Z" class="g2_1" />
<path d="M341.6,54.2l2.3,1.8v-.9Z" class="g2_1" />
<path d="M341.6,54.2v.9l2.3,.9Z" class="g2_1" />
<path d="M341.6,55.1v-.5Z" class="g2_1" />
<path d="M339.7,53.1l1.9,2v-.9Z" class="g2_1" />
<path d="M339.7,53.1v1.1l1.9,.9Z" class="g2_1" />
<path d="M339.7,53.1v.6Z" class="g2_1" />
<path d="M337.3,52.2l2.4,2V53.1Z" class="g2_1" />
<path d="M337.3,52.2v.9l2.4,1.1Z" class="g2_1" />
<path d="M335,51.3l2.3,1.8v-.9Z" class="g2_1" />
<path d="M335,51.3v.9l2.3,.9Z" class="g2_1" />
<path d="M335,51.3v.3Z" class="g2_1" />
<path d="M335,51.3v0Z" class="g2_1" />
<path d="M332.6,50.7l2.4,1.5v-.9Z" class="g2_1" />
<path d="M332.6,50.7v.9l2.4,.6Z" class="g2_1" />
<path d="M332.6,51.6v0v-.3Z" class="g2_1" />
<path d="M332.6,51.6v0Z" class="g2_1" />
<path d="M330.2,49.8l2.4,1.8v-.9Z" class="g2_1" />
<path d="M330.2,49.8v.9l2.4,.9Z" class="g2_1" />
<path d="M330.2,49.8v.4Z" class="g2_1" />
<path d="M327.8,49.3l2.4,1.4v-.9Z" class="g2_1" />
<path d="M327.8,49.3v.9l2.4,.5Z" class="g2_1" />
<path d="M327.8,50.2v-.4Z" class="g2_1" />
<path d="M325.4,48.3l2.4,1.9v-.9Z" class="g2_1" />
<path d="M325.4,48.3v1l2.4,.9Z" class="g2_1" />
<path d="M325.4,48.3v.4Z" class="g2_1" />
<path d="M323,47.8l2.4,1.5v-1Z" class="g2_1" />
<path d="M323,47.8v.9l2.4,.6Z" class="g2_1" />
<path d="M320.6,47.2l2.4,1.5v-.9Z" class="g2_1" />
<path d="M320.6,47.2v1.1l2.4,.4Z" class="g2_1" />
<path d="M320.6,48.3v-.5Z" class="g2_1" />
<path d="M318.3,46.3l2.3,2V47.2Z" class="g2_1" />
<path d="M318.3,46.3v.9l2.3,1.1Z" class="g2_1" />
<path d="M318.3,46.3v.6Z" class="g2_1" />
<path d="M315.9,45.8l2.4,1.4v-.9Z" class="g2_1" />
<path d="M315.9,45.8v1.1l2.4,.3Z" class="g2_1" />
<path d="M313.5,45.4l2.4,1.5V45.8Z" class="g2_1" />
<path d="M313.5,45.4v.9l2.4,.6Z" class="g2_1" />
<path d="M311.3,44.9l2.2,1.4v-.9Z" class="g2_1" />
<path d="M311.3,44.9v.9l2.2,.5Z" class="g2_1" />
<path d="M311.3,44.9v.5Z" class="g2_1" />
<path d="M311.3,44.9v0Z" class="g2_1" />
<path d="M308.9,44.9l2.4,.9v-.9Z" class="g2_1" />
<path d="M311.3,45.8h-2.4v-.9Z" class="g2_1" />
<path d="M308.9,45.8v-.4Z" class="g2_1" />
<path d="M306.5,44.3l2.4,1.5v-.9Z" class="g2_1" />
<path d="M306.5,44.3v1.1l2.4,.4Z" class="g2_1" />
<path d="M304.2,43.9l2.3,1.5V44.3Z" class="g2_1" />
<path d="M304.2,43.9v1l2.3,.5Z" class="g2_1" />
<path d="M304.2,43.9l-.6,.4Z" class="g2_1" />
<path d="M301.8,43.9l2.4,1v-1Z" class="g2_1" />
<path d="M304.2,44.9h-2.4v-1Z" class="g2_1" />
<path d="M301.8,44.9v0v-.6Z" class="g2_1" />
<path d="M301.8,44.9v0Z" class="g2_1" />
<path d="M299.4,43.4l2.4,1.5v-1Z" class="g2_1" />
<path d="M299.4,43.4v.9l2.4,.6Z" class="g2_1" />
<path d="M299.4,43.4l-.6,.5Z" class="g2_1" />
<path d="M297,43.4l2.4,.9v-.9Z" class="g2_1" />
<path d="M299.4,44.3H297v-.9Z" class="g2_1" />
<path d="M297,44.3v0v-.4Z" class="g2_1" />
<path d="M297,44.3v0Z" class="g2_1" />
<path d="M294.1,42.8l2.9,1.5v-.9Z" class="g2_1" />
<path d="M294.1,42.8v1.1l2.9,.4Z" class="g2_1" />
<path d="M294.1,42.8v.6Z" class="g2_1" />
<path d="M291.7,42.8l2.4,1.1V42.8Z" class="g2_1" />
<path d="M294.1,43.9h-2.4V42.8Z" class="g2_1" />
<path d="M289.3,42.8l2.4,1.1V42.8Z" class="g2_1" />
<path d="M291.7,43.9h-2.4V42.8Z" class="g2_1" />
<path d="M286.9,42.8l2.4,1.1V42.8Z" class="g2_1" />
<path d="M289.3,43.9h-2.4V42.8Z" class="g2_1" />
<path d="M284.5,42.8l2.4,1.1V42.8Z" class="g2_1" />
<path d="M286.9,43.9h-2.4V42.8Z" class="g2_1" />
<path d="M282.3,42.8l2.2,1.1V42.8Z" class="g2_1" />
<path d="M284.5,43.9h-2.2V42.8Z" class="g2_1" />
<path d="M280,42.8l2.3,1.1V42.8Z" class="g2_1" />
<path d="M282.3,43.9H280V42.8Z" class="g2_1" />
<path d="M280,42.8v.6Z" class="g2_1" />
<path d="M277,43.4l3,.5V42.8Z" class="g2_1" />
<path d="M277,43.4v.9l3,-.4Z" class="g2_1" />
<path d="M277,44.3v0v-.4Z" class="g2_1" />
<path d="M277,44.3v0Z" class="g2_1" />
<path d="M274.6,43.4l2.4,.9v-.9Z" class="g2_1" />
<path d="M277,44.3h-2.4v-.9Z" class="g2_1" />
<path d="M274.6,43.4v.5Z" class="g2_1" />
<path d="M272.2,43.9l2.4,.4v-.9Z" class="g2_1" />
<path d="M272.2,43.9v1l2.4,-.6Z" class="g2_1" />
<path d="M272.2,44.9v0v-.6Z" class="g2_1" />
<path d="M272.2,44.9v0Z" class="g2_1" />
<path d="M269.9,43.9l2.3,1v-1Z" class="g2_1" />
<path d="M272.2,44.9h-2.3v-1Z" class="g2_1" />
<path d="M269.9,43.9v.4Z" class="g2_1" />
<path d="M267.5,44.3l2.4,.6v-1Z" class="g2_1" />
<path d="M267.5,44.3v1.1l2.4,-.5Z" class="g2_1" />
<path d="M265.1,44.9l2.4,.5V44.3Z" class="g2_1" />
<path d="M265.1,44.9v.9l2.4,-.4Z" class="g2_1" />
<path d="M265.1,45.8l-.4,-.4Z" class="g2_1" />
<path d="M262.7,44.9l2.4,.9v-.9Z" class="g2_1" />
<path d="M265.1,45.8h-2.4v-.9Z" class="g2_1" />
<path d="M262.7,44.9v.5Z" class="g2_1" />
<path d="M262.7,44.9v0Z" class="g2_1" />
<path d="M260.3,45.4l2.4,.4v-.9Z" class="g2_1" />
<path d="M260.3,45.4v.9l2.4,-.5Z" class="g2_1" />
<path d="M257.9,45.8l2.4,.5v-.9Z" class="g2_1" />
<path d="M257.9,45.8v1.1l2.4,-.6Z" class="g2_1" />
<path d="M255.6,46.3l2.3,.6V45.8Z" class="g2_1" />
<path d="M255.6,46.3v.9l2.3,-.3Z" class="g2_1" />
<path d="M255.6,46.3v.6Z" class="g2_1" />
<path d="M253.4,47.2h2.2v-.9Z" class="g2_1" />
<path d="M253.4,47.2v1.1l2.2,-1.1Z" class="g2_1" />
<path d="M253.4,48.3v-.5Z" class="g2_1" />
<path d="M251,47.8l2.4,.5V47.2Z" class="g2_1" />
<path d="M251,47.8v.9l2.4,-.4Z" class="g2_1" />
<path d="M248.6,48.3l2.4,.4v-.9Z" class="g2_1" />
<path d="M248.6,48.3v1l2.4,-.6Z" class="g2_1" />
<path d="M248.6,48.3v.4Z" class="g2_1" />
<path d="M246.2,49.3h2.4v-1Z" class="g2_1" />
<path d="M246.2,49.3v.9l2.4,-.9Z" class="g2_1" />
<path d="M246.2,50.2v-.4Z" class="g2_1" />
<path d="M243.8,49.8l2.4,.4v-.9Z" class="g2_1" />
<path d="M243.8,49.8v.9l2.4,-.5Z" class="g2_1" />
<path d="M243.8,49.8v.4Z" class="g2_1" />
<path d="M241.4,50.7h2.4v-.9Z" class="g2_1" />
<path d="M241.4,50.7v.9l2.4,-.9Z" class="g2_1" />
<path d="M241.4,51.6v0v-.3Z" class="g2_1" />
<path d="M241.4,51.6v0Z" class="g2_1" />
<path d="M239.1,51.3l2.3,.3v-.9Z" class="g2_1" />
<path d="M239.1,51.3v.9l2.3,-.6Z" class="g2_1" />
<path d="M239.1,51.3v.3Z" class="g2_1" />
<path d="M239.1,51.3v0Z" class="g2_1" />
<path d="M236.7,52.2h2.4v-.9Z" class="g2_1" />
<path d="M236.7,52.2v.9l2.4,-.9Z" class="g2_1" />
<path d="M234.3,53.1h2.4v-.9Z" class="g2_1" />
<path d="M234.3,53.1v1.1l2.4,-1.1Z" class="g2_1" />
<path d="M234.3,53.1v.6Z" class="g2_1" />
<path d="M232.5,54.2h1.8V53.1Z" class="g2_1" />
<path d="M232.5,54.2v.9l1.8,-.9Z" class="g2_1" />
<path d="M232.5,55.1v-.5Z" class="g2_1" />
<path d="M230.1,55.1h2.4v-.9Z" class="g2_1" />
<path d="M230.1,55.1V56l2.4,-.9Z" class="g2_1" />
<path d="M227.7,56h2.4v-.9Z" class="g2_1" />
<path d="M227.7,56v1.1L230.1,56Z" class="g2_1" />
<path d="M225.3,57.1h2.4V56Z" class="g2_1" />
<path d="M225.3,57.1v1l2.4,-1Z" class="g2_1" />
<path d="M224.8,57.1h.5v.4Z" class="g2_1" />
<path d="M224.8,57.1h.5Z" class="g2_1" />
<path d="M222.9,58.6l2.8,-.5l-.9,-1Z" class="g2_1" />
<path d="M222.9,58.6l1,.9l1.8,-1.4Z" class="g2_1" />
<path d="M223.3,59.5h.6l-.6,-.5Z" class="g2_1" />
<path d="M223.3,59.5h.6Z" class="g2_1" />
<path d="M220.9,59.5h2.4v-.9Z" class="g2_1" />
<path d="M220.9,59.5v.9l2.4,-.9Z" class="g2_1" />
<path d="M218.5,60.4h2.4v-.9Z" class="g2_1" />
<path d="M218.5,60.4v1.1l2.4,-1.1Z" class="g2_1" />
<path d="M218.2,60.4h.3V61Z" class="g2_1" />
<path d="M218.2,60.4h.3Z" class="g2_1" />
<path d="M216.1,61.9l3,-.4l-.9,-1.1Z" class="g2_1" />
<path d="M216.1,61.9l1.1,1.1l1.9,-1.5Z" class="g2_1" />
<path d="M216.7,63h.5l-.5,-.5Z" class="g2_1" />
<path d="M216.7,63v0h.5Z" class="g2_1" />
<path d="M214.3,63h2.4V61.9Z" class="g2_1" />
<path d="M214.3,63v.9l2.4,-.9Z" class="g2_1" />
<path d="M213.9,63h.4v.4Z" class="g2_1" />
<path d="M213.9,63h.4Z" class="g2_1" />
<path d="M211.9,64.5l3,-.6l-1,-.9Z" class="g2_1" />
<path d="M211.9,64.5l.9,.9l2.1,-1.5Z" class="g2_1" />
<path d="M212.8,65.4v0l-.3,-.6Z" class="g2_1" />
<path d="M212.8,65.4v0Z" class="g2_1" />
<path d="M209.6,65.9l3.2,-.5l-.9,-.9Z" class="g2_1" />
<path d="M209.6,65.9l.9,1l2.3,-1.5Z" class="g2_1" />
<path d="M209.6,65.9l.5,.4Z" class="g2_1" />
<path d="M207.7,67.4l2.8,-.5l-.9,-1Z" class="g2_1" />
<path d="M207.7,67.4l.9,.9l1.9,-1.4Z" class="g2_1" />
<path d="M208.6,68.3l-.5,-.5Z" class="g2_1" />
<path d="M205.3,68.9l3.3,-.6l-.9,-.9Z" class="g2_1" />
<path d="M205.3,68.9l1,.9l2.3,-1.5Z" class="g2_1" />
<path d="M205.7,69.8h.6l-.6,-.6Z" class="g2_1" />
<path d="M205.7,69.8v0h.6Z" class="g2_1" />
<path d="M203.9,69.8h1.8v-.9Z" class="g2_1" />
<path d="M203.9,69.8v.9l1.8,-.9Z" class="g2_1" />
<path d="M203.5,69.8h.4v.5Z" class="g2_1" />
<path d="M203.5,69.8v0h.4Z" class="g2_1" />
<path d="M201.5,71.3l2.9,-.6l-.9,-.9Z" class="g2_1" />
<path d="M201.5,71.3l.9,.9l2,-1.5Z" class="g2_1" />
<path d="M201.5,71.3l.5,.5Z" class="g2_1" />
<path d="M199.1,73.3l3.3,-1.1l-.9,-.9Z" class="g2_1" />
<path d="M199.1,73.3l.9,.9l2.4,-2Z" class="g2_1" />
<path d="M200,74.2v0l-.4,-.6Z" class="g2_1" />
<path d="M200,74.2v0Z" class="g2_1" />
<path d="M197.3,74.7l2.7,-.5l-.9,-.9Z" class="g2_1" />
<path d="M197.3,74.7l.9,1L200,74.2Z" class="g2_1" />
<path d="M195.4,76.2l2.8,-.5l-.9,-1Z" class="g2_1" />
<path d="M195.4,76.2l1,.9l1.8,-1.4Z" class="g2_1" />
<path d="M193.4,77.7l3,-.6l-1,-.9Z" class="g2_1" />
<path d="M193.4,77.7l.9,.9l2.1,-1.5Z" class="g2_1" />
<path d="M193.4,77.7l.6,.3Z" class="g2_1" />
<path d="M191.6,79.5l2.7,-.9l-.9,-.9Z" class="g2_1" />
<path d="M191.6,79.5l.9,1.1l1.8,-2Z" class="g2_1" />
<path d="M192.5,80.6l-.5,-.5Z" class="g2_1" />
<path d="M189.6,81l2.9,-.4l-.9,-1.1Z" class="g2_1" />
<path d="M189.6,81l1.1,1.1l1.8,-1.5Z" class="g2_1" />
<path d="M189.6,81v0l.5,.5Z" class="g2_1" />
<path d="M189.6,81v0Z" class="g2_1" />
<path d="M187.7,83l3,-.9L189.6,81Z" class="g2_1" />
<path d="M187.7,83l.9,.9l2.1,-1.8Z" class="g2_1" />
<path d="M188.6,83.9l-.3,-.4Z" class="g2_1" />
<path d="M185.9,84.5l2.7,-.6l-.9,-.9Z" class="g2_1" />
<path d="M185.9,84.5l.9,.9l1.8,-1.5Z" class="g2_1" />
<path d="M185.9,84.5l.4,.5Z" class="g2_1" />
<path d="M183.9,86.5l2.9,-1.1l-.9,-.9Z" class="g2_1" />
<path d="M183.9,86.5l1.1,.9l1.8,-2Z" class="g2_1" />
<path d="M184.4,86.8l-.5,-.3Z" class="g2_1" />
<path d="M182.1,88.3l2.9,-.9l-1.1,-.9Z" class="g2_1" />
<path d="M182.1,88.3l.9,1.1l2,-2Z" class="g2_1" />
<path d="M182.6,88.9l-.5,-.6Z" class="g2_1" />
<path d="M182.1,88.3v0Z" class="g2_1" />
<path d="M180.2,90.3l2.8,-.9l-.9,-1.1Z" class="g2_1" />
<path d="M180.2,90.3l.9,.9L183,89.4Z" class="g2_1" />
<path d="M180.6,90.9l-.4,-.6Z" class="g2_1" />
<path d="M180.2,90.3v0Z" class="g2_1" />
<path d="M178.8,91.8l2.3,-.6l-.9,-.9Z" class="g2_1" />
<path d="M178.8,91.8l.9,.9l1.4,-1.5Z" class="g2_1" />
<path d="M179.1,92.3l-.3,-.5Z" class="g2_1" />
<path d="M176.7,93.8l3,-1.1l-.9,-.9Z" class="g2_1" />
<path d="M176.7,93.8l1.1,.9l1.9,-2Z" class="g2_1" />
<path d="M176.7,93.8l.6,.4Z" class="g2_1" />
<path d="M175.4,95.6l2.4,-.9l-1.1,-.9Z" class="g2_1" />
<path d="M175.4,95.6l1,1.1l1.4,-2Z" class="g2_1" />
<path d="M176.4,96.7l-.6,-.5Z" class="g2_1" />
<path d="M173.4,97.7l3,-1l-1,-1.1Z" class="g2_1" />
<path d="M173.4,97.7l1.1,.9l1.9,-1.9Z" class="g2_1" />
<path d="M173.4,97.7l.6,.5Z" class="g2_1" />
<path d="M172.1,99.7l2.4,-1.1l-1.1,-.9Z" class="g2_1" />
<path d="M172.1,99.7l1,.9l1.4,-2Z" class="g2_1" />
<path d="M173.1,100.6l-.6,-.6Z" class="g2_1" />
<path d="M170.1,102.1l3,-1.5l-1,-.9Z" class="g2_1" />
<path d="M170.1,102.1l1,.9l2,-2.4Z" class="g2_1" />
<path d="M170.1,102.1v0l.6,.5Z" class="g2_1" />
<path d="M170.1,102.1v0Z" class="g2_1" />
<path d="M168.7,104.1l2.4,-1.1l-1,-.9Z" class="g2_1" />
<path d="M168.7,104.1l1.1,.9l1.3,-2Z" class="g2_1" />
<path d="M169.8,105l-.6,-.6Z" class="g2_1" />
<path d="M166.8,105.9l3,-.9l-1.1,-.9Z" class="g2_1" />
<path d="M166.8,105.9l1,1.1l2,-2Z" class="g2_1" />
<path d="M166.8,105.9l.6,.6Z" class="g2_1" />
<path d="M165.4,107.9l2.4,-.9l-1,-1.1Z" class="g2_1" />
<path d="M165.4,107.9l1.1,.9l1.3,-1.8Z" class="g2_1" />
<path d="M165.4,107.9l.5,.6Z" class="g2_1" />
<path d="M164.1,110.3l2.4,-1.5l-1.1,-.9Z" class="g2_1" />
<path d="M164.1,110.3l.9,1.1l1.5,-2.6Z" class="g2_1" />
<path d="M165,111.4l-.5,-.5Z" class="g2_1" />
<path d="M162.6,112.3l2.4,-.9l-.9,-1.1Z" class="g2_1" />
<path d="M162.6,112.3l.9,.9l1.5,-1.8Z" class="g2_1" />
<path d="M162.6,112.3l.4,.6Z" class="g2_1" />
<path d="M161.1,114.7l2.4,-1.5l-.9,-.9Z" class="g2_1" />
<path d="M161.1,114.7l1,1.1l1.4,-2.6Z" class="g2_1" />
<path d="M162.1,115.8v0l-.4,-.5Z" class="g2_1" />
<path d="M162.1,115.8v0Z" class="g2_1" />
<path d="M159.7,116.7l2.4,-.9l-1,-1.1Z" class="g2_1" />
<path d="M159.7,116.7l.9,.9l1.5,-1.8Z" class="g2_1" />
<path d="M159.7,116.7l.5,.6Z" class="g2_1" />
<path d="M158.2,119.1l2.4,-1.5l-.9,-.9Z" class="g2_1" />
<path d="M158.2,119.1l1.1,1.1l1.3,-2.6Z" class="g2_1" />
<path d="M156.9,121.7l2.4,-1.5l-1.1,-1.1Z" class="g2_1" />
<path d="M156.9,121.7l.9,.9l1.5,-2.4Z" class="g2_1" />
<path d="M157.8,122.6v0l-.5,-.6Z" class="g2_1" />
<path d="M157.8,122.6v0Z" class="g2_1" />
<path d="M155.5,123.5l2.3,-.9l-.9,-.9Z" class="g2_1" />
<path d="M155.5,123.5l.9,1.1l1.4,-2Z" class="g2_1" />
<path d="M155.5,124.1v-.6l.5,.6Z" class="g2_1" />
<path d="M155.5,124.1v-.6Z" class="g2_1" />
<path d="M154.6,126.4l1.8,-2.3h-.9Z" class="g2_1" />
<path d="M154.6,126.4h.9l.9,-2.3Z" class="g2_1" />
<path d="M155.5,127v-.6h-.6Z" class="g2_1" />
<path d="M155.5,127v-.6Z" class="g2_1" />
<path d="M153.1,128.5l2.4,-1.5l-.9,-.9Z" class="g2_1" />
<path d="M153.1,128.5l.9,.9l1.5,-2.4Z" class="g2_1" />
<path d="M151.6,130.8l2.4,-1.4l-.9,-.9Z" class="g2_1" />
<path d="M151.6,130.8l.9,1.1l1.5,-2.5Z" class="g2_1" />
<path d="M151.6,131.4v-.6l.6,.6Z" class="g2_1" />
<path d="M151.6,131.4v-.6Z" class="g2_1" />
<path d="M150.7,133.8l1.8,-2.4h-.9Z" class="g2_1" />
<path d="M150.7,133.8h.9l.9,-2.4Z" class="g2_1" />
<path d="M151.6,134.3v-.5h-.3Z" class="g2_1" />
<path d="M151.6,134.3v-.5Z" class="g2_1" />
<path d="M149.2,135.2l2.4,-.9l-.9,-.9Z" class="g2_1" />
<path d="M149.2,135.2l.9,1.1l1.5,-2Z" class="g2_1" />
<path d="M149.2,135.8v-.6l.6,.6Z" class="g2_1" />
<path d="M149.2,135.8v-.6Z" class="g2_1" />
<path d="M148.3,138.2l1.8,-2.4h-.9Z" class="g2_1" />
<path d="M148.3,138.2h.9l.9,-2.4Z" class="g2_1" />
<path d="M147.4,140.7l1.8,-2.5h-.9Z" class="g2_1" />
<path d="M147.4,140.7h.9l.9,-2.5Z" class="g2_1" />
<path d="M146.5,143.1l1.8,-2.4h-.9Z" class="g2_1" />
<path d="M146.5,143.1h.9l.9,-2.4Z" class="g2_1" />
<path d="M147.4,143.1v0h-.6Z" class="g2_1" />
<path d="M147.4,143.1v0Z" class="g2_1" />
<path d="M145,146.1l2.4,-3h-.9Z" class="g2_1" />
<path d="M145,146.1h.9l1.5,-3Z" class="g2_1" />
<path d="M145,146.1h.6Z" class="g2_1" />
<path d="M144.1,148.4l1.8,-2.3H145Z" class="g2_1" />
<path d="M144.1,148.4h.9l.9,-2.3Z" class="g2_1" />
<path d="M143.2,151l1.8,-2.6h-.9Z" class="g2_1" />
<path d="M143.2,151h.9l.9,-2.6Z" class="g2_1" />
<path d="M142.1,153.4l2,-2.4h-.9Z" class="g2_1" />
<path d="M142.1,153.4h1.1l.9,-2.4Z" class="g2_1" />
<path d="M142.1,153.4h.5Z" class="g2_1" />
<path d="M141.7,155.8l1.5,-2.4h-1.1Z" class="g2_1" />
<path d="M141.7,155.8h.9l.6,-2.4Z" class="g2_1" />
<path d="M142.6,155.8h-.5Z" class="g2_1" />
<path d="M140.8,158.3l1.8,-2.5h-.9Z" class="g2_1" />
<path d="M140.8,158.3h.9l.9,-2.5Z" class="g2_1" />
<path d="M140.8,158.3h.4Z" class="g2_1" />
<path d="M139.7,161.3l2,-3h-.9Z" class="g2_1" />
<path d="M139.7,161.3h1.1l.9,-3Z" class="g2_1" />
<path d="M140.8,161.3v0h-.5Z" class="g2_1" />
<path d="M140.8,161.3v0Z" class="g2_1" />
<path d="M138.8,163.7l2,-2.4h-1.1Z" class="g2_1" />
<path d="M138.8,163.7h.9l1.1,-2.4Z" class="g2_1" />
<path d="M138.8,163.7v0h.5Z" class="g2_1" />
<path d="M138.8,163.7v0Z" class="g2_1" />
<path d="M138.4,166l1.3,-2.3h-.9Z" class="g2_1" />
<path d="M138.4,166h.9l.4,-2.3Z" class="g2_1" />
<path d="M139.3,166v0h-.5Z" class="g2_1" />
<path d="M139.3,166v0Z" class="g2_1" />
<path d="M137.5,169l1.8,-3h-.9Z" class="g2_1" />
<path d="M137.5,169h.9l.9,-3Z" class="g2_1" />
<path d="M137.5,169h.4Z" class="g2_1" />
<path d="M137,171.5l1.4,-2.5h-.9Z" class="g2_1" />
<path d="M137,171.5h.9l.5,-2.5Z" class="g2_1" />
<path d="M136.4,173.9l1.5,-2.4H137Z" class="g2_1" />
<path d="M136.4,173.9h1.1l.4,-2.4Z" class="g2_1" />
<path d="M136.4,173.9h.6Z" class="g2_1" />
<path d="M136,176.9l1.5,-3h-1.1Z" class="g2_1" />
<path d="M136,176.9h1l.5,-3Z" class="g2_1" />
<path d="M137,176.9h-.6Z" class="g2_1" />
<path d="M135.1,179.2l1.9,-2.3h-1Z" class="g2_1" />
<path d="M135.1,179.2h.9l1,-2.3Z" class="g2_1" />
<path d="M135.1,179.2h.4Z" class="g2_1" />
<path d="M134.6,182.2l1.4,-3h-.9Z" class="g2_1" />
<path d="M134.6,182.2h.9l.5,-3Z" class="g2_1" />
<path d="M135.5,182.2v0h-.4Z" class="g2_1" />
<path d="M135.5,182.2v0Z" class="g2_1" />
<path d="M134,184.7l1.5,-2.5h-.9Z" class="g2_1" />
<path d="M134,184.7h1.1l.4,-2.5Z" class="g2_1" />
<path d="M134,184.7h.6Z" class="g2_1" />
<path d="M133.6,187.7l1.5,-3H134Z" class="g2_1" />
<path d="M133.6,187.7h1l.5,-3Z" class="g2_1" />
<path d="M133.6,187.7l.4,.3Z" class="g2_1" />
<path d="M133.6,190.1l1,-2.4h-1Z" class="g2_1" />
<path d="M133.6,190.1h1v-2.4Z" class="g2_1" />
<path d="M134.6,190.1H134Z" class="g2_1" />
<path d="M133.1,193l1.5,-2.9h-1Z" class="g2_1" />
<path d="M133.1,193h.9l.6,-2.9Z" class="g2_1" />
<path d="M134,193h-.4Z" class="g2_1" />
<path d="M132.7,195.4L134,193h-.9Z" class="g2_1" />
<path d="M132.7,195.4h.9L134,193Z" class="g2_1" />
<path d="M132.7,195.4h.4Z" class="g2_1" />
<path d="M132.2,198.3l1.4,-2.9h-.9Z" class="g2_1" />
<path d="M132.2,198.3h.9l.5,-2.9Z" class="g2_1" />
<path d="M132.2,198.3v0l.5,.6Z" class="g2_1" />
<path d="M132.2,198.3v0Z" class="g2_1" />
<path d="M132.2,201.2l.9,-2.9h-.9Z" class="g2_1" />
<path d="M132.2,201.2h.9v-2.9Z" class="g2_1" />
<path d="M132.2,203.8l.9,-2.6h-.9Z" class="g2_1" />
<path d="M132.2,203.8h.9v-2.6Z" class="g2_1" />
<path d="M133.1,203.8h-.4Z" class="g2_1" />
<path d="M131.6,206.7l1.5,-2.9h-.9Z" class="g2_1" />
<path d="M131.6,206.7h1.1l.4,-2.9Z" class="g2_1" />
<path d="M131.6,206.7h.6Z" class="g2_1" />
<path d="M131.6,209.1l1.1,-2.4h-1.1Z" class="g2_1" />
<path d="M131.6,209.1h1.1v-2.4Z" class="g2_1" />
<path d="M131.6,212.1l1.1,-3h-1.1Z" class="g2_1" />
<path d="M131.6,212.1h1.1v-3Z" class="g2_1" />
<path d="M131.6,214.4l1.1,-2.3h-1.1Z" class="g2_1" />
<path d="M131.6,214.4h1.1v-2.3Z" class="g2_1" />
<path d="M131.6,217.4l1.1,-3h-1.1Z" class="g2_1" />
<path d="M131.6,217.4h1.1v-3Z" class="g2_1" />
<path d="M131.6,220.3l1.1,-2.9h-1.1Z" class="g2_1" />
<path d="M131.6,220.3h1.1v-2.9Z" class="g2_1" />
<path d="M131.6,222.9l1.1,-2.6h-1.1Z" class="g2_1" />
<path d="M131.6,222.9h1.1v-2.6Z" class="g2_1" />
<path d="M131.6,225.8l1.1,-2.9h-1.1Z" class="g2_1" />
<path d="M131.6,225.8h1.1v-2.9Z" class="g2_1" />
<path d="M131.6,228.2l1.1,-2.4h-1.1Z" class="g2_1" />
<path d="M131.6,228.2h1.1v-2.4Z" class="g2_1" />
<path d="M131.6,228.2v0h.6Z" class="g2_1" />
<path d="M131.6,228.2v0Z" class="g2_1" />
<path d="M132.2,231.1l.5,-2.9h-1.1Z" class="g2_1" />
<path d="M132.2,231.1h.9l-.4,-2.9Z" class="g2_1" />
<path d="M133.1,231.1h-.4Z" class="g2_1" />
<path d="M132.2,233.5l.9,-2.4h-.9Z" class="g2_1" />
<path d="M132.2,233.5h.9v-2.4Z" class="g2_1" />
<path d="M132.2,236.4l.9,-2.9h-.9Z" class="g2_1" />
<path d="M132.2,236.4h.9v-2.9Z" class="g2_1" />
<path d="M132.2,236.4h.5Z" class="g2_1" />
<path d="M132.7,239.4l.4,-3h-.9Z" class="g2_1" />
<path d="M132.7,239.4h.9l-.5,-3Z" class="g2_1" />
<path d="M132.7,239.4v0h.4Z" class="g2_1" />
<path d="M132.7,239.4v0Z" class="g2_1" />
<path d="M133.1,241.9l.5,-2.5h-.9Z" class="g2_1" />
<path d="M133.1,241.9h.9l-.4,-2.5Z" class="g2_1" />
<path d="M134,241.9v0h-.4Z" class="g2_1" />
<path d="M134,241.9v0Z" class="g2_1" />
<path d="M133.6,244.9l.4,-3h-.9Z" class="g2_1" />
<path d="M133.6,244.9h1l-.6,-3Z" class="g2_1" />
<path d="M134.6,244.9H134Z" class="g2_1" />
<path d="M133.6,247.3l1,-2.4h-1Z" class="g2_1" />
<path d="M133.6,247.3h1v-2.4Z" class="g2_1" />
<path d="M133.6,247.3h.4Z" class="g2_1" />
<path d="M134,250.2l.6,-2.9h-1Z" class="g2_1" />
<path d="M134,250.2h1.1l-.5,-2.9Z" class="g2_1" />
<path d="M134,250.2h.6Z" class="g2_1" />
<path d="M134.6,252.6l.5,-2.4H134Z" class="g2_1" />
<path d="M134.6,252.6h.9l-.4,-2.4Z" class="g2_1" />
<path d="M135.5,252.6h-.4Z" class="g2_1" />
<path d="M135.1,255.5l.4,-2.9h-.9Z" class="g2_1" />
<path d="M135.1,255.5h.9l-.5,-2.9Z" class="g2_1" />
<path d="M135.1,255.5v0h.4Z" class="g2_1" />
<path d="M135.1,255.5v0Z" class="g2_1" />
<path d="M136,258.1v-2.6h-.9Z" class="g2_1" />
<path d="M136,258.1h1l-1,-2.6Z" class="g2_1" />
<path d="M137,258.1h-.6Z" class="g2_1" />
<path d="M136.4,261l.6,-2.9h-1Z" class="g2_1" />
<path d="M136.4,261h1.1l-.5,-2.9Z" class="g2_1" />
<path d="M136.4,261h.6Z" class="g2_1" />
<path d="M137,263.4l.5,-2.4h-1.1Z" class="g2_1" />
<path d="M137,263.4h.9l-.4,-2.4Z" class="g2_1" />
<path d="M137.5,265.8l.4,-2.4H137Z" class="g2_1" />
<path d="M137.5,265.8h.9l-.5,-2.4Z" class="g2_1" />
<path d="M137.5,265.8h.4Z" class="g2_1" />
<path d="M138.4,268.7v-2.9h-.9Z" class="g2_1" />
<path d="M138.4,268.7h.9l-.9,-2.9Z" class="g2_1" />
<path d="M139.3,268.7h-.5Z" class="g2_1" />
<path d="M138.8,271.3l.5,-2.6h-.9Z" class="g2_1" />
<path d="M138.8,271.3h.9l-.4,-2.6Z" class="g2_1" />
<path d="M138.8,271.3v0h.5Z" class="g2_1" />
<path d="M138.8,271.3v0Z" class="g2_1" />
<path d="M139.7,273.7v-2.4h-.9Z" class="g2_1" />
<path d="M139.7,273.7h1.1l-1.1,-2.4Z" class="g2_1" />
<path d="M140.8,273.7v0h-.5Z" class="g2_1" />
<path d="M140.8,273.7v0Z" class="g2_1" />
<path d="M139.7,273.7h1.1v2.9Z" class="g2_1" />
<path d="M140.8,276.6h.9l-.9,-2.9Z" class="g2_1" />
<path d="M140.8,276.6h.4Z" class="g2_1" />
<path d="M141.7,279v-2.4h-.9Z" class="g2_1" />
<path d="M141.7,279h.9l-.9,-2.4Z" class="g2_1" />
<path d="M142.6,279h-.5Z" class="g2_1" />
<path d="M142.1,281.4l.5,-2.4h-.9Z" class="g2_1" />
<path d="M142.1,281.4h1.1l-.6,-2.4Z" class="g2_1" />
<path d="M142.1,281.4h.5Z" class="g2_1" />
<path d="M143.2,283.9v-2.5h-1.1Z" class="g2_1" />
<path d="M143.2,283.9h.9l-.9,-2.5Z" class="g2_1" />
<path d="M144.1,286.3v-2.4h-.9Z" class="g2_1" />
<path d="M144.1,286.3h.9l-.9,-2.4Z" class="g2_1" />
<path d="M144.1,286.3h.9v2.4Z" class="g2_1" />
<path d="M145,288.7h.9l-.9,-2.4Z" class="g2_1" />
<path d="M145,288.7h.6Z" class="g2_1" />
<path d="M146.5,291.6l-.6,-2.9H145Z" class="g2_1" />
<path d="M146.5,291.6h.9l-1.5,-2.9Z" class="g2_1" />
<path d="M147.4,291.6h-.6Z" class="g2_1" />
<path d="M146.5,291.6h.9v2.6Z" class="g2_1" />
<path d="M147.4,294.2h.9l-.9,-2.6Z" class="g2_1" />
<path d="M147.4,294.2h.9v2.4Z" class="g2_1" />
<path d="M148.3,296.6h.9l-.9,-2.4Z" class="g2_1" />
<path d="M148.3,296.6h.9V299Z" class="g2_1" />
<path d="M149.2,299h.9l-.9,-2.4Z" class="g2_1" />
<path d="M149.2,299.5V299h.6Z" class="g2_1" />
<path d="M149.2,299.5V299Z" class="g2_1" />
<path d="M150.7,301.5l-.6,-2.9l-.9,.9Z" class="g2_1" />
<path d="M150.7,301.5l.9,-1.1l-1.5,-1.8Z" class="g2_1" />
<path d="M151.6,301v-.6l-.3,.6Z" class="g2_1" />
<path d="M151.6,301v-.6Z" class="g2_1" />
<path d="M150.7,301h.9v2.4Z" class="g2_1" />
<path d="M151.6,303.4h.9l-.9,-2.4Z" class="g2_1" />
<path d="M151.6,303.9v-.5h.6Z" class="g2_1" />
<path d="M151.6,303.9v-.5Z" class="g2_1" />
<path d="M153.1,306.3l-.6,-3.3l-.9,.9Z" class="g2_1" />
<path d="M153.1,306.3l.9,-.9L152.5,303Z" class="g2_1" />
<path d="M154.6,308.9l-.6,-3.5l-.9,.9Z" class="g2_1" />
<path d="M154.6,308.9l.9,-1.1L154,305.4Z" class="g2_1" />
<path d="M155.5,308.3v-.5l-.6,.5Z" class="g2_1" />
<path d="M155.5,308.3v0v-.5Z" class="g2_1" />
<path d="M154.6,308.3h.9v2.4Z" class="g2_1" />
<path d="M155.5,310.7h.9l-.9,-2.4Z" class="g2_1" />
<path d="M155.5,311.2v-.5h.5Z" class="g2_1" />
<path d="M155.5,311.2v-.5Z" class="g2_1" />
<path d="M155.5,311.2l.9,-.9l.5,3Z" class="g2_1" />
<path d="M156.9,313.3l.9,-1.1l-1.4,-1.9Z" class="g2_1" />
<path d="M157.8,312.2l-.5,.5Z" class="g2_1" />
<path d="M158.2,315.6l-.4,-3.4l-.9,1.1Z" class="g2_1" />
<path d="M158.2,315.6l1.1,-.9l-1.5,-2.5Z" class="g2_1" />
<path d="M159.7,318l-.4,-3.3l-1.1,.9Z" class="g2_1" />
<path d="M159.7,318l.9,-.9l-1.3,-2.4Z" class="g2_1" />
<path d="M159.7,318l.5,-.3Z" class="g2_1" />
<path d="M161.1,320l-.5,-2.9l-.9,.9Z" class="g2_1" />
<path d="M161.1,320l1,-.9l-1.5,-2Z" class="g2_1" />
<path d="M162.1,319.1l-.4,.4Z" class="g2_1" />
<path d="M162.6,322.4l-.5,-3.3l-1,.9Z" class="g2_1" />
<path d="M162.6,322.4l.9,-.9l-1.4,-2.4Z" class="g2_1" />
<path d="M162.6,322.4l.4,-.3Z" class="g2_1" />
<path d="M164.1,324.4l-.6,-2.9l-.9,.9Z" class="g2_1" />
<path d="M164.1,324.4l.9,-.9l-1.5,-2Z" class="g2_1" />
<path d="M165,323.5l-.5,.4Z" class="g2_1" />
<path d="M165.4,326.8l-.4,-3.3l-.9,.9Z" class="g2_1" />
<path d="M165.4,326.8l1.1,-.9L165,323.5Z" class="g2_1" />
<path d="M165.4,326.8l.5,-.3Z" class="g2_1" />
<path d="M166.8,328.8l-.3,-2.9l-1.1,.9Z" class="g2_1" />
<path d="M166.8,328.8l1,-.9l-1.3,-2Z" class="g2_1" />
<path d="M166.8,328.8v0l.6,-.5Z" class="g2_1" />
<path d="M166.8,328.8v0Z" class="g2_1" />
<path d="M168.7,330.9l-.9,-3l-1,.9Z" class="g2_1" />
<path d="M168.7,330.9l1.1,-1.1l-2,-1.9Z" class="g2_1" />
<path d="M169.8,329.8l-.6,.5Z" class="g2_1" />
<path d="M170.1,332.7l-.3,-2.9l-1.1,1.1Z" class="g2_1" />
<path d="M170.1,332.7l1,-.9l-1.3,-2Z" class="g2_1" />
<path d="M170.1,332.7l.6,-.4Z" class="g2_1" />
<path d="M172.1,335.3l-1,-3.5l-1,.9Z" class="g2_1" />
<path d="M172.1,335.3l1,-1.1l-2,-2.4Z" class="g2_1" />
<path d="M173.1,334.2l-.6,.5Z" class="g2_1" />
<path d="M173.4,337.1l-.3,-2.9l-1,1.1Z" class="g2_1" />
<path d="M173.4,337.1l1.1,-.9l-1.4,-2Z" class="g2_1" />
<path d="M173.4,337.1l.6,-.4Z" class="g2_1" />
<path d="M175.4,339.1l-.9,-2.9l-1.1,.9Z" class="g2_1" />
<path d="M175.4,339.1l1,-.9l-1.9,-2Z" class="g2_1" />
<path d="M176.4,338.2v0l-.6,.4Z" class="g2_1" />
<path d="M176.4,338.2v0Z" class="g2_1" />
<path d="M176.7,341.1l-.3,-2.9l-1,.9Z" class="g2_1" />
<path d="M176.7,341.1l1.1,-1.1l-1.4,-1.8Z" class="g2_1" />
<path d="M176.7,341.1l.6,-.5Z" class="g2_1" />
<path d="M178.8,343l-1,-3l-1.1,1.1Z" class="g2_1" />
<path d="M178.8,343l.9,-1l-1.9,-2Z" class="g2_1" />
<path d="M179.1,342.6l-.3,.4Z" class="g2_1" />
<path d="M180.2,344.4l-.5,-2.4l-.9,1Z" class="g2_1" />
<path d="M180.2,344.4l.9,-.9L179.7,342Z" class="g2_1" />
<path d="M180.6,344.1l-.4,.3Z" class="g2_1" />
<path d="M182.1,346.4l-1,-2.9l-.9,.9Z" class="g2_1" />
<path d="M182.1,346.4l.9,-.9l-1.9,-2Z" class="g2_1" />
<path d="M182.6,345.9l-.5,.5Z" class="g2_1" />
<path d="M183.9,348.5l-.9,-3l-.9,.9Z" class="g2_1" />
<path d="M183.9,348.5l1.1,-1.1l-2,-1.9Z" class="g2_1" />
<path d="M184.4,347.9l-.5,.6Z" class="g2_1" />
<path d="M185.9,350.3l-.9,-2.9l-1.1,1.1Z" class="g2_1" />
<path d="M185.9,350.3l.9,-.9l-1.8,-2Z" class="g2_1" />
<path d="M185.9,350.3l.4,-.4Z" class="g2_1" />
<path d="M187.7,351.8l-.9,-2.4l-.9,.9Z" class="g2_1" />
<path d="M187.7,351.8l.9,-1l-1.8,-1.4Z" class="g2_1" />
<path d="M188.6,350.8l-.3,.6Z" class="g2_1" />
<path d="M189.6,353.8l-1,-3l-.9,1Z" class="g2_1" />
<path d="M189.6,353.8l1.1,-.9l-2.1,-2.1Z" class="g2_1" />
<path d="M189.6,353.8l.5,-.6Z" class="g2_1" />
<path d="M191.6,355.2l-.9,-2.3l-1.1,.9Z" class="g2_1" />
<path d="M191.6,355.2l.9,-.9l-1.8,-1.4Z" class="g2_1" />
<path d="M192.5,354.3l-.5,.4Z" class="g2_1" />
<path d="M193.4,357.3l-.9,-3l-.9,.9Z" class="g2_1" />
<path d="M193.4,357.3l.9,-1.1l-1.8,-1.9Z" class="g2_1" />
<path d="M193.4,357.3l.6,-.6Z" class="g2_1" />
<path d="M195.4,358.7l-1.1,-2.5l-.9,1.1Z" class="g2_1" />
<path d="M195.4,358.7l1,-1.1l-2.1,-1.4Z" class="g2_1" />
<path d="M197.3,360.2l-.9,-2.6l-1,1.1Z" class="g2_1" />
<path d="M197.3,360.2l.9,-1.1l-1.8,-1.5Z" class="g2_1" />
<path d="M199.1,361.7l-.9,-2.6l-.9,1.1Z" class="g2_1" />
<path d="M199.1,361.7l.9,-1.1l-1.8,-1.5Z" class="g2_1" />
<path d="M200,360.6l-.4,.5Z" class="g2_1" />
<path d="M201.5,363.5L200,360.6l-.9,1.1Z" class="g2_1" />
<path d="M201.5,363.5l.9,-.9l-2.4,-2Z" class="g2_1" />
<path d="M201.5,363.5l.5,-.4Z" class="g2_1" />
<path d="M203.5,365l-1.1,-2.4l-.9,.9Z" class="g2_1" />
<path d="M203.5,365l.9,-1l-2,-1.4Z" class="g2_1" />
<path d="M203.9,365h-.4l.4,-.4Z" class="g2_1" />
<path d="M203.9,365h-.4Z" class="g2_1" />
<path d="M205.7,366.1L203.9,364v1Z" class="g2_1" />
<path d="M205.7,366.1V365l-1.8,-1Z" class="g2_1" />
<path d="M206.3,365h-.6v.5Z" class="g2_1" />
<path d="M206.3,365h-.6Z" class="g2_1" />
<path d="M207.7,367.5L206.3,365l-1,1.1Z" class="g2_1" />
<path d="M207.7,367.5l.9,-1.1L206.3,365Z" class="g2_1" />
<path d="M208.6,366.4l-.5,.6Z" class="g2_1" />
<path d="M209.6,369l-1,-2.6l-.9,1.1Z" class="g2_1" />
<path d="M209.6,369l.9,-1.1l-1.9,-1.5Z" class="g2_1" />
<path d="M209.6,369l.5,-.6Z" class="g2_1" />
<path d="M211.9,370.5l-1.4,-2.6l-.9,1.1Z" class="g2_1" />
<path d="M211.9,370.5l.9,-1.1l-2.3,-1.5Z" class="g2_1" />
<path d="M212.8,369.4l-.3,.5Z" class="g2_1" />
<path d="M213.9,371.9l-1.1,-2.5l-.9,1.1Z" class="g2_1" />
<path d="M213.9,371.9l1,-1.1l-2.1,-1.4Z" class="g2_1" />
<path d="M214.3,371.9h-.4l.4,-.5Z" class="g2_1" />
<path d="M214.3,371.9h-.4Z" class="g2_1" />
<path d="M216.7,372.8l-2.4,-2v1.1Z" class="g2_1" />
<path d="M216.7,372.8v-.9l-2.4,-1.1Z" class="g2_1" />
<path d="M217.2,371.9h-.5v.4Z" class="g2_1" />
<path d="M217.2,371.9h-.5Z" class="g2_1" />
<path d="M218.2,374.3l-1,-2.4l-1.1,.9Z" class="g2_1" />
<path d="M218.2,374.3l.9,-.9l-1.9,-1.5Z" class="g2_1" />
<path d="M218.5,374.3h-.3l.3,-.5Z" class="g2_1" />
<path d="M218.5,374.3h-.3Z" class="g2_1" />
<path d="M220.9,375.2l-2.4,-1.8v.9Z" class="g2_1" />
<path d="M220.9,375.2v-.9l-2.4,-.9Z" class="g2_1" />
<path d="M223.3,376.3l-2.4,-2v.9Z" class="g2_1" />
<path d="M223.3,376.3v-1.1l-2.4,-.9Z" class="g2_1" />
<path d="M223.9,375.2h-.6v.6Z" class="g2_1" />
<path d="M223.9,375.2h-.6Z" class="g2_1" />
<path d="M224.8,377.8l-.9,-2.6l-1,1.1Z" class="g2_1" />
<path d="M224.8,377.8l.9,-1.1l-1.8,-1.5Z" class="g2_1" />
<path d="M225.3,377.8h-.5l.5,-.6Z" class="g2_1" />
<path d="M225.3,377.8h-.5Z" class="g2_1" />
<path d="M227.7,378.7l-2.4,-2v1.1Z" class="g2_1" />
<path d="M227.7,378.7v-.9l-2.4,-1.1Z" class="g2_1" />
<path d="M230.1,379.6l-2.4,-1.8v.9Z" class="g2_1" />
<path d="M230.1,379.6v-.9l-2.4,-.9Z" class="g2_1" />
<path d="M232.5,380.7l-2.4,-2v.9Z" class="g2_1" />
<path d="M232.5,380.7v-1.1l-2.4,-.9Z" class="g2_1" />
<path d="M232.5,379.6v.6Z" class="g2_1" />
<path d="M234.3,381.6l-1.8,-2v1.1Z" class="g2_1" />
<path d="M234.3,381.6v-.9l-1.8,-1.1Z" class="g2_1" />
<path d="M234.3,381.6v0v-.5Z" class="g2_1" />
<path d="M234.3,381.6v0Z" class="g2_1" />
<path d="M236.7,382.6l-2.4,-1.9v.9Z" class="g2_1" />
<path d="M236.7,382.6v-1l-2.4,-.9Z" class="g2_1" />
<path d="M239.1,383.7l-2.4,-2.1v1Z" class="g2_1" />
<path d="M239.1,383.7v-1.1l-2.4,-1Z" class="g2_1" />
<path d="M239.1,383.7v0v-.6Z" class="g2_1" />
<path d="M239.1,383.7v0Z" class="g2_1" />
<path d="M241.4,384l-2.3,-1.4v1.1Z" class="g2_1" />
<path d="M241.4,384v-.9l-2.3,-.5Z" class="g2_1" />
<path d="M241.4,383.1v.6Z" class="g2_1" />
<path d="M243.8,385.1l-2.4,-2v.9Z" class="g2_1" />
<path d="M243.8,385.1V384l-2.4,-.9Z" class="g2_1" />
<path d="M243.8,385.1v-.5Z" class="g2_1" />
<path d="M246.2,385.5L243.8,384v1.1Z" class="g2_1" />
<path d="M246.2,385.5v-.9l-2.4,-.6Z" class="g2_1" />
<path d="M246.2,384.6v.5Z" class="g2_1" />
<path d="M248.6,386.6l-2.4,-2v.9Z" class="g2_1" />
<path d="M248.6,386.6v-1.1l-2.4,-.9Z" class="g2_1" />
<path d="M248.6,386.6V386Z" class="g2_1" />
<path d="M251,387l-2.4,-1.5v1.1Z" class="g2_1" />
<path d="M251,387v-1l-2.4,-.5Z" class="g2_1" />
<path d="M253.4,387.5L251,386v1Z" class="g2_1" />
<path d="M253.4,387.5v-.9L251,386Z" class="g2_1" />
<path d="M253.4,386.6v.4Z" class="g2_1" />
<path d="M255.6,388.4l-2.2,-1.8v.9Z" class="g2_1" />
<path d="M255.6,388.4v-.9l-2.2,-.9Z" class="g2_1" />
<path d="M255.6,388.4v0v-.3Z" class="g2_1" />
<path d="M255.6,388.4v0Z" class="g2_1" />
<path d="M257.9,389l-2.3,-1.5v.9Z" class="g2_1" />
<path d="M257.9,389v-.9l-2.3,-.6Z" class="g2_1" />
<path d="M260.3,389.5l-2.4,-1.4v.9Z" class="g2_1" />
<path d="M260.3,389.5v-1.1l-2.4,-.3Z" class="g2_1" />
<path d="M262.7,389.9l-2.4,-1.5v1.1Z" class="g2_1" />
<path d="M262.7,389.9V389l-2.4,-.6Z" class="g2_1" />
<path d="M262.7,389.9v-.4Z" class="g2_1" />
<path d="M265.1,389.9l-2.4,-.9v.9Z" class="g2_1" />
<path d="M262.7,389h2.4v.9Z" class="g2_1" />
<path d="M265.1,389v.5Z" class="g2_1" />
<path d="M267.5,390.4L265.1,389v.9Z" class="g2_1" />
<path d="M267.5,390.4v-.9l-2.4,-.5Z" class="g2_1" />
<path d="M269.9,391l-2.4,-1.5v.9Z" class="g2_1" />
<path d="M269.9,391v-1.1l-2.4,-.4Z" class="g2_1" />
<path d="M269.9,391l.5,-.6Z" class="g2_1" />
<path d="M272.2,391l-2.3,-1.1V391Z" class="g2_1" />
<path d="M269.9,389.9h2.3V391Z" class="g2_1" />
<path d="M272.2,389.9v.5Z" class="g2_1" />
<path d="M274.6,391.4l-2.4,-1.5V391Z" class="g2_1" />
<path d="M274.6,391.4v-1l-2.4,-.5Z" class="g2_1" />
<path d="M274.6,391.4l.6,-.4Z" class="g2_1" />
<path d="M277,391.4l-2.4,-1v1Z" class="g2_1" />
<path d="M274.6,390.4H277v1Z" class="g2_1" />
<path d="M277,390.4v.6Z" class="g2_1" />
<path d="M280,391.9l-3,-1.5v1Z" class="g2_1" />
<path d="M280,391.9V391l-3,-.6Z" class="g2_1" />
<path d="M280,391.9v-.5Z" class="g2_1" />
<path d="M282.3,391.9L280,391v.9Z" class="g2_1" />
<path d="M280,391h2.3v.9Z" class="g2_1" />
<path d="M284.5,391.9l-2.2,-.9v.9Z" class="g2_1" />
<path d="M282.3,391h2.2v.9Z" class="g2_1" />
<path d="M286.9,391.9l-2.4,-.9v.9Z" class="g2_1" />
<path d="M284.5,391h2.4v.9Z" class="g2_1" />
<path d="M289.3,391.9l-2.4,-.9v.9Z" class="g2_1" />
<path d="M286.9,391h2.4v.9Z" class="g2_1" />
<path d="M291.7,391.9l-2.4,-.9v.9Z" class="g2_1" />
<path d="M289.3,391h2.4v.9Z" class="g2_1" />
<path d="M294.1,391.9l-2.4,-.9v.9Z" class="g2_1" />
<path d="M291.7,391h2.4v.9Z" class="g2_1" />
<path d="M294.1,391.9v-.5Z" class="g2_1" />
<path d="M297,391.4l-2.9,-.4v.9Z" class="g2_1" />
<path d="M297,391.4v-1l-2.9,.6Z" class="g2_1" />
<path d="M297,390.4v.6Z" class="g2_1" />
<path d="M299.4,391.4l-2.4,-1v1Z" class="g2_1" />
<path d="M297,390.4h2.4v1Z" class="g2_1" />
<path d="M299.4,391.4V391Z" class="g2_1" />
<path d="M301.8,391l-2.4,-.6v1Z" class="g2_1" />
<path d="M301.8,391v-1.1l-2.4,.5Z" class="g2_1" />
<path d="M301.8,389.9v.5Z" class="g2_1" />
<path d="M304.2,391l-2.4,-1.1V391Z" class="g2_1" />
<path d="M301.8,389.9h2.4V391Z" class="g2_1" />
<path d="M304.2,391v-.6Z" class="g2_1" />
<path d="M306.5,390.4l-2.3,-.5V391Z" class="g2_1" />
<path d="M306.5,390.4v-.9l-2.3,.4Z" class="g2_1" />
<path d="M308.9,389.9l-2.4,-.4v.9Z" class="g2_1" />
<path d="M308.9,389.9V389l-2.4,.5Z" class="g2_1" />
<path d="M308.9,389l.4,.5Z" class="g2_1" />
<path d="M311.3,389.9l-2.4,-.9v.9Z" class="g2_1" />
<path d="M308.9,389h2.4v.9Z" class="g2_1" />
<path d="M311.3,389.9v-.4Z" class="g2_1" />
<path d="M313.5,389.5l-2.2,-.5v.9Z" class="g2_1" />
<path d="M313.5,389.5v-1.1l-2.2,.6Z" class="g2_1" />
<path d="M315.9,389l-2.4,-.6v1.1Z" class="g2_1" />
<path d="M315.9,389v-.9l-2.4,.3Z" class="g2_1" />
<path d="M318.3,388.4l-2.4,-.3v.9Z" class="g2_1" />
<path d="M318.3,388.4v-.9l-2.4,.6Z" class="g2_1" />
<path d="M318.3,388.4v0v-.3Z" class="g2_1" />
<path d="M318.3,388.4v0Z" class="g2_1" />
<path d="M320.6,387.5h-2.3v.9Z" class="g2_1" />
<path d="M320.6,387.5v-.9l-2.3,.9Z" class="g2_1" />
<path d="M320.6,386.6v.4Z" class="g2_1" />
<path d="M323,387l-2.4,-.4v.9Z" class="g2_1" />
<path d="M323,387v-1l-2.4,.6Z" class="g2_1" />
<path d="M325.4,386.6L323,386v1Z" class="g2_1" />
<path d="M325.4,386.6v-1.1L323,386Z" class="g2_1" />
<path d="M325.4,386.6V386Z" class="g2_1" />
<path d="M327.8,385.5h-2.4v1.1Z" class="g2_1" />
<path d="M327.8,385.5v-.9l-2.4,.9Z" class="g2_1" />
<path d="M327.8,384.6v.5Z" class="g2_1" />
<path d="M330.2,385.1l-2.4,-.5v.9Z" class="g2_1" />
<path d="M330.2,385.1V384l-2.4,.6Z" class="g2_1" />
<path d="M330.2,385.1v-.5Z" class="g2_1" />
<path d="M332.6,384h-2.4v1.1Z" class="g2_1" />
<path d="M332.6,384v-.9l-2.4,.9Z" class="g2_1" />
<path d="M332.6,383.1v.6Z" class="g2_1" />
<path d="M335,383.7l-2.4,-.6v.9Z" class="g2_1" />
<path d="M335,383.7v-1.1l-2.4,.5Z" class="g2_1" />
<path d="M335,383.7v0v-.6Z" class="g2_1" />
<path d="M335,383.7v0Z" class="g2_1" />
<path d="M337.3,382.6H335v1.1Z" class="g2_1" />
<path d="M337.3,382.6v-1l-2.3,1Z" class="g2_1" />
<path d="M339.7,381.6h-2.4v1Z" class="g2_1" />
<path d="M339.7,381.6v-.9l-2.4,.9Z" class="g2_1" />
<path d="M339.7,381.6v0v-.5Z" class="g2_1" />
<path d="M339.7,381.6v0Z" class="g2_1" />
<path d="M341.6,380.7h-1.9v.9Z" class="g2_1" />
<path d="M341.6,380.7v-1.1l-1.9,1.1Z" class="g2_1" />
<path d="M341.6,379.6v.6Z" class="g2_1" />
<path d="M343.9,379.6h-2.3v1.1Z" class="g2_1" />
<path d="M343.9,379.6v-.9l-2.3,.9Z" class="g2_1" />
<path d="M346.3,378.7h-2.4v.9Z" class="g2_1" />
<path d="M346.3,378.7v-.9l-2.4,.9Z" class="g2_1" />
<path d="M348.7,377.8h-2.4v.9Z" class="g2_1" />
<path d="M348.7,377.8v-1.1l-2.4,1.1Z" class="g2_1" />
<path d="M349.2,377.8h-.5v-.6Z" class="g2_1" />
<path d="M349.2,377.8h-.5Z" class="g2_1" />
<path d="M351.1,376.3l-2.8,.4l.9,1.1Z" class="g2_1" />
<path d="M351.1,376.3l-.9,-1.1l-1.9,1.5Z" class="g2_1" />
<path d="M350.7,375.2h-.5l.5,.6Z" class="g2_1" />
<path d="M350.7,375.2h-.5Z" class="g2_1" />
<path d="M352.9,375.2h-2.2v1.1Z" class="g2_1" />
<path d="M352.9,375.2v-.9l-2.2,.9Z" class="g2_1" />
<path d="M355.3,374.3h-2.4v.9Z" class="g2_1" />
<path d="M355.3,374.3v-.9l-2.4,.9Z" class="g2_1" />
<path d="M355.9,374.3h-.6v-.5Z" class="g2_1" />
<path d="M355.9,374.3h-.6Z" class="g2_1" />
<path d="M357.7,372.8l-2.8,.6l1,.9Z" class="g2_1" />
<path d="M357.7,372.8l-.9,-.9l-1.9,1.5Z" class="g2_1" />
<path d="M357.3,371.9h-.5l.5,.4Z" class="g2_1" />
<path d="M357.3,371.9h-.5Z" class="g2_1" />
<path d="M359.7,371.9h-2.4v.9Z" class="g2_1" />
<path d="M359.7,371.9v-1.1l-2.4,1.1Z" class="g2_1" />
<path d="M360.1,371.9h-.4v-.5Z" class="g2_1" />
<path d="M360.1,371.9h-.4Z" class="g2_1" />
<path d="M362.1,370.5l-2.9,.3l.9,1.1Z" class="g2_1" />
<path d="M362.1,370.5l-.9,-1.1l-2,1.4Z" class="g2_1" />
<path d="M361.2,369.4l.3,.5Z" class="g2_1" />
<path d="M364.5,369l-3.3,.4l.9,1.1Z" class="g2_1" />
<path d="M364.5,369l-1.1,-1.1l-2.2,1.5Z" class="g2_1" />
<path d="M364.5,369l-.6,-.6Z" class="g2_1" />
<path d="M366.3,367.5l-2.9,.4l1.1,1.1Z" class="g2_1" />
<path d="M366.3,367.5l-.9,-1.1l-2,1.5Z" class="g2_1" />
<path d="M365.4,366.4l.4,.6Z" class="g2_1" />
<path d="M368.7,366.1l-3.3,.3l.9,1.1Z" class="g2_1" />
<path d="M368.7,366.1l-.9,-1.1l-2.4,1.4Z" class="g2_1" />
<path d="M368.1,365h-.3l.3,.5Z" class="g2_1" />
<path d="M368.1,365h-.3Z" class="g2_1" />
<path d="M370.2,365h-2.1v1.1Z" class="g2_1" />
<path d="M370.2,365v-1l-2.1,1Z" class="g2_1" />
<path d="M370.5,365h-.3v-.4Z" class="g2_1" />
<path d="M370.5,365h-.3Z" class="g2_1" />
<path d="M372.5,363.5l-2.9,.5l.9,1Z" class="g2_1" />
<path d="M372.5,363.5l-.9,-.9l-2,1.4Z" class="g2_1" />
<path d="M372.5,363.5l-.5,-.4Z" class="g2_1" />
<path d="M374.9,361.7l-3.3,.9l.9,.9Z" class="g2_1" />
<path d="M374.9,361.7l-1.1,-1.1l-2.2,2Z" class="g2_1" />
<path d="M373.8,360.6l.6,.5Z" class="g2_1" />
<path d="M376.7,360.2l-2.9,.4l1.1,1.1Z" class="g2_1" />
<path d="M376.7,360.2l-.9,-1.1l-2,1.5Z" class="g2_1" />
<path d="M378.6,358.7l-2.8,.4l.9,1.1Z" class="g2_1" />
<path d="M378.6,358.7l-.9,-1.1l-1.9,1.5Z" class="g2_1" />
<path d="M380.6,357.3l-2.9,.3l.9,1.1Z" class="g2_1" />
<path d="M380.6,357.3l-.9,-1.1l-2,1.4Z" class="g2_1" />
<path d="M380.6,357.3l-.6,-.6Z" class="g2_1" />
<path d="M382.4,355.2l-2.7,1l.9,1.1Z" class="g2_1" />
<path d="M382.4,355.2l-.9,-.9l-1.8,1.9Z" class="g2_1" />
<path d="M381.5,354.3l.4,.4Z" class="g2_1" />
<path d="M384.3,353.8l-2.8,.5l.9,.9Z" class="g2_1" />
<path d="M384.3,353.8l-.9,-.9l-1.9,1.4Z" class="g2_1" />
<path d="M384.3,353.8l-.4,-.6Z" class="g2_1" />
<path d="M386.3,351.8l-2.9,1.1l.9,.9Z" class="g2_1" />
<path d="M386.3,351.8l-.9,-1l-2,2.1Z" class="g2_1" />
<path d="M385.4,350.8l.3,.6Z" class="g2_1" />
<path d="M388.1,350.3l-2.7,.5l.9,1Z" class="g2_1" />
<path d="M388.1,350.3l-.9,-.9l-1.8,1.4Z" class="g2_1" />
<path d="M388.1,350.3l-.3,-.4Z" class="g2_1" />
<path d="M390.1,348.5l-2.9,.9l.9,.9Z" class="g2_1" />
<path d="M390.1,348.5L389,347.4l-1.8,2Z" class="g2_1" />
<path d="M389.6,347.9l.5,.6Z" class="g2_1" />
<path d="M392,346.4l-3,1l1.1,1.1Z" class="g2_1" />
<path d="M392,346.4l-.9,-.9l-2.1,1.9Z" class="g2_1" />
<path d="M391.4,345.9l.6,.5Z" class="g2_1" />
<path d="M393.8,344.4l-2.7,1.1l.9,.9Z" class="g2_1" />
<path d="M393.8,344.4l-.9,-.9l-1.8,2Z" class="g2_1" />
<path d="M393.4,344.1l.4,.3Z" class="g2_1" />
<path d="M395.3,343l-2.4,.5l.9,.9Z" class="g2_1" />
<path d="M395.3,343l-.9,-1l-1.5,1.5Z" class="g2_1" />
<path d="M394.7,342.6l.6,.4Z" class="g2_1" />
<path d="M397.1,341.1l-2.7,.9l.9,1Z" class="g2_1" />
<path d="M397.1,341.1l-.9,-1.1l-1.8,2Z" class="g2_1" />
<path d="M397.1,341.1l-.4,-.5Z" class="g2_1" />
<path d="M398.6,339.1l-2.4,.9l.9,1.1Z" class="g2_1" />
<path d="M398.6,339.1l-.9,-.9l-1.5,1.8Z" class="g2_1" />
<path d="M397.7,338.2v0l.5,.4Z" class="g2_1" />
<path d="M397.7,338.2v0Z" class="g2_1" />
<path d="M400.6,337.1l-2.9,1.1l.9,.9Z" class="g2_1" />
<path d="M400.6,337.1l-1.1,-.9l-1.8,2Z" class="g2_1" />
<path d="M400.6,337.1l-.6,-.4Z" class="g2_1" />
<path d="M401.9,335.3l-2.4,.9l1.1,.9Z" class="g2_1" />
<path d="M401.9,335.3l-1,-1.1l-1.4,2Z" class="g2_1" />
<path d="M400.9,334.2l.6,.5Z" class="g2_1" />
<path d="M403.9,332.7l-3,1.5l1,1.1Z" class="g2_1" />
<path d="M403.9,332.7l-1.1,-.9l-1.9,2.4Z" class="g2_1" />
<path d="M403.9,332.7l-.6,-.4Z" class="g2_1" />
<path d="M405.2,330.9l-2.4,.9l1.1,.9Z" class="g2_1" />
<path d="M405.2,330.9l-1,-1.1l-1.4,2Z" class="g2_1" />
<path d="M404.2,329.8l.6,.5Z" class="g2_1" />
<path d="M407.2,328.8l-3,1l1,1.1Z" class="g2_1" />
<path d="M407.2,328.8l-.9,-.9l-2.1,1.9Z" class="g2_1" />
<path d="M407.2,328.8v0l-.6,-.5Z" class="g2_1" />
<path d="M407.2,328.8v0Z" class="g2_1" />
<path d="M408.6,326.8l-2.3,1.1l.9,.9Z" class="g2_1" />
<path d="M408.6,326.8l-1.1,-.9l-1.2,2Z" class="g2_1" />
<path d="M408.6,326.8l-.5,-.3Z" class="g2_1" />
<path d="M409.9,324.4l-2.4,1.5l1.1,.9Z" class="g2_1" />
<path d="M409.9,324.4l-.9,-.9l-1.5,2.4Z" class="g2_1" />
<path d="M409,323.5l.6,.4Z" class="g2_1" />
<path d="M411.4,322.4l-2.4,1.1l.9,.9Z" class="g2_1" />
<path d="M411.4,322.4l-.9,-.9l-1.5,2Z" class="g2_1" />
<path d="M411.4,322.4l-.5,-.3Z" class="g2_1" />
<path d="M412.9,320l-2.4,1.5l.9,.9Z" class="g2_1" />
<path d="M412.9,320l-.9,-.9l-1.5,2.4Z" class="g2_1" />
<path d="M412,319.1l.3,.4Z" class="g2_1" />
<path d="M414.3,318l-2.3,1.1l.9,.9Z" class="g2_1" />
<path d="M414.3,318l-1.1,-.9l-1.2,2Z" class="g2_1" />
<path d="M414.3,318l-.5,-.3Z" class="g2_1" />
<path d="M415.6,315.6l-2.4,1.5l1.1,.9Z" class="g2_1" />
<path d="M415.6,315.6l-.9,-.9l-1.5,2.4Z" class="g2_1" />
<path d="M417.1,313.3l-2.4,1.4l.9,.9Z" class="g2_1" />
<path d="M417.1,313.3l-.9,-1.1l-1.5,2.5Z" class="g2_1" />
<path d="M416.2,312.2l.5,.5Z" class="g2_1" />
<path d="M418.6,311.2l-2.4,1l.9,1.1Z" class="g2_1" />
<path d="M418.6,311.2l-1,-.9l-1.4,1.9Z" class="g2_1" />
<path d="M418.6,310.7v.5l-.6,-.5Z" class="g2_1" />
<path d="M418.6,310.7v.5Z" class="g2_1" />
<path d="M419.5,308.3l-1.9,2.4h1Z" class="g2_1" />
<path d="M419.5,308.3h-.9l-1,2.4Z" class="g2_1" />
<path d="M418.6,307.8v.5h.5Z" class="g2_1" />
<path d="M418.6,307.8v.5Z" class="g2_1" />
<path d="M420.9,306.3l-2.3,1.5l.9,1.1Z" class="g2_1" />
<path d="M420.9,306.3l-.9,-.9l-1.4,2.4Z" class="g2_1" />
<path d="M422.4,303.9l-2.4,1.5l.9,.9Z" class="g2_1" />
<path d="M422.4,303.9l-1.1,-.9l-1.3,2.4Z" class="g2_1" />
<path d="M422.4,303.4v.5l-.5,-.5Z" class="g2_1" />
<path d="M422.4,303.4v.5Z" class="g2_1" />
<path d="M423.3,301l-2,2.4h1.1Z" class="g2_1" />
<path d="M423.3,301h-.9l-1.1,2.4Z" class="g2_1" />
<path d="M422.4,300.4v.6h.4Z" class="g2_1" />
<path d="M422.4,300.4v.6Z" class="g2_1" />
<path d="M424.8,299.5l-2.4,.9l.9,1.1Z" class="g2_1" />
<path d="M424.8,299.5l-1.1,-.9l-1.3,1.8Z" class="g2_1" />
<path d="M424.8,299v.5l-.6,-.5Z" class="g2_1" />
<path d="M424.8,299v.5Z" class="g2_1" />
<path d="M425.7,296.6l-2,2.4h1.1Z" class="g2_1" />
<path d="M425.7,296.6h-.9l-1.1,2.4Z" class="g2_1" />
<path d="M426.6,294.2l-1.8,2.4h.9Z" class="g2_1" />
<path d="M426.6,294.2h-.9l-.9,2.4Z" class="g2_1" />
<path d="M427.5,291.6l-1.8,2.6h.9Z" class="g2_1" />
<path d="M427.5,291.6h-.9l-.9,2.6Z" class="g2_1" />
<path d="M426.6,291.6h.6Z" class="g2_1" />
<path d="M429,288.7l-2.4,2.9h.9Z" class="g2_1" />
<path d="M429,288.7h-.9l-1.5,2.9Z" class="g2_1" />
<path d="M429,288.7h-.6Z" class="g2_1" />
<path d="M429.9,286.3l-1.8,2.4h.9Z" class="g2_1" />
<path d="M429.9,286.3H429l-.9,2.4Z" class="g2_1" />
<path d="M430.8,283.9l-1.8,2.4h.9Z" class="g2_1" />
<path d="M430.8,283.9h-.9l-.9,2.4Z" class="g2_1" />
<path d="M431.7,281.4l-1.8,2.5h.9Z" class="g2_1" />
<path d="M431.7,281.4h-.9l-.9,2.5Z" class="g2_1" />
<path d="M431.7,281.4h-.3Z" class="g2_1" />
<path d="M432.3,279l-1.5,2.4h.9Z" class="g2_1" />
<path d="M432.3,279h-.9l-.6,2.4Z" class="g2_1" />
<path d="M431.4,279h.3Z" class="g2_1" />
<path d="M433.2,276.6l-1.8,2.4h.9Z" class="g2_1" />
<path d="M433.2,276.6h-.9l-.9,2.4Z" class="g2_1" />
<path d="M433.2,276.6h-.4Z" class="g2_1" />
<path d="M434.1,273.7l-1.8,2.9h.9Z" class="g2_1" />
<path d="M434.1,273.7h-.9l-.9,2.9Z" class="g2_1" />
<path d="M433.2,273.7v0h.6Z" class="g2_1" />
<path d="M433.2,273.7v0Z" class="g2_1" />
<path d="M435.2,271.3l-2,2.4h.9Z" class="g2_1" />
<path d="M435.2,271.3h-1.1l-.9,2.4Z" class="g2_1" />
<path d="M435.2,271.3v0h-.5Z" class="g2_1" />
<path d="M435.2,271.3v0Z" class="g2_1" />
<path d="M435.6,268.7l-1.5,2.6h1.1Z" class="g2_1" />
<path d="M435.6,268.7h-.9l-.6,2.6Z" class="g2_1" />
<path d="M434.7,268.7h.5Z" class="g2_1" />
<path d="M436.5,265.8l-1.8,2.9h.9Z" class="g2_1" />
<path d="M436.5,265.8h-.9l-.9,2.9Z" class="g2_1" />
<path d="M436.5,265.8h-.4Z" class="g2_1" />
<path d="M437.1,263.4l-1.5,2.4h.9Z" class="g2_1" />
<path d="M437.1,263.4h-1l-.5,2.4Z" class="g2_1" />
<path d="M437.6,261l-1.5,2.4h1Z" class="g2_1" />
<path d="M437.6,261h-1.1l-.4,2.4Z" class="g2_1" />
<path d="M437.6,261h-.5Z" class="g2_1" />
<path d="M438,258.1l-1.5,2.9h1.1Z" class="g2_1" />
<path d="M438,258.1h-.9l-.6,2.9Z" class="g2_1" />
<path d="M437.1,258.1h.5Z" class="g2_1" />
<path d="M438.9,255.5l-1.8,2.6h.9Z" class="g2_1" />
<path d="M438.9,255.5H438l-.9,2.6Z" class="g2_1" />
<path d="M438.9,255.5v0h-.4Z" class="g2_1" />
<path d="M438.9,255.5v0Z" class="g2_1" />
<path d="M439.5,252.6l-1.5,2.9h.9Z" class="g2_1" />
<path d="M439.5,252.6h-1l-.5,2.9Z" class="g2_1" />
<path d="M438.5,252.6h.4Z" class="g2_1" />
<path d="M440,250.2l-1.5,2.4h1Z" class="g2_1" />
<path d="M440,250.2h-1.1l-.4,2.4Z" class="g2_1" />
<path d="M440,250.2h-.5Z" class="g2_1" />
<path d="M440.4,247.3l-1.5,2.9H440Z" class="g2_1" />
<path d="M440.4,247.3h-.9l-.6,2.9Z" class="g2_1" />
<path d="M440.4,247.3l-.4,-.6Z" class="g2_1" />
<path d="M440.4,244.9l-.9,2.4h.9Z" class="g2_1" />
<path d="M440.4,244.9h-.9v2.4Z" class="g2_1" />
<path d="M439.5,244.9h.5Z" class="g2_1" />
<path d="M440.9,241.9l-1.4,3h.9Z" class="g2_1" />
<path d="M440.9,241.9H440l-.5,3Z" class="g2_1" />
<path d="M440,241.9v0h.4Z" class="g2_1" />
<path d="M440,241.9v0Z" class="g2_1" />
<path d="M441.3,239.4l-1.3,2.5h.9Z" class="g2_1" />
<path d="M441.3,239.4h-.9l-.4,2.5Z" class="g2_1" />
<path d="M441.3,239.4v0h-.4Z" class="g2_1" />
<path d="M441.3,239.4v0Z" class="g2_1" />
<path d="M441.8,236.4l-1.4,3h.9Z" class="g2_1" />
<path d="M441.8,236.4h-.9l-.5,3Z" class="g2_1" />
<path d="M441.8,236.4l-.5,-.3Z" class="g2_1" />
<path d="M441.8,233.5l-.9,2.9h.9Z" class="g2_1" />
<path d="M441.8,233.5h-.9v2.9Z" class="g2_1" />
<path d="M441.8,231.1l-.9,2.4h.9Z" class="g2_1" />
<path d="M441.8,231.1h-.9v2.4Z" class="g2_1" />
<path d="M440.9,231.1h.4Z" class="g2_1" />
<path d="M442.2,228.2l-1.3,2.9h.9Z" class="g2_1" />
<path d="M442.2,228.2h-.9l-.4,2.9Z" class="g2_1" />
<path d="M442.2,228.2v0h-.4Z" class="g2_1" />
<path d="M442.2,228.2v0Z" class="g2_1" />
<path d="M442.2,225.8l-.9,2.4h.9Z" class="g2_1" />
<path d="M442.2,225.8h-.9v2.4Z" class="g2_1" />
<path d="M442.2,222.9l-.9,2.9h.9Z" class="g2_1" />
<path d="M442.2,222.9h-.9v2.9Z" class="g2_1" />
<path d="M442.2,220.3l-.9,2.6h.9Z" class="g2_1" />
<path d="M442.2,220.3h-.9v2.6Z" class="g2_1" />
<path d="M442.2,217.4l-.9,2.9h.9Z" class="g2_1" />
<path d="M442.2,217.4h-.9v2.9Z" class="g2_1" />
<text x="425" y="140" dx="0,-0.3,0,-0.5,-1" class="s1_1">Frame</text>
<path d="M465.5,250.2v-.9m0,0v-.6m0,0v-.9M465.1,246.3v-1.1m0,0v-.9M464.6,242.9l-.4,-.6m0,0v-.9m0,0l-.6,-.9m-.5,-1.1l-.4,-.4m0,0v-1.1m0,0l-.5,-.4M461.3,236.1l-.6,-1.1m0,0l-.4,-.4m0,0l-.5,-.5M459.4,232.6l-.9,-.6m0,0l-.5,-.9M457,230.2l-.5,-.5m0,0l-.4,-.6m0,0l-1.1,-.9m-.9,-.9l-.4,-.6m0,0l-1,-.5m0,0l-.4,-.4M451.4,224.7l-1.1,-.9m0,0l-.9,-.6m-1,-.3l-.3,-1.1m0,0l-1.1,-.4m0,0h-.4m-.9,-1.1l-1.1,-.4m0,0l-.9,-.5m0,0h-.4m-1.1,-.9l-.4,-.6m0,0l-.9,-.5m0,0L440,217m-1.1,-.5l-.4,-.6m0,0l-.9,-.4m0,0h-.5m-1.5,-1.1h-.4m0,0l-1.4,-.3m0,0l-.6,-.6m-.9,-.5l-.9,-.4m0,0l-1.5,-.5m-.9,-.6l-1.5,-.4m0,0l-.9,-.5M425.2,210l-1.5,-.3m0,0l-.9,-.6m-.9,0l-1,-.5m0,0l-1.4,-.4M418,207.7l-1.3,-.6m0,0l-1.1,-.4m-1.3,-.5h-.5m0,0l-1.5,-.6M410.9,205.6l-1.3,-.3m0,0l-1,-.6m-1.4,-.5h-.9m0,0h-1.5M403.3,203.8l-1.4,-.5m0,0h-1m-1.4,0l-.9,-.6m0,0l-.9,-.4m-1.5,0h-.4m0,0l-2,-.5M392.3,201.8l-1.8,-.6m0,0h-.4m-1.4,-.3h-.9m0,0h-1.5m-1.5,-.6h-.5m0,0h-1.9M381,199.8h-1.9m0,0h-.5m-1.3,0l-1.5,-.4m0,0h-.9m-1.5,0h-.9m0,0h-1.4m-.9,-.5h-1m0,0h-1.4m-1.5,0h-.5m0,0h-1.9M362.5,198.9h-1.9m0,0h-.5m-1.3,0h-1.5m0,0h-.9m-1.5,0H354m0,0h-1.5m-1.4,0h-.4m0,0h-2M347.2,198.9h-1.8m0,0h-.6m-1.2,.5h-1.5m0,0h-.9m-1.5,0h-.9m0,0l-1.5,.4m-1.4,0h-.4m0,0h-2M332.2,200.3h-2m0,0h-.4m-1.4,.6h-1.5m0,0H326m-1.5,.3h-.6m0,0l-1.8,.6M320.6,201.8l-1.8,.5M317.3,202.3l-1.4,.4m0,0l-.9,.6m-1.5,0h-.9m0,0l-1.3,.5M309.8,204.2h-1.4m0,0h-.9m-1.5,.5l-.9,.6m0,0l-.9,.3m-1.5,0h-.6m0,0l-1.3,.6m0,0h-.5m-1.5,.5l-.9,.4m0,0l-1.5,.6M295,208.2l-1.3,.4m0,0h-.6m-1.4,.5l-.9,.6m0,0l-1.5,.3m-1.3,.6l-1.1,.5m0,0l-.9,.4m-1.5,.6l-1.2,.5m0,0l-1,.4m-1.1,.5l-.3,.6m0,0l-1.5,.3m0,0h-.5m-1,.6l-.9,.5m0,0l-.9,.4m0,0l-.5,.6m-1,.5l-.9,.4m0,0l-.9,.5m0,0l-.6,.6m-.9,.3l-.5,.6m0,0l-.9,.5m0,0l-.4,.4m-1.5,.6l-.5,.5m0,0l-.9,.4m0,0l-.6,.5m-.9,.9l-.9,.6m0,0l-.9,.9M262.4,225.8l-.6,.4m0,0l-.9,.5m0,0l-.6,.6m-.9,.9l-.9,.9m0,0l-.6,.6m0,0l-.3,.5M256.7,231.1l-.6,.9m0,0l-.9,.6M254.6,234.1l-.3,.5m0,0l-.6,.4m0,0l-.3,1.1m-1.1,.9v.5m0,0l-.4,.4m0,0V239m0,0v.4m-.9,1.1l-.6,.9m0,0v.9m0,0l-.5,.6m0,.9l-.4,.5m0,0v.9m0,0v1.1M249,247.8v.9m0,0v.6m0,0v.9M249,251.7v.9m0,0v1.1m0,0l.5,.3m0,1.1v1m0,0l.4,.5m0,0v.9M250.4,259l.6,.9m0,0l.4,.6m0,0v.5M251.9,262.5l.4,.3m0,0l.5,1.1m0,0l.6,.4m.3,1.1l.6,.4m0,0l.3,1.1m0,0l.6,.9m.9,.5l.6,1m0,0l.3,.5m0,0l.6,.4m.9,1.1l.9,.9m0,0l.6,.5m0,0l.3,.4m1.1,1.1h.4m0,0l.6,.9m0,0l.9,.6M264.2,276.6l.9,.4m0,0l.9,.5M267.1,278.4l.4,.6m0,0l.9,.5m0,0l.5,.4m1.5,.5l.4,.6m0,0l1.1,.4m0,0l.3,.5m1,.9h.5m0,0l1.5,.6m0,0l.4,.5m.9,.9h.5m0,0l1.5,.6m0,0h.4m1.4,.9h.6m0,0l.9,.9m0,0h.5m1.3,.6l.9,.5m0,0l1.1,.4M286.9,289.2l1.5,.6m0,0l.9,.4M290.8,290.7l1.4,.6m0,0h.6m1.3,.3l.9,.6m0,0l1.4,.5M297.9,293.1l1.5,.5m0,0h.3m1.5,.6l.9,.4m0,0h1.5M305.1,295.1l1.4,.6m0,0h1m1.4,.3h.9m0,0l1.5,.6m.9,.5h.4m0,0h1.5m0,0h.5m1.3,.4l1.4,.5m0,0h1m1.4,.6h.9m0,0h1.5M323.6,299h.3m0,0l1.5,.5m0,0h.6m1.4,0h1.3m0,0l1.1,.6m1.3,0h1.1m0,0l.9,.3m1.3,0h1.1m0,0h1.3M338.3,301h.5m0,0h1.5m0,0h.3m1.5,0h1.5m0,0l.9,.5m1.4,0h1.3m0,0h1.1m1.3,0h1.1m0,0H352M353.5,301.5h.5m0,0h1.3m0,0h.6m1.4,0h1.9m0,0h.5m1.5,0h1.3m0,0h.9m1.4,0h1m0,0h1.4M368.7,301.5h.5m0,0l1.9,-.5M372.5,301h1.9m0,0h.5m1.3,0l1.5,-.6m0,0h.9m1.4,0h1m0,0l1.4,-.3m1.5,0h.4m0,0l1.4,-.6m0,0h.6M387.8,299.5H389m0,0l1.1,-.5m1,0l1.2,-.4m0,0h1.1m1.3,-.6h1.1m0,0h1.3M398.6,297.5l2,-.4m0,0h.3m1.5,0l.9,-.5m0,0l1.5,-.6M406.3,296l1.8,-.3M409.6,295.1l1.3,-.5m0,0H412m1.2,-.4h.6m0,0l1.5,-.6m0,0h.3m1.5,-.5l.9,-.4m0,0l1.1,-.5m1.3,-.6h.5m0,0l1.5,-.3m0,0h.4m1.4,-.6l1,-.5m0,0l.9,-.4M427.5,289.2l1.5,-.5m0,0l.9,-.4M431.4,287.8l1.4,-.6m0,0l.4,-.3m1.5,-1.1h.5m0,0l.9,-.4m0,0h.4m1.5,-1.1h.5m0,0l1,-.9m0,0h.5m1.3,-.6l.5,-.3m0,0l1,-1.1m0,0h.5m.9,-1h.4m0,0l1.5,-.9m0,0h.5m.9,-1.1h.6m0,0l.3,-.9m0,0l1,-.5m.9,-.4l1.1,-.9m0,0l.9,-.6M453.2,273.7h.5m0,0l1,-1m0,0l.3,-.5m1.1,-.9l.4,-.6m0,0l.9,-.9m0,0l.6,-.5m.5,-1l.9,-.5m0,0l.4,-.9m0,0v-.6M460.7,265.4l.6,-1.1m0,0l.5,-.4m0,0l.4,-.5m.5,-1.5v-.5m0,0l.4,-.9m0,0l.5,-.6M464.2,258.4v-.3m0,0l.4,-.6m0,0v-.9M465.1,255.1V254m0,0l.4,-.3m0,0v-1.1M465.5,251.1v-.9" class="g1_1" />
<text x="327" y="253" dx="0,-0.7,-0.5,-1,-0.5,-0.3" class="s1_1">Sample</text>
<path d="M87.6,430.6L36.3,429.5v1.1Z" class="g2_1" />
<path d="M36.3,429.5H87.6v1.1Z" class="g2_1" />
<text x="89" y="436" dx="0,-0.1,-0.3,-0.2,-0.5,-0.3,0.1,-0.1,-0.4,-0.3,-0.3,-0.5,-0.1,-0.3,0.1,-0.1,-0.5" class="s2_1">Target Population</text>
<path d="M282.3,431h4.6m2.9,0h4.8m2.8,0h4.7m3,0h4.7m2.8,0h4.7m3,0H325m2.8,0h4.8m2.9,0h1.3" class="g1_1" />
<text x="338" y="439" dx="0,-0.6,-0.2,-0.3,-0.4" class="s2_1">Frame</text>
<path d="M418,430h2.4m1.5,0h2.3m1.5,0h2.4m1.4,0h2.2m1.5,0h2.4m1.5,0h2.4m1.4,0h2.4m1.3,0H447m1.4,0h2.4m1.5,0h2.4m1.4,0h2.4m1.3,0h2.4m1.4,0H466m1.5,0h2.4m1.3,0h2.4m1.4,0h.6" class="g1_1" />
<text x="482" y="436" dx="0,-0.4,-0.5,-0.2,-0.3,-0.1" class="s2_1">Sample</text>
<path d="M13.2,14.1h.7v-.8h-.7v.8Z" class="g2_1" />
<path d="M13.2,14.1h.7v-.8h-.7v.8Z" class="g2_1" />
<path d="M13.9,14.1h605v-.8H13.9v.8Z" class="g2_1" />
<path d="M618.9,14.1h.8v-.8h-.8v.8Z" class="g2_1" />
<path d="M618.9,14.1h.8v-.8h-.8v.8Z" class="g2_1" />
<path d="M13.2,455h.7V14.1h-.7V455Z" class="g2_1" />
<path d="M618.9,455h.8V14.1h-.8V455Z" class="g2_1" />
<path d="M13.2,455.7h.7V455h-.7v.7Z" class="g2_1" />
<path d="M13.2,455.7h.7V455h-.7v.7Z" class="g2_1" />
<path d="M13.9,455.7h605V455H13.9v.7Z" class="g2_1" />
<path d="M618.9,455.7h.8V455h-.8v.7Z" class="g2_1" />
<path d="M618.9,455.7h.8V455h-.8v.7Z" class="g2_1" />


<!-- Any embedded fonts defined here -->
<style type="text/css" ><![CDATA[

@font-face {
	font-family: Arial_8;
	src: url("fonts/Arial_8.woff") format("woff");
}

]]></style>

</svg>
