<?xml version="1.0" encoding="UTF-8" standalone="no"?>
<!DOCTYPE svg PUBLIC "-//W3C//DTD SVG 1.1//EN"
"http://www.w3.org/Graphics/SVG/1.1/DTD/svg11.dtd">


<!-- Page 1 -->
<svg x="0" y="0" width="585" height="384" viewBox="0 0 585 384" version="1.1" xmlns="http://www.w3.org/2000/svg" xmlns:xlink="http://www.w3.org/1999/xlink"
style="display: block;margin-left: auto;margin-right: auto;">
<defs>

<style type="text/css"><![CDATA[
text { white-space: pre; }
path, image { pointer-events: none; }

.s1_1{
font-size: 25.63px;
font-family: Arial_6;
fill: #000000;
}
.s2_1{
font-size: 25.63px;
font-family: Symbol_c;
fill: #000000;
}

.g0_1{
fill: none;
stroke: #000000;
stroke-width: 2.2;
stroke-linecap: round;
stroke-linejoin: round;
}
.g1_1{
}

]]></style>

</defs>
<path d="M0,0
L0,384
L585,384
L585,0 Z " 
fill="#FFFFFF" stroke="none" />
<text x="7" y="149" dx="0,-0.1,-0.1,-0.1,-0.1,-0.1,-0.1,-0.1" class="s1_1">unbiased</text>
<text x="7" y="328" dx="0,-0.1,-0.1,-0.1,-0.1,-0.1" class="s1_1">biased</text>
<path d="M311.7,136.2C311.7,102.8,282.3,75.7,246,75.7c-36.3,0,-65.8,27.1,-65.8,60.5c0,33.1,29.5,60.3,65.8,60.3c36.3,0,65.7,-27.2,65.7,-60.3Zm4.2,180.2c0,-33.4,-29.4,-60.5,-65.7,-60.5c-36.3,0,-65.8,27.1,-65.8,60.5c0,33.2,29.5,60.3,65.8,60.3c36.3,0,65.7,-27.1,65.7,-60.3ZM538.3,134c0,-33.4,-29.4,-60.5,-65.7,-60.5C436.3,73.5,407,100.6,407,134c0,33.3,29.3,60.5,65.6,60.5c36.3,0,65.7,-27.2,65.7,-60.5Zm4.2,180.2c0,-33.4,-29.4,-60.5,-65.7,-60.5c-36.2,0,-65.6,27.1,-65.6,60.5c0,33.3,29.4,60.5,65.6,60.5c36.3,0,65.7,-27.2,65.7,-60.5ZM269.1,136.2C269.1,126.1,259.6,118,248,118c-11.7,0,-21.2,8.1,-21.2,18.2c0,9.9,9.5,17.9,21.2,17.9c11.6,0,21.1,-8,21.1,-17.9Zm4.4,176C273.5,302.1,264,294,252.4,294c-11.7,0,-21.2,8.1,-21.2,18.2c0,9.9,9.5,17.9,21.2,17.9c11.6,0,21.1,-8,21.1,-17.9ZM493.7,134.1c0,-10,-9,-18.1,-20,-18.1c-11.2,0,-20.1,8.1,-20.1,18.1c0,9.9,8.9,18,20.1,18c11,0,20,-8.1,20,-18Zm2.2,177c0,-9.6,-8.4,-17.1,-19.1,-17.1c-10.4,0,-19,7.5,-19,17.1c0,9.3,8.6,16.8,19,16.8c10.7,0,19.1,-7.5,19.1,-16.8Z" class="g0_1" />
<text x="191" y="80" class="s2_1">•</text>
<text x="280" y="80" class="s2_1">•</text>
<text x="238" y="106" class="s2_1">•</text>
<text x="259" y="169" class="s2_1">•</text>
<text x="196" y="205" class="s2_1">•</text>
<text x="282" y="203" class="s2_1">•</text>
<text x="246" y="282" class="s2_1">•</text>
<text x="285" y="316" class="s2_1">•</text>
<text x="244" y="320" class="s2_1">•</text>
<text x="274" y="254" class="s2_1">•</text>
<text x="316" y="292" class="s2_1">•</text>
<text x="312" y="364" class="s2_1">•</text>
<text x="490" y="280" class="s2_1">•</text>
<text x="482" y="297" class="s2_1">•</text>
<text x="497" y="322" class="s2_1">•</text>
<text x="509" y="290" class="s2_1">•</text>
<text x="511" y="309" class="s2_1">•</text>
<text x="524" y="322" class="s2_1">•</text>
<text x="452" y="108" class="s2_1">•</text>
<text x="465" y="142" class="s2_1">•</text>
<text x="441" y="161" class="s2_1">•</text>
<text x="469" y="167" class="s2_1">•</text>
<text x="494" y="146" class="s2_1">•</text>
<text x="479" y="116" class="s2_1">•</text>
<text x="187" y="31" class="s1_1">large variance</text>
<text x="418" y="33" class="s1_1">small variance</text>
<path d="M6.6,6.4h.7V5.6H6.6v.8Z" class="g1_1" />
<path d="M6.6,6.4h.7V5.6H6.6v.8Z" class="g1_1" />
<path d="M7.3,6.4h575V5.6H7.3v.8Z" class="g1_1" />
<path d="M582.3,6.4h.7V5.6h-.7v.8Z" class="g1_1" />
<path d="M582.3,6.4h.7V5.6h-.7v.8Z" class="g1_1" />
<path d="M6.6,378.2h.7V6.4H6.6V378.2Z" class="g1_1" />
<path d="M582.3,378.2h.7V6.4h-.7V378.2Z" class="g1_1" />
<path d="M6.6,378.9h.7v-.7H6.6v.7Z" class="g1_1" />
<path d="M6.6,378.9h.7v-.7H6.6v.7Z" class="g1_1" />
<path d="M7.3,378.9h575v-.7H7.3v.7Z" class="g1_1" />
<path d="M582.3,378.9h.7v-.7h-.7v.7Z" class="g1_1" />
<path d="M582.3,378.9h.7v-.7h-.7v.7Z" class="g1_1" />


<!-- Any embedded fonts defined here -->
<style type="text/css" ><![CDATA[

@font-face {
	font-family: Symbol_c;
	src: url("fonts/Symbol_c.woff") format("woff");
}

@font-face {
	font-family: Arial_6;
	src: url("fonts/Arial_6.woff") format("woff");
}

]]></style>

</svg>
