<?xml version="1.0" encoding="UTF-8" standalone="no"?>
<!DOCTYPE svg PUBLIC "-//W3C//DTD SVG 1.1//EN"
"http://www.w3.org/Graphics/SVG/1.1/DTD/svg11.dtd">


<!-- Page 1 -->
<svg x="0" y="0" width="632" height="474" viewBox="0 0 632 474" version="1.1" xmlns="http://www.w3.org/2000/svg" xmlns:xlink="http://www.w3.org/1999/xlink"
style="display: block;margin-left: auto;margin-right: auto;">
<defs>

<style type="text/css"><![CDATA[
text { white-space: pre; }
path, image { pointer-events: none; }

.s1_1{
font-size: 15.65px;
font-family: Arial_6;
fill: #000000;
}
.s2_1{
font-size: 19.56px;
font-family: Arial_6;
fill: #000000;
}

.g0_1{
fill: #FFFFFF;
}
.g1_1{
fill: none;
stroke: #000000;
stroke-width: 0.55;
stroke-linecap: round;
stroke-linejoin: round;
}
.g2_1{
}

]]></style>

</defs>
<path d="M0,0
L0,474
L632,474
L632,0 Z " 
fill="#FFFFFF" stroke="none" />
<path d="M618.4,463.4L13.9,14.1V463.4Z" class="g0_1" />
<path d="M13.9,14.1H618.4V463.4Z" class="g0_1" />
<path d="M618.4,463.4L13.9,14.1V463.4Z" class="g0_1" />
<path d="M13.9,14.1H618.4V463.4Z" class="g0_1" />
<path d="M104.7,395.9H558.1V59H104.7V395.9" class="g1_1" />
<text x="106" y="424" class="s1_1">0</text>
<text x="179" y="424" dx="0,-0.1,-0.1" class="s1_1">100</text>
<text x="260" y="424" dx="0,-0.1,-0.3" class="s1_1">200</text>
<text x="342" y="424" dx="0,-0.1,-0.1" class="s1_1">300</text>
<text x="424" y="424" dx="0,-0.1,-0.3" class="s1_1">400</text>
<text x="505" y="424" dx="0,-0.1,-0.3" class="s1_1">500</text>
<path d="M110.7,395.9v9.4m81.8,-9.4v9.4m81.2,-9.4v9.4m81.6,-9.4v9.4m81.8,-9.4v9.4m81.5,-9.4v9.4" class="g1_1" />
<text x="74" y="395" class="s1_1">0</text>
<text x="74" y="359" class="s1_1">5</text>
<text x="66" y="323" dx="0,-0.1" class="s1_1">10</text>
<text x="66" y="286" dx="0,-0.1" class="s1_1">15</text>
<text x="66" y="250" dx="0,-0.1" class="s1_1">20</text>
<text x="66" y="214" dx="0,-0.1" class="s1_1">25</text>
<text x="66" y="178" dx="0,-0.1" class="s1_1">30</text>
<text x="66" y="141" dx="0,-0.1" class="s1_1">35</text>
<text x="66" y="105" dx="0,-0.1" class="s1_1">40</text>
<text x="66" y="69" dx="0,-0.1" class="s1_1">45</text>
<path d="M104.7,391.5H92.8m11.9,-36.1H92.8m11.9,-36.6H92.8m11.9,-36.3H92.8m11.9,-36.2H92.8m11.9,-36.6H92.8m11.9,-36.1H92.8m11.9,-36.3H92.8m11.9,-36.7H92.8M104.7,64.5H92.8m11.9,327h2.4m1.2,0h2.4m1.5,0h2.4m1.5,0h2.3m1.5,0h2.4m1.3,0H126m1.4,0h2.4m1.5,0h2.3m1.5,0h2.4m1.3,0h2.4m1.4,0H145m1.5,0h2.4m1.2,0h2.4m1.5,0h2.4m1.4,0h2.4m1.5,0h2.4m1.3,0h2.4m1.4,0h2.4m1.5,0h2.3m1.3,0h2.4m1.5,0H183m1.4,0h2.4m1.5,0h2.4m1.3,0h2.3m1.5,0h2.4m1.4,0H202m1.5,0h2.2m1.5,0h2.4m1.4,0h2.4m1.5,0h2.3m1.3,0h2.4m1.5,0h2.4m1.4,0h2.4m1.5,0h2.4m1.3,0h2.3m1.5,0H240m1.4,0h2.4m1.3,0h2.4m1.5,0h2.4m1.4,0h2.4m1.5,0H259m1.3,0h2.4m1.5,0h2.4m1.4,0h2.4m1.5,0h2.2m1.5,0h2.3m1.5,0h2.4m1.5,0h2.3m1.3,0h2.4m1.5,0h2.3m1.5,0H297m1.5,0h2.3m1.3,0h2.4m1.5,0h2.4m1.4,0h2.4m1.3,0h2.4m1.4,0h2.4m1.5,0h2.4m1.4,0h2.4m1.3,0h2.4m1.5,0H335m1.4,0h2.4m1.5,0h2.2m1.4,0h2.4m1.5,0h2.4m1.4,0H354m1.3,0h2.4m1.5,0h2.3m1.5,0h2.4m1.5,0h2.3m1.3,0h2.4m1.5,0h2.3m1.5,0h2.4m1.3,0h2.4m1.4,0h2.4m1.5,0H392m1.4,0h2.4m1.3,0h2.4m1.4,0h2.4m1.5,0h2.4m1.4,0h2.3m1.4,0h2.4m1.5,0h2.4m1.4,0h2.4m1.3,0h2.4m1.4,0h2.4m1.5,0h2.4m1.4,0h2.4m1.3,0h2.4m1.5,0h2.3m1.5,0H449m1.3,0h2.4m1.4,0h2.4m1.5,0h2.3m1.5,0h2.4m1.3,0h2.4m1.4,0h2.4m1.5,0h2.4m1.4,0h2.2m1.5,0h2.4m1.4,0h2.4m1.5,0h2.4m1.3,0h2.4m1.4,0h2.4m1.5,0h2.4m1.4,0H506m1.3,0h2.4m1.4,0h2.4m1.5,0h2.4m1.2,0H521m1.5,0h2.4m1.5,0h2.3m1.5,0h2.4m1.3,0h2.3m1.5,0h2.4m1.5,0h2.3m1.5,0h2.2m1.5,0h2.4m1.4,0h2.4m1.5,0h1.3M104.7,355.4h2.4m1.2,0h2.4m1.5,0h2.4m1.5,0h2.3m1.5,0h2.4m1.3,0H126m1.4,0h2.4m1.5,0h2.3m1.5,0h2.4m1.3,0h2.4m1.4,0H145m1.5,0h2.4m1.2,0h2.4m1.5,0h2.4m1.4,0h2.4m1.5,0h2.4m1.3,0h2.4m1.4,0h2.4m1.5,0h2.3m1.3,0h2.4m1.5,0H183m1.4,0h2.4m1.5,0h2.4m1.3,0h2.3m1.5,0h2.4m1.4,0H202m1.5,0h2.2m1.5,0h2.4m1.4,0h2.4m1.5,0h2.3m1.3,0h2.4m1.5,0h2.4m1.4,0h2.4m1.5,0h2.4m1.3,0h2.3m1.5,0H240m1.4,0h2.4m1.3,0h2.4m1.5,0h2.4m1.4,0h2.4m1.5,0H259m1.3,0h2.4m1.5,0h2.4m1.4,0h2.4m1.5,0h2.2m1.5,0h2.3m1.5,0h2.4m1.5,0h2.3m1.3,0h2.4m1.5,0h2.3m1.5,0H297m1.5,0h2.3m1.3,0h2.4m1.5,0h2.4m1.4,0h2.4m1.3,0h2.4m1.4,0h2.4m1.5,0h2.4m1.4,0h2.4m1.3,0h2.4m1.5,0H335m1.4,0h2.4m1.5,0h2.2m1.4,0h2.4m1.5,0h2.4m1.4,0H354m1.3,0h2.4m1.5,0h2.3m1.5,0h2.4m1.5,0h2.3m1.3,0h2.4m1.5,0h2.3m1.5,0h2.4m1.3,0h2.4m1.4,0h2.4m1.5,0H392m1.4,0h2.4m1.3,0h2.4m1.4,0h2.4m1.5,0h2.4m1.4,0h2.3m1.4,0h2.4m1.5,0h2.4m1.4,0h2.4m1.3,0h2.4m1.4,0h2.4m1.5,0h2.4m1.4,0h2.4m1.3,0h2.4m1.5,0h2.3m1.5,0H449m1.3,0h2.4m1.4,0h2.4m1.5,0h2.3m1.5,0h2.4m1.3,0h2.4m1.4,0h2.4m1.5,0h2.4m1.4,0h2.2m1.5,0h2.4m1.4,0h2.4m1.5,0h2.4m1.3,0h2.4m1.4,0h2.4m1.5,0h2.4m1.4,0H506m1.3,0h2.4m1.4,0h2.4m1.5,0h2.4m1.2,0H521m1.5,0h2.4m1.5,0h2.3m1.5,0h2.4m1.3,0h2.3m1.5,0h2.4m1.5,0h2.3m1.5,0h2.2m1.5,0h2.4m1.4,0h2.4m1.5,0h1.3M104.7,318.8h2.4m1.2,0h2.4m1.5,0h2.4m1.5,0h2.3m1.5,0h2.4m1.3,0H126m1.4,0h2.4m1.5,0h2.3m1.5,0h2.4m1.3,0h2.4m1.4,0H145m1.5,0h2.4m1.2,0h2.4m1.5,0h2.4m1.4,0h2.4m1.5,0h2.4m1.3,0h2.4m1.4,0h2.4m1.5,0h2.3m1.3,0h2.4m1.5,0H183m1.4,0h2.4m1.5,0h2.4m1.3,0h2.3m1.5,0h2.4m1.4,0H202m1.5,0h2.2m1.5,0h2.4m1.4,0h2.4m1.5,0h2.3m1.3,0h2.4m1.5,0h2.4m1.4,0h2.4m1.5,0h2.4m1.3,0h2.3m1.5,0H240m1.4,0h2.4m1.3,0h2.4m1.5,0h2.4m1.4,0h2.4m1.5,0H259m1.3,0h2.4m1.5,0h2.4m1.4,0h2.4m1.5,0h2.2m1.5,0h2.3m1.5,0h2.4m1.5,0h2.3m1.3,0h2.4m1.5,0h2.3m1.5,0H297m1.5,0h2.3m1.3,0h2.4m1.5,0h2.4m1.4,0h2.4m1.3,0h2.4m1.4,0h2.4m1.5,0h2.4m1.4,0h2.4m1.3,0h2.4m1.5,0H335m1.4,0h2.4m1.5,0h2.2m1.4,0h2.4m1.5,0h2.4m1.4,0H354m1.3,0h2.4m1.5,0h2.3m1.5,0h2.4m1.5,0h2.3m1.3,0h2.4m1.5,0h2.3m1.5,0h2.4m1.3,0h2.4m1.4,0h2.4m1.5,0H392m1.4,0h2.4m1.3,0h2.4m1.4,0h2.4m1.5,0h2.4m1.4,0h2.3m1.4,0h2.4m1.5,0h2.4m1.4,0h2.4m1.3,0h2.4m1.4,0h2.4m1.5,0h2.4m1.4,0h2.4m1.3,0h2.4m1.5,0h2.3m1.5,0H449m1.3,0h2.4m1.4,0h2.4m1.5,0h2.3m1.5,0h2.4m1.3,0h2.4m1.4,0h2.4m1.5,0h2.4m1.4,0h2.2m1.5,0h2.4m1.4,0h2.4m1.5,0h2.4m1.3,0h2.4m1.4,0h2.4m1.5,0h2.4m1.4,0H506m1.3,0h2.4m1.4,0h2.4m1.5,0h2.4m1.2,0H521m1.5,0h2.4m1.5,0h2.3m1.5,0h2.4m1.3,0h2.3m1.5,0h2.4m1.5,0h2.3m1.5,0h2.2m1.5,0h2.4m1.4,0h2.4m1.5,0h1.3M104.7,282.5h2.4m1.2,0h2.4m1.5,0h2.4m1.5,0h2.3m1.5,0h2.4m1.3,0H126m1.4,0h2.4m1.5,0h2.3m1.5,0h2.4m1.3,0h2.4m1.4,0H145m1.5,0h2.4m1.2,0h2.4m1.5,0h2.4m1.4,0h2.4m1.5,0h2.4m1.3,0h2.4m1.4,0h2.4m1.5,0h2.3m1.3,0h2.4m1.5,0H183m1.4,0h2.4m1.5,0h2.4m1.3,0h2.3m1.5,0h2.4m1.4,0H202m1.5,0h2.2m1.5,0h2.4m1.4,0h2.4m1.5,0h2.3m1.3,0h2.4m1.5,0h2.4m1.4,0h2.4m1.5,0h2.4m1.3,0h2.3m1.5,0H240m1.4,0h2.4m1.3,0h2.4m1.5,0h2.4m1.4,0h2.4m1.5,0H259m1.3,0h2.4m1.5,0h2.4m1.4,0h2.4m1.5,0h2.2m1.5,0h2.3m1.5,0h2.4m1.5,0h2.3m1.3,0h2.4m1.5,0h2.3m1.5,0H297m1.5,0h2.3m1.3,0h2.4m1.5,0h2.4m1.4,0h2.4m1.3,0h2.4m1.4,0h2.4m1.5,0h2.4m1.4,0h2.4m1.3,0h2.4m1.5,0H335m1.4,0h2.4m1.5,0h2.2m1.4,0h2.4m1.5,0h2.4m1.4,0H354m1.3,0h2.4m1.5,0h2.3m1.5,0h2.4m1.5,0h2.3m1.3,0h2.4m1.5,0h2.3m1.5,0h2.4m1.3,0h2.4m1.4,0h2.4m1.5,0H392m1.4,0h2.4m1.3,0h2.4m1.4,0h2.4m1.5,0h2.4m1.4,0h2.3m1.4,0h2.4m1.5,0h2.4m1.4,0h2.4m1.3,0h2.4m1.4,0h2.4m1.5,0h2.4m1.4,0h2.4m1.3,0h2.4m1.5,0h2.3m1.5,0H449m1.3,0h2.4m1.4,0h2.4m1.5,0h2.3m1.5,0h2.4m1.3,0h2.4m1.4,0h2.4m1.5,0h2.4m1.4,0h2.2m1.5,0h2.4m1.4,0h2.4m1.5,0h2.4m1.3,0h2.4m1.4,0h2.4m1.5,0h2.4m1.4,0H506m1.3,0h2.4m1.4,0h2.4m1.5,0h2.4m1.2,0H521m1.5,0h2.4m1.5,0h2.3m1.5,0h2.4m1.3,0h2.3m1.5,0h2.4m1.5,0h2.3m1.5,0h2.2m1.5,0h2.4m1.4,0h2.4m1.5,0h1.3M104.7,246.3h2.4m1.2,0h2.4m1.5,0h2.4m1.5,0h2.3m1.5,0h2.4m1.3,0H126m1.4,0h2.4m1.5,0h2.3m1.5,0h2.4m1.3,0h2.4m1.4,0H145m1.5,0h2.4m1.2,0h2.4m1.5,0h2.4m1.4,0h2.4m1.5,0h2.4m1.3,0h2.4m1.4,0h2.4m1.5,0h2.3m1.3,0h2.4m1.5,0H183m1.4,0h2.4m1.5,0h2.4m1.3,0h2.3m1.5,0h2.4m1.4,0H202m1.5,0h2.2m1.5,0h2.4m1.4,0h2.4m1.5,0h2.3m1.3,0h2.4m1.5,0h2.4m1.4,0h2.4m1.5,0h2.4m1.3,0h2.3m1.5,0H240m1.4,0h2.4m1.3,0h2.4m1.5,0h2.4m1.4,0h2.4m1.5,0H259m1.3,0h2.4m1.5,0h2.4m1.4,0h2.4m1.5,0h2.2m1.5,0h2.3m1.5,0h2.4m1.5,0h2.3m1.3,0h2.4m1.5,0h2.3m1.5,0H297m1.5,0h2.3m1.3,0h2.4m1.5,0h2.4m1.4,0h2.4m1.3,0h2.4m1.4,0h2.4m1.5,0h2.4m1.4,0h2.4m1.3,0h2.4m1.5,0H335m1.4,0h2.4m1.5,0h2.2m1.4,0h2.4m1.5,0h2.4m1.4,0H354m1.3,0h2.4m1.5,0h2.3m1.5,0h2.4m1.5,0h2.3m1.3,0h2.4m1.5,0h2.3m1.5,0h2.4m1.3,0h2.4m1.4,0h2.4m1.5,0H392m1.4,0h2.4m1.3,0h2.4m1.4,0h2.4m1.5,0h2.4m1.4,0h2.3m1.4,0h2.4m1.5,0h2.4m1.4,0h2.4m1.3,0h2.4m1.4,0h2.4m1.5,0h2.4m1.4,0h2.4m1.3,0h2.4m1.5,0h2.3m1.5,0H449m1.3,0h2.4m1.4,0h2.4m1.5,0h2.3m1.5,0h2.4m1.3,0h2.4m1.4,0h2.4m1.5,0h2.4m1.4,0h2.2m1.5,0h2.4m1.4,0h2.4m1.5,0h2.4m1.3,0h2.4m1.4,0h2.4m1.5,0h2.4m1.4,0H506m1.3,0h2.4m1.4,0h2.4m1.5,0h2.4m1.2,0H521m1.5,0h2.4m1.5,0h2.3m1.5,0h2.4m1.3,0h2.3m1.5,0h2.4m1.5,0h2.3m1.5,0h2.2m1.5,0h2.4m1.4,0h2.4m1.5,0h1.3M104.7,209.7h2.4m1.2,0h2.4m1.5,0h2.4m1.5,0h2.3m1.5,0h2.4m1.3,0H126m1.4,0h2.4m1.5,0h2.3m1.5,0h2.4m1.3,0h2.4m1.4,0H145m1.5,0h2.4m1.2,0h2.4m1.5,0h2.4m1.4,0h2.4m1.5,0h2.4m1.3,0h2.4m1.4,0h2.4m1.5,0h2.3m1.3,0h2.4m1.5,0H183m1.4,0h2.4m1.5,0h2.4m1.3,0h2.3m1.5,0h2.4m1.4,0H202m1.5,0h2.2m1.5,0h2.4m1.4,0h2.4m1.5,0h2.3m1.3,0h2.4m1.5,0h2.4m1.4,0h2.4m1.5,0h2.4m1.3,0h2.3m1.5,0H240m1.4,0h2.4m1.3,0h2.4m1.5,0h2.4m1.4,0h2.4m1.5,0H259m1.3,0h2.4m1.5,0h2.4m1.4,0h2.4m1.5,0h2.2m1.5,0h2.3m1.5,0h2.4m1.5,0h2.3m1.3,0h2.4m1.5,0h2.3m1.5,0H297m1.5,0h2.3m1.3,0h2.4m1.5,0h2.4m1.4,0h2.4m1.3,0h2.4m1.4,0h2.4m1.5,0h2.4m1.4,0h2.4m1.3,0h2.4m1.5,0H335m1.4,0h2.4m1.5,0h2.2m1.4,0h2.4m1.5,0h2.4m1.4,0H354m1.3,0h2.4m1.5,0h2.3m1.5,0h2.4m1.5,0h2.3m1.3,0h2.4m1.5,0h2.3m1.5,0h2.4m1.3,0h2.4m1.4,0h2.4m1.5,0H392m1.4,0h2.4m1.3,0h2.4m1.4,0h2.4m1.5,0h2.4m1.4,0h2.3m1.4,0h2.4m1.5,0h2.4m1.4,0h2.4m1.3,0h2.4m1.4,0h2.4m1.5,0h2.4m1.4,0h2.4m1.3,0h2.4m1.5,0h2.3m1.5,0H449m1.3,0h2.4m1.4,0h2.4m1.5,0h2.3m1.5,0h2.4m1.3,0h2.4m1.4,0h2.4m1.5,0h2.4m1.4,0h2.2m1.5,0h2.4m1.4,0h2.4m1.5,0h2.4m1.3,0h2.4m1.4,0h2.4m1.5,0h2.4m1.4,0H506m1.3,0h2.4m1.4,0h2.4m1.5,0h2.4m1.2,0H521m1.5,0h2.4m1.5,0h2.3m1.5,0h2.4m1.3,0h2.3m1.5,0h2.4m1.5,0h2.3m1.5,0h2.2m1.5,0h2.4m1.4,0h2.4m1.5,0h1.3M104.7,173.6h2.4m1.2,0h2.4m1.5,0h2.4m1.5,0h2.3m1.5,0h2.4m1.3,0H126m1.4,0h2.4m1.5,0h2.3m1.5,0h2.4m1.3,0h2.4m1.4,0H145m1.5,0h2.4m1.2,0h2.4m1.5,0h2.4m1.4,0h2.4m1.5,0h2.4m1.3,0h2.4m1.4,0h2.4m1.5,0h2.3m1.3,0h2.4m1.5,0H183m1.4,0h2.4m1.5,0h2.4m1.3,0h2.3m1.5,0h2.4m1.4,0H202m1.5,0h2.2m1.5,0h2.4m1.4,0h2.4m1.5,0h2.3m1.3,0h2.4m1.5,0h2.4m1.4,0h2.4m1.5,0h2.4m1.3,0h2.3m1.5,0H240m1.4,0h2.4m1.3,0h2.4m1.5,0h2.4m1.4,0h2.4m1.5,0H259m1.3,0h2.4m1.5,0h2.4m1.4,0h2.4m1.5,0h2.2m1.5,0h2.3m1.5,0h2.4m1.5,0h2.3m1.3,0h2.4m1.5,0h2.3m1.5,0H297m1.5,0h2.3m1.3,0h2.4m1.5,0h2.4m1.4,0h2.4m1.3,0h2.4m1.4,0h2.4m1.5,0h2.4m1.4,0h2.4m1.3,0h2.4m1.5,0H335m1.4,0h2.4m1.5,0h2.2m1.4,0h2.4m1.5,0h2.4m1.4,0H354m1.3,0h2.4m1.5,0h2.3m1.5,0h2.4m1.5,0h2.3m1.3,0h2.4m1.5,0h2.3m1.5,0h2.4m1.3,0h2.4m1.4,0h2.4m1.5,0H392m1.4,0h2.4m1.3,0h2.4m1.4,0h2.4m1.5,0h2.4m1.4,0h2.3m1.4,0h2.4m1.5,0h2.4m1.4,0h2.4m1.3,0h2.4m1.4,0h2.4m1.5,0h2.4m1.4,0h2.4m1.3,0h2.4m1.5,0h2.3m1.5,0H449m1.3,0h2.4m1.4,0h2.4m1.5,0h2.3m1.5,0h2.4m1.3,0h2.4m1.4,0h2.4m1.5,0h2.4m1.4,0h2.2m1.5,0h2.4m1.4,0h2.4m1.5,0h2.4m1.3,0h2.4m1.4,0h2.4m1.5,0h2.4m1.4,0H506m1.3,0h2.4m1.4,0h2.4m1.5,0h2.4m1.2,0H521m1.5,0h2.4m1.5,0h2.3m1.5,0h2.4m1.3,0h2.3m1.5,0h2.4m1.5,0h2.3m1.5,0h2.2m1.5,0h2.4m1.4,0h2.4m1.5,0h1.3M104.7,137.3h2.4m1.2,0h2.4m1.5,0h2.4m1.5,0h2.3m1.5,0h2.4m1.3,0H126m1.4,0h2.4m1.5,0h2.3m1.5,0h2.4m1.3,0h2.4m1.4,0H145m1.5,0h2.4m1.2,0h2.4m1.5,0h2.4m1.4,0h2.4m1.5,0h2.4m1.3,0h2.4m1.4,0h2.4m1.5,0h2.3m1.3,0h2.4m1.5,0H183m1.4,0h2.4m1.5,0h2.4m1.3,0h2.3m1.5,0h2.4m1.4,0H202m1.5,0h2.2m1.5,0h2.4m1.4,0h2.4m1.5,0h2.3m1.3,0h2.4m1.5,0h2.4m1.4,0h2.4m1.5,0h2.4m1.3,0h2.3m1.5,0H240m1.4,0h2.4m1.3,0h2.4m1.5,0h2.4m1.4,0h2.4m1.5,0H259m1.3,0h2.4m1.5,0h2.4m1.4,0h2.4m1.5,0h2.2m1.5,0h2.3m1.5,0h2.4m1.5,0h2.3m1.3,0h2.4m1.5,0h2.3m1.5,0H297m1.5,0h2.3m1.3,0h2.4m1.5,0h2.4m1.4,0h2.4m1.3,0h2.4m1.4,0h2.4m1.5,0h2.4m1.4,0h2.4m1.3,0h2.4m1.5,0H335m1.4,0h2.4m1.5,0h2.2m1.4,0h2.4m1.5,0h2.4m1.4,0H354m1.3,0h2.4m1.5,0h2.3m1.5,0h2.4m1.5,0h2.3m1.3,0h2.4m1.5,0h2.3m1.5,0h2.4m1.3,0h2.4m1.4,0h2.4m1.5,0H392m1.4,0h2.4m1.3,0h2.4m1.4,0h2.4m1.5,0h2.4m1.4,0h2.3m1.4,0h2.4m1.5,0h2.4m1.4,0h2.4m1.3,0h2.4m1.4,0h2.4m1.5,0h2.4m1.4,0h2.4m1.3,0h2.4m1.5,0h2.3m1.5,0H449m1.3,0h2.4m1.4,0h2.4m1.5,0h2.3m1.5,0h2.4m1.3,0h2.4m1.4,0h2.4m1.5,0h2.4m1.4,0h2.2m1.5,0h2.4m1.4,0h2.4m1.5,0h2.4m1.3,0h2.4m1.4,0h2.4m1.5,0h2.4m1.4,0H506m1.3,0h2.4m1.4,0h2.4m1.5,0h2.4m1.2,0H521m1.5,0h2.4m1.5,0h2.3m1.5,0h2.4m1.3,0h2.3m1.5,0h2.4m1.5,0h2.3m1.5,0h2.2m1.5,0h2.4m1.4,0h2.4m1.5,0h1.3M104.7,100.6h2.4m1.2,0h2.4m1.5,0h2.4m1.5,0h2.3m1.5,0h2.4m1.3,0H126m1.4,0h2.4m1.5,0h2.3m1.5,0h2.4m1.3,0h2.4m1.4,0H145m1.5,0h2.4m1.2,0h2.4m1.5,0h2.4m1.4,0h2.4m1.5,0h2.4m1.3,0h2.4m1.4,0h2.4m1.5,0h2.3m1.3,0h2.4m1.5,0H183m1.4,0h2.4m1.5,0h2.4m1.3,0h2.3m1.5,0h2.4m1.4,0H202m1.5,0h2.2m1.5,0h2.4m1.4,0h2.4m1.5,0h2.3m1.3,0h2.4m1.5,0h2.4m1.4,0h2.4m1.5,0h2.4m1.3,0h2.3m1.5,0H240m1.4,0h2.4m1.3,0h2.4m1.5,0h2.4m1.4,0h2.4m1.5,0H259m1.3,0h2.4m1.5,0h2.4m1.4,0h2.4m1.5,0h2.2m1.5,0h2.3m1.5,0h2.4m1.5,0h2.3m1.3,0h2.4m1.5,0h2.3m1.5,0H297m1.5,0h2.3m1.3,0h2.4m1.5,0h2.4m1.4,0h2.4m1.3,0h2.4m1.4,0h2.4m1.5,0h2.4m1.4,0h2.4m1.3,0h2.4m1.5,0H335m1.4,0h2.4m1.5,0h2.2m1.4,0h2.4m1.5,0h2.4m1.4,0H354m1.3,0h2.4m1.5,0h2.3m1.5,0h2.4m1.5,0h2.3m1.3,0h2.4m1.5,0h2.3m1.5,0h2.4m1.3,0h2.4m1.4,0h2.4m1.5,0H392m1.4,0h2.4m1.3,0h2.4m1.4,0h2.4m1.5,0h2.4m1.4,0h2.3m1.4,0h2.4m1.5,0h2.4m1.4,0h2.4m1.3,0h2.4m1.4,0h2.4m1.5,0h2.4m1.4,0h2.4m1.3,0h2.4m1.5,0h2.3m1.5,0H449m1.3,0h2.4m1.4,0h2.4m1.5,0h2.3m1.5,0h2.4m1.3,0h2.4m1.4,0h2.4m1.5,0h2.4m1.4,0h2.2m1.5,0h2.4m1.4,0h2.4m1.5,0h2.4m1.3,0h2.4m1.4,0h2.4m1.5,0h2.4m1.4,0H506m1.3,0h2.4m1.4,0h2.4m1.5,0h2.4m1.2,0H521m1.5,0h2.4m1.5,0h2.3m1.5,0h2.4m1.3,0h2.3m1.5,0h2.4m1.5,0h2.3m1.5,0h2.2m1.5,0h2.4m1.4,0h2.4m1.5,0h1.3M104.7,64.5h2.4m1.2,0h2.4m1.5,0h2.4m1.5,0h2.3m1.5,0h2.4m1.3,0H126m1.4,0h2.4m1.5,0h2.3m1.5,0h2.4m1.3,0h2.4m1.4,0H145m1.5,0h2.4m1.2,0h2.4m1.5,0h2.4m1.4,0h2.4m1.5,0h2.4m1.3,0h2.4m1.4,0h2.4m1.5,0h2.3m1.3,0h2.4m1.5,0H183m1.4,0h2.4m1.5,0h2.4m1.3,0h2.3m1.5,0h2.4m1.4,0H202m1.5,0h2.2m1.5,0h2.4m1.4,0h2.4m1.5,0h2.3m1.3,0h2.4m1.5,0h2.4m1.4,0h2.4m1.5,0h2.4m1.3,0h2.3m1.5,0H240m1.4,0h2.4m1.3,0h2.4m1.5,0h2.4m1.4,0h2.4m1.5,0H259m1.3,0h2.4m1.5,0h2.4m1.4,0h2.4m1.5,0h2.2m1.5,0h2.3m1.5,0h2.4m1.5,0h2.3m1.3,0h2.4m1.5,0h2.3m1.5,0H297m1.5,0h2.3m1.3,0h2.4m1.5,0h2.4m1.4,0h2.4m1.3,0h2.4m1.4,0h2.4m1.5,0h2.4m1.4,0h2.4m1.3,0h2.4m1.5,0H335m1.4,0h2.4m1.5,0h2.2m1.4,0h2.4m1.5,0h2.4m1.4,0H354m1.3,0h2.4m1.5,0h2.3m1.5,0h2.4m1.5,0h2.3m1.3,0h2.4m1.5,0h2.3m1.5,0h2.4m1.3,0h2.4m1.4,0h2.4m1.5,0H392m1.4,0h2.4m1.3,0h2.4m1.4,0h2.4m1.5,0h2.4m1.4,0h2.3m1.4,0h2.4m1.5,0h2.4m1.4,0h2.4m1.3,0h2.4m1.4,0h2.4m1.5,0h2.4m1.4,0h2.4m1.3,0h2.4m1.5,0h2.3m1.5,0H449m1.3,0h2.4m1.4,0h2.4m1.5,0h2.3m1.5,0h2.4m1.3,0h2.4m1.4,0h2.4m1.5,0h2.4m1.4,0h2.2m1.5,0h2.4m1.4,0h2.4m1.5,0h2.4m1.3,0h2.4m1.4,0h2.4m1.5,0h2.4m1.4,0H506m1.3,0h2.4m1.4,0h2.4m1.5,0h2.4m1.2,0H521m1.5,0h2.4m1.5,0h2.3m1.5,0h2.4m1.3,0h2.3m1.5,0h2.4m1.5,0h2.3m1.5,0h2.2m1.5,0h2.4m1.4,0h2.4m1.5,0h1.3M110.7,395.9v-2.3m0,-1.5v-2.4m0,-1.5v-2.5m0,-1.5v-2.4m0,-1.4V378m0,-1.5v-2.6m0,-1.4v-2.4m0,-1.5v-2.4m0,-1.4v-2.6m0,-1.5v-2.3m0,-1.5v-2.4m0,-1.5v-2.5m0,-1.5v-2.4m0,-1.4v-2.4m0,-1.5v-2.6m0,-1.4v-2.4m0,-1.5V331m0,-1.6V327m0,-1.5v-2.3m0,-1.5v-2.6m0,-1.4v-2.4m0,-1.5v-2.4m0,-1.4v-2.6m0,-1.5v-2.4m0,-1.4v-2.4m0,-1.5v-2.5m0,-1.5v-2.4m0,-1.5V288m0,-1.5v-2.6m0,-1.4v-2.4m0,-1.5v-2.4m0,-1.4v-2.6m0,-1.5v-2.4m0,-1.4v-2.4m0,-1.5v-2.5m0,-1.5v-2.4m0,-1.5v-2.3m0,-1.5v-2.6m0,-1.4v-2.4m0,-1.5V241m0,-1.4V237m0,-1.5v-2.4m0,-1.4v-2.4m0,-1.5v-2.5m0,-1.5v-2.4m0,-1.5v-2.3m0,-1.5v-2.6m0,-1.4v-2.4m0,-1.5v-2.4m0,-1.4v-2.6m0,-1.5v-2.4m0,-1.4v-2.4m0,-1.5v-2.5m0,-1.5v-2.4m0,-1.5v-2.3m0,-1.5v-2.6m0,-1.4v-2.4m0,-1.5v-2.4m0,-1.4v-2.6m0,-1.5v-2.4m0,-1.4v-2.4m0,-1.5v-2.5m0,-1.5V151m0,-1.5v-2.3m0,-1.5v-2.6m0,-1.4v-2.4m0,-1.5v-2.4m0,-1.4v-2.6m0,-1.5v-2.4m0,-1.4v-2.4m0,-1.5v-2.5m0,-1.5v-2.4m0,-1.5V112m0,-1.5v-2.6m0,-1.4v-2.4m0,-1.5V100m0,-1.4V96.2m0,-1.5V92.3m0,-1.4V88.3m0,-1.5V84.5m0,-1.5V80.6m0,-1.5V76.6m0,-1.5V72.7m0,-1.4V68.9m0,-1.5V64.8m0,-1.4V61m0,-1.5V59m81.8,336.9v-2.3m0,-1.5v-2.4m0,-1.5v-2.5m0,-1.5v-2.4m0,-1.4V378m0,-1.5v-2.6m0,-1.4v-2.4m0,-1.5v-2.4m0,-1.4v-2.6m0,-1.5v-2.3m0,-1.5v-2.4m0,-1.5v-2.5m0,-1.5v-2.4m0,-1.4v-2.4m0,-1.5v-2.6m0,-1.4v-2.4m0,-1.5V331m0,-1.6V327m0,-1.5v-2.3m0,-1.5v-2.6m0,-1.4v-2.4m0,-1.5v-2.4m0,-1.4v-2.6m0,-1.5v-2.4m0,-1.4v-2.4m0,-1.5v-2.5m0,-1.5v-2.4m0,-1.5V288m0,-1.5v-2.6m0,-1.4v-2.4m0,-1.5v-2.4m0,-1.4v-2.6m0,-1.5v-2.4m0,-1.4v-2.4m0,-1.5v-2.5m0,-1.5v-2.4m0,-1.5v-2.3m0,-1.5v-2.6m0,-1.4v-2.4m0,-1.5V241m0,-1.4V237m0,-1.5v-2.4m0,-1.4v-2.4m0,-1.5v-2.5m0,-1.5v-2.4m0,-1.5v-2.3m0,-1.5v-2.6m0,-1.4v-2.4m0,-1.5v-2.4m0,-1.4v-2.6m0,-1.5v-2.4m0,-1.4v-2.4m0,-1.5v-2.5m0,-1.5v-2.4m0,-1.5v-2.3m0,-1.5v-2.6m0,-1.4v-2.4m0,-1.5v-2.4m0,-1.4v-2.6m0,-1.5v-2.4m0,-1.4v-2.4m0,-1.5v-2.5m0,-1.5V151m0,-1.5v-2.3m0,-1.5v-2.6m0,-1.4v-2.4m0,-1.5v-2.4m0,-1.4v-2.6m0,-1.5v-2.4m0,-1.4v-2.4m0,-1.5v-2.5m0,-1.5v-2.4m0,-1.5V112m0,-1.5v-2.6m0,-1.4v-2.4m0,-1.5V100m0,-1.4V96.2m0,-1.5V92.3m0,-1.4V88.3m0,-1.5V84.5m0,-1.5V80.6m0,-1.5V76.6m0,-1.5V72.7m0,-1.4V68.9m0,-1.5V64.8m0,-1.4V61m0,-1.5V59m81.2,336.9v-2.3m0,-1.5v-2.4m0,-1.5v-2.5m0,-1.5v-2.4m0,-1.4V378m0,-1.5v-2.6m0,-1.4v-2.4m0,-1.5v-2.4m0,-1.4v-2.6m0,-1.5v-2.3m0,-1.5v-2.4m0,-1.5v-2.5m0,-1.5v-2.4m0,-1.4v-2.4m0,-1.5v-2.6m0,-1.4v-2.4m0,-1.5V331m0,-1.6V327m0,-1.5v-2.3m0,-1.5v-2.6m0,-1.4v-2.4m0,-1.5v-2.4m0,-1.4v-2.6m0,-1.5v-2.4m0,-1.4v-2.4m0,-1.5v-2.5m0,-1.5v-2.4m0,-1.5V288m0,-1.5v-2.6m0,-1.4v-2.4m0,-1.5v-2.4m0,-1.4v-2.6m0,-1.5v-2.4m0,-1.4v-2.4m0,-1.5v-2.5m0,-1.5v-2.4m0,-1.5v-2.3m0,-1.5v-2.6m0,-1.4v-2.4m0,-1.5V241m0,-1.4V237m0,-1.5v-2.4m0,-1.4v-2.4m0,-1.5v-2.5m0,-1.5v-2.4m0,-1.5v-2.3m0,-1.5v-2.6m0,-1.4v-2.4m0,-1.5v-2.4m0,-1.4v-2.6m0,-1.5v-2.4m0,-1.4v-2.4m0,-1.5v-2.5m0,-1.5v-2.4m0,-1.5v-2.3m0,-1.5v-2.6m0,-1.4v-2.4m0,-1.5v-2.4m0,-1.4v-2.6m0,-1.5v-2.4m0,-1.4v-2.4m0,-1.5v-2.5m0,-1.5V151m0,-1.5v-2.3m0,-1.5v-2.6m0,-1.4v-2.4m0,-1.5v-2.4m0,-1.4v-2.6m0,-1.5v-2.4m0,-1.4v-2.4m0,-1.5v-2.5m0,-1.5v-2.4m0,-1.5V112m0,-1.5v-2.6m0,-1.4v-2.4m0,-1.5V100m0,-1.4V96.2m0,-1.5V92.3m0,-1.4V88.3m0,-1.5V84.5m0,-1.5V80.6m0,-1.5V76.6m0,-1.5V72.7m0,-1.4V68.9m0,-1.5V64.8m0,-1.4V61m0,-1.5V59m81.6,336.9v-2.3m0,-1.5v-2.4m0,-1.5v-2.5m0,-1.5v-2.4m0,-1.4V378m0,-1.5v-2.6m0,-1.4v-2.4m0,-1.5v-2.4m0,-1.4v-2.6m0,-1.5v-2.3m0,-1.5v-2.4m0,-1.5v-2.5m0,-1.5v-2.4m0,-1.4v-2.4m0,-1.5v-2.6m0,-1.4v-2.4m0,-1.5V331m0,-1.6V327m0,-1.5v-2.3m0,-1.5v-2.6m0,-1.4v-2.4m0,-1.5v-2.4m0,-1.4v-2.6m0,-1.5v-2.4m0,-1.4v-2.4m0,-1.5v-2.5m0,-1.5v-2.4m0,-1.5V288m0,-1.5v-2.6m0,-1.4v-2.4m0,-1.5v-2.4m0,-1.4v-2.6m0,-1.5v-2.4m0,-1.4v-2.4m0,-1.5v-2.5m0,-1.5v-2.4m0,-1.5v-2.3m0,-1.5v-2.6m0,-1.4v-2.4m0,-1.5V241m0,-1.4V237m0,-1.5v-2.4m0,-1.4v-2.4m0,-1.5v-2.5m0,-1.5v-2.4m0,-1.5v-2.3m0,-1.5v-2.6m0,-1.4v-2.4m0,-1.5v-2.4m0,-1.4v-2.6m0,-1.5v-2.4m0,-1.4v-2.4m0,-1.5v-2.5m0,-1.5v-2.4m0,-1.5v-2.3m0,-1.5v-2.6m0,-1.4v-2.4m0,-1.5v-2.4m0,-1.4v-2.6m0,-1.5v-2.4m0,-1.4v-2.4m0,-1.5v-2.5m0,-1.5V151m0,-1.5v-2.3m0,-1.5v-2.6m0,-1.4v-2.4m0,-1.5v-2.4m0,-1.4v-2.6m0,-1.5v-2.4m0,-1.4v-2.4m0,-1.5v-2.5m0,-1.5v-2.4m0,-1.5V112m0,-1.5v-2.6m0,-1.4v-2.4m0,-1.5V100m0,-1.4V96.2m0,-1.5V92.3m0,-1.4V88.3m0,-1.5V84.5m0,-1.5V80.6m0,-1.5V76.6m0,-1.5V72.7m0,-1.4V68.9m0,-1.5V64.8m0,-1.4V61m0,-1.5V59m81.8,336.9v-2.3m0,-1.5v-2.4m0,-1.5v-2.5m0,-1.5v-2.4m0,-1.4V378m0,-1.5v-2.6m0,-1.4v-2.4m0,-1.5v-2.4m0,-1.4v-2.6m0,-1.5v-2.3m0,-1.5v-2.4m0,-1.5v-2.5m0,-1.5v-2.4m0,-1.4v-2.4m0,-1.5v-2.6m0,-1.4v-2.4m0,-1.5V331m0,-1.6V327m0,-1.5v-2.3m0,-1.5v-2.6m0,-1.4v-2.4m0,-1.5v-2.4m0,-1.4v-2.6m0,-1.5v-2.4m0,-1.4v-2.4m0,-1.5v-2.5m0,-1.5v-2.4m0,-1.5V288m0,-1.5v-2.6m0,-1.4v-2.4m0,-1.5v-2.4m0,-1.4v-2.6m0,-1.5v-2.4m0,-1.4v-2.4m0,-1.5v-2.5m0,-1.5v-2.4m0,-1.5v-2.3m0,-1.5v-2.6m0,-1.4v-2.4m0,-1.5V241m0,-1.4V237m0,-1.5v-2.4m0,-1.4v-2.4m0,-1.5v-2.5m0,-1.5v-2.4m0,-1.5v-2.3m0,-1.5v-2.6m0,-1.4v-2.4m0,-1.5v-2.4m0,-1.4v-2.6m0,-1.5v-2.4m0,-1.4v-2.4m0,-1.5v-2.5m0,-1.5v-2.4m0,-1.5v-2.3m0,-1.5v-2.6m0,-1.4v-2.4m0,-1.5v-2.4m0,-1.4v-2.6m0,-1.5v-2.4m0,-1.4v-2.4m0,-1.5v-2.5m0,-1.5V151m0,-1.5v-2.3m0,-1.5v-2.6m0,-1.4v-2.4m0,-1.5v-2.4m0,-1.4v-2.6m0,-1.5v-2.4m0,-1.4v-2.4m0,-1.5v-2.5m0,-1.5v-2.4m0,-1.5V112m0,-1.5v-2.6m0,-1.4v-2.4m0,-1.5V100m0,-1.4V96.2m0,-1.5V92.3m0,-1.4V88.3m0,-1.5V84.5m0,-1.5V80.6m0,-1.5V76.6m0,-1.5V72.7m0,-1.4V68.9m0,-1.5V64.8m0,-1.4V61m0,-1.5V59m81.5,336.9v-2.3m0,-1.5v-2.4m0,-1.5v-2.5m0,-1.5v-2.4m0,-1.4V378m0,-1.5v-2.6m0,-1.4v-2.4m0,-1.5v-2.4m0,-1.4v-2.6m0,-1.5v-2.3m0,-1.5v-2.4m0,-1.5v-2.5m0,-1.5v-2.4m0,-1.4v-2.4m0,-1.5v-2.6m0,-1.4v-2.4m0,-1.5V331m0,-1.6V327m0,-1.5v-2.3m0,-1.5v-2.6m0,-1.4v-2.4m0,-1.5v-2.4m0,-1.4v-2.6m0,-1.5v-2.4m0,-1.4v-2.4m0,-1.5v-2.5m0,-1.5v-2.4m0,-1.5V288m0,-1.5v-2.6m0,-1.4v-2.4m0,-1.5v-2.4m0,-1.4v-2.6m0,-1.5v-2.4m0,-1.4v-2.4m0,-1.5v-2.5m0,-1.5v-2.4m0,-1.5v-2.3m0,-1.5v-2.6m0,-1.4v-2.4m0,-1.5V241m0,-1.4V237m0,-1.5v-2.4m0,-1.4v-2.4m0,-1.5v-2.5m0,-1.5v-2.4m0,-1.5v-2.3m0,-1.5v-2.6m0,-1.4v-2.4m0,-1.5v-2.4m0,-1.4v-2.6m0,-1.5v-2.4m0,-1.4v-2.4m0,-1.5v-2.5m0,-1.5v-2.4m0,-1.5v-2.3m0,-1.5v-2.6m0,-1.4v-2.4m0,-1.5v-2.4m0,-1.4v-2.6m0,-1.5v-2.4m0,-1.4v-2.4m0,-1.5v-2.5m0,-1.5V151m0,-1.5v-2.3m0,-1.5v-2.6m0,-1.4v-2.4m0,-1.5v-2.4m0,-1.4v-2.6m0,-1.5v-2.4m0,-1.4v-2.4m0,-1.5v-2.5m0,-1.5v-2.4m0,-1.5V112m0,-1.5v-2.6m0,-1.4v-2.4m0,-1.5V100m0,-1.4V96.2m0,-1.5V92.3m0,-1.4V88.3m0,-1.5V84.5m0,-1.5V80.6m0,-1.5V76.6m0,-1.5V72.7m0,-1.4V68.9m0,-1.5V64.8m0,-1.4V61m0,-1.5V59M110.7,395.9H552" class="g1_1" />
<text x="246" y="448" dx="0,-0.4,0.2,0.2,-0.4,-0.2,-0.1,-0.7,-0.6,-0.4,-0.3,-0.8,-0.4,-0.2,-0.4,-0.5,-0.4,-0.1,-0.8,-0.5,-0.4" class="s2_1">effective sample size</text>
<path d="M104.7,391.5V63.4" class="g1_1" />
<text transform="matrix(0, -1, 1, 0, 42, 290)" dx="0,0.4,-0.1,-0.3,-0.1,-0.5,-0.6,0.1,-0.2,0.4,0.1,-0.2,-0.1,-0.1,-0.2" class="s2_1">margin of error</text>
<path d="M115.1,73.3l3.7,92.9l4.4,41.5l3.9,24.5l4.2,17.1l8,22l8.1,14.1l8.6,10.3l8.1,7.3l8,6.4l8.1,5l8.1,4.4l8.1,3.3l16.4,5.8l16.2,4.6l16.1,3.9l16.7,2.9l16.1,2.4l16.7,2.5l16.2,1.9l16.1,2l16.7,1.5l11.7,.9l4.4,.5l16.1,.9l16.5,1.5l16.3,1.1l16.2,.9l16.5,.9l16.1,.6l16.2,.9l16.6,.6l16.2,.9l16.7,.5l16.1,.6" class="g1_1" />
<path d="M13.2,14.1h.7v-.8h-.7v.8Z" class="g2_1" />
<path d="M13.2,14.1h.7v-.8h-.7v.8Z" class="g2_1" />
<path d="M13.9,14.1h605v-.8H13.9v.8Z" class="g2_1" />
<path d="M618.9,14.1h.8v-.8h-.8v.8Z" class="g2_1" />
<path d="M618.9,14.1h.8v-.8h-.8v.8Z" class="g2_1" />
<path d="M13.2,464h.7V14.1h-.7V464Z" class="g2_1" />
<path d="M618.9,464h.8V14.1h-.8V464Z" class="g2_1" />
<path d="M13.2,464.7h.7V464h-.7v.7Z" class="g2_1" />
<path d="M13.2,464.7h.7V464h-.7v.7Z" class="g2_1" />
<path d="M13.9,464.7h605V464H13.9v.7Z" class="g2_1" />
<path d="M618.9,464.7h.8V464h-.8v.7Z" class="g2_1" />
<path d="M618.9,464.7h.8V464h-.8v.7Z" class="g2_1" />


<!-- Any embedded fonts defined here -->
<style type="text/css" ><![CDATA[

@font-face {
	font-family: Arial_6;
	src: url("fonts/Arial_6.woff") format("woff");
}

]]></style>

</svg>
