<?xml version="1.0" encoding="UTF-8" standalone="no"?>
<!DOCTYPE svg PUBLIC "-//W3C//DTD SVG 1.1//EN"
"http://www.w3.org/Graphics/SVG/1.1/DTD/svg11.dtd">


<!-- Page 1 -->
<svg x="0" y="0" width="799" height="375" viewBox="0 0 799 375" version="1.1" xmlns="http://www.w3.org/2000/svg" xmlns:xlink="http://www.w3.org/1999/xlink"
style="display: block;margin-left: auto;margin-right: auto;">
<defs>

<style type="text/css"><![CDATA[
text { white-space: pre; }
path, image { pointer-events: none; }

.s1_1{
font-size: 22.92px;
font-family: TimesNewRoman_7;
fill: #000000;
}
.s2_1{
font-size: 22.92px;
font-family: TimesNewRoman-Italic_a;
fill: #000000;
}
.s3_1{
font-size: 14.88px;
font-family: Arial_e;
fill: #000000;
}
.s4_1{
font-size: 16.26px;
font-family: Arial_e;
fill: #000000;
}

.g0_1{
fill: #FFFFFF;
}
.g1_1{
}
.g2_1{
fill: none;
stroke: #000000;
stroke-width: 0.55;
stroke-linecap: round;
stroke-linejoin: round;
}

]]></style>

</defs>
<path d="M0,0
L0,375
L799,375
L799,0 Z " 
fill="#FFFFFF" stroke="none" />
<text x="13" y="27" dx="0,0,0,0,0,-0.1,-0.1,-0.1,-0.1,-0.1,-0.4,-2.6,0,0,0,0,0,0,0,0" class="s1_1">(a) Large Values of </text>
<text x="194" y="27" class="s2_1">Y</text>
<text x="213" y="27" class="s1_1">should be shrunk </text>
<path fill-rule="evenodd" d="M375.3,289.4L13.4,33.2V289.4H375.3Z" class="g0_1" />
<path fill-rule="evenodd" d="M13.4,33.2H375.3V289.4L13.4,33.2Z" class="g0_1" />
<path fill-rule="evenodd" d="M375.3,289.4L13.4,33.2V289.4H375.3Z" class="g0_1" />
<path fill-rule="evenodd" d="M13.4,33.2H375.3V289.4L13.4,33.2Z" class="g0_1" />
<path fill-rule="evenodd" d="M86,64.8l-3.3,5.5L86,61.5v3.3Z" class="g1_1" />
<path fill-rule="evenodd" d="M89.3,70.3L86,64.8V61.5l3.3,8.8Z" class="g1_1" />
<path fill-rule="evenodd" d="M86.5,235.6H85.4L86.5,61.5V235.6Z" class="g1_1" />
<path fill-rule="evenodd" d="M86.5,61.5H85.4V235.6L86.5,61.5Z" class="g1_1" />
<text x="297" y="253" class="s3_1">X</text>
<text x="70" y="71" class="s3_1">Y</text>
<path fill-rule="evenodd" d="M109.3,215.1l-.6,-2.7l.6,.5v2.2Z" class="g1_1" />
<path fill-rule="evenodd" d="M109.3,215.1l-.6,-2.7v3.3l.6,-.6Z" class="g1_1" />
<path fill-rule="evenodd" d="M108.7,215.7l-.5,-3.9l.5,.6v3.3Z" class="g1_1" />
<path fill-rule="evenodd" d="M108.7,215.7l-.5,-3.9v4.4l.5,-.5Z" class="g1_1" />
<path fill-rule="evenodd" d="M108.2,216.2l-1.1,-4.4h1.1v4.4Z" class="g1_1" />
<path fill-rule="evenodd" d="M108.2,216.2l-1.1,-4.4v4.4h1.1Z" class="g1_1" />
<path fill-rule="evenodd" d="M107.1,216.2L106,211.8h1.1v4.4Z" class="g1_1" />
<path fill-rule="evenodd" d="M107.1,216.2L106,211.8v4.4h1.1Z" class="g1_1" />
<path fill-rule="evenodd" d="M106,216.2l-.6,-3.8l.6,-.6v4.4Z" class="g1_1" />
<path fill-rule="evenodd" d="M106,216.2l-.6,-3.8v3.3l.6,.5Z" class="g1_1" />
<path fill-rule="evenodd" d="M105.4,215.7l-.5,-2.8l.5,-.5v3.3Z" class="g1_1" />
<path fill-rule="evenodd" d="M105.4,215.7l-.5,-2.8v2.2l.5,.6Z" class="g1_1" />
<path fill-rule="evenodd" d="M211.2,185.8l-.5,-2.8l.5,.6v2.2Z" class="g1_1" />
<path fill-rule="evenodd" d="M211.2,185.8l-.5,-2.8v3.5l.5,-.7Z" class="g1_1" />
<path fill-rule="evenodd" d="M210.7,186.5l-.6,-4l.6,.5v3.5Z" class="g1_1" />
<path fill-rule="evenodd" d="M210.7,186.5l-.6,-4v4.6l.6,-.6Z" class="g1_1" />
<path fill-rule="evenodd" d="M210.1,187.1L209,182.5h1.1v4.6Z" class="g1_1" />
<path fill-rule="evenodd" d="M210.1,187.1L209,182.5v4.6h1.1Z" class="g1_1" />
<path fill-rule="evenodd" d="M209,187.1l-1.1,-4.6H209v4.6Z" class="g1_1" />
<path fill-rule="evenodd" d="M209,187.1l-1.1,-4.6v4.6H209Z" class="g1_1" />
<path fill-rule="evenodd" d="M207.9,187.1l-.5,-4.1l.5,-.5v4.6Z" class="g1_1" />
<path fill-rule="evenodd" d="M207.9,187.1l-.5,-4.1v3.5l.5,.6Z" class="g1_1" />
<path fill-rule="evenodd" d="M207.4,186.5l-.6,-2.9l.6,-.6v3.5Z" class="g1_1" />
<path fill-rule="evenodd" d="M207.4,186.5l-.6,-2.9v2.2l.6,.7Z" class="g1_1" />
<path fill-rule="evenodd" d="M268.2,94.1l-.5,-2.7l.5,.5v2.2Z" class="g1_1" />
<path fill-rule="evenodd" d="M268.2,94.1l-.5,-2.7v3.3l.5,-.6Z" class="g1_1" />
<path fill-rule="evenodd" d="M267.7,94.7l-.6,-3.9l.6,.6v3.3Z" class="g1_1" />
<path fill-rule="evenodd" d="M267.7,94.7l-.6,-3.9v4.4l.6,-.5Z" class="g1_1" />
<path fill-rule="evenodd" d="M267.1,95.2L266,90.8h1.1v4.4Z" class="g1_1" />
<path fill-rule="evenodd" d="M267.1,95.2L266,90.8v4.4h1.1Z" class="g1_1" />
<path fill-rule="evenodd" d="M266,95.2l-1.1,-4.4H266v4.4Z" class="g1_1" />
<path fill-rule="evenodd" d="M266,95.2l-1.1,-4.4v4.4H266Z" class="g1_1" />
<path fill-rule="evenodd" d="M264.9,95.2l-.5,-3.8l.5,-.6v4.4Z" class="g1_1" />
<path fill-rule="evenodd" d="M264.9,95.2l-.5,-3.8v3.3l.5,.5Z" class="g1_1" />
<path fill-rule="evenodd" d="M264.4,94.7l-.6,-2.8l.6,-.5v3.3Z" class="g1_1" />
<path fill-rule="evenodd" d="M264.4,94.7l-.6,-2.8v2.2l.6,.6Z" class="g1_1" />
<path fill-rule="evenodd" d="M209,185.8L107.1,214v1.1L209,185.8Z" class="g1_1" />
<path fill-rule="evenodd" d="M107.1,214L209,184.7v1.1L107.1,214Z" class="g1_1" />
<path fill-rule="evenodd" d="M266.6,93.6L209,184.1l1.1,1.1L266.6,93.6Z" class="g1_1" />
<path fill-rule="evenodd" d="M209,184.1L265.5,92.5l1.1,1.1L209,184.1Z" class="g1_1" />
<path d="M266.9,92.6v47h-.3l-.4,-.4V92.6l.4,-.3h.3v.3m4.1,45.7l-4.4,8.8l-4.4,-8.8H271Z" class="g1_1" />
<path d="M85.6,235.6H304.5v1H85.6v-1m218,-2.2l5.3,2.8l-5.3,2.6v-5.4Z" class="g1_1" />
<path fill-rule="evenodd" d="M375.3,289.4L13.4,33.2V289.4H375.3Z" class="g0_1" />
<path fill-rule="evenodd" d="M13.4,33.2H375.3V289.4L13.4,33.2Z" class="g0_1" />
<path fill-rule="evenodd" d="M375.3,289.4L13.4,33.2V289.4H375.3Z" class="g0_1" />
<path fill-rule="evenodd" d="M13.4,33.2H375.3V289.4L13.4,33.2Z" class="g0_1" />
<path fill-rule="evenodd" d="M86,64.8l-3.3,5.5L86,61.5v3.3Z" class="g1_1" />
<path fill-rule="evenodd" d="M89.3,70.3L86,64.8V61.5l3.3,8.8Z" class="g1_1" />
<path fill-rule="evenodd" d="M86.5,235.6H85.4L86.5,61.5V235.6Z" class="g1_1" />
<path fill-rule="evenodd" d="M86.5,61.5H85.4V235.6L86.5,61.5Z" class="g1_1" />
<text x="297" y="253" class="s3_1">X</text>
<text x="70" y="71" class="s3_1">Y</text>
<path fill-rule="evenodd" d="M109.3,215.1l-.6,-2.7l.6,.5v2.2Z" class="g1_1" />
<path fill-rule="evenodd" d="M109.3,215.1l-.6,-2.7v3.3l.6,-.6Z" class="g1_1" />
<path fill-rule="evenodd" d="M108.7,215.7l-.5,-3.9l.5,.6v3.3Z" class="g1_1" />
<path fill-rule="evenodd" d="M108.7,215.7l-.5,-3.9v4.4l.5,-.5Z" class="g1_1" />
<path fill-rule="evenodd" d="M108.2,216.2l-1.1,-4.4h1.1v4.4Z" class="g1_1" />
<path fill-rule="evenodd" d="M108.2,216.2l-1.1,-4.4v4.4h1.1Z" class="g1_1" />
<path fill-rule="evenodd" d="M107.1,216.2L106,211.8h1.1v4.4Z" class="g1_1" />
<path fill-rule="evenodd" d="M107.1,216.2L106,211.8v4.4h1.1Z" class="g1_1" />
<path fill-rule="evenodd" d="M106,216.2l-.6,-3.8l.6,-.6v4.4Z" class="g1_1" />
<path fill-rule="evenodd" d="M106,216.2l-.6,-3.8v3.3l.6,.5Z" class="g1_1" />
<path fill-rule="evenodd" d="M105.4,215.7l-.5,-2.8l.5,-.5v3.3Z" class="g1_1" />
<path fill-rule="evenodd" d="M105.4,215.7l-.5,-2.8v2.2l.5,.6Z" class="g1_1" />
<path fill-rule="evenodd" d="M211.2,185.8l-.5,-2.8l.5,.6v2.2Z" class="g1_1" />
<path fill-rule="evenodd" d="M211.2,185.8l-.5,-2.8v3.5l.5,-.7Z" class="g1_1" />
<path fill-rule="evenodd" d="M210.7,186.5l-.6,-4l.6,.5v3.5Z" class="g1_1" />
<path fill-rule="evenodd" d="M210.7,186.5l-.6,-4v4.6l.6,-.6Z" class="g1_1" />
<path fill-rule="evenodd" d="M210.1,187.1L209,182.5h1.1v4.6Z" class="g1_1" />
<path fill-rule="evenodd" d="M210.1,187.1L209,182.5v4.6h1.1Z" class="g1_1" />
<path fill-rule="evenodd" d="M209,187.1l-1.1,-4.6H209v4.6Z" class="g1_1" />
<path fill-rule="evenodd" d="M209,187.1l-1.1,-4.6v4.6H209Z" class="g1_1" />
<path fill-rule="evenodd" d="M207.9,187.1l-.5,-4.1l.5,-.5v4.6Z" class="g1_1" />
<path fill-rule="evenodd" d="M207.9,187.1l-.5,-4.1v3.5l.5,.6Z" class="g1_1" />
<path fill-rule="evenodd" d="M207.4,186.5l-.6,-2.9l.6,-.6v3.5Z" class="g1_1" />
<path fill-rule="evenodd" d="M207.4,186.5l-.6,-2.9v2.2l.6,.7Z" class="g1_1" />
<path fill-rule="evenodd" d="M268.2,94.1l-.5,-2.7l.5,.5v2.2Z" class="g1_1" />
<path fill-rule="evenodd" d="M268.2,94.1l-.5,-2.7v3.3l.5,-.6Z" class="g1_1" />
<path fill-rule="evenodd" d="M267.7,94.7l-.6,-3.9l.6,.6v3.3Z" class="g1_1" />
<path fill-rule="evenodd" d="M267.7,94.7l-.6,-3.9v4.4l.6,-.5Z" class="g1_1" />
<path fill-rule="evenodd" d="M267.1,95.2L266,90.8h1.1v4.4Z" class="g1_1" />
<path fill-rule="evenodd" d="M267.1,95.2L266,90.8v4.4h1.1Z" class="g1_1" />
<path fill-rule="evenodd" d="M266,95.2l-1.1,-4.4H266v4.4Z" class="g1_1" />
<path fill-rule="evenodd" d="M266,95.2l-1.1,-4.4v4.4H266Z" class="g1_1" />
<path fill-rule="evenodd" d="M264.9,95.2l-.5,-3.8l.5,-.6v4.4Z" class="g1_1" />
<path fill-rule="evenodd" d="M264.9,95.2l-.5,-3.8v3.3l.5,.5Z" class="g1_1" />
<path fill-rule="evenodd" d="M264.4,94.7l-.6,-2.8l.6,-.5v3.3Z" class="g1_1" />
<path fill-rule="evenodd" d="M264.4,94.7l-.6,-2.8v2.2l.6,.6Z" class="g1_1" />
<path fill-rule="evenodd" d="M209,185.8L107.1,214v1.1L209,185.8Z" class="g1_1" />
<path fill-rule="evenodd" d="M107.1,214L209,184.7v1.1L107.1,214Z" class="g1_1" />
<path fill-rule="evenodd" d="M266.6,93.6L209,184.1l1.1,1.1L266.6,93.6Z" class="g1_1" />
<path fill-rule="evenodd" d="M209,184.1L265.5,92.5l1.1,1.1L209,184.1Z" class="g1_1" />
<path d="M266.9,92.6v47h-.3l-.4,-.4V92.6l.4,-.3h.3v.3m4.1,45.7l-4.4,8.8l-4.4,-8.8H271Z" class="g1_1" />
<path d="M85.6,235.6H304.5v1H85.6v-1m218,-2.2l5.3,2.8l-5.3,2.6v-5.4Z" class="g1_1" />
<text x="27" y="311" dx="0,0,0,0,0,0,0,0,0,0,0,0,0,0,0,0,0,0,0,0,0,0,0,0,0,0,0,-0.2,-0.1,-0.2,-0.1,-0.1,-0.1,-0.1,-0.1,-0.2,-0.1" class="s2_1">(Shrink to lower powers of Y using a </text>
<text x="81" y="338" dx="0,0,0,0,0,-0.8,-0.1,0,0,0,0,0,-0.1,0,0,-0.1,0,0,0,0,0,0,0,0,0" class="s2_1">square root or logarithm </text>
<text x="122" y="364" class="s2_1">transformation)</text>
<text x="393" y="27" dx="0,0.1,0.1,0.1,0,-0.1,-0.1,-0.1,-0.1,-0.1,-0.4,-2.6,0,0,0,0,0,0,0,0" class="s1_1">(b) Large Values of </text>
<text x="576" y="27" class="s2_1">Y</text>
<text x="594" y="27" class="s1_1">should be stretched </text>
<path fill-rule="evenodd" d="M393.8,33.2H783V308.4L393.8,33.2Z" class="g0_1" />
<path fill-rule="evenodd" d="M393.8,33.2H783V308.4L393.8,33.2Z" class="g0_1" />
<path fill-rule="evenodd" d="M471.9,67.3l-3.7,5.9l3.7,-9.5v3.6Z" class="g1_1" />
<path fill-rule="evenodd" d="M475.6,73.2l-3.7,-5.9V63.7l3.7,9.5Z" class="g1_1" />
<path fill-rule="evenodd" d="M472.6,252.3h-1.2L472.6,65.1V252.3Z" class="g1_1" />
<path fill-rule="evenodd" d="M472.6,65.1h-1.2V252.3L472.6,65.1Z" class="g1_1" />
<text x="693" y="276" class="s4_1">X</text>
<text x="451" y="76" class="s4_1">Y</text>
<path fill-rule="evenodd" d="M496.8,228.9l-.5,-3l.5,.6v2.4Z" class="g1_1" />
<path fill-rule="evenodd" d="M496.8,228.9l-.5,-3v3.5l.5,-.5Z" class="g1_1" />
<path fill-rule="evenodd" d="M496.3,229.4l-.6,-4.2l.6,.7v3.5Z" class="g1_1" />
<path fill-rule="evenodd" d="M496.3,229.4l-.6,-4.2V230l.6,-.6Z" class="g1_1" />
<path fill-rule="evenodd" d="M495.7,230l-1.2,-4.8h1.2V230Z" class="g1_1" />
<path fill-rule="evenodd" d="M495.7,230l-1.2,-4.8V230h1.2Z" class="g1_1" />
<path fill-rule="evenodd" d="M494.5,230l-1.1,-4.8h1.1V230Z" class="g1_1" />
<path fill-rule="evenodd" d="M494.5,230l-1.1,-4.8V230h1.1Z" class="g1_1" />
<path fill-rule="evenodd" d="M493.4,230l-.6,-4.1l.6,-.7V230Z" class="g1_1" />
<path fill-rule="evenodd" d="M493.4,230l-.6,-4.1v3.5l.6,.6Z" class="g1_1" />
<path fill-rule="evenodd" d="M492.8,229.4l-.6,-2.9l.6,-.6v3.5Z" class="g1_1" />
<path fill-rule="evenodd" d="M492.8,229.4l-.6,-2.9v2.4l.6,.5Z" class="g1_1" />
<path fill-rule="evenodd" d="M566.7,148.7l-.6,-3.1l.6,.6v2.5Z" class="g1_1" />
<path fill-rule="evenodd" d="M566.7,148.7l-.6,-3.1v3.5l.6,-.4Z" class="g1_1" />
<path fill-rule="evenodd" d="M566.1,149.1l-.5,-4l.5,.5v3.5Z" class="g1_1" />
<path fill-rule="evenodd" d="M566.1,149.1l-.5,-4v4.7l.5,-.7Z" class="g1_1" />
<path fill-rule="evenodd" d="M565.6,149.8l-1.3,-4.7h1.3v4.7Z" class="g1_1" />
<path fill-rule="evenodd" d="M565.6,149.8l-1.3,-4.7v4.7h1.3Z" class="g1_1" />
<path fill-rule="evenodd" d="M564.3,149.8L563,145.1h1.3v4.7Z" class="g1_1" />
<path fill-rule="evenodd" d="M564.3,149.8L563,145.1v4.7h1.3Z" class="g1_1" />
<path fill-rule="evenodd" d="M563,149.8l-.5,-4.2l.5,-.5v4.7Z" class="g1_1" />
<path fill-rule="evenodd" d="M563,149.8l-.5,-4.2v3.5l.5,.7Z" class="g1_1" />
<path fill-rule="evenodd" d="M562.5,149.1l-.6,-2.9l.6,-.6v3.5Z" class="g1_1" />
<path fill-rule="evenodd" d="M562.5,149.1l-.6,-2.9v2.5l.6,.4Z" class="g1_1" />
<path fill-rule="evenodd" d="M668.1,110.1l-.6,-3.2l.6,.8v2.4Z" class="g1_1" />
<path fill-rule="evenodd" d="M668.1,110.1l-.6,-3.2v3.7l.6,-.5Z" class="g1_1" />
<path fill-rule="evenodd" d="M667.5,110.6l-.7,-4.2l.7,.5v3.7Z" class="g1_1" />
<path fill-rule="evenodd" d="M667.5,110.6l-.7,-4.2v4.8l.7,-.6Z" class="g1_1" />
<path fill-rule="evenodd" d="M666.8,111.2l-1.1,-4.8h1.1v4.8Z" class="g1_1" />
<path fill-rule="evenodd" d="M666.8,111.2l-1.1,-4.8v4.8h1.1Z" class="g1_1" />
<path fill-rule="evenodd" d="M665.7,111.2l-1.3,-4.8h1.3v4.8Z" class="g1_1" />
<path fill-rule="evenodd" d="M665.7,111.2l-1.3,-4.8v4.8h1.3Z" class="g1_1" />
<path fill-rule="evenodd" d="M664.4,111.2l-.5,-4.3l.5,-.5v4.8Z" class="g1_1" />
<path fill-rule="evenodd" d="M664.4,111.2l-.5,-4.3v3.7l.5,.6Z" class="g1_1" />
<path fill-rule="evenodd" d="M663.9,110.6l-.6,-2.9l.6,-.8v3.7Z" class="g1_1" />
<path fill-rule="evenodd" d="M663.9,110.6l-.6,-2.9v2.4l.6,.5Z" class="g1_1" />
<path fill-rule="evenodd" d="M564.8,148l-70.7,79.6l.9,1.3L564.8,148Z" class="g1_1" />
<path fill-rule="evenodd" d="M564.8,148l-1.2,-1.1l-69.5,80.7L564.8,148Z" class="g1_1" />
<path fill-rule="evenodd" d="M665.7,108.8L564.8,145.6v1.3L665.7,108.8Z" class="g1_1" />
<path fill-rule="evenodd" d="M564.8,145.6L665.7,107.7v1.1L564.8,145.6Z" class="g1_1" />
<path d="M666.1,65.7v41.4" class="g2_1" />
<path fill-rule="evenodd" d="M666.1,69l-3.5,2.4L666.1,62v7Z" class="g1_1" />
<path fill-rule="evenodd" d="M669.9,71.4L666.1,69V62l3.8,9.4Z" class="g1_1" />
<path fill-rule="evenodd" d="M393.8,33.2H783V308.4L393.8,33.2Z" class="g0_1" />
<path fill-rule="evenodd" d="M393.8,33.2H783V308.4L393.8,33.2Z" class="g0_1" />
<path fill-rule="evenodd" d="M471.9,67.3l-3.7,5.9l3.7,-9.5v3.6Z" class="g1_1" />
<path fill-rule="evenodd" d="M475.6,73.2l-3.7,-5.9V63.7l3.7,9.5Z" class="g1_1" />
<path fill-rule="evenodd" d="M472.6,252.3h-1.2L472.6,65.1V252.3Z" class="g1_1" />
<path fill-rule="evenodd" d="M472.6,65.1h-1.2V252.3L472.6,65.1Z" class="g1_1" />
<text x="693" y="276" class="s4_1">X</text>
<text x="451" y="76" class="s4_1">Y</text>
<path fill-rule="evenodd" d="M496.8,228.9l-.5,-3l.5,.6v2.4Z" class="g1_1" />
<path fill-rule="evenodd" d="M496.8,228.9l-.5,-3v3.5l.5,-.5Z" class="g1_1" />
<path fill-rule="evenodd" d="M496.3,229.4l-.6,-4.2l.6,.7v3.5Z" class="g1_1" />
<path fill-rule="evenodd" d="M496.3,229.4l-.6,-4.2V230l.6,-.6Z" class="g1_1" />
<path fill-rule="evenodd" d="M495.7,230l-1.2,-4.8h1.2V230Z" class="g1_1" />
<path fill-rule="evenodd" d="M495.7,230l-1.2,-4.8V230h1.2Z" class="g1_1" />
<path fill-rule="evenodd" d="M494.5,230l-1.1,-4.8h1.1V230Z" class="g1_1" />
<path fill-rule="evenodd" d="M494.5,230l-1.1,-4.8V230h1.1Z" class="g1_1" />
<path fill-rule="evenodd" d="M493.4,230l-.6,-4.1l.6,-.7V230Z" class="g1_1" />
<path fill-rule="evenodd" d="M493.4,230l-.6,-4.1v3.5l.6,.6Z" class="g1_1" />
<path fill-rule="evenodd" d="M492.8,229.4l-.6,-2.9l.6,-.6v3.5Z" class="g1_1" />
<path fill-rule="evenodd" d="M492.8,229.4l-.6,-2.9v2.4l.6,.5Z" class="g1_1" />
<path fill-rule="evenodd" d="M566.7,148.7l-.6,-3.1l.6,.6v2.5Z" class="g1_1" />
<path fill-rule="evenodd" d="M566.7,148.7l-.6,-3.1v3.5l.6,-.4Z" class="g1_1" />
<path fill-rule="evenodd" d="M566.1,149.1l-.5,-4l.5,.5v3.5Z" class="g1_1" />
<path fill-rule="evenodd" d="M566.1,149.1l-.5,-4v4.7l.5,-.7Z" class="g1_1" />
<path fill-rule="evenodd" d="M565.6,149.8l-1.3,-4.7h1.3v4.7Z" class="g1_1" />
<path fill-rule="evenodd" d="M565.6,149.8l-1.3,-4.7v4.7h1.3Z" class="g1_1" />
<path fill-rule="evenodd" d="M564.3,149.8L563,145.1h1.3v4.7Z" class="g1_1" />
<path fill-rule="evenodd" d="M564.3,149.8L563,145.1v4.7h1.3Z" class="g1_1" />
<path fill-rule="evenodd" d="M563,149.8l-.5,-4.2l.5,-.5v4.7Z" class="g1_1" />
<path fill-rule="evenodd" d="M563,149.8l-.5,-4.2v3.5l.5,.7Z" class="g1_1" />
<path fill-rule="evenodd" d="M562.5,149.1l-.6,-2.9l.6,-.6v3.5Z" class="g1_1" />
<path fill-rule="evenodd" d="M562.5,149.1l-.6,-2.9v2.5l.6,.4Z" class="g1_1" />
<path fill-rule="evenodd" d="M668.1,110.1l-.6,-3.2l.6,.8v2.4Z" class="g1_1" />
<path fill-rule="evenodd" d="M668.1,110.1l-.6,-3.2v3.7l.6,-.5Z" class="g1_1" />
<path fill-rule="evenodd" d="M667.5,110.6l-.7,-4.2l.7,.5v3.7Z" class="g1_1" />
<path fill-rule="evenodd" d="M667.5,110.6l-.7,-4.2v4.8l.7,-.6Z" class="g1_1" />
<path fill-rule="evenodd" d="M666.8,111.2l-1.1,-4.8h1.1v4.8Z" class="g1_1" />
<path fill-rule="evenodd" d="M666.8,111.2l-1.1,-4.8v4.8h1.1Z" class="g1_1" />
<path fill-rule="evenodd" d="M665.7,111.2l-1.3,-4.8h1.3v4.8Z" class="g1_1" />
<path fill-rule="evenodd" d="M665.7,111.2l-1.3,-4.8v4.8h1.3Z" class="g1_1" />
<path fill-rule="evenodd" d="M664.4,111.2l-.5,-4.3l.5,-.5v4.8Z" class="g1_1" />
<path fill-rule="evenodd" d="M664.4,111.2l-.5,-4.3v3.7l.5,.6Z" class="g1_1" />
<path fill-rule="evenodd" d="M663.9,110.6l-.6,-2.9l.6,-.8v3.7Z" class="g1_1" />
<path fill-rule="evenodd" d="M663.9,110.6l-.6,-2.9v2.4l.6,.5Z" class="g1_1" />
<path fill-rule="evenodd" d="M564.8,148l-70.7,79.6l.9,1.3L564.8,148Z" class="g1_1" />
<path fill-rule="evenodd" d="M564.8,148l-1.2,-1.1l-69.5,80.7L564.8,148Z" class="g1_1" />
<path fill-rule="evenodd" d="M665.7,108.8L564.8,145.6v1.3L665.7,108.8Z" class="g1_1" />
<path fill-rule="evenodd" d="M564.8,145.6L665.7,107.7v1.1L564.8,145.6Z" class="g1_1" />
<path d="M664.4,109.1V69h1.3v40.1h-1.3M660.2,69.9L665,60.4l4.9,9.5h-9.7Z" class="g1_1" />
<path d="M469.7,249H705.3v1.7H469.7V249m234.5,-4l9.7,4.8l-9.7,4.7V245Z" class="g1_1" />
<text x="415" y="330" dx="0,-0.1,-0.1,-0.1,-0.1,-0.1,-0.1,-0.1,-0.1,0,-0.1,-0.1,0,-0.1,-0.1,-0.1,-0.1,-0.1,-0.1,0,-0.1,-0.1,-0.1,-0.1,-0.1,-0.1,0,-0.1,-0.1,-0.2,-0.1,-0.2,-0.1,-0.1,-0.1,-0.1,-0.1,-0.2,-0.1" class="s2_1">(Stretch to higher powers of Y using a </text>
<text x="482" y="356" class="s2_1">square transformation)</text>
<path d="M4.8,7h.7V6.3H4.8V7Z" class="g1_1" />
<path d="M4.8,7h.7V6.3H4.8V7Z" class="g1_1" />
<path d="M5.5,7H385V6.3H5.5V7Z" class="g1_1" />
<path d="M385,7h.7V6.3H385V7Z" class="g1_1" />
<path d="M385.7,7H792.2V6.3H385.7V7Z" class="g1_1" />
<path d="M792.2,7h.7V6.3h-.7V7Z" class="g1_1" />
<path d="M792.2,7h.7V6.3h-.7V7Z" class="g1_1" />
<path d="M4.8,370h.7V7H4.8V370Z" class="g1_1" />
<path d="M4.8,370.8h.7V370H4.8v.8Z" class="g1_1" />
<path d="M4.8,370.8h.7V370H4.8v.8Z" class="g1_1" />
<path d="M5.5,370.8H385.6V370H5.5v.8Z" class="g1_1" />
<path d="M384.5,370.8h.7V370h-.7v.8Z" class="g1_1" />
<path d="M385.2,370.8h407V370h-407v.8Z" class="g1_1" />
<path d="M792.2,370h.7V7h-.7V370Z" class="g1_1" />
<path d="M792.2,370.8h.7V370h-.7v.8Z" class="g1_1" />
<path d="M792.2,370.8h.7V370h-.7v.8Z" class="g1_1" />


<!-- Any embedded fonts defined here -->
<style type="text/css" ><![CDATA[

@font-face {
	font-family: Arial_e;
	src: url("fonts/Arial_e.woff") format("woff");
}

@font-face {
	font-family: TimesNewRoman-Italic_a;
	src: url("fonts/TimesNewRoman-Italic_a.woff") format("woff");
}

@font-face {
	font-family: TimesNewRoman_7;
	src: url("fonts/TimesNewRoman_7.woff") format("woff");
}

]]></style>

</svg>
