<?xml version="1.0" encoding="UTF-8" standalone="no"?>
<!DOCTYPE svg PUBLIC "-//W3C//DTD SVG 1.1//EN"
"http://www.w3.org/Graphics/SVG/1.1/DTD/svg11.dtd">


<!-- Page 1 -->
<svg x="0" y="0" width="617" height="357" viewBox="0 0 617 357" version="1.1" xmlns="http://www.w3.org/2000/svg" xmlns:xlink="http://www.w3.org/1999/xlink"
style="display: block;margin-left: auto;margin-right: auto;">
<defs>

<style type="text/css"><![CDATA[
text { white-space: pre; }
path, image { pointer-events: none; }

.s1_1{
font-size: 28.12px;
font-family: CourierNew_6;
fill: #000000;
}
.s2_1{
font-size: 31.63px;
font-family: CourierNew-Bold_8;
fill: #000000;
}

.g0_1{
fill: #DFDFDF;
}
.g1_1{
fill: none;
stroke: #000000;
stroke-width: 1.2833334;
stroke-linecap: round;
stroke-linejoin: round;
}
.g2_1{
fill: none;
stroke: #000000;
stroke-width: 1.8333334;
stroke-linecap: round;
stroke-linejoin: round;
}
.g3_1{
}

]]></style>

</defs>
<path d="M0,0
L0,357
L617,357
L617,0 Z " 
fill="#FFFFFF" stroke="none" />
<path fill-rule="evenodd" d="M235.4,183.1c0,-49.5,-37.2,-89.7,-83.1,-89.7c-46,0,-83.2,40.2,-83.2,89.7c0,49.3,37.2,89.5,83.2,89.5c45.9,0,83.1,-40.2,83.1,-89.5Z" class="g0_1" />
<path d="M235.6,183.1c0,-49.5,-37.2,-89.7,-83.3,-89.7c-46,0,-83.2,40.2,-83.2,89.7c0,49.5,37.2,89.6,83.2,89.6c46.1,0,83.3,-40.1,83.3,-89.6Zm260,-52.8c0,-49.5,-37.3,-89.7,-83.3,-89.7c-46,0,-83.2,40.2,-83.2,89.7c0,49.5,37.2,89.6,83.2,89.6c46,0,83.3,-40.1,83.3,-89.6Z" class="g1_1" />
<path d="M121.5,167.7L69.1,114.5" class="g2_1" />
<path fill-rule="evenodd" d="M108.7,170.1l22.7,7.7l-7.5,-23.1L121,167.1Z" class="g3_1" />
<text x="19" y="114" dx="0,-0.2,-0.2" class="s1_1">SST</text>
<text x="71" y="261" class="s1_1">y</text>
<text x="123" y="329" dx="0,-0.4,-0.4" class="s2_1">(a)</text>
<path d="M506,209.5C506,162.7,471,125,427.9,125c-43.1,0,-78.1,37.7,-78.1,84.5c0,46.6,35,84.3,78.1,84.3c43.1,0,78.1,-37.7,78.1,-84.3Z" class="g1_1" />
<text x="320" y="82" class="s1_1">y</text>
<text x="341" y="293" class="s1_1">x</text>
<text x="404" y="338" dx="0,-0.4,-0.4" class="s2_1">(b)</text>
<text x="508" y="71" dx="0,-0.2,-0.2" class="s1_1">SSE</text>
<path d="M435.4,90.9L506.7,70.5" class="g2_1" />
<path fill-rule="evenodd" d="M439.5,78.4L421.8,95.1l23.7,4.2L436,90.9Z" class="g3_1" />
<text x="539" y="184" dx="0,-0.2,-0.2" class="s1_1">SSR</text>
<path d="M360.3,167.1v31.8m10.4,-44.2v52.6M381.1,144v69.7m10.3,-79.6v82.4m10.5,-86.9v88.5m10.4,-91.8v93.6M422.8,125v94.9M433,125v92.2m10.5,-90.9v86.1M453.9,129v77m10.3,-70.4v63.3m10.4,-56.1V191m9.8,-41.6v26.5" class="g1_1" />
<path d="M442.6,177.8h94.6" class="g2_1" />
<path fill-rule="evenodd" d="M447.5,170.3L433,177.8l14.5,7.1l-4.4,-7.1Z" class="g3_1" />
<path d="M5.5,7.5h.7V6.7H5.5v.8Z" class="g3_1" />
<path d="M5.5,7.5h.7V6.7H5.5v.8Z" class="g3_1" />
<path d="M6.2,7.5H610.3V6.7H6.2v.8Z" class="g3_1" />
<path d="M610.3,7.5h.8V6.7h-.8v.8Z" class="g3_1" />
<path d="M610.3,7.5h.8V6.7h-.8v.8Z" class="g3_1" />
<path d="M5.5,355.4h.7V7.5H5.5V355.4Z" class="g3_1" />
<path d="M610.3,355.4h.8V7.5h-.8V355.4Z" class="g3_1" />
<path d="M5.5,356.2h.7v-.8H5.5v.8Z" class="g3_1" />
<path d="M5.5,356.2h.7v-.8H5.5v.8Z" class="g3_1" />
<path d="M6.2,356.2H610.3v-.8H6.2v.8Z" class="g3_1" />
<path d="M610.3,356.2h.8v-.8h-.8v.8Z" class="g3_1" />
<path d="M610.3,356.2h.8v-.8h-.8v.8Z" class="g3_1" />


<!-- Any embedded fonts defined here -->
<style type="text/css" ><![CDATA[

@font-face {
	font-family: CourierNew-Bold_8;
	src: url("fonts/CourierNew-Bold_8.woff") format("woff");
}

@font-face {
	font-family: CourierNew_6;
	src: url("fonts/CourierNew_6.woff") format("woff");
}

]]></style>

</svg>
