<?xml version="1.0" encoding="UTF-8" standalone="no"?>
<!DOCTYPE svg PUBLIC "-//W3C//DTD SVG 1.1//EN"
"http://www.w3.org/Graphics/SVG/1.1/DTD/svg11.dtd">


<!-- Page 1 -->
<svg x="0" y="0" width="532" height="261" viewBox="0 0 532 261" version="1.1" xmlns="http://www.w3.org/2000/svg" xmlns:xlink="http://www.w3.org/1999/xlink"
style="display: block;margin-left: auto;margin-right: auto;">
<defs>

<style type="text/css"><![CDATA[
text { white-space: pre; }
path, image { pointer-events: none; }

.s1_1{
font-size: 16.76px;
font-family: CourierNew_6;
fill: #000000;
}
.s2_1{
font-size: 12.57px;
font-family: CourierNew_6;
fill: #000000;
}
.s3_1{
font-size: 16.76px;
font-family: CourierNew-Bold_a;
fill: #000000;
}

.g0_1{
fill: none;
stroke: #000000;
stroke-width: 0.73333335;
stroke-linecap: round;
stroke-linejoin: round;
}
.g1_1{
fill: none;
stroke: #000000;
stroke-width: 1.0999999;
stroke-linecap: round;
stroke-linejoin: round;
}
.g2_1{
}

]]></style>

</defs>
<path d="M0,0
L0,261
L532,261
L532,0 Z " 
fill="#FFFFFF" stroke="none" />
<path d="M444.6,106.6c0,-29.5,-22.8,-53.5,-50.8,-53.5c-28.2,0,-51,24,-51,53.5c0,29.4,22.8,53.4,51,53.4c28,0,50.8,-24,50.8,-53.4ZM396,153.8c0,-27.9,-21.3,-50.5,-47.7,-50.5c-26.4,0,-47.6,22.6,-47.6,50.5c0,27.6,21.2,50.2,47.6,50.2c26.4,0,47.7,-22.6,47.7,-50.2Z" class="g0_1" />
<text x="337" y="78" class="s1_1">y</text>
<text x="308" y="36" dx="0,0.2,0.2" class="s1_1">SSE</text>
<path d="M360.2,78L338.8,38.4" class="g1_1" />
<path fill-rule="evenodd" d="M352.2,77.1l12.1,8.5l-.4,-14.3l-3.8,6.4Z" class="g2_1" />
<path d="M466,153.8c0,-27.9,-21.2,-50.5,-47.6,-50.5c-26.4,0,-47.7,22.6,-47.7,50.5c0,27.6,21.3,50.2,47.7,50.2c26.4,0,47.6,-22.6,47.6,-50.2Z" class="g0_1" />
<text x="473" y="178" class="s1_1">x</text>
<text x="483" y="184" class="s2_1">2</text>
<path d="M345,109.6h-.2l-.1,.2h1.2v-.2Z" class="g2_1" />
<path d="M346.7,109.6h-.2v.2H348l-.2,-.2Z" class="g2_1" />
<path d="M348.5,109.6h-.2v.2h1.5l-.2,-.2Z" class="g2_1" />
<path d="M350.3,109.6v.2h1.3l-.2,-.2Z" class="g2_1" />
<path d="M352.2,109.6v.2h1.3l-.2,-.2Z" class="g2_1" />
<path d="M354,109.6v.2h1.3l-.2,-.2Z" class="g2_1" />
<path d="M356,109.6h-.2v.2h1.3l-.2,-.2Z" class="g2_1" />
<path d="M357.9,109.6h-.2v.2H359l-.2,-.2Z" class="g2_1" />
<path d="M359.7,109.6h-.2v.2h1.3v-.2Z" class="g2_1" />
<path d="M361.5,109.6h-.2v.2h1.3v-.2Z" class="g2_1" />
<path d="M363.4,109.6h-.2v.2h1.5l-.2,-.2Z" class="g2_1" />
<path d="M365.2,109.6H365v.2h1.5l-.2,-.2Z" class="g2_1" />
<path d="M367,109.6v.2h1.3l-.2,-.2Z" class="g2_1" />
<path d="M368.9,109.6v.2h1.2l-.1,-.2Z" class="g2_1" />
<path d="M345.4,115.8h-.2l-.2,.2l.2,.2h1.1l.2,-.2l-.2,-.2Z" class="g2_1" />
<path d="M347,115.8h-.1v.4h1.2l.2,-.2l-.2,-.2Z" class="g2_1" />
<path d="M348.9,115.8v.4H350l.2,-.2l-.2,-.2Z" class="g2_1" />
<path d="M350.7,115.8v.4h1.1l.2,-.2l-.2,-.2Z" class="g2_1" />
<path d="M352.7,115.8h-.2v.4h1.1l.2,-.2l-.2,-.2Z" class="g2_1" />
<path d="M354.6,115.8h-.2v.4h1.1l.2,-.2l-.2,-.2Z" class="g2_1" />
<path d="M356.4,115.8h-.2v.4h1.3v-.4Z" class="g2_1" />
<path d="M358.2,115.8H358v.4h1.3v-.4Z" class="g2_1" />
<path d="M360.1,115.8h-.2v.4h1.3v-.4Z" class="g2_1" />
<path d="M361.9,115.8h-.2v.4H363l.2,-.2l-.2,-.2Z" class="g2_1" />
<path d="M363.7,115.8h-.1v.4h1.2l.2,-.2l-.2,-.2Z" class="g2_1" />
<path d="M365.6,115.8v.4h1.1l.1,-.2l-.1,-.2Z" class="g2_1" />
<path d="M367.4,115.8v.4h1.1l.2,-.2l-.2,-.2Z" class="g2_1" />
<path d="M369.4,115.8h-.2v.4h1.1l.2,-.2l-.2,-.2Z" class="g2_1" />
<path d="M371.2,115.8h-.1v.4h1.1l.1,-.2l-.1,-.2Z" class="g2_1" />
<path d="M373.1,115.8h-.2v.4h1.3v-.4Z" class="g2_1" />
<path d="M374.9,115.8h-.2v.4H376v-.4Z" class="g2_1" />
<path d="M376.7,115.8h-.1v.4h.3l.2,-.2v-.2Z" class="g2_1" />
<path d="M345.4,122h-.2l-.2,.2l.2,.2h1.1l.2,-.2l-.2,-.2Z" class="g2_1" />
<path d="M347,122h-.1v.4h1.2l.2,-.2l-.2,-.2Z" class="g2_1" />
<path d="M348.9,122v.4H350l.2,-.2L350,122Z" class="g2_1" />
<path d="M350.7,122v.4h1.1l.2,-.2l-.2,-.2Z" class="g2_1" />
<path d="M352.7,122h-.2v.4h1.1l.2,-.2l-.2,-.2Z" class="g2_1" />
<path d="M354.6,122h-.2v.4h1.1l.2,-.2l-.2,-.2Z" class="g2_1" />
<path d="M356.4,122h-.2v.4h1.3V122Z" class="g2_1" />
<path d="M358.2,122H358v.4h1.3V122Z" class="g2_1" />
<path d="M360.1,122h-.2v.4h1.3V122Z" class="g2_1" />
<path d="M361.9,122h-.2v.4H363l.2,-.2L363,122Z" class="g2_1" />
<path d="M363.7,122h-.1v.4h1.2l.2,-.2l-.2,-.2Z" class="g2_1" />
<path d="M365.6,122v.4h1.1l.1,-.2l-.1,-.2Z" class="g2_1" />
<path d="M367.4,122v.4h1.1l.2,-.2l-.2,-.2Z" class="g2_1" />
<path d="M369.4,122h-.2v.4h1.1l.2,-.2l-.2,-.2Z" class="g2_1" />
<path d="M371.2,122h-.1v.4h1.1l.1,-.2l-.1,-.2Z" class="g2_1" />
<path d="M373.1,122h-.2v.4h1.3V122Z" class="g2_1" />
<path d="M374.9,122h-.2v.4H376V122Z" class="g2_1" />
<path d="M376.7,122h-.1v.4h1.2l.2,-.2l-.2,-.2Z" class="g2_1" />
<path d="M378.6,122h-.2v.4h1.3l.2,-.2l-.2,-.2Z" class="g2_1" />
<path d="M380.4,122v.4h1.1l.2,-.2l-.2,-.2Z" class="g2_1" />
<path d="M382.2,122v.4h1.1l.2,-.2l-.2,-.2Z" class="g2_1" />
<path d="M384.1,122v.4h1.1l.2,-.2l-.2,-.2Z" class="g2_1" />
<path d="M386.1,122h-.2v.4H387l.2,-.2L387,122Z" class="g2_1" />
<path d="M387.9,122h-.2v.4h1.1l.2,-.2l-.2,-.2Z" class="g2_1" />
<path d="M389.8,122h-.2v.4h1.3V122Z" class="g2_1" />
<path d="M391.6,122h-.2v.4h1.3V122Z" class="g2_1" />
<path d="M393.4,122h-.1v.4h1.2l.2,-.2l-.2,-.2Z" class="g2_1" />
<path d="M395.3,122h-.2v.4h1.3l.1,-.2l-.1,-.2Z" class="g2_1" />
<path d="M397.1,122v.4h1.1l.2,-.2l-.2,-.2Z" class="g2_1" />
<path d="M398.9,122v.4H400l.2,-.2L400,122Z" class="g2_1" />
<path d="M400.8,122v.4h1.1l.1,-.2l-.1,-.2Z" class="g2_1" />
<path d="M402.8,122h-.2v.4h1.1l.2,-.2l-.2,-.2Z" class="g2_1" />
<path d="M404.6,122h-.2v.4h1.1l.2,-.2l-.2,-.2Z" class="g2_1" />
<path d="M406.4,122h-.1v.4h1.2V122Z" class="g2_1" />
<path d="M408.3,122h-.2v.4h1.3V122Z" class="g2_1" />
<path d="M410.1,122h-.2v.4h1.3l.2,-.2l-.2,-.2Z" class="g2_1" />
<path d="M411.9,122h-.1v.4H413l.2,-.2L413,122Z" class="g2_1" />
<path d="M413.8,122v.4h1.1l.2,-.2l-.2,-.2Z" class="g2_1" />
<path d="M415.6,122v.4h1.1l.2,-.2l-.2,-.2Z" class="g2_1" />
<path d="M417.5,122v.4h1.1l.1,-.2l-.1,-.2Z" class="g2_1" />
<path d="M419.5,122h-.2v.4h1.1l.2,-.2l-.2,-.2Z" class="g2_1" />
<path d="M421.3,122h-.2v.4h1.1l.2,-.2l-.2,-.2Z" class="g2_1" />
<path d="M423.1,122h-.2v.4h1.3V122Z" class="g2_1" />
<path d="M425,122h-.2v.4h1.3V122Z" class="g2_1" />
<path d="M426.8,122h-.2v.4h1.3l.2,-.2l-.2,-.2Z" class="g2_1" />
<path d="M428.6,122h-.2v.4h1.3l.2,-.2l-.2,-.2Z" class="g2_1" />
<path d="M430.5,122v.4h1.1l.1,-.2l-.1,-.2Z" class="g2_1" />
<path d="M432.3,122v.4h1.1l.2,-.2l-.2,-.2Z" class="g2_1" />
<path d="M434.3,122h-.2v.4h1.1l.2,-.2l-.2,-.2Z" class="g2_1" />
<path d="M436.1,122H436v.4h1.1l.1,-.2l-.1,-.2Z" class="g2_1" />
<path d="M438,122h-.2v.4h1.3V122Z" class="g2_1" />
<path d="M439.8,122h-.2v.4h.9l.2,-.2V122Z" class="g2_1" />
<path d="M346.9,128.5h-.2l.2,.1H348v-.1Z" class="g2_1" />
<path d="M348.7,128.5h-.2v.1h1.3v-.1Z" class="g2_1" />
<path d="M350.5,128.5h-.2v.1h1.3v-.1Z" class="g2_1" />
<path d="M352.4,128.5h-.2v.1h1.3l.1,-.1h-.1Z" class="g2_1" />
<path d="M354.2,128.5H354v.1h1.3l.2,-.1h-.2Z" class="g2_1" />
<path d="M356,128.5v.1h1.1l.2,-.1h-.2Z" class="g2_1" />
<path d="M357.9,128.5v.1H359l.1,-.1H359Z" class="g2_1" />
<path d="M359.9,128.5h-.2v.1h1.1l.2,-.1h-.2Z" class="g2_1" />
<path d="M361.7,128.5h-.2v.1h1.1l.2,-.1h-.2Z" class="g2_1" />
<path d="M363.6,128.5h-.2v.1h1.3v-.1Z" class="g2_1" />
<path d="M365.4,128.5h-.2v.1h1.3v-.1Z" class="g2_1" />
<path d="M367.2,128.5H367v.1h1.3l.2,-.1h-.2Z" class="g2_1" />
<path d="M369,128.5h-.1v.1h1.2l.2,-.1h-.2Z" class="g2_1" />
<path d="M370.9,128.5v.1H372l.2,-.1H372Z" class="g2_1" />
<path d="M372.7,128.5v.1h1.1l.2,-.1h-.2Z" class="g2_1" />
<path d="M374.5,128.5v.1h1.1l.2,-.1h-.2Z" class="g2_1" />
<path d="M376.6,128.5h-.2v.1h1.1l.2,-.1h-.2Z" class="g2_1" />
<path d="M378.4,128.5h-.2v.1h1.1l.2,-.1h-.2Z" class="g2_1" />
<path d="M380.2,128.5H380v.1h1.3v-.1Z" class="g2_1" />
<path d="M382.1,128.5h-.2v.1h1.3v-.1Z" class="g2_1" />
<path d="M383.9,128.5h-.2v.1H385l.2,-.1H385Z" class="g2_1" />
<path d="M385.7,128.5h-.2v.1h1.3l.2,-.1h-.2Z" class="g2_1" />
<path d="M387.6,128.5v.1h1.1l.1,-.1h-.1Z" class="g2_1" />
<path d="M389.4,128.5v.1h1.1l.2,-.1h-.2Z" class="g2_1" />
<path d="M391.2,128.5v.1h1.1l.2,-.1h-.2Z" class="g2_1" />
<path d="M393.3,128.5h-.2v.1h1.1l.1,-.1h-.1Z" class="g2_1" />
<path d="M395.1,128.5h-.2v.1H396l.2,-.1H396Z" class="g2_1" />
<path d="M396.9,128.5h-.2v.1H398v-.1Z" class="g2_1" />
<path d="M398.7,128.5h-.1v.1h1.2v-.1Z" class="g2_1" />
<path d="M400.6,128.5h-.2v.1h1.3l.2,-.1h-.2Z" class="g2_1" />
<path d="M402.4,128.5h-.2v.1h1.3l.2,-.1h-.2Z" class="g2_1" />
<path d="M404.2,128.5v.1h1.1l.2,-.1h-.2Z" class="g2_1" />
<path d="M406.1,128.5v.1h1.1l.2,-.1h-.2Z" class="g2_1" />
<path d="M407.9,128.5v.1H409l.2,-.1H409Z" class="g2_1" />
<path d="M409.9,128.5h-.2v.1h1.1l.2,-.1h-.2Z" class="g2_1" />
<path d="M411.8,128.5h-.2v.1h1.1l.2,-.1h-.2Z" class="g2_1" />
<path d="M413.6,128.5h-.2v.1h1.3v-.1Z" class="g2_1" />
<path d="M415.4,128.5h-.2v.1h1.3v-.1Z" class="g2_1" />
<path d="M417.3,128.5h-.2v.1h1.3l.2,-.1h-.2Z" class="g2_1" />
<path d="M419.1,128.5h-.2v.1h1.3l.2,-.1h-.2Z" class="g2_1" />
<path d="M420.9,128.5v.1H422l.2,-.1H422Z" class="g2_1" />
<path d="M422.8,128.5v.1h1.1l.1,-.1h-.1Z" class="g2_1" />
<path d="M424.6,128.5v.1h1.1l.2,-.1h-.2Z" class="g2_1" />
<path d="M426.6,128.5h-.2v.1h1.1l.2,-.1h-.2Z" class="g2_1" />
<path d="M428.4,128.5h-.1v.1h1.1l.1,-.1h-.1Z" class="g2_1" />
<path d="M430.3,128.5h-.2v.1h1.3v-.1Z" class="g2_1" />
<path d="M432.1,128.5h-.2v.1h1.3v-.1Z" class="g2_1" />
<path d="M433.9,128.5h-.1v.1H435l.2,-.1H435Z" class="g2_1" />
<path d="M435.8,128.5h-.2v.1h1.3l.2,-.1h-.2Z" class="g2_1" />
<path d="M437.6,128.5v.1h1.1l.2,-.1h-.2Z" class="g2_1" />
<path d="M439.4,128.5v.1h.4l.2,-.1Z" class="g2_1" />
<path d="M351.6,134.7l-.2,.2h1.3v-.2Z" class="g2_1" />
<path d="M353.5,134.7h-.2v.2h1.3v-.2Z" class="g2_1" />
<path d="M355.3,134.7h-.2v.2h1.3v-.2Z" class="g2_1" />
<path d="M357.1,134.7h-.2v.2h1.5l-.2,-.2Z" class="g2_1" />
<path d="M359,134.7h-.2v.2h1.4l-.1,-.2Z" class="g2_1" />
<path d="M360.8,134.7v.2h1.3l-.2,-.2Z" class="g2_1" />
<path d="M362.6,134.7v.2h1.3l-.2,-.2Z" class="g2_1" />
<path d="M364.7,134.7h-.2v.2h1.3l-.2,-.2Z" class="g2_1" />
<path d="M366.5,134.7h-.2v.2h1.3l-.2,-.2Z" class="g2_1" />
<path d="M368.3,134.7h-.2v.2h1.3v-.2Z" class="g2_1" />
<path d="M370.1,134.7H370v.2h1.2v-.2Z" class="g2_1" />
<path d="M372,134.7h-.2v.2h1.5l-.2,-.2Z" class="g2_1" />
<path d="M373.8,134.7h-.2v.2h1.5l-.2,-.2Z" class="g2_1" />
<path d="M375.6,134.7v.2h1.3l-.2,-.2Z" class="g2_1" />
<path d="M377.5,134.7v.2h1.3l-.2,-.2Z" class="g2_1" />
<path d="M379.3,134.7v.2h1.3l-.2,-.2Z" class="g2_1" />
<path d="M381.3,134.7h-.2v.2h1.3l-.2,-.2Z" class="g2_1" />
<path d="M383.2,134.7H383v.2h1.3l-.2,-.2Z" class="g2_1" />
<path d="M385,134.7h-.2v.2h1.3v-.2Z" class="g2_1" />
<path d="M386.8,134.7h-.2v.2h1.3v-.2Z" class="g2_1" />
<path d="M388.7,134.7h-.2v.2H390l-.2,-.2Z" class="g2_1" />
<path d="M390.5,134.7h-.2v.2h1.5l-.2,-.2Z" class="g2_1" />
<path d="M392.3,134.7v.2h1.3l-.2,-.2Z" class="g2_1" />
<path d="M394.2,134.7v.2h1.2l-.1,-.2Z" class="g2_1" />
<path d="M396,134.7v.2h1.3l-.2,-.2Z" class="g2_1" />
<path d="M398,134.7h-.2v.2h1.3l-.2,-.2Z" class="g2_1" />
<path d="M399.8,134.7h-.1v.2h1.2l-.1,-.2Z" class="g2_1" />
<path d="M401.7,134.7h-.2v.2h1.3v-.2Z" class="g2_1" />
<path d="M403.5,134.7h-.2v.2h1.3v-.2Z" class="g2_1" />
<path d="M405.3,134.7h-.1v.2h1.4l-.2,-.2Z" class="g2_1" />
<path d="M407.2,134.7H407v.2h1.5l-.2,-.2Z" class="g2_1" />
<path d="M409,134.7v.2h1.3l-.2,-.2Z" class="g2_1" />
<path d="M410.8,134.7v.2h1.3l-.2,-.2Z" class="g2_1" />
<path d="M412.7,134.7v.2H414l-.2,-.2Z" class="g2_1" />
<path d="M414.7,134.7h-.2v.2h1.3l-.2,-.2Z" class="g2_1" />
<path d="M416.5,134.7h-.2v.2h1.3l-.1,-.2Z" class="g2_1" />
<path d="M418.4,134.7h-.2v.2h1.3v-.2Z" class="g2_1" />
<path d="M420.2,134.7H420v.2h1.3v-.2Z" class="g2_1" />
<path d="M422,134.7h-.2v.2h1.5l-.2,-.2Z" class="g2_1" />
<path d="M423.9,134.7h-.2v.2h1.4l-.1,-.2Z" class="g2_1" />
<path d="M425.7,134.7v.2H427l-.2,-.2Z" class="g2_1" />
<path d="M427.5,134.7v.2h1.3l-.2,-.2Z" class="g2_1" />
<path d="M429.4,134.7v.2h1.2l-.1,-.2Z" class="g2_1" />
<path d="M431.4,134.7h-.2v.2h1.3l-.2,-.2Z" class="g2_1" />
<path d="M433.2,134.7H433v.2h1.3v-.2Z" class="g2_1" />
<path d="M358,140.9h-.1v.4H359l.1,-.2l-.1,-.2Z" class="g2_1" />
<path d="M359.9,140.9h-.2v.4h1.1l.2,-.2l-.2,-.2Z" class="g2_1" />
<path d="M361.7,140.9h-.2v.4h1.1l.2,-.2l-.2,-.2Z" class="g2_1" />
<path d="M363.6,140.9h-.2v.4h1.3v-.4Z" class="g2_1" />
<path d="M365.4,140.9h-.2v.4h1.3v-.4Z" class="g2_1" />
<path d="M367.2,140.9H367v.4h1.3l.2,-.2l-.2,-.2Z" class="g2_1" />
<path d="M369,140.9h-.1v.4h1.2l.2,-.2l-.2,-.2Z" class="g2_1" />
<path d="M370.9,140.9v.4H372l.2,-.2l-.2,-.2Z" class="g2_1" />
<path d="M372.7,140.9v.4h1.1l.2,-.2l-.2,-.2Z" class="g2_1" />
<path d="M374.5,140.9v.4h1.1l.2,-.2l-.2,-.2Z" class="g2_1" />
<path d="M376.6,140.9h-.2v.4h1.1l.2,-.2l-.2,-.2Z" class="g2_1" />
<path d="M378.4,140.9h-.2v.4h1.1l.2,-.2l-.2,-.2Z" class="g2_1" />
<path d="M380.2,140.9H380v.4h1.3v-.4Z" class="g2_1" />
<path d="M382.1,140.9h-.2v.4h1.3v-.4Z" class="g2_1" />
<path d="M383.9,140.9h-.2v.4H385l.2,-.2l-.2,-.2Z" class="g2_1" />
<path d="M385.7,140.9h-.2v.4h1.3l.2,-.2l-.2,-.2Z" class="g2_1" />
<path d="M387.6,140.9v.4h1.1l.1,-.2l-.1,-.2Z" class="g2_1" />
<path d="M389.4,140.9v.4h1.1l.2,-.2l-.2,-.2Z" class="g2_1" />
<path d="M391.2,140.9v.4h1.1l.2,-.2l-.2,-.2Z" class="g2_1" />
<path d="M393.3,140.9h-.2v.4h1.1l.1,-.2l-.1,-.2Z" class="g2_1" />
<path d="M395.1,140.9h-.2v.4H396l.2,-.2l-.2,-.2Z" class="g2_1" />
<path d="M396.9,140.9h-.2v.4H398v-.4Z" class="g2_1" />
<path d="M398.7,140.9h-.1v.4h1.2v-.4Z" class="g2_1" />
<path d="M400.6,140.9h-.2v.4h1.3l.2,-.2l-.2,-.2Z" class="g2_1" />
<path d="M402.4,140.9h-.2v.4h1.3l.2,-.2l-.2,-.2Z" class="g2_1" />
<path d="M404.2,140.9v.4h1.1l.2,-.2l-.2,-.2Z" class="g2_1" />
<path d="M406.1,140.9v.4h1.1l.2,-.2l-.2,-.2Z" class="g2_1" />
<path d="M407.9,140.9v.4H409l.2,-.2l-.2,-.2Z" class="g2_1" />
<path d="M409.9,140.9h-.2v.4h1.1l.2,-.2l-.2,-.2Z" class="g2_1" />
<path d="M411.8,140.9h-.2v.4h1.1l.2,-.2l-.2,-.2Z" class="g2_1" />
<path d="M413.6,140.9h-.2v.4h1.3v-.4Z" class="g2_1" />
<path d="M415.4,140.9h-.2v.4h1.3v-.4Z" class="g2_1" />
<path d="M417.3,140.9h-.2v.4h1.3l.2,-.2l-.2,-.2Z" class="g2_1" />
<path d="M419.1,140.9h-.2v.4h1.3l.2,-.2l-.2,-.2Z" class="g2_1" />
<path d="M420.9,140.9v.4H422l.2,-.2l-.2,-.2Z" class="g2_1" />
<path d="M422.8,140.9v.4h1.1l.1,-.2l-.1,-.2Z" class="g2_1" />
<path d="M424.6,140.9v.4h1.1l.2,-.2l-.2,-.2Z" class="g2_1" />
<path d="M426.6,140.9h-.2v.4h1.1l.2,-.2l-.2,-.2Z" class="g2_1" />
<path d="M428.4,140.9h-.1v.4h1.1l.1,-.2l-.1,-.2Z" class="g2_1" />
<path d="M430.3,140.9h-.2v.4h1.3v-.4Z" class="g2_1" />
<path d="M364.5,147.3h-.4l.2,.2h1.1l.2,-.2h-.2Z" class="g2_1" />
<path d="M366.1,147.3v.2h1.1l.2,-.2h-.2Z" class="g2_1" />
<path d="M367.9,147.3v.2H369l.2,-.2H369Z" class="g2_1" />
<path d="M369.8,147.3v.2h1.1l.2,-.2h-.2Z" class="g2_1" />
<path d="M371.8,147.3h-.2v.2h1.1l.2,-.2h-.2Z" class="g2_1" />
<path d="M373.6,147.3h-.2v.2h1.1l.2,-.2h-.2Z" class="g2_1" />
<path d="M375.5,147.3h-.2v.2h1.3v-.2Z" class="g2_1" />
<path d="M377.3,147.3h-.2v.2h1.3v-.2Z" class="g2_1" />
<path d="M379.1,147.3h-.2v.2h1.3l.2,-.2h-.2Z" class="g2_1" />
<path d="M381,147.3h-.2v.2h1.3l.1,-.2h-.1Z" class="g2_1" />
<path d="M382.8,147.3v.2h1.1l.2,-.2h-.2Z" class="g2_1" />
<path d="M384.6,147.3v.2h1.1l.2,-.2h-.2Z" class="g2_1" />
<path d="M386.5,147.3v.2h1.1l.1,-.2h-.1Z" class="g2_1" />
<path d="M388.5,147.3h-.2v.2h1.1l.2,-.2h-.2Z" class="g2_1" />
<path d="M390.3,147.3h-.2v.2h1.1l.2,-.2h-.2Z" class="g2_1" />
<path d="M392.2,147.3H392v.2h1.3v-.2Z" class="g2_1" />
<path d="M394,147.3h-.2v.2h1.3v-.2Z" class="g2_1" />
<path d="M395.8,147.3h-.2v.2h1.3l.2,-.2h-.2Z" class="g2_1" />
<path d="M397.6,147.3h-.1v.2h1.2l.2,-.2h-.2Z" class="g2_1" />
<path d="M399.5,147.3v.2h1.1l.2,-.2h-.2Z" class="g2_1" />
<path d="M401.3,147.3v.2h1.1l.2,-.2h-.2Z" class="g2_1" />
<path d="M403.1,147.3v.2h1.1l.2,-.2h-.2Z" class="g2_1" />
<path d="M405.2,147.3H405v.2h1.1l.2,-.2h-.2Z" class="g2_1" />
<path d="M407,147.3h-.2v.2h1.1l.2,-.2h-.2Z" class="g2_1" />
<path d="M408.8,147.3h-.2v.2h1.3v-.2Z" class="g2_1" />
<path d="M410.7,147.3h-.2v.2h1.3v-.2Z" class="g2_1" />
<path d="M412.5,147.3h-.2v.2h1.3l.2,-.2h-.2Z" class="g2_1" />
<path d="M414.3,147.3h-.2v.2h1.3l.2,-.2h-.2Z" class="g2_1" />
<path d="M416.2,147.3v.2h1.1l.2,-.2h-.2Z" class="g2_1" />
<path d="M418,147.3v.2h1.1l.2,-.2h-.2Z" class="g2_1" />
<path d="M419.8,147.3v.2h1.1l.2,-.2h-.2Z" class="g2_1" />
<path d="M421.8,147.3h-.1v.2h1.1l.1,-.2h-.1Z" class="g2_1" />
<path d="M423.7,147.3h-.2v.2h1.1l.2,-.2h-.2Z" class="g2_1" />
<path d="M425.5,147.3h-.2v.2h1.3v-.2Z" class="g2_1" />
<path d="M427.3,147.3h-.1v.2h.7l.2,-.2Z" class="g2_1" />
<path d="M370.9,153.6h-.2l-.2,.2h1.3v-.2Z" class="g2_1" />
<path d="M372.5,153.6h-.2v.2h1.3v-.2Z" class="g2_1" />
<path d="M374.4,153.6h-.2v.2h1.4l-.1,-.2Z" class="g2_1" />
<path d="M376.2,153.6H376v.2h1.5l-.2,-.2Z" class="g2_1" />
<path d="M378,153.6v.2h1.3l-.2,-.2Z" class="g2_1" />
<path d="M379.9,153.6v.2h1.2l-.1,-.2Z" class="g2_1" />
<path d="M381.7,153.6v.2H383l-.2,-.2Z" class="g2_1" />
<path d="M383.7,153.6h-.2v.2h1.3l-.2,-.2Z" class="g2_1" />
<path d="M385.5,153.6h-.1v.2h1.2l-.1,-.2Z" class="g2_1" />
<path d="M387.4,153.6h-.2v.2h1.3v-.2Z" class="g2_1" />
<path d="M389.2,153.6H389v.2h1.3v-.2Z" class="g2_1" />
<path d="M391.1,153.6h-.2v.2h1.4l-.1,-.2Z" class="g2_1" />
<path d="M392.9,153.6h-.2v.2h1.5l-.2,-.2Z" class="g2_1" />
<path d="M394.7,153.6v.2H396l-.2,-.2Z" class="g2_1" />
<path d="M396.5,153.6v.2h1.3l-.2,-.2Z" class="g2_1" />
<path d="M398.4,153.6v.2h1.3l-.2,-.2Z" class="g2_1" />
<path d="M400.4,153.6h-.2v.2h1.3l-.2,-.2Z" class="g2_1" />
<path d="M402.2,153.6H402v.2h1.3l-.2,-.2Z" class="g2_1" />
<path d="M404.1,153.6h-.2v.2h1.3v-.2Z" class="g2_1" />
<path d="M405.9,153.6h-.2v.2H407v-.2Z" class="g2_1" />
<path d="M407.7,153.6h-.2v.2H409l-.2,-.2Z" class="g2_1" />
<path d="M409.6,153.6h-.2v.2h1.4l-.1,-.2Z" class="g2_1" />
<path d="M411.4,153.6v.2h1.3l-.2,-.2Z" class="g2_1" />
<path d="M413.2,153.6v.2h1.3l-.2,-.2Z" class="g2_1" />
<path d="M383.5,157.8h-.2l-.1,.2l.1,.2h1.1l.2,-.2l-.2,-.2Z" class="g2_1" />
<path d="M385.2,157.8v.4h1.1l.2,-.2l-.2,-.2Z" class="g2_1" />
<path d="M387,157.8v.4h1.1l.2,-.2l-.2,-.2Z" class="g2_1" />
<path d="M388.8,157.8v.4H390l.1,-.2l-.1,-.2Z" class="g2_1" />
<path d="M390.9,157.8h-.2v.4h1.1l.2,-.2l-.2,-.2Z" class="g2_1" />
<path d="M392.7,157.8h-.2v.4h1.1l.2,-.2l-.2,-.2Z" class="g2_1" />
<path d="M394.5,157.8h-.2v.4h1.3v-.4Z" class="g2_1" />
<path d="M396.4,157.8h-.2v.4h1.3v-.4Z" class="g2_1" />
<path d="M398.2,157.8H398v.4h1.3l.2,-.2l-.2,-.2Z" class="g2_1" />
<path d="M400,157.8h-.2v.4h1.3l.2,-.2l-.2,-.2Z" class="g2_1" />
<path d="M401.9,157.8v.4H403l.1,-.2l-.1,-.2Z" class="g2_1" />
<path d="M403.7,157.8v.4h1.1l.2,-.2l-.2,-.2Z" class="g2_1" />
<path d="M405.5,157.8v.4h1.1l.2,-.2l-.2,-.2Z" class="g2_1" />
<path d="M407.5,157.8h-.1v.4h1.1l.1,-.2l-.1,-.2Z" class="g2_1" />
<path d="M387.9,115.8h-.2l-.1,.2l.1,.2h1.1v-.4Z" class="g2_1" />
<path d="M389.6,115.8h-.2v.4h1.3l.2,-.2l-.2,-.2Z" class="g2_1" />
<path d="M391.4,115.8h-.2v.4h1.3l.2,-.2l-.2,-.2Z" class="g2_1" />
<path d="M393.3,115.8v.4h1l.2,-.2l-.2,-.2Z" class="g2_1" />
<path d="M395.1,115.8v.4h1.1l.2,-.2l-.2,-.2Z" class="g2_1" />
<path d="M397.1,115.8h-.2v.4H398l.2,-.2l-.2,-.2Z" class="g2_1" />
<path d="M398.9,115.8h-.2v.4h1.1l.2,-.2l-.2,-.2Z" class="g2_1" />
<path d="M400.8,115.8h-.2v.4h1.3v-.4Z" class="g2_1" />
<path d="M402.6,115.8h-.2v.4h1.3v-.4Z" class="g2_1" />
<path d="M404.4,115.8h-.2v.4h1.3v-.4Z" class="g2_1" />
<path d="M406.3,115.8h-.2v.4h1.3l.1,-.2l-.1,-.2Z" class="g2_1" />
<path d="M408.1,115.8h-.2v.4h1.3l.2,-.2l-.2,-.2Z" class="g2_1" />
<path d="M409.9,115.8v.4H411l.2,-.2l-.2,-.2Z" class="g2_1" />
<path d="M411.8,115.8v.4h1.1l.1,-.2l-.1,-.2Z" class="g2_1" />
<path d="M413.8,115.8h-.2v.4h1.1l.2,-.2l-.2,-.2Z" class="g2_1" />
<path d="M415.6,115.8h-.2v.4h1.1l.2,-.2l-.2,-.2Z" class="g2_1" />
<path d="M417.5,115.8h-.2v.4h1.3v-.4Z" class="g2_1" />
<path d="M419.3,115.8h-.2v.4h1.3v-.4Z" class="g2_1" />
<path d="M421.1,115.8h-.2v.4h1.3v-.4Z" class="g2_1" />
<path d="M422.9,115.8h-.1v.4H424l.2,-.2l-.2,-.2Z" class="g2_1" />
<path d="M424.8,115.8h-.2v.4h1.3l.2,-.2l-.2,-.2Z" class="g2_1" />
<path d="M426.6,115.8v.4h1.1l.2,-.2l-.2,-.2Z" class="g2_1" />
<path d="M428.4,115.8v.4h1.1l.2,-.2l-.2,-.2Z" class="g2_1" />
<path d="M430.5,115.8h-.2v.4h1.1l.2,-.2l-.2,-.2Z" class="g2_1" />
<path d="M432.3,115.8h-.2v.4h1.1l.2,-.2l-.2,-.2Z" class="g2_1" />
<path d="M434.1,115.8h-.2v.4h1.3v-.4Z" class="g2_1" />
<path d="M436,115.8h-.2v.4h1.3v-.4Z" class="g2_1" />
<path d="M437.8,115.8h-.2v.4h1.3l.2,-.2l-.2,-.2Z" class="g2_1" />
<path d="M439.6,115.8h-.2v.4h1.3l.2,-.2l-.2,-.2Z" class="g2_1" />
<path d="M441.5,115.8v.4h1.1l.1,-.2l-.1,-.2Z" class="g2_1" />
<path d="M443.3,115.8v.4h1.1l.2,-.2l-.2,-.2Z" class="g2_1" />
<text x="276" y="149" class="s1_1">x</text>
<text x="286" y="155" class="s2_1">1</text>
<path d="M491.3,112.3c0,-27.7,-21.2,-50.2,-47.6,-50.2C417.3,62.1,396,84.6,396,112.3c0,27.7,21.3,50.3,47.7,50.3c26.4,0,47.6,-22.6,47.6,-50.3Z" class="g0_1" />
<text x="499" y="105" class="s1_1">x</text>
<text x="509" y="111" class="s2_1">3</text>
<path d="M472.3,93.4C472.3,65.8,451,43.2,424.6,43.2c-26.4,0,-47.7,22.6,-47.7,50.2c0,27.7,21.3,50.3,47.7,50.3c26.4,0,47.7,-22.6,47.7,-50.3Z" class="g0_1" />
<text x="454" y="43" class="s1_1">x</text>
<text x="464" y="48" class="s2_1">4</text>
<path d="M381.1,109H381l-.2,.2h1.4l-.1,-.2Z" class="g2_1" />
<path d="M382.8,109v.2h1.3l-.2,-.2Z" class="g2_1" />
<path d="M384.6,109v.2h1.3l-.2,-.2Z" class="g2_1" />
<path d="M386.5,109v.2h1.2l-.1,-.2Z" class="g2_1" />
<path d="M388.5,109h-.2v.2h1.3l-.2,-.2Z" class="g2_1" />
<path d="M390.3,109h-.2v.2h1.3l-.2,-.2Z" class="g2_1" />
<path d="M392.2,109H392v.2h1.3V109Z" class="g2_1" />
<path d="M394,109h-.2v.2h1.3V109Z" class="g2_1" />
<path d="M395.8,109h-.2v.2h1.5l-.2,-.2Z" class="g2_1" />
<path d="M397.6,109h-.1v.2h1.4l-.2,-.2Z" class="g2_1" />
<path d="M399.5,109v.2h1.3l-.2,-.2Z" class="g2_1" />
<path d="M401.3,109v.2h1.3l-.2,-.2Z" class="g2_1" />
<path d="M403.1,109v.2h1.3l-.2,-.2Z" class="g2_1" />
<path d="M405.2,109H405v.2h1.3l-.2,-.2Z" class="g2_1" />
<path d="M407,109h-.2v.2h1.3l-.2,-.2Z" class="g2_1" />
<path d="M408.8,109h-.2v.2h1.3V109Z" class="g2_1" />
<path d="M410.7,109h-.2v.2h1.3V109Z" class="g2_1" />
<path d="M412.5,109h-.2v.2h1.5l-.2,-.2Z" class="g2_1" />
<path d="M414.3,109h-.2v.2h1.5l-.2,-.2Z" class="g2_1" />
<path d="M416.2,109v.2h1.3l-.2,-.2Z" class="g2_1" />
<path d="M418,109v.2h1.3l-.2,-.2Z" class="g2_1" />
<path d="M419.8,109v.2h1.3l-.2,-.2Z" class="g2_1" />
<path d="M421.8,109h-.1v.2h1.2l-.1,-.2Z" class="g2_1" />
<path d="M423.7,109h-.2v.2h1.3l-.2,-.2Z" class="g2_1" />
<path d="M425.5,109h-.2v.2h1.3V109Z" class="g2_1" />
<path d="M427.3,109h-.1v.2h1.2V109Z" class="g2_1" />
<path d="M429.2,109H429v.2h1.5l-.2,-.2Z" class="g2_1" />
<path d="M431,109h-.2v.2h1.5l-.2,-.2Z" class="g2_1" />
<path d="M432.8,109v.2h1.3l-.2,-.2Z" class="g2_1" />
<path d="M434.7,109v.2H436l-.2,-.2Z" class="g2_1" />
<path d="M436.7,109h-.2v.2h1.3l-.2,-.2Z" class="g2_1" />
<path d="M438.5,109h-.2v.2h1.3l-.2,-.2Z" class="g2_1" />
<path d="M440.4,109h-.2v.2h1.3V109Z" class="g2_1" />
<path d="M442.2,109H442v.2h1.3V109Z" class="g2_1" />
<path d="M444,109h-.2v.2h1.3V109Z" class="g2_1" />
<path d="M377.1,101.1h-.2v.4H378l.2,-.2l-.2,-.2Z" class="g2_1" />
<path d="M378.9,101.1h-.1v.4h1.1l.1,-.2l-.1,-.2Z" class="g2_1" />
<path d="M380.8,101.1h-.2v.4h1.1l.2,-.2l-.2,-.2Z" class="g2_1" />
<path d="M382.6,101.1h-.2v.4h1.3v-.4Z" class="g2_1" />
<path d="M384.4,101.1h-.1v.4h1.2v-.4Z" class="g2_1" />
<path d="M386.3,101.1h-.2v.4h1.3l.2,-.2l-.2,-.2Z" class="g2_1" />
<path d="M388.1,101.1h-.2v.4h1.3l.2,-.2l-.2,-.2Z" class="g2_1" />
<path d="M390,101.1v.4h1.1l.1,-.2l-.1,-.2Z" class="g2_1" />
<path d="M391.8,101.1v.4h1.1l.2,-.2l-.2,-.2Z" class="g2_1" />
<path d="M393.6,101.1v.4h1.1l.2,-.2l-.2,-.2Z" class="g2_1" />
<path d="M395.6,101.1h-.2v.4h1.1l.2,-.2l-.2,-.2Z" class="g2_1" />
<path d="M397.5,101.1h-.2v.4h1.1l.2,-.2l-.2,-.2Z" class="g2_1" />
<path d="M399.3,101.1h-.2v.4h1.3v-.4Z" class="g2_1" />
<path d="M401.1,101.1h-.2v.4h1.3v-.4Z" class="g2_1" />
<path d="M403,101.1h-.2v.4h1.3l.1,-.2l-.1,-.2Z" class="g2_1" />
<path d="M404.8,101.1h-.2v.4h1.3l.2,-.2l-.2,-.2Z" class="g2_1" />
<path d="M406.6,101.1v.4h1.1l.2,-.2l-.2,-.2Z" class="g2_1" />
<path d="M408.5,101.1v.4h1.1l.1,-.2l-.1,-.2Z" class="g2_1" />
<path d="M410.3,101.1v.4h1.1l.2,-.2l-.2,-.2Z" class="g2_1" />
<path d="M412.3,101.1h-.2v.4h1.1l.2,-.2l-.2,-.2Z" class="g2_1" />
<path d="M414.1,101.1H414v.4h1.1l.1,-.2l-.1,-.2Z" class="g2_1" />
<path d="M416,101.1h-.2v.4h1.3v-.4Z" class="g2_1" />
<path d="M417.8,101.1h-.2v.4h1.3v-.4Z" class="g2_1" />
<path d="M419.7,101.1h-.2v.4h1.3l.1,-.2l-.1,-.2Z" class="g2_1" />
<path d="M421.5,101.1h-.2v.4h1.3l.2,-.2l-.2,-.2Z" class="g2_1" />
<path d="M423.3,101.1v.4h1.1l.2,-.2l-.2,-.2Z" class="g2_1" />
<path d="M425.1,101.1v.4h1.1l.2,-.2l-.2,-.2Z" class="g2_1" />
<path d="M427,101.1v.4h1.1l.2,-.2l-.2,-.2Z" class="g2_1" />
<path d="M429,101.1h-.2v.4h1.1l.2,-.2l-.2,-.2Z" class="g2_1" />
<path d="M430.8,101.1h-.2v.4h1.3v-.4Z" class="g2_1" />
<path d="M432.7,101.1h-.2v.4h1.3v-.4Z" class="g2_1" />
<path d="M434.5,101.1h-.2v.4h1.3v-.4Z" class="g2_1" />
<path d="M436.3,101.1h-.2v.4h1.3l.2,-.2l-.2,-.2Z" class="g2_1" />
<path d="M438.2,101.1H438v.4h1.3l.1,-.2l-.1,-.2Z" class="g2_1" />
<path d="M440,101.1v.4h.5l.2,-.2v-.2Z" class="g2_1" />
<path d="M377.1,93.3h-.2v.3H378l.2,-.2l-.2,-.1Z" class="g2_1" />
<path d="M378.9,93.3h-.1v.3h1.1l.1,-.2l-.1,-.1Z" class="g2_1" />
<path d="M380.8,93.3h-.2v.3h1.1l.2,-.2l-.2,-.1Z" class="g2_1" />
<path d="M382.6,93.3h-.2v.3h1.3v-.3Z" class="g2_1" />
<path d="M384.4,93.3h-.1v.3h1.2v-.3Z" class="g2_1" />
<path d="M386.3,93.3h-.2v.3h1.3l.2,-.2l-.2,-.1Z" class="g2_1" />
<path d="M388.1,93.3h-.2v.3h1.3l.2,-.2l-.2,-.1Z" class="g2_1" />
<path d="M390,93.3v.3h1.1l.1,-.2l-.1,-.1Z" class="g2_1" />
<path d="M391.8,93.3v.3h1.1l.2,-.2l-.2,-.1Z" class="g2_1" />
<path d="M393.6,93.3v.3h1.1l.2,-.2l-.2,-.1Z" class="g2_1" />
<path d="M395.6,93.3h-.2v.3h1.1l.2,-.2l-.2,-.1Z" class="g2_1" />
<path d="M397.5,93.3h-.2v.3h1.1l.2,-.2l-.2,-.1Z" class="g2_1" />
<path d="M399.3,93.3h-.2v.3h1.3v-.3Z" class="g2_1" />
<path d="M401.1,93.3h-.2v.3h1.3v-.3Z" class="g2_1" />
<path d="M403,93.3h-.2v.3h1.3l.1,-.2l-.1,-.1Z" class="g2_1" />
<path d="M404.8,93.3h-.2v.3h1.3l.2,-.2l-.2,-.1Z" class="g2_1" />
<path d="M406.6,93.3v.3h1.1l.2,-.2l-.2,-.1Z" class="g2_1" />
<path d="M408.5,93.3v.3h1.1l.1,-.2l-.1,-.1Z" class="g2_1" />
<path d="M410.3,93.3v.3h1.1l.2,-.2l-.2,-.1Z" class="g2_1" />
<path d="M412.3,93.3h-.2v.3h1.1l.2,-.2l-.2,-.1Z" class="g2_1" />
<path d="M414.1,93.3H414v.3h1.1l.1,-.2l-.1,-.1Z" class="g2_1" />
<path d="M416,93.3h-.2v.3h1.3v-.3Z" class="g2_1" />
<path d="M417.8,93.3h-.2v.3h1.3v-.3Z" class="g2_1" />
<path d="M419.7,93.3h-.2v.3h1.3l.1,-.2l-.1,-.1Z" class="g2_1" />
<path d="M421.5,93.3h-.2v.3h1.3l.2,-.2l-.2,-.1Z" class="g2_1" />
<path d="M423.3,93.3v.3h1.1l.2,-.2l-.2,-.1Z" class="g2_1" />
<path d="M425.1,93.3v.3h1.1l.2,-.2l-.2,-.1Z" class="g2_1" />
<path d="M427,93.3v.3h1.1l.2,-.2l-.2,-.1Z" class="g2_1" />
<path d="M429,93.3h-.2v.3h1.1l.2,-.2l-.2,-.1Z" class="g2_1" />
<path d="M430.8,93.3h-.2v.3h1.3v-.3Z" class="g2_1" />
<path d="M432.7,93.3h-.2v.3h1.3v-.3Z" class="g2_1" />
<path d="M434.5,93.3h-.2v.3h1.3v-.3Z" class="g2_1" />
<path d="M436.3,93.3h-.2v.3h1.3l.2,-.2l-.2,-.1Z" class="g2_1" />
<path d="M438.2,93.3H438v.3h1.3l.1,-.2l-.1,-.1Z" class="g2_1" />
<path d="M440,93.3v.3h1.1l.2,-.2l-.2,-.1Z" class="g2_1" />
<path d="M441.8,93.3v.3h1.1l.2,-.2l-.2,-.1Z" class="g2_1" />
<path d="M378.8,83.9h-.2l-.2,.2h1.5l-.2,-.2Z" class="g2_1" />
<path d="M380.4,83.9v.2h1.3l-.2,-.2Z" class="g2_1" />
<path d="M382.2,83.9v.2h1.3l-.2,-.2Z" class="g2_1" />
<path d="M384.1,83.9v.2h1.3l-.2,-.2Z" class="g2_1" />
<path d="M386.1,83.9h-.2v.2h1.3l-.2,-.2Z" class="g2_1" />
<path d="M387.9,83.9h-.2v.2H389l-.2,-.2Z" class="g2_1" />
<path d="M389.8,83.9h-.2v.2h1.3v-.2Z" class="g2_1" />
<path d="M391.6,83.9h-.2v.2h1.3v-.2Z" class="g2_1" />
<path d="M393.4,83.9h-.1v.2h1.4l-.2,-.2Z" class="g2_1" />
<path d="M395.3,83.9h-.2v.2h1.4l-.1,-.2Z" class="g2_1" />
<path d="M397.1,83.9v.2h1.3l-.2,-.2Z" class="g2_1" />
<path d="M398.9,83.9v.2h1.3l-.2,-.2Z" class="g2_1" />
<path d="M400.8,83.9v.2H402l-.1,-.2Z" class="g2_1" />
<path d="M402.8,83.9h-.2v.2h1.3l-.2,-.2Z" class="g2_1" />
<path d="M404.6,83.9h-.2v.2h1.3l-.2,-.2Z" class="g2_1" />
<path d="M406.4,83.9h-.1v.2h1.2v-.2Z" class="g2_1" />
<path d="M408.3,83.9h-.2v.2h1.3v-.2Z" class="g2_1" />
<path d="M410.1,83.9h-.2v.2h1.5l-.2,-.2Z" class="g2_1" />
<path d="M411.9,83.9h-.1v.2h1.4l-.2,-.2Z" class="g2_1" />
<path d="M413.8,83.9v.2h1.3l-.2,-.2Z" class="g2_1" />
<path d="M415.6,83.9v.2h1.3l-.2,-.2Z" class="g2_1" />
<path d="M417.5,83.9v.2h1.2l-.1,-.2Z" class="g2_1" />
<path d="M419.5,83.9h-.2v.2h1.3l-.2,-.2Z" class="g2_1" />
<path d="M421.3,83.9h-.2v.2h1.3l-.2,-.2Z" class="g2_1" />
<path d="M423.1,83.9h-.2v.2h1.3v-.2Z" class="g2_1" />
<path d="M425,83.9h-.2v.2h1.3v-.2Z" class="g2_1" />
<path d="M426.8,83.9h-.2v.2h1.5l-.2,-.2Z" class="g2_1" />
<path d="M428.6,83.9h-.2v.2h1.5l-.2,-.2Z" class="g2_1" />
<path d="M430.5,83.9v.2h1.2l-.1,-.2Z" class="g2_1" />
<path d="M432.3,83.9v.2h1.3l-.2,-.2Z" class="g2_1" />
<path d="M434.3,83.9h-.2v.2h1.3l-.2,-.2Z" class="g2_1" />
<path d="M436.1,83.9H436v.2h1.2l-.1,-.2Z" class="g2_1" />
<path d="M438,83.9h-.2v.2h1.3v-.2Z" class="g2_1" />
<path d="M379.9,74.2l-.2,.2H381l-.2,-.2Z" class="g2_1" />
<path d="M381.7,74.2h-.2v.2h1.3v-.2Z" class="g2_1" />
<path d="M383.5,74.2h-.2v.2h1.3v-.2Z" class="g2_1" />
<path d="M385.4,74.2h-.2v.2h1.3v-.2Z" class="g2_1" />
<path d="M387.2,74.2H387v.2h1.5l-.2,-.2Z" class="g2_1" />
<path d="M389,74.2h-.2v.2h1.5l-.2,-.2Z" class="g2_1" />
<path d="M390.9,74.2v.2h1.3l-.2,-.2Z" class="g2_1" />
<path d="M392.7,74.2v.2H394l-.2,-.2Z" class="g2_1" />
<path d="M394.7,74.2h-.2v.2h1.3l-.2,-.2Z" class="g2_1" />
<path d="M396.5,74.2h-.1v.2h1.2l-.1,-.2Z" class="g2_1" />
<path d="M398.4,74.2h-.2v.2h1.3v-.2Z" class="g2_1" />
<path d="M400.2,74.2H400v.2h1.3v-.2Z" class="g2_1" />
<path d="M402,74.2h-.1v.2h1.2v-.2Z" class="g2_1" />
<path d="M403.9,74.2h-.2v.2h1.5l-.2,-.2Z" class="g2_1" />
<path d="M405.7,74.2h-.2v.2H407l-.2,-.2Z" class="g2_1" />
<path d="M407.5,74.2v.2h1.3l-.2,-.2Z" class="g2_1" />
<path d="M409.4,74.2v.2h1.3l-.2,-.2Z" class="g2_1" />
<path d="M411.4,74.2h-.2v.2h1.3l-.2,-.2Z" class="g2_1" />
<path d="M413.2,74.2H413v.2h1.3l-.2,-.2Z" class="g2_1" />
<path d="M415.1,74.2h-.2v.2h1.3v-.2Z" class="g2_1" />
<path d="M416.9,74.2h-.2v.2H418v-.2Z" class="g2_1" />
<path d="M418.7,74.2h-.1v.2h1.2v-.2Z" class="g2_1" />
<path d="M420.6,74.2h-.2v.2h1.4l-.1,-.2Z" class="g2_1" />
<path d="M422.4,74.2h-.2v.2h1.5l-.2,-.2Z" class="g2_1" />
<path d="M424.2,74.2v.2h1.3l-.2,-.2Z" class="g2_1" />
<path d="M426.1,74.2v.2h1.2l-.1,-.2Z" class="g2_1" />
<path d="M428.1,74.2h-.2v.2h1.3l-.2,-.2Z" class="g2_1" />
<path d="M429.9,74.2h-.2v.2H431l-.2,-.2Z" class="g2_1" />
<path d="M431.7,74.2h-.1v.2h1.2v-.2Z" class="g2_1" />
<path d="M433.6,74.2h-.2v.2h1.3v-.2Z" class="g2_1" />
<path d="M383.7,65.6h-.2l-.2,.2h1.3v-.2Z" class="g2_1" />
<path d="M385.4,65.6h-.2v.2h1.3v-.2Z" class="g2_1" />
<path d="M387.2,65.6H387v.2h1.5l-.2,-.2Z" class="g2_1" />
<path d="M389,65.6h-.2v.2h1.5l-.2,-.2Z" class="g2_1" />
<path d="M390.9,65.6v.2h1.3l-.2,-.2Z" class="g2_1" />
<path d="M392.7,65.6v.2H394l-.2,-.2Z" class="g2_1" />
<path d="M394.7,65.6h-.2v.2h1.3l-.2,-.2Z" class="g2_1" />
<path d="M396.5,65.6h-.1v.2h1.2l-.1,-.2Z" class="g2_1" />
<path d="M398.4,65.6h-.2v.2h1.3v-.2Z" class="g2_1" />
<path d="M400.2,65.6H400v.2h1.3v-.2Z" class="g2_1" />
<path d="M402,65.6h-.1v.2h1.2v-.2Z" class="g2_1" />
<path d="M403.9,65.6h-.2v.2h1.5l-.2,-.2Z" class="g2_1" />
<path d="M405.7,65.6h-.2v.2H407l-.2,-.2Z" class="g2_1" />
<path d="M407.5,65.6v.2h1.3l-.2,-.2Z" class="g2_1" />
<path d="M409.4,65.6v.2h1.3l-.2,-.2Z" class="g2_1" />
<path d="M411.4,65.6h-.2v.2h1.3l-.2,-.2Z" class="g2_1" />
<path d="M413.2,65.6H413v.2h1.3l-.2,-.2Z" class="g2_1" />
<path d="M415.1,65.6h-.2v.2h1.3v-.2Z" class="g2_1" />
<path d="M416.9,65.6h-.2v.2H418v-.2Z" class="g2_1" />
<path d="M418.7,65.6h-.1v.2h1.2v-.2Z" class="g2_1" />
<path d="M420.6,65.6h-.2v.2h1.4l-.1,-.2Z" class="g2_1" />
<path d="M422.4,65.6h-.2v.2h1.5l-.2,-.2Z" class="g2_1" />
<path d="M424.2,65.6v.2h1.3l-.2,-.2Z" class="g2_1" />
<path d="M390.3,58.4h-.2l-.1,.2l.1,.2h1.1v-.4Z" class="g2_1" />
<path d="M392,58.4h-.2v.4h1.3l.2,-.2l-.2,-.2Z" class="g2_1" />
<path d="M393.8,58.4h-.2v.4h1.3l.2,-.2l-.2,-.2Z" class="g2_1" />
<path d="M395.6,58.4v.4h1.1l.2,-.2l-.2,-.2Z" class="g2_1" />
<path d="M397.5,58.4v.4h1.1l.1,-.2l-.1,-.2Z" class="g2_1" />
<path d="M399.5,58.4h-.2v.4h1.1l.2,-.2l-.2,-.2Z" class="g2_1" />
<path d="M401.3,58.4h-.2v.4h1.1l.2,-.2l-.2,-.2Z" class="g2_1" />
<path d="M403.1,58.4H403v.4h1.2v-.4Z" class="g2_1" />
<path d="M405,58.4h-.2v.4h1.3v-.4Z" class="g2_1" />
<path d="M406.8,58.4h-.2v.4h1.3v-.4Z" class="g2_1" />
<path d="M408.6,58.4h-.1v.4h1.2l.2,-.2l-.2,-.2Z" class="g2_1" />
<path d="M410.5,58.4h-.2v.4h1.3l.2,-.2l-.2,-.2Z" class="g2_1" />
<path d="M412.3,58.4v.4h.7l.2,-.2v-.2Z" class="g2_1" />
<path d="M183.9,84.1c0,-29.5,-22.8,-53.5,-50.8,-53.5c-28.1,0,-50.8,24,-50.8,53.5c0,29.3,22.7,53.3,50.8,53.3c28,0,50.8,-24,50.8,-53.3Zm-48.4,47.1c0,-27.9,-21.3,-50.4,-47.7,-50.4c-26.4,0,-47.7,22.5,-47.7,50.4c0,27.7,21.3,50.2,47.7,50.2c26.4,0,47.7,-22.5,47.7,-50.2Z" class="g0_1" />
<text x="77" y="55" class="s1_1">y</text>
<text x="191" y="49" dx="0,0.1,0.1" class="s1_1">SSR</text>
<path d="M149.8,102.4L190.7,48.3" class="g1_1" />
<path fill-rule="evenodd" d="M147.2,95.1l-2.6,14.1l13.1,-6.4l-7.7,-.6Z" class="g2_1" />
<path d="M205.3,131.2c0,-27.9,-21.2,-50.4,-47.6,-50.4c-26.4,0,-47.7,22.5,-47.7,50.4c0,27.7,21.3,50.2,47.7,50.2c26.4,0,47.6,-22.5,47.6,-50.2Z" class="g0_1" />
<text x="15" y="137" class="s1_1">x</text>
<text x="26" y="142" class="s2_1">1</text>
<text x="213" y="156" class="s1_1">x</text>
<text x="223" y="161" class="s2_1">2</text>
<path d="M84.3,87h-.2v.2h1.3L85.2,87Z" class="g2_1" />
<path d="M86,87v.2h1.3L87.1,87Z" class="g2_1" />
<path d="M88,87h-.2v.2h1.3L88.9,87Z" class="g2_1" />
<path d="M89.8,87h-.2v.2h1.3L90.7,87Z" class="g2_1" />
<path d="M91.7,87h-.2v.2h1.3V87Z" class="g2_1" />
<path d="M93.5,87h-.2v.2h1.3V87Z" class="g2_1" />
<path d="M95.3,87h-.2v.2h1.5L96.4,87Z" class="g2_1" />
<path d="M97.2,87H97v.2h1.4L98.3,87Z" class="g2_1" />
<path d="M99,87v.2h1.3l-.2,-.2Z" class="g2_1" />
<path d="M100.8,87v.2h1.3l-.2,-.2Z" class="g2_1" />
<path d="M102.7,87v.2h1.2l-.1,-.2Z" class="g2_1" />
<path d="M104.7,87h-.2v.2h1.3l-.2,-.2Z" class="g2_1" />
<path d="M106.5,87h-.2v.2h1.3V87Z" class="g2_1" />
<path d="M108.3,87h-.1v.2h1.2V87Z" class="g2_1" />
<path d="M84.7,93.3l-.2,.1l.2,.2h.9l.2,-.2l-.2,-.1Z" class="g2_1" />
<path d="M86.5,93.3h-.2v.3h1.1l.2,-.2l-.2,-.1Z" class="g2_1" />
<path d="M88.4,93.3h-.2v.3h1.3v-.3Z" class="g2_1" />
<path d="M90.2,93.3H90v.3h1.3v-.3Z" class="g2_1" />
<path d="M92,93.3h-.2v.3h1.3v-.3Z" class="g2_1" />
<path d="M93.9,93.3h-.2v.3H95l.1,-.2L95,93.3Z" class="g2_1" />
<path d="M95.7,93.3h-.2v.3h1.3l.2,-.2l-.2,-.1Z" class="g2_1" />
<path d="M97.5,93.3v.3h1.1l.2,-.2l-.2,-.1Z" class="g2_1" />
<path d="M99.4,93.3v.3h1.1l.1,-.2l-.1,-.1Z" class="g2_1" />
<path d="M101.4,93.3h-.2v.3h1.1l.2,-.2l-.2,-.1Z" class="g2_1" />
<path d="M103.2,93.3H103v.3h1.1l.2,-.2l-.2,-.1Z" class="g2_1" />
<path d="M105,93.3h-.1v.3h1.2v-.3Z" class="g2_1" />
<path d="M106.9,93.3h-.2v.3H108v-.3Z" class="g2_1" />
<path d="M108.7,93.3h-.2v.3h1.3l.2,-.2l-.2,-.1Z" class="g2_1" />
<path d="M110.5,93.3h-.1v.3h1.2l.2,-.2l-.2,-.1Z" class="g2_1" />
<path d="M112.4,93.3v.3h1.1l.2,-.2l-.2,-.1Z" class="g2_1" />
<path d="M114.2,93.3v.3h1.1l.2,-.2l-.2,-.1Z" class="g2_1" />
<path d="M116,93.3v.3h.4l.2,-.2v-.1Z" class="g2_1" />
<path d="M84.7,99.7h-.2l.2,.2h.9l.2,-.2h-.2Z" class="g2_1" />
<path d="M86.5,99.7h-.2v.2h1.1l.2,-.2h-.2Z" class="g2_1" />
<path d="M88.4,99.7h-.2v.2h1.3v-.2Z" class="g2_1" />
<path d="M90.2,99.7H90v.2h1.3v-.2Z" class="g2_1" />
<path d="M92,99.7h-.2v.2h1.3v-.2Z" class="g2_1" />
<path d="M93.9,99.7h-.2v.2H95l.1,-.2H95Z" class="g2_1" />
<path d="M95.7,99.7h-.2v.2h1.3l.2,-.2h-.2Z" class="g2_1" />
<path d="M97.5,99.7v.2h1.1l.2,-.2h-.2Z" class="g2_1" />
<path d="M99.4,99.7v.2h1.1l.1,-.2h-.1Z" class="g2_1" />
<path d="M101.4,99.7h-.2v.2h1.1l.2,-.2h-.2Z" class="g2_1" />
<path d="M103.2,99.7H103v.2h1.1l.2,-.2h-.2Z" class="g2_1" />
<path d="M105,99.7h-.1v.2h1.2v-.2Z" class="g2_1" />
<path d="M106.9,99.7h-.2v.2H108v-.2Z" class="g2_1" />
<path d="M108.7,99.7h-.2v.2h1.3l.2,-.2h-.2Z" class="g2_1" />
<path d="M110.5,99.7h-.1v.2h1.2l.2,-.2h-.2Z" class="g2_1" />
<path d="M112.4,99.7v.2h1.1l.2,-.2h-.2Z" class="g2_1" />
<path d="M114.2,99.7v.2h1.1l.2,-.2h-.2Z" class="g2_1" />
<path d="M116,99.7v.2h1.1l.2,-.2h-.2Z" class="g2_1" />
<path d="M118.1,99.7h-.2v.2H119l.2,-.2H119Z" class="g2_1" />
<path d="M119.9,99.7h-.2v.2h1.1l.2,-.2h-.2Z" class="g2_1" />
<path d="M121.7,99.7h-.2v.2h1.3v-.2Z" class="g2_1" />
<path d="M123.6,99.7h-.2v.2h1.3v-.2Z" class="g2_1" />
<path d="M125.4,99.7h-.2v.2h1.3l.2,-.2h-.2Z" class="g2_1" />
<path d="M127.2,99.7H127v.2h1.3l.2,-.2h-.2Z" class="g2_1" />
<path d="M129.1,99.7v.2h1.1l.1,-.2h-.1Z" class="g2_1" />
<path d="M130.9,99.7v.2H132l.2,-.2H132Z" class="g2_1" />
<path d="M132.7,99.7v.2h1.1l.2,-.2h-.2Z" class="g2_1" />
<path d="M134.7,99.7h-.1v.2h1.1l.1,-.2h-.1Z" class="g2_1" />
<path d="M136.6,99.7h-.2v.2h1.1l.2,-.2h-.2Z" class="g2_1" />
<path d="M138.4,99.7h-.2v.2h1.3v-.2Z" class="g2_1" />
<path d="M140.2,99.7h-.1v.2h1.2v-.2Z" class="g2_1" />
<path d="M142.1,99.7h-.2v.2h1.3l.2,-.2h-.2Z" class="g2_1" />
<path d="M143.9,99.7h-.2v.2H145l.2,-.2H145Z" class="g2_1" />
<path d="M145.7,99.7v.2h1.1l.2,-.2h-.2Z" class="g2_1" />
<path d="M147.6,99.7v.2h1.1l.2,-.2h-.2Z" class="g2_1" />
<path d="M149.4,99.7v.2h1.1l.2,-.2h-.2Z" class="g2_1" />
<path d="M151.4,99.7h-.2v.2h1.1l.2,-.2h-.2Z" class="g2_1" />
<path d="M153.3,99.7h-.2v.2h1.1l.2,-.2h-.2Z" class="g2_1" />
<path d="M155.1,99.7h-.2v.2h1.3v-.2Z" class="g2_1" />
<path d="M156.9,99.7h-.2v.2H158v-.2Z" class="g2_1" />
<path d="M158.8,99.7h-.2v.2h1.3l.1,-.2h-.1Z" class="g2_1" />
<path d="M160.6,99.7h-.2v.2h1.3l.2,-.2h-.2Z" class="g2_1" />
<path d="M162.4,99.7v.2h1.1l.2,-.2h-.2Z" class="g2_1" />
<path d="M164.3,99.7v.2h1.1l.1,-.2h-.1Z" class="g2_1" />
<path d="M166.1,99.7v.2h1.1l.2,-.2h-.2Z" class="g2_1" />
<path d="M168.1,99.7h-.2v.2H169l.2,-.2H169Z" class="g2_1" />
<path d="M169.9,99.7h-.1v.2H171v-.2Z" class="g2_1" />
<path d="M171.8,99.7h-.2v.2h1.3v-.2Z" class="g2_1" />
<path d="M173.6,99.7h-.2v.2h1.3v-.2Z" class="g2_1" />
<path d="M175.4,99.7h-.1v.2h1.2l.2,-.2h-.2Z" class="g2_1" />
<path d="M177.3,99.7h-.2v.2h1.3l.2,-.2h-.2Z" class="g2_1" />
<path d="M179.1,99.7v.2h.9v-.2Z" class="g2_1" />
<path d="M86.3,105.9h-.1l-.2,.2h1.4l-.1,-.2Z" class="g2_1" />
<path d="M88,105.9v.2h1.3l-.2,-.2Z" class="g2_1" />
<path d="M89.8,105.9v.2h1.3l-.2,-.2Z" class="g2_1" />
<path d="M91.8,105.9h-.1v.2h1.2l-.1,-.2Z" class="g2_1" />
<path d="M93.7,105.9h-.2v.2h1.3l-.2,-.2Z" class="g2_1" />
<path d="M95.5,105.9h-.2v.2h1.3v-.2Z" class="g2_1" />
<path d="M97.3,105.9h-.1v.2h1.2v-.2Z" class="g2_1" />
<path d="M99.2,105.9H99v.2h1.3v-.2Z" class="g2_1" />
<path d="M101,105.9h-.2v.2h1.5l-.2,-.2Z" class="g2_1" />
<path d="M102.8,105.9h-.1v.2h1.4l-.2,-.2Z" class="g2_1" />
<path d="M104.7,105.9v.2H106l-.2,-.2Z" class="g2_1" />
<path d="M106.5,105.9v.2h1.3l-.2,-.2Z" class="g2_1" />
<path d="M108.5,105.9h-.2v.2h1.3l-.2,-.2Z" class="g2_1" />
<path d="M110.4,105.9h-.2v.2h1.3l-.2,-.2Z" class="g2_1" />
<path d="M112.2,105.9H112v.2h1.3v-.2Z" class="g2_1" />
<path d="M114,105.9h-.2v.2h1.3v-.2Z" class="g2_1" />
<path d="M115.9,105.9h-.2v.2h1.4l-.1,-.2Z" class="g2_1" />
<path d="M117.7,105.9h-.2v.2H119l-.2,-.2Z" class="g2_1" />
<path d="M119.5,105.9v.2h1.3l-.2,-.2Z" class="g2_1" />
<path d="M121.4,105.9v.2h1.2l-.1,-.2Z" class="g2_1" />
<path d="M123.2,105.9v.2h1.3l-.2,-.2Z" class="g2_1" />
<path d="M125.2,105.9H125v.2h1.3l-.2,-.2Z" class="g2_1" />
<path d="M127,105.9h-.1v.2h1.2l-.1,-.2Z" class="g2_1" />
<path d="M128.9,105.9h-.2v.2H130v-.2Z" class="g2_1" />
<path d="M130.7,105.9h-.2v.2h1.3v-.2Z" class="g2_1" />
<path d="M132.5,105.9h-.1v.2h1.4l-.2,-.2Z" class="g2_1" />
<path d="M134.4,105.9h-.2v.2h1.5l-.2,-.2Z" class="g2_1" />
<path d="M136.2,105.9v.2h1.3l-.2,-.2Z" class="g2_1" />
<path d="M138,105.9v.2h1.3l-.2,-.2Z" class="g2_1" />
<path d="M139.9,105.9v.2h1.3l-.2,-.2Z" class="g2_1" />
<path d="M141.9,105.9h-.2v.2H143l-.2,-.2Z" class="g2_1" />
<path d="M143.7,105.9h-.2v.2h1.3l-.2,-.2Z" class="g2_1" />
<path d="M145.6,105.9h-.2v.2h1.3v-.2Z" class="g2_1" />
<path d="M147.4,105.9h-.2v.2h1.3v-.2Z" class="g2_1" />
<path d="M149.2,105.9H149v.2h1.5l-.2,-.2Z" class="g2_1" />
<path d="M151.1,105.9h-.2v.2h1.4l-.1,-.2Z" class="g2_1" />
<path d="M152.9,105.9v.2h1.3l-.2,-.2Z" class="g2_1" />
<path d="M154.7,105.9v.2H156l-.2,-.2Z" class="g2_1" />
<path d="M156.6,105.9v.2h1.2l-.1,-.2Z" class="g2_1" />
<path d="M158.6,105.9h-.2v.2h1.3l-.2,-.2Z" class="g2_1" />
<path d="M160.4,105.9h-.2v.2h1.3l-.2,-.2Z" class="g2_1" />
<path d="M162.2,105.9h-.1v.2h1.2v-.2Z" class="g2_1" />
<path d="M164.1,105.9h-.2v.2h1.3v-.2Z" class="g2_1" />
<path d="M165.9,105.9h-.2v.2h1.5l-.2,-.2Z" class="g2_1" />
<path d="M167.7,105.9h-.1v.2H169l-.2,-.2Z" class="g2_1" />
<path d="M169.6,105.9v.2h1.3l-.2,-.2Z" class="g2_1" />
<path d="M171.4,105.9v.2h1.3l-.2,-.2Z" class="g2_1" />
<path d="M173.4,105.9h-.2v.2h1.3l-.2,-.2Z" class="g2_1" />
<path d="M175.3,105.9h-.2v.2h1.3l-.2,-.2Z" class="g2_1" />
<path d="M177.1,105.9h-.2v.2h1.3v-.2Z" class="g2_1" />
<path d="M178.9,105.9h-.2v.2H180v-.2Z" class="g2_1" />
<path d="M180.8,105.9h-.2v.2h1.1v-.2Z" class="g2_1" />
<path d="M91.1,112.1h-.2l-.2,.2l.2,.2H92l.2,-.2l-.2,-.2Z" class="g2_1" />
<path d="M92.8,112.1v.4h1.1l.1,-.2l-.1,-.2Z" class="g2_1" />
<path d="M94.6,112.1v.4h1.1l.2,-.2l-.2,-.2Z" class="g2_1" />
<path d="M96.6,112.1h-.2v.4h1.1l.2,-.2l-.2,-.2Z" class="g2_1" />
<path d="M98.4,112.1h-.1v.4h1.1l.1,-.2l-.1,-.2Z" class="g2_1" />
<path d="M100.3,112.1h-.2v.4h1.3v-.4Z" class="g2_1" />
<path d="M102.1,112.1h-.2v.4h1.3v-.4Z" class="g2_1" />
<path d="M103.9,112.1h-.1v.4H105l.2,-.2l-.2,-.2Z" class="g2_1" />
<path d="M105.8,112.1h-.2v.4h1.3l.2,-.2l-.2,-.2Z" class="g2_1" />
<path d="M107.6,112.1v.4h1.1l.2,-.2l-.2,-.2Z" class="g2_1" />
<path d="M109.4,112.1v.4h1.1l.2,-.2l-.2,-.2Z" class="g2_1" />
<path d="M111.3,112.1v.4h1.1l.2,-.2l-.2,-.2Z" class="g2_1" />
<path d="M113.3,112.1h-.2v.4h1.1l.2,-.2l-.2,-.2Z" class="g2_1" />
<path d="M115.1,112.1h-.2v.4H116l.2,-.2l-.2,-.2Z" class="g2_1" />
<path d="M117,112.1h-.2v.4h1.3v-.4Z" class="g2_1" />
<path d="M118.8,112.1h-.2v.4h1.3v-.4Z" class="g2_1" />
<path d="M120.6,112.1h-.2v.4h1.3l.2,-.2l-.2,-.2Z" class="g2_1" />
<path d="M122.5,112.1h-.2v.4h1.3l.1,-.2l-.1,-.2Z" class="g2_1" />
<path d="M124.3,112.1v.4h1.1l.2,-.2l-.2,-.2Z" class="g2_1" />
<path d="M126.1,112.1v.4h1.1l.2,-.2l-.2,-.2Z" class="g2_1" />
<path d="M128,112.1v.4h1.1l.1,-.2l-.1,-.2Z" class="g2_1" />
<path d="M130,112.1h-.2v.4h1.1l.2,-.2l-.2,-.2Z" class="g2_1" />
<path d="M131.8,112.1h-.2v.4h1.1l.2,-.2l-.2,-.2Z" class="g2_1" />
<path d="M133.6,112.1h-.1v.4h1.2v-.4Z" class="g2_1" />
<path d="M135.5,112.1h-.2v.4h1.3v-.4Z" class="g2_1" />
<path d="M137.3,112.1h-.2v.4h1.3l.2,-.2l-.2,-.2Z" class="g2_1" />
<path d="M139.1,112.1H139v.4h1.2l.2,-.2l-.2,-.2Z" class="g2_1" />
<path d="M141,112.1v.4h1.1l.2,-.2l-.2,-.2Z" class="g2_1" />
<path d="M142.8,112.1v.4h1.1l.2,-.2l-.2,-.2Z" class="g2_1" />
<path d="M144.6,112.1v.4h1.1l.2,-.2l-.2,-.2Z" class="g2_1" />
<path d="M146.7,112.1h-.2v.4h1.1l.2,-.2l-.2,-.2Z" class="g2_1" />
<path d="M148.5,112.1h-.2v.4h1.1l.2,-.2l-.2,-.2Z" class="g2_1" />
<path d="M150.3,112.1h-.2v.4h1.3v-.4Z" class="g2_1" />
<path d="M152.2,112.1H152v.4h1.3v-.4Z" class="g2_1" />
<path d="M154,112.1h-.2v.4h1.3l.2,-.2l-.2,-.2Z" class="g2_1" />
<path d="M155.8,112.1h-.2v.4h1.3l.2,-.2l-.2,-.2Z" class="g2_1" />
<path d="M157.7,112.1v.4h1.1l.1,-.2l-.1,-.2Z" class="g2_1" />
<path d="M159.5,112.1v.4h1.1l.2,-.2l-.2,-.2Z" class="g2_1" />
<path d="M161.3,112.1v.4h1.1l.2,-.2l-.2,-.2Z" class="g2_1" />
<path d="M163.3,112.1h-.1v.4h1.1l.1,-.2l-.1,-.2Z" class="g2_1" />
<path d="M165.2,112.1H165v.4h1.1l.2,-.2l-.2,-.2Z" class="g2_1" />
<path d="M167,112.1h-.2v.4h1.3v-.4Z" class="g2_1" />
<path d="M168.8,112.1h-.1v.4h1.2v-.4Z" class="g2_1" />
<path d="M170.7,112.1h-.2v.4h1.3l.2,-.2l-.2,-.2Z" class="g2_1" />
<path d="M172.5,112.1h-.2v.4h1.3l.2,-.2l-.2,-.2Z" class="g2_1" />
<path d="M97.5,118.4h-.2l-.1,.2l.1,.1h1.1v-.3Z" class="g2_1" />
<path d="M99.2,118.4H99v.3h1.3v-.3Z" class="g2_1" />
<path d="M101,118.4h-.2v.3h1.3l.2,-.1l-.2,-.2Z" class="g2_1" />
<path d="M102.8,118.4h-.1v.3h1.2l.2,-.1l-.2,-.2Z" class="g2_1" />
<path d="M104.7,118.4v.3h1.1l.2,-.1l-.2,-.2Z" class="g2_1" />
<path d="M106.5,118.4v.3h1.1l.2,-.1l-.2,-.2Z" class="g2_1" />
<path d="M108.5,118.4h-.2v.3h1.1l.2,-.1l-.2,-.2Z" class="g2_1" />
<path d="M110.4,118.4h-.2v.3h1.1l.2,-.1l-.2,-.2Z" class="g2_1" />
<path d="M112.2,118.4H112v.3h1.3v-.3Z" class="g2_1" />
<path d="M114,118.4h-.2v.3h1.3v-.3Z" class="g2_1" />
<path d="M115.9,118.4h-.2v.3H117l.1,-.1l-.1,-.2Z" class="g2_1" />
<path d="M117.7,118.4h-.2v.3h1.3l.2,-.1l-.2,-.2Z" class="g2_1" />
<path d="M119.5,118.4v.3h1.1l.2,-.1l-.2,-.2Z" class="g2_1" />
<path d="M121.4,118.4v.3h1.1l.1,-.1l-.1,-.2Z" class="g2_1" />
<path d="M123.2,118.4v.3h1.1l.2,-.1l-.2,-.2Z" class="g2_1" />
<path d="M125.2,118.4H125v.3h1.1l.2,-.1l-.2,-.2Z" class="g2_1" />
<path d="M127,118.4h-.1v.3H128l.1,-.1l-.1,-.2Z" class="g2_1" />
<path d="M128.9,118.4h-.2v.3H130v-.3Z" class="g2_1" />
<path d="M130.7,118.4h-.2v.3h1.3v-.3Z" class="g2_1" />
<path d="M132.5,118.4h-.1v.3h1.2l.2,-.1l-.2,-.2Z" class="g2_1" />
<path d="M134.4,118.4h-.2v.3h1.3l.2,-.1l-.2,-.2Z" class="g2_1" />
<path d="M136.2,118.4v.3h1.1l.2,-.1l-.2,-.2Z" class="g2_1" />
<path d="M138,118.4v.3h1.1l.2,-.1l-.2,-.2Z" class="g2_1" />
<path d="M139.9,118.4v.3H141l.2,-.1l-.2,-.2Z" class="g2_1" />
<path d="M141.9,118.4h-.2v.3h1.1l.2,-.1l-.2,-.2Z" class="g2_1" />
<path d="M143.7,118.4h-.2v.3h1.1l.2,-.1l-.2,-.2Z" class="g2_1" />
<path d="M145.6,118.4h-.2v.3h1.3v-.3Z" class="g2_1" />
<path d="M147.4,118.4h-.2v.3h1.3v-.3Z" class="g2_1" />
<path d="M149.2,118.4H149v.3h1.3l.2,-.1l-.2,-.2Z" class="g2_1" />
<path d="M151.1,118.4h-.2v.3h1.3l.1,-.1l-.1,-.2Z" class="g2_1" />
<path d="M152.9,118.4v.3H154l.2,-.1l-.2,-.2Z" class="g2_1" />
<path d="M154.7,118.4v.3h1.1l.2,-.1l-.2,-.2Z" class="g2_1" />
<path d="M156.6,118.4v.3h1.1l.1,-.1l-.1,-.2Z" class="g2_1" />
<path d="M158.6,118.4h-.2v.3h1.1l.2,-.1l-.2,-.2Z" class="g2_1" />
<path d="M160.4,118.4h-.2v.3h1.1l.2,-.1l-.2,-.2Z" class="g2_1" />
<path d="M162.2,118.4h-.1v.3h1.2v-.3Z" class="g2_1" />
<path d="M164.1,118.4h-.2v.3h1.3v-.3Z" class="g2_1" />
<path d="M165.9,118.4h-.2v.3H167l.2,-.1l-.2,-.2Z" class="g2_1" />
<path d="M103.8,124.8h-.2l.2,.2h.9l.2,-.2h-.2Z" class="g2_1" />
<path d="M105.6,124.8h-.2v.2h1.1l.2,-.2h-.2Z" class="g2_1" />
<path d="M107.4,124.8h-.2v.2h1.3v-.2Z" class="g2_1" />
<path d="M109.3,124.8h-.2v.2h1.3v-.2Z" class="g2_1" />
<path d="M111.1,124.8h-.2v.2h1.3l.2,-.2h-.2Z" class="g2_1" />
<path d="M112.9,124.8h-.2v.2H114l.2,-.2H114Z" class="g2_1" />
<path d="M114.8,124.8v.2h1.1l.1,-.2h-.1Z" class="g2_1" />
<path d="M116.6,124.8v.2h1.1l.2,-.2h-.2Z" class="g2_1" />
<path d="M118.4,124.8v.2h1.1l.2,-.2h-.2Z" class="g2_1" />
<path d="M120.4,124.8h-.1v.2h1.1l.1,-.2h-.1Z" class="g2_1" />
<path d="M122.3,124.8h-.2v.2h1.1l.2,-.2h-.2Z" class="g2_1" />
<path d="M124.1,124.8h-.2v.2h1.3v-.2Z" class="g2_1" />
<path d="M125.9,124.8h-.1v.2H127v-.2Z" class="g2_1" />
<path d="M127.8,124.8h-.2v.2h1.3l.2,-.2h-.2Z" class="g2_1" />
<path d="M129.6,124.8h-.2v.2h1.3l.2,-.2h-.2Z" class="g2_1" />
<path d="M131.4,124.8v.2h1.1l.2,-.2h-.2Z" class="g2_1" />
<path d="M133.3,124.8v.2h1.1l.2,-.2h-.2Z" class="g2_1" />
<path d="M135.1,124.8v.2h1.1l.2,-.2h-.2Z" class="g2_1" />
<path d="M137.1,124.8h-.2v.2H138l.2,-.2H138Z" class="g2_1" />
<path d="M139,124.8h-.2v.2h1.1l.2,-.2h-.2Z" class="g2_1" />
<path d="M140.8,124.8h-.2v.2h1.3v-.2Z" class="g2_1" />
<path d="M142.6,124.8h-.2v.2h1.3v-.2Z" class="g2_1" />
<path d="M144.5,124.8h-.2v.2h1.3l.1,-.2h-.1Z" class="g2_1" />
<path d="M146.3,124.8h-.2v.2h1.3l.2,-.2h-.2Z" class="g2_1" />
<path d="M148.1,124.8v.2h1.1l.2,-.2h-.2Z" class="g2_1" />
<path d="M150,124.8v.2h1.1l.1,-.2h-.1Z" class="g2_1" />
<path d="M151.8,124.8v.2h1.1l.2,-.2h-.2Z" class="g2_1" />
<path d="M153.8,124.8h-.2v.2h1.1l.2,-.2h-.2Z" class="g2_1" />
<path d="M155.6,124.8h-.1v.2h1.1l.1,-.2h-.1Z" class="g2_1" />
<path d="M157.5,124.8h-.2v.2h1.3v-.2Z" class="g2_1" />
<path d="M159.3,124.8h-.2v.2h1.3v-.2Z" class="g2_1" />
<path d="M161.1,124.8H161v.2h1.2l.2,-.2h-.2Z" class="g2_1" />
<path d="M163,124.8h-.2v.2h1.3l.2,-.2h-.2Z" class="g2_1" />
<path d="M164.8,124.8v.2h1.1l.2,-.2h-.2Z" class="g2_1" />
<path d="M166.6,124.8v.2h.6l.2,-.2Z" class="g2_1" />
<path d="M110.2,131H110v.2h1.3l-.2,-.2Z" class="g2_1" />
<path d="M111.8,131v.2h1.3l-.2,-.2Z" class="g2_1" />
<path d="M113.7,131v.2h1.2l-.1,-.2Z" class="g2_1" />
<path d="M115.7,131h-.2v.2h1.3l-.2,-.2Z" class="g2_1" />
<path d="M117.5,131h-.2v.2h1.3l-.2,-.2Z" class="g2_1" />
<path d="M119.3,131h-.1v.2h1.2V131Z" class="g2_1" />
<path d="M121.2,131H121v.2h1.3V131Z" class="g2_1" />
<path d="M123,131h-.2v.2h1.5l-.2,-.2Z" class="g2_1" />
<path d="M124.8,131h-.1v.2h1.4l-.2,-.2Z" class="g2_1" />
<path d="M126.7,131v.2H128l-.2,-.2Z" class="g2_1" />
<path d="M128.5,131v.2h1.3l-.2,-.2Z" class="g2_1" />
<path d="M130.3,131v.2h1.3l-.2,-.2Z" class="g2_1" />
<path d="M132.4,131h-.2v.2h1.3l-.2,-.2Z" class="g2_1" />
<path d="M134.2,131H134v.2h1.3l-.2,-.2Z" class="g2_1" />
<path d="M136,131h-.2v.2h1.3V131Z" class="g2_1" />
<path d="M137.9,131h-.2v.2H139V131Z" class="g2_1" />
<path d="M139.7,131h-.2v.2H141l-.2,-.2Z" class="g2_1" />
<path d="M141.5,131h-.2v.2h1.5l-.2,-.2Z" class="g2_1" />
<path d="M143.4,131v.2h1.2l-.1,-.2Z" class="g2_1" />
<path d="M145.2,131v.2h1.3l-.2,-.2Z" class="g2_1" />
<path d="M147,131v.2h1.3l-.2,-.2Z" class="g2_1" />
<path d="M149,131h-.1v.2h1.2L150,131Z" class="g2_1" />
<path d="M150.9,131h-.2v.2H152l-.2,-.2Z" class="g2_1" />
<path d="M152.7,131h-.2v.2h1.3V131Z" class="g2_1" />
<path d="M122.8,135.4h-.2l.2,.2h.9l.2,-.2h-.2Z" class="g2_1" />
<path d="M124.7,135.4h-.2v.2h1.1l.2,-.2h-.2Z" class="g2_1" />
<path d="M126.5,135.4h-.2v.2h1.3v-.2Z" class="g2_1" />
<path d="M128.3,135.4h-.2v.2h1.3v-.2Z" class="g2_1" />
<path d="M130.2,135.4H130v.2h1.3l.1,-.2h-.1Z" class="g2_1" />
<path d="M132,135.4h-.2v.2h1.3l.2,-.2h-.2Z" class="g2_1" />
<path d="M133.8,135.4v.2h1.1l.2,-.2h-.2Z" class="g2_1" />
<path d="M135.7,135.4v.2h1.1l.1,-.2h-.1Z" class="g2_1" />
<path d="M137.5,135.4v.2h1.1l.2,-.2h-.2Z" class="g2_1" />
<path d="M139.5,135.4h-.2v.2h1.1l.2,-.2h-.2Z" class="g2_1" />
<path d="M141.3,135.4h-.1v.2h1.1l.1,-.2h-.1Z" class="g2_1" />
<path d="M143.2,135.4H143v.2h1.3v-.2Z" class="g2_1" />
<path d="M145,135.4h-.2v.2h1.3v-.2Z" class="g2_1" />
<path d="M146.8,135.4h-.1v.2h1.2l.2,-.2h-.2Z" class="g2_1" />
<path d="M127.2,93.3H127v.3h1.1l.2,-.2l-.2,-.1Z" class="g2_1" />
<path d="M129.1,93.3h-.2v.3H130l.2,-.2l-.2,-.1Z" class="g2_1" />
<path d="M130.9,93.3h-.2v.3h1.1l.2,-.2l-.2,-.1Z" class="g2_1" />
<path d="M132.7,93.3h-.2v.3h1.3v-.3Z" class="g2_1" />
<path d="M134.6,93.3h-.2v.3h1.3v-.3Z" class="g2_1" />
<path d="M136.4,93.3h-.2v.3h1.3v-.3Z" class="g2_1" />
<path d="M138.2,93.3H138v.3h1.3l.2,-.2l-.2,-.1Z" class="g2_1" />
<path d="M140.1,93.3h-.2v.3h1.3l.1,-.2l-.1,-.1Z" class="g2_1" />
<path d="M141.9,93.3v.3H143l.2,-.2l-.2,-.1Z" class="g2_1" />
<path d="M143.7,93.3v.3h1.1l.2,-.2l-.2,-.1Z" class="g2_1" />
<path d="M145.7,93.3h-.1v.3h1.1l.1,-.2l-.1,-.1Z" class="g2_1" />
<path d="M147.6,93.3h-.2v.3h1.1l.2,-.2l-.2,-.1Z" class="g2_1" />
<path d="M149.4,93.3h-.2v.3h1.3v-.3Z" class="g2_1" />
<path d="M151.2,93.3h-.1v.3h1.2v-.3Z" class="g2_1" />
<path d="M153.1,93.3h-.2v.3h1.3v-.3Z" class="g2_1" />
<path d="M154.9,93.3h-.2v.3H156l.2,-.2l-.2,-.1Z" class="g2_1" />
<path d="M156.7,93.3h-.1v.3h1.2l.2,-.2l-.2,-.1Z" class="g2_1" />
<path d="M158.6,93.3v.3h1.1l.2,-.2l-.2,-.1Z" class="g2_1" />
<path d="M160.4,93.3v.3h1.1l.2,-.2l-.2,-.1Z" class="g2_1" />
<path d="M162.4,93.3h-.2v.3h1.1l.2,-.2l-.2,-.1Z" class="g2_1" />
<path d="M164.3,93.3h-.2v.3h1.1l.2,-.2l-.2,-.1Z" class="g2_1" />
<path d="M166.1,93.3h-.2v.3h1.3v-.3Z" class="g2_1" />
<path d="M167.9,93.3h-.2v.3H169v-.3Z" class="g2_1" />
<path d="M169.8,93.3h-.2v.3h1.3l.1,-.2l-.1,-.1Z" class="g2_1" />
<path d="M171.6,93.3h-.2v.3h1.3l.2,-.2l-.2,-.1Z" class="g2_1" />
<path d="M173.4,93.3v.3h1.1l.2,-.2l-.2,-.1Z" class="g2_1" />
<path d="M175.3,93.3v.3h1.1l.1,-.2l-.1,-.1Z" class="g2_1" />
<path d="M177.1,93.3v.3h1.1l.2,-.2l-.2,-.1Z" class="g2_1" />
<path d="M179.1,93.3h-.2v.3H180l.2,-.2l-.2,-.1Z" class="g2_1" />
<path d="M180.9,93.3h-.1v.3h1.1l.1,-.2l-.1,-.1Z" class="g2_1" />
<path d="M182.8,93.3h-.2v.3h1.3v-.3Z" class="g2_1" />
<path d="M135.7,87h-.2l-.2,.2h1.3V87Z" class="g2_1" />
<path d="M137.3,87h-.2v.2h1.5l-.2,-.2Z" class="g2_1" />
<path d="M139.1,87H139v.2h1.4l-.2,-.2Z" class="g2_1" />
<path d="M141,87v.2h1.3l-.2,-.2Z" class="g2_1" />
<path d="M142.8,87v.2h1.3l-.2,-.2Z" class="g2_1" />
<path d="M144.6,87v.2h1.3l-.2,-.2Z" class="g2_1" />
<path d="M146.7,87h-.2v.2h1.3l-.2,-.2Z" class="g2_1" />
<path d="M148.5,87h-.2v.2h1.3l-.2,-.2Z" class="g2_1" />
<path d="M150.3,87h-.2v.2h1.3V87Z" class="g2_1" />
<path d="M152.2,87H152v.2h1.3V87Z" class="g2_1" />
<path d="M154,87h-.2v.2h1.5l-.2,-.2Z" class="g2_1" />
<path d="M155.8,87h-.2v.2h1.5l-.2,-.2Z" class="g2_1" />
<path d="M157.7,87v.2h1.2l-.1,-.2Z" class="g2_1" />
<path d="M159.5,87v.2h1.3l-.2,-.2Z" class="g2_1" />
<path d="M161.3,87v.2h1.3l-.2,-.2Z" class="g2_1" />
<path d="M163.3,87h-.1v.2h1.2l-.1,-.2Z" class="g2_1" />
<path d="M165.2,87H165v.2h1.3l-.2,-.2Z" class="g2_1" />
<path d="M167,87h-.2v.2h1.3V87Z" class="g2_1" />
<path d="M168.8,87h-.1v.2h1.2V87Z" class="g2_1" />
<path d="M170.7,87h-.2v.2H172l-.2,-.2Z" class="g2_1" />
<path d="M172.5,87h-.2v.2h1.5l-.2,-.2Z" class="g2_1" />
<path d="M174.3,87v.2h1.3l-.2,-.2Z" class="g2_1" />
<path d="M176.2,87v.2h1.3l-.2,-.2Z" class="g2_1" />
<path d="M178.2,87H178v.2h1.3l-.2,-.2Z" class="g2_1" />
<text x="397" y="244" dx="0,0.1,0.1" class="s3_1">(b)</text>
<text x="98" y="234" dx="0,0.1,0.1" class="s3_1">(a)</text>
<path d="M256.3,6.2v248" class="g0_1" />
<path d="M108.9,100.4L192.5,47.1" class="g1_1" />
<path fill-rule="evenodd" d="M108.9,92.3L101.6,105L116,103.3L109.1,100Z" class="g2_1" />
<path d="M7.3,5.4h.8V4.7H7.3v.7Z" class="g2_1" />
<path d="M7.3,5.4h.8V4.7H7.3v.7Z" class="g2_1" />
<path d="M8.1,5.4H529.8V4.7H8.1v.7Z" class="g2_1" />
<path d="M529.8,5.4h.8V4.7h-.8v.7Z" class="g2_1" />
<path d="M529.8,5.4h.8V4.7h-.8v.7Z" class="g2_1" />
<path d="M7.3,255.1h.8V5.4H7.3V255.1Z" class="g2_1" />
<path d="M529.8,255.1h.8V5.4h-.8V255.1Z" class="g2_1" />
<path d="M7.3,255.9h.8v-.8H7.3v.8Z" class="g2_1" />
<path d="M7.3,255.9h.8v-.8H7.3v.8Z" class="g2_1" />
<path d="M8.1,255.9H529.8v-.8H8.1v.8Z" class="g2_1" />
<path d="M529.8,255.9h.8v-.8h-.8v.8Z" class="g2_1" />
<path d="M529.8,255.9h.8v-.8h-.8v.8Z" class="g2_1" />


<!-- Any embedded fonts defined here -->
<style type="text/css" ><![CDATA[

@font-face {
	font-family: CourierNew_6;
	src: url("fonts/CourierNew_6.woff") format("woff");
}

@font-face {
	font-family: CourierNew-Bold_a;
	src: url("fonts/CourierNew-Bold_a.woff") format("woff");
}

]]></style>

</svg>
