<?xml version="1.0" encoding="UTF-8" standalone="no"?>
<!DOCTYPE svg PUBLIC "-//W3C//DTD SVG 1.1//EN"
"http://www.w3.org/Graphics/SVG/1.1/DTD/svg11.dtd">


<!-- Page 1 -->
<svg x="0" y="0" width="715" height="213" viewBox="0 0 715 213" version="1.1" xmlns="http://www.w3.org/2000/svg" xmlns:xlink="http://www.w3.org/1999/xlink"
style="display: block;margin-left: auto;margin-right: auto;">
<defs>
<clipPath id="c0_1"><path d="M11.7,203.8V32.6H234.1V203.8Z" /></clipPath>
<clipPath id="c1_1"><path d="M242.4,203.8V32.6H456.9V203.8Z" /></clipPath>

<style type="text/css"><![CDATA[
text { white-space: pre; }
path, image { pointer-events: none; }

.s1_1{
font-size: 15.22px;
font-family: CourierNew-Bold_6;
fill: #000000;
}
.s2_1{
font-size: 9.26px;
font-family: Arial_a;
fill: #000000;
}
.s3_1{
font-size: 7.61px;
font-family: Arial_a;
fill: #000000;
}

.g0_1{
fill: #FFFFFF;
}
.g1_1{
}

]]></style>

</defs>
<path d="M0,0
L0,213
L715,213
L715,0 Z " 
fill="#FFFFFF" stroke="none" />
<text x="11" y="27" class="s1_1">(a) </text>
<g clip-path="url(#c0_1)">
<path d="M253.4,203.6L11.7,32.6v171Z" class="g0_1" />
<path d="M11.7,32.6H253.4v171Z" class="g0_1" />
<path d="M253.4,203.6L11.7,32.6v171Z" class="g0_1" />
<path d="M11.7,32.6H253.4v171Z" class="g0_1" />
</g>
<path d="M203.5,165.1L66.9,163.7v1.1Z" class="g1_1" />
<path d="M66.9,163.7l136.6,.3v1.1Z" class="g1_1" />
<path d="M66.9,164H65.8L66.9,44.9Z" class="g1_1" />
<path d="M66.9,44.9H65.8V164Z" class="g1_1" />
<path d="M68.4,160.4l-2.6,4l1.1,.4Z" class="g1_1" />
<path d="M68.4,160.4L67.3,160l-1.5,4.4Z" class="g1_1" />
<path d="M67.3,160v0h.3Z" class="g1_1" />
<path d="M67.3,160v0Z" class="g1_1" />
<path d="M69.5,156l-2.2,4l1.1,.4Z" class="g1_1" />
<path d="M69.5,156l-1.1,-.4L67.3,160Z" class="g1_1" />
<path d="M68.4,155.6h.7Z" class="g1_1" />
<path d="M71,151.9l-2.6,3.7l1.1,.4Z" class="g1_1" />
<path d="M71,151.9l-1.1,-.3l-1.5,4Z" class="g1_1" />
<path d="M69.9,151.6h.7Z" class="g1_1" />
<path d="M72,148.3l-2.1,3.3l1.1,.3Z" class="g1_1" />
<path d="M72,148.3l-.7,-.4l-1.4,3.7Z" class="g1_1" />
<path d="M71.3,147.9h.4Z" class="g1_1" />
<path d="M73.5,144.6l-2.2,3.3l.7,.4Z" class="g1_1" />
<path d="M71.3,147.9l1.1,-3.7l1.1,.4Z" class="g1_1" />
<path d="M72.4,144.2h.7Z" class="g1_1" />
<path d="M75,140.7l-2.6,3.5l1.1,.4Z" class="g1_1" />
<path d="M75,140.7l-1.1,-.3l-1.5,3.8Z" class="g1_1" />
<path d="M74.2,140.4h-.3Z" class="g1_1" />
<path d="M75,140.7l-1.1,-.3l2.2,-3Z" class="g1_1" />
<path d="M76.1,137.4L75,137.1l-1.1,3.3Z" class="g1_1" />
<path d="M75,137.1v0h.7Z" class="g1_1" />
<path d="M75,137.1v0Z" class="g1_1" />
<path d="M77.6,134.1l-2.6,3l1.1,.3Z" class="g1_1" />
<path d="M77.6,134.1l-1.1,-.3L75,137.1Z" class="g1_1" />
<path d="M76.5,133.8h.7Z" class="g1_1" />
<path d="M78.6,130.8l-2.1,3l1.1,.3Z" class="g1_1" />
<path d="M78.6,130.8l-.7,-.3l-1.4,3.3Z" class="g1_1" />
<path d="M77.9,130.5h.4Z" class="g1_1" />
<path d="M80.1,127.9l-2.2,2.6l.7,.3Z" class="g1_1" />
<path d="M80.1,127.9L79,127.5l-1.1,3Z" class="g1_1" />
<path d="M79,127.5v0h.7Z" class="g1_1" />
<path d="M79,127.5v0Z" class="g1_1" />
<path d="M81.2,125L79,127.5l1.1,.4Z" class="g1_1" />
<path d="M81.2,125l-.7,-.4L79,127.5Z" class="g1_1" />
<path d="M80.5,124.6h.3Z" class="g1_1" />
<path d="M82.9,122l-2.4,2.6l.7,.4Z" class="g1_1" />
<path d="M82.9,122l-1.3,-.3l-1.1,2.9Z" class="g1_1" />
<path d="M81.6,121.7h.9Z" class="g1_1" />
<path d="M84.3,119.5l-2.7,2.2l1.3,.3Z" class="g1_1" />
<path d="M84.3,119.5l-1.1,-.4l-1.6,2.6Z" class="g1_1" />
<path d="M83.2,119.1h.4Z" class="g1_1" />
<path d="M85.4,116.7l-2.2,2.4l1.1,.4Z" class="g1_1" />
<path d="M85.4,116.7l-1.1,-.3l-1.1,2.7Z" class="g1_1" />
<path d="M84.3,116.4v0h.8Z" class="g1_1" />
<path d="M84.3,116.4v0Z" class="g1_1" />
<path d="M86.9,114.2l-2.6,2.2l1.1,.3Z" class="g1_1" />
<path d="M86.9,114.2l-1.1,-.4l-1.5,2.6Z" class="g1_1" />
<path d="M85.8,113.8v0h.7Z" class="g1_1" />
<path d="M85.8,113.8v0Z" class="g1_1" />
<path d="M88,112l-2.2,1.8l1.1,.4Z" class="g1_1" />
<path d="M88,112l-.7,-.8l-1.5,2.6Z" class="g1_1" />
<path d="M87.3,111.2l.3,.4Z" class="g1_1" />
<path d="M89.5,109.4l-2.2,1.8l.7,.8Z" class="g1_1" />
<path d="M89.5,109.4L88.4,109l-1.1,2.2Z" class="g1_1" />
<path d="M88.4,109v0h.7Z" class="g1_1" />
<path d="M88.4,109v0Z" class="g1_1" />
<path d="M90.6,107.2L88.4,109l1.1,.4Z" class="g1_1" />
<path d="M90.6,107.2l-.8,-.4L88.4,109Z" class="g1_1" />
<path d="M89.8,106.8v0h.4Z" class="g1_1" />
<path d="M89.8,106.8v0Z" class="g1_1" />
<path d="M92,105.4l-2.2,1.4l.8,.8Z" class="g1_1" />
<path d="M92,105.4l-1.1,-.8l-1.1,2.2Z" class="g1_1" />
<path d="M90.9,104.6v0l.8,.4Z" class="g1_1" />
<path d="M90.9,104.6v0Z" class="g1_1" />
<path d="M93.5,103.2l-2.6,1.4l1.1,.8Z" class="g1_1" />
<path d="M93.5,103.2l-1.1,-.4l-1.5,1.8Z" class="g1_1" />
<path d="M92.4,102.8h.7Z" class="g1_1" />
<path d="M94.6,101.3l-2.2,1.5l.7,.4Z" class="g1_1" />
<path d="M94.6,101.3l-.7,-.7l-1.5,2.2Z" class="g1_1" />
<path d="M93.9,100.6l.3,.4Z" class="g1_1" />
<path d="M96.1,99.5l-2.2,1.1l.7,.7Z" class="g1_1" />
<path d="M96.1,99.5L95,98.8l-1.1,1.8Z" class="g1_1" />
<path d="M95,98.8l.7,.3Z" class="g1_1" />
<path d="M97.2,97.7L95,98.8l1.1,.7Z" class="g1_1" />
<path d="M97.2,97.7l-.8,-.8L95,98.8Z" class="g1_1" />
<path d="M96.4,96.9l.4,.4Z" class="g1_1" />
<path d="M98.6,95.8l-2.2,1.1l.8,.8Z" class="g1_1" />
<path d="M98.6,95.8l-1.1,-.7l-1.1,1.8Z" class="g1_1" />
<path d="M97.5,95.1l.8,.4Z" class="g1_1" />
<path d="M99.7,94.4l-2.2,.7l1.1,.7Z" class="g1_1" />
<path d="M99.7,94.4L99,93.6l-1.5,1.5Z" class="g1_1" />
<path d="M99,93.6h.4Z" class="g1_1" />
<path d="M101.2,92.3L99,93.6l.7,.8Z" class="g1_1" />
<path d="M101.2,92.3l-.7,-.7l-1.5,2Z" class="g1_1" />
<path d="M100.5,91.6l.3,.4Z" class="g1_1" />
<path d="M102.5,90.9l-2,.7l.7,.7Z" class="g1_1" />
<path d="M102.5,90.9l-.9,-.8l-1.1,1.5Z" class="g1_1" />
<path d="M101.6,90.1l.9,.4Z" class="g1_1" />
<path d="M103.9,89.4l-2.3,.7l.9,.8Z" class="g1_1" />
<path d="M103.9,89.4l-.7,-.7l-1.6,1.4Z" class="g1_1" />
<path d="M103.2,88.7v0l.4,.3Z" class="g1_1" />
<path d="M103.2,88.7v0Z" class="g1_1" />
<path d="M105.4,87.9l-2.2,.8l.7,.7Z" class="g1_1" />
<path d="M105.4,87.9l-1.1,-.7l-1.1,1.5Z" class="g1_1" />
<path d="M104.3,87.2l.7,.4Z" class="g1_1" />
<path d="M106.5,86.8l-2.2,.4l1.1,.7Z" class="g1_1" />
<path d="M106.5,86.8l-.7,-.7l-1.5,1.1Z" class="g1_1" />
<path d="M105.8,85.7v.4h.3Z" class="g1_1" />
<path d="M105.8,85.7v.4Z" class="g1_1" />
<path d="M108,85.4l-2.2,.3l.7,1.1Z" class="g1_1" />
<path d="M108,85.4l-.8,-.8l-1.4,1.1Z" class="g1_1" />
<path d="M107.2,84.6l.4,.4Z" class="g1_1" />
<path d="M109.1,84.3l-1.9,.3l.8,.8Z" class="g1_1" />
<path d="M109.1,84.3l-.8,-1.1l-1.1,1.4Z" class="g1_1" />
<path d="M108.3,83.2l.8,.3Z" class="g1_1" />
<path d="M110.6,82.8l-2.3,.4l.8,1.1Z" class="g1_1" />
<path d="M110.6,82.8l-.8,-.7l-1.5,1.1Z" class="g1_1" />
<path d="M109.8,82.1v0l.4,.3Z" class="g1_1" />
<path d="M109.8,82.1v0Z" class="g1_1" />
<path d="M111.7,81.7l-1.9,.4l.8,.7Z" class="g1_1" />
<path d="M111.7,81.7l-.8,-.7l-1.1,1.1Z" class="g1_1" />
<path d="M110.9,81l.8,.3Z" class="g1_1" />
<path d="M113.1,80.6l-2.2,.4l.8,.7Z" class="g1_1" />
<path d="M113.1,80.6l-.7,-.7L110.9,81Z" class="g1_1" />
<path d="M112.4,79.9l.4,.3Z" class="g1_1" />
<path d="M114.2,79.5l-1.8,.4l.7,.7Z" class="g1_1" />
<path d="M114.2,79.5l-.7,-.7l-1.1,1.1Z" class="g1_1" />
<path d="M113.9,78.8h-.4l.7,.3Z" class="g1_1" />
<path d="M113.9,78.8h-.4Z" class="g1_1" />
<path d="M115.7,78.4l-1.8,.4l.3,.7Z" class="g1_1" />
<path d="M115.7,78.4l-.7,-.7l-1.1,1.1Z" class="g1_1" />
<path d="M115,77.7l.3,.3Z" class="g1_1" />
<path d="M117.1,77.7H115l.7,.7Z" class="g1_1" />
<path d="M117.1,77.7l-.7,-1.1L115,77.7Z" class="g1_1" />
<path d="M116.4,76.6l.4,.3Z" class="g1_1" />
<path d="M118.2,76.6h-1.8l.4,1.1Z" class="g1_1" />
<path d="M118.2,76.6l-.7,-.8l-1.1,.8Z" class="g1_1" />
<path d="M117.5,75.8l.7,.4Z" class="g1_1" />
<path d="M119.7,75.8h-2.2l.7,.8Z" class="g1_1" />
<path d="M119.7,75.8L119,74.7l-1.5,1.1Z" class="g1_1" />
<path d="M119,74.7v0l.3,.4Z" class="g1_1" />
<path d="M119,74.7v0Z" class="g1_1" />
<path d="M120.8,74.7H119l.7,1.1Z" class="g1_1" />
<path d="M120.8,74.7l-.7,-.7l-1.1,.7Z" class="g1_1" />
<path d="M120.4,74h-.3l.7,.4Z" class="g1_1" />
<path d="M120.4,74h-.3Z" class="g1_1" />
<path d="M122.5,74h-2.1l.4,.7Z" class="g1_1" />
<path d="M122.5,74l-1,-.7l-1.1,.7Z" class="g1_1" />
<path d="M121.5,73.3l.4,.3Z" class="g1_1" />
<path d="M123.6,73.3h-2.1l1,.7Z" class="g1_1" />
<path d="M123.6,73.3l-.4,-1.1l-1.7,1.1Z" class="g1_1" />
<path d="M123.2,72.2l.4,.3Z" class="g1_1" />
<path d="M125,72.5l-1.8,-.3l.4,1.1Z" class="g1_1" />
<path d="M125,72.5l-.7,-1.1l-1.1,.8Z" class="g1_1" />
<path d="M124.3,71.4l.4,.4Z" class="g1_1" />
<path d="M126.1,71.8l-1.8,-.4l.7,1.1Z" class="g1_1" />
<path d="M126.1,71.8l-.3,-1.1l-1.5,.7Z" class="g1_1" />
<path d="M125.8,70.7l.3,.4Z" class="g1_1" />
<path d="M127.6,71.1l-1.8,-.4l.3,1.1Z" class="g1_1" />
<path d="M127.6,71.1L126.9,70l-1.1,.7Z" class="g1_1" />
<path d="M127.2,70h-.3l.7,.3Z" class="g1_1" />
<path d="M127.2,70h-.3Z" class="g1_1" />
<path d="M128.7,70.3L127.2,70l.4,1.1Z" class="g1_1" />
<path d="M128.7,70.3l-.4,-1.1l-1.1,.8Z" class="g1_1" />
<path d="M128.3,69.2l.4,.4Z" class="g1_1" />
<path d="M130.2,69.6l-1.9,-.4l.4,1.1Z" class="g1_1" />
<path d="M130.2,69.6l-.4,-1.3l-1.5,.9Z" class="g1_1" />
<path d="M129.8,68.3v0l.4,.9Z" class="g1_1" />
<path d="M129.8,68.3v0Z" class="g1_1" />
<path d="M131.6,68.9l-1.8,-.6l.4,1.3Z" class="g1_1" />
<path d="M131.6,68.9l-.7,-.9l-1.1,.3Z" class="g1_1" />
<path d="M130.9,68v0l.4,.3Z" class="g1_1" />
<path d="M130.9,68v0Z" class="g1_1" />
<path d="M132.7,68.3L130.9,68l.7,.9Z" class="g1_1" />
<path d="M132.7,68.3l-.3,-1.1l-1.5,.8Z" class="g1_1" />
<path d="M132.4,67.2l.3,.4l-.3,-.4Z" class="g1_1" />
<path d="M132.4,67.2l.3,.4l-.3,-.4Z" class="g1_1" />
<path d="M134.2,67.6l-1.8,-.4l.3,1.1Z" class="g1_1" />
<path d="M134.2,67.6l-.7,-1.1l-1.1,.7Z" class="g1_1" />
<path d="M133.5,66.5l.7,.7Z" class="g1_1" />
<path d="M135.3,67.2l-1.8,-.7l.7,1.1Z" class="g1_1" />
<path d="M135.3,67.2l-.4,-1.1l-1.4,.4Z" class="g1_1" />
<path d="M134.9,66.1l.4,.4Z" class="g1_1" />
<path d="M136.8,66.5l-1.9,-.4l.4,1.1Z" class="g1_1" />
<path d="M136.8,66.5l-.4,-1.1l-1.5,.7Z" class="g1_1" />
<path d="M136.4,65.4l.4,.7Z" class="g1_1" />
<path d="M137.9,66.1l-1.5,-.7l.4,1.1Z" class="g1_1" />
<path d="M137.9,66.1L137.5,65l-1.1,.4Z" class="g1_1" />
<path d="M137.5,65l.4,.4Z" class="g1_1" />
<path d="M139.3,65.4L137.5,65l.4,1.1Z" class="g1_1" />
<path d="M139.3,65.4l-.3,-.7l-1.5,.3Z" class="g1_1" />
<path d="M139,64.7l.3,.3Z" class="g1_1" />
<path d="M140.4,65L139,64.7l.3,.7Z" class="g1_1" />
<path d="M140.4,65l-.3,-1.1l-1.1,.8Z" class="g1_1" />
<path d="M140.1,63.9l.3,.4Z" class="g1_1" />
<path d="M141.9,64.7l-1.8,-.8l.3,1.1Z" class="g1_1" />
<path d="M141.9,64.7l-.4,-1.1l-1.4,.3Z" class="g1_1" />
<path d="M141.5,63.6v0l.4,.3Z" class="g1_1" />
<path d="M141.5,63.6v0Z" class="g1_1" />
<path d="M143.6,64.3l-2.1,-.7l.4,1.1Z" class="g1_1" />
<path d="M143.6,64.3l-.4,-1.1l-1.7,.4Z" class="g1_1" />
<path d="M143.2,63.2v0l.4,.4Z" class="g1_1" />
<path d="M143.2,63.2v0Z" class="g1_1" />
<path d="M144.6,63.6l-1.4,-.4l.4,1.1Z" class="g1_1" />
<path d="M144.6,63.6l-.3,-.8l-1.1,.4Z" class="g1_1" />
<path d="M144.3,62.8l.3,.4Z" class="g1_1" />
<path d="M146.1,63.2l-1.8,-.4l.3,.8Z" class="g1_1" />
<path d="M146.1,63.2l-.4,-1.1l-1.4,.7Z" class="g1_1" />
<path d="M145.7,62.1l.4,.7l-.4,-.7Z" class="g1_1" />
<path d="M145.7,62.1l.4,.7l-.4,-.7Z" class="g1_1" />
<path d="M147.2,62.8l-1.5,-.7l.4,1.1Z" class="g1_1" />
<path d="M147.2,62.8l-.4,-1.1l-1.1,.4Z" class="g1_1" />
<path d="M146.8,61.7l.4,.8l-.4,-.8Z" class="g1_1" />
<path d="M146.8,61.7l.4,.8l-.4,-.8Z" class="g1_1" />
<path d="M148.7,62.5l-1.9,-.8l.4,1.1Z" class="g1_1" />
<path d="M148.7,62.5l-.4,-1.1l-1.5,.3Z" class="g1_1" />
<path d="M148.3,61.4v0l.4,.7Z" class="g1_1" />
<path d="M148.3,61.4v0Z" class="g1_1" />
<path d="M149.8,62.1l-1.5,-.7l.4,1.1Z" class="g1_1" />
<path d="M149.8,62.1V61l-1.5,.4Z" class="g1_1" />
<path d="M149.8,61v.7Z" class="g1_1" />
<path d="M149.8,61v0Z" class="g1_1" />
<path d="M151.3,61.7L149.8,61v1.1Z" class="g1_1" />
<path d="M151.3,61.7l-.4,-1.1l-1.1,.4Z" class="g1_1" />
<path d="M150.9,60.6l.4,.8Z" class="g1_1" />
<path d="M152.7,61.4l-1.8,-.8l.4,1.1Z" class="g1_1" />
<path d="M150.9,60.6l1.5,-.3l.3,1.1Z" class="g1_1" />
<path d="M152.4,60.3l.3,.7l-.3,-.7Z" class="g1_1" />
<path d="M152.4,60.3l.3,.7l-.3,-.7Z" class="g1_1" />
<path d="M153.8,61l-1.4,-.7v1.1Z" class="g1_1" />
<path d="M152.4,60.3h1.1l.3,.7Z" class="g1_1" />
<path d="M153.5,60.3l.3,.3l-.3,-.3Z" class="g1_1" />
<path d="M153.5,60.3l.3,.3l-.3,-.3Z" class="g1_1" />
<path d="M155.3,61l-1.8,-.7l.3,.7Z" class="g1_1" />
<path d="M153.5,60.3l1.4,-.4l.4,1.1Z" class="g1_1" />
<path d="M154.9,59.9l.4,.4Z" class="g1_1" />
<path d="M156.4,60.6l-1.5,-.7l.4,1.1Z" class="g1_1" />
<path d="M154.9,59.9l1.5,-.4v1.1Z" class="g1_1" />
<path d="M156.4,59.5v.4Z" class="g1_1" />
<path d="M157.8,60.3l-1.4,-.8v1.1Z" class="g1_1" />
<path d="M156.4,59.5l1.1,-.3l.3,1.1Z" class="g1_1" />
<path d="M157.5,59.2v0l.3,.3Z" class="g1_1" />
<path d="M157.5,59.2v0Z" class="g1_1" />
<path d="M158.9,59.9l-1.4,-.7l.3,1.1Z" class="g1_1" />
<path d="M157.5,59.2l1.4,-.4v1.1Z" class="g1_1" />
<path d="M158.9,58.8v.7v-.7Z" class="g1_1" />
<path d="M158.9,58.8v.7v-.7Z" class="g1_1" />
<path d="M160.4,59.9l-1.5,-1.1v1.1Z" class="g1_1" />
<path d="M158.9,58.8H160l.4,1.1Z" class="g1_1" />
<path d="M160,58.8v0l.4,.4Z" class="g1_1" />
<path d="M160,58.8v0Z" class="g1_1" />
<path d="M161.5,59.5L160,58.8l.4,1.1Z" class="g1_1" />
<path d="M160,58.8l1.5,-.4v1.1Z" class="g1_1" />
<path d="M161.5,58.4l.4,.4Z" class="g1_1" />
<path d="M163.2,59.2l-1.7,-.8v1.1Z" class="g1_1" />
<path d="M161.5,58.4l1.3,-.3l.4,1.1Z" class="g1_1" />
<path d="M162.8,58.1l.4,.7Z" class="g1_1" />
<path d="M164.6,59.2l-1.8,-1.1l.4,1.1Z" class="g1_1" />
<path d="M162.8,58.1h1.5l.3,1.1Z" class="g1_1" />
<path d="M164.3,58.1l.3,.3l-.3,-.3Z" class="g1_1" />
<path d="M164.3,58.1l.3,.3l-.3,-.3Z" class="g1_1" />
<path d="M165.7,58.8l-1.4,-.7l.3,1.1Z" class="g1_1" />
<path d="M164.3,58.1l1.4,-.4v1.1Z" class="g1_1" />
<path d="M165.7,57.7v.4Z" class="g1_1" />
<path d="M167.2,58.4l-1.5,-.7v1.1Z" class="g1_1" />
<path d="M165.7,57.7l1.1,-.4l.4,1.1Z" class="g1_1" />
<path d="M166.8,57.3l.4,.8Z" class="g1_1" />
<path d="M168.3,58.4l-1.5,-1.1l.4,1.1Z" class="g1_1" />
<path d="M168.3,58.4V57.3h-1.5Z" class="g1_1" />
<path d="M168.3,57.3l.4,.4l-.4,-.4Z" class="g1_1" />
<path d="M168.3,57.3l.4,.4l-.4,-.4Z" class="g1_1" />
<path d="M169.8,58.1l-1.5,-.8v1.1Z" class="g1_1" />
<path d="M169.8,58.1L169.4,57l-1.1,.3Z" class="g1_1" />
<path d="M169.4,57l.4,.7l-.4,-.7Z" class="g1_1" />
<path d="M169.4,57l.4,.7l-.4,-.7Z" class="g1_1" />
<path d="M170.9,58.1L169.4,57l.4,1.1Z" class="g1_1" />
<path d="M170.9,58.1V57h-1.5Z" class="g1_1" />
<path d="M170.9,57l.3,.3Z" class="g1_1" />
<path d="M172.3,57.7L170.9,57v1.1Z" class="g1_1" />
<path d="M172.3,57.7V56.6l-1.4,.4Z" class="g1_1" />
<path d="M172.3,56.6v.7v-.7Z" class="g1_1" />
<path d="M172.3,56.6v.7v-.7Z" class="g1_1" />
<path d="M173.8,57.7l-1.5,-1.1v1.1Z" class="g1_1" />
<path d="M173.8,57.7l-.4,-1.1h-1.1Z" class="g1_1" />
<path d="M173.4,56.6v0l.4,.4Z" class="g1_1" />
<path d="M173.4,56.6v0Z" class="g1_1" />
<path d="M174.9,57.3l-1.5,-.7l.4,1.1Z" class="g1_1" />
<path d="M174.9,57.3V56.2l-1.5,.4Z" class="g1_1" />
<path d="M174.9,56.2V57Z" class="g1_1" />
<path d="M176.4,57.3l-1.5,-1.1v1.1Z" class="g1_1" />
<path d="M176.4,57.3L176,56.2h-1.1Z" class="g1_1" />
<path d="M176,56.2l.4,.4Z" class="g1_1" />
<path d="M177.5,57L176,56.2l.4,1.1Z" class="g1_1" />
<path d="M177.5,57V55.9l-1.5,.3Z" class="g1_1" />
<path d="M177.5,55.9l.3,.7Z" class="g1_1" />
<path d="M177.5,55.9l.3,.7l-.3,-.7Z" class="g1_1" />
<path d="M178.9,57l-1.4,-1.1V57Z" class="g1_1" />
<path d="M178.9,57l-.3,-1.1h-1.1Z" class="g1_1" />
<path d="M178.6,55.9l.3,.3Z" class="g1_1" />
<path d="M180,57l-1.4,-1.1l.3,1.1Z" class="g1_1" />
<path d="M180,57V55.9h-1.4Z" class="g1_1" />
<path d="M180,55.9l.4,.3Z" class="g1_1" />
<path d="M181.5,56.6L180,55.9V57Z" class="g1_1" />
<path d="M181.5,56.6V55.5l-1.5,.4Z" class="g1_1" />
<path d="M181.5,55.5v.7Z" class="g1_1" />
<path d="M181.5,55.5v.7v-.7Z" class="g1_1" />
<path d="M183.2,56.6l-1.7,-1.1v1.1Z" class="g1_1" />
<path d="M183.2,56.6l-.4,-1.1h-1.3Z" class="g1_1" />
<path d="M182.8,55.5l.4,.4Z" class="g1_1" />
<path d="M182.8,55.5l.4,.4l-.4,-.4Z" class="g1_1" />
<path d="M184.3,56.2l-1.5,-.7l.4,1.1Z" class="g1_1" />
<path d="M184.3,56.2V55.1l-1.5,.4Z" class="g1_1" />
<path d="M184.3,55.1v.8Z" class="g1_1" />
<path d="M185.7,56.2l-1.4,-1.1v1.1Z" class="g1_1" />
<path d="M185.7,56.2l-.4,-1.1h-1Z" class="g1_1" />
<path d="M185.3,55.1l.4,.8Z" class="g1_1" />
<path d="M186.8,56.2l-1.5,-1.1l.4,1.1Z" class="g1_1" />
<path d="M186.8,56.2V55.1h-1.5Z" class="g1_1" />
<path d="M186.8,55.1l.4,.4Z" class="g1_1" />
<path d="M186.8,55.1l.4,.4l-.4,-.4Z" class="g1_1" />
<path d="M188.3,56.2l-1.5,-1.1v1.1Z" class="g1_1" />
<path d="M188.3,56.2V55.1h-1.5Z" class="g1_1" />
<path d="M188.3,55.1v.4Z" class="g1_1" />
<path d="M189.4,55.9l-1.1,-.8v1.1Z" class="g1_1" />
<path d="M189.4,55.9V54.8l-1.1,.3Z" class="g1_1" />
<path d="M189.4,54.8l.3,.7Z" class="g1_1" />
<path d="M189.4,54.8l.3,.7l-.3,-.7Z" class="g1_1" />
<path d="M190.8,55.9l-1.4,-1.1v1.1Z" class="g1_1" />
<path d="M190.8,55.9V54.8h-1.4Z" class="g1_1" />
<path d="M190.8,54.8v.3Z" class="g1_1" />
<path d="M190.8,54.8v.3v-.3Z" class="g1_1" />
<path d="M192.3,55.9l-1.5,-1.1v1.1Z" class="g1_1" />
<path d="M192.3,55.9L192,54.8h-1.2Z" class="g1_1" />
<path d="M192,54.8l.3,.3Z" class="g1_1" />
<path d="M192,54.8l.3,.3l-.3,-.3Z" class="g1_1" />
<path d="M193.4,55.5L192,54.8l.3,1.1Z" class="g1_1" />
<path d="M193.4,55.5V54.4l-1.4,.4Z" class="g1_1" />
<path d="M193.4,54.4v.7Z" class="g1_1" />
<path d="M193.4,54.4v.7v-.7Z" class="g1_1" />
<path d="M194.9,55.5l-1.5,-1.1v1.1Z" class="g1_1" />
<path d="M194.9,55.5l-.4,-1.1h-1.1Z" class="g1_1" />
<path d="M194.5,54.4v0l.4,.7Z" class="g1_1" />
<path d="M194.5,54.4l.4,.7l-.4,-.7Z" class="g1_1" />
<path d="M196,55.5l-1.5,-1.1l.4,1.1Z" class="g1_1" />
<path d="M196,55.5V54.4h-1.5Z" class="g1_1" />
<path d="M196,54.4v0l.4,.4Z" class="g1_1" />
<path d="M196,54.4l.4,.4l-.4,-.4Z" class="g1_1" />
<path d="M197.5,55.5L196,54.4v1.1Z" class="g1_1" />
<path d="M197.5,55.5V54.4H196Z" class="g1_1" />
<path d="M197.5,54.4v.4Z" class="g1_1" />
<path d="M197.5,54.4v.4v-.4Z" class="g1_1" />
<path d="M198.6,55.1l-1.1,-.7v1.1Z" class="g1_1" />
<path d="M198.6,55.1V54l-1.1,.4Z" class="g1_1" />
<path d="M203.9,52.9L66.5,52.2v.7Z" class="g1_1" />
<path d="M66.5,52.2H203.9v.7Z" class="g1_1" />
<text x="66" y="176" class="s2_1">0</text>
<text x="203" y="175" class="s2_1">k</text>
<text x="193" y="71" class="s2_1">R</text>
<text x="200" y="65" class="s3_1">2</text>
<text x="242" y="27" class="s1_1">(b)</text>
<g clip-path="url(#c1_1)">
<path d="M484,203.6L242.4,32.6v171Z" class="g0_1" />
<path d="M242.4,32.6H484v171Z" class="g0_1" />
<path d="M484,203.6L242.4,32.6v171Z" class="g0_1" />
<path d="M242.4,32.6H484v171Z" class="g0_1" />
</g>
<text x="294" y="178" class="s2_1">0</text>
<path d="M435.6,169L295.3,167.9V169Z" class="g1_1" />
<path d="M295.3,167.9H435.6V169Z" class="g1_1" />
<path d="M296.1,167.9H295L296.1,51.5Z" class="g1_1" />
<path d="M296.1,51.5H295V167.9Z" class="g1_1" />
<path d="M298.6,60.3l-1.1,-4.8l-1.1,.4Z" class="g1_1" />
<path d="M298.6,60.3l1.1,-.8l-2.2,-4Z" class="g1_1" />
<path d="M298.6,60.3l.4,-.4Z" class="g1_1" />
<path d="M300.5,63.9l-.8,-4.4l-1.1,.8Z" class="g1_1" />
<path d="M300.5,63.9l1.1,-.3l-1.9,-4.1Z" class="g1_1" />
<path d="M300.5,63.9h.7Z" class="g1_1" />
<path d="M300.5,63.9h.7Z" class="g1_1" />
<path d="M302.7,68l-1.1,-4.4l-1.1,.3Z" class="g1_1" />
<path d="M302.7,68l1.1,-.4l-2.2,-4Z" class="g1_1" />
<path d="M302.7,68v0h.4Z" class="g1_1" />
<path d="M302.7,68v0Z" class="g1_1" />
<path d="M304.5,71.8l-.7,-4.2l-1.1,.4Z" class="g1_1" />
<path d="M304.5,71.8l1.1,-.4l-1.8,-3.8Z" class="g1_1" />
<path d="M304.5,71.8h.8Z" class="g1_1" />
<path d="M306.7,75.8l-1.1,-4.4l-1.1,.4Z" class="g1_1" />
<path d="M306.7,75.8l1.1,-.7l-2.2,-3.7Z" class="g1_1" />
<path d="M306.7,75.8l.4,-.3Z" class="g1_1" />
<path d="M306.7,75.8l.4,-.3Z" class="g1_1" />
<path d="M308.6,79.5l-.8,-4.4l-1.1,.7Z" class="g1_1" />
<path d="M308.6,79.5l1.1,-.7l-1.9,-3.7Z" class="g1_1" />
<path d="M308.6,79.5v0l.7,-.4Z" class="g1_1" />
<path d="M308.6,79.5v0Z" class="g1_1" />
<path d="M310.8,82.8l-1.1,-4l-1.1,.7Z" class="g1_1" />
<path d="M310.8,82.8l1.1,-.4l-2.2,-3.6Z" class="g1_1" />
<path d="M310.8,82.8h.3Z" class="g1_1" />
<path d="M312.8,86.5l-.9,-4.1l-1.1,.4Z" class="g1_1" />
<path d="M312.8,86.5l1.1,-.8l-2,-3.3Z" class="g1_1" />
<path d="M312.8,86.5v0h.7Z" class="g1_1" />
<path d="M312.8,86.5v0Z" class="g1_1" />
<path d="M315,89.8l-1.1,-4.1l-1.1,.8Z" class="g1_1" />
<path d="M315,89.8l1.1,-.4l-2.2,-3.7Z" class="g1_1" />
<path d="M315,89.8h.3Z" class="g1_1" />
<path d="M316.8,93.3l-.7,-3.9l-1.1,.4Z" class="g1_1" />
<path d="M316.8,93.3l1.1,-.6l-1.8,-3.3Z" class="g1_1" />
<path d="M316.8,93.3v0h.7Z" class="g1_1" />
<path d="M316.8,93.3v0Z" class="g1_1" />
<path d="M319,96.6l-1.1,-3.9l-1.1,.6Z" class="g1_1" />
<path d="M319,96.6l1.1,-.4l-2.2,-3.5Z" class="g1_1" />
<path d="M319,96.6h.7Z" class="g1_1" />
<path d="M320.8,99.9l-.7,-3.7l-1.1,.4Z" class="g1_1" />
<path d="M320.8,99.9l1.1,-.8l-1.8,-2.9Z" class="g1_1" />
<path d="M320.8,99.9v0h.8Z" class="g1_1" />
<path d="M320.8,99.9v0Z" class="g1_1" />
<path d="M323,102.8l-1.1,-3.7l-1.1,.8Z" class="g1_1" />
<path d="M323,102.8l.8,-.4l-1.9,-3.3Z" class="g1_1" />
<path d="M323,102.8h.8Z" class="g1_1" />
<path d="M324.9,106.1l-1.1,-3.7l-.8,.4Z" class="g1_1" />
<path d="M324.9,106.1l1.1,-.7l-2.2,-3Z" class="g1_1" />
<path d="M325.2,106.1h-.3l.7,-.4Z" class="g1_1" />
<path d="M325.2,106.1h-.3Z" class="g1_1" />
<path d="M327.1,109L326,105.4l-.8,.7Z" class="g1_1" />
<path d="M327.1,109l.7,-.7L326,105.4Z" class="g1_1" />
<path d="M327.1,109v0l.7,-.3Z" class="g1_1" />
<path d="M327.1,109v0Z" class="g1_1" />
<path d="M329.3,111.6l-1.5,-3.3l-.7,.7Z" class="g1_1" />
<path d="M329.3,111.6l.7,-.4l-2.2,-2.9Z" class="g1_1" />
<path d="M329.3,111.6v0h.3Z" class="g1_1" />
<path d="M329.3,111.6v0Z" class="g1_1" />
<path d="M331.1,114.5L330,111.2l-.7,.4Z" class="g1_1" />
<path d="M331.1,114.5l.7,-.7L330,111.2Z" class="g1_1" />
<path d="M331.8,114.2l-.7,.3Z" class="g1_1" />
<path d="M331.1,114.5l.7,-.7l1.7,3.3Z" class="g1_1" />
<path d="M333.5,117.1l.7,-.7l-2.4,-2.6Z" class="g1_1" />
<path d="M333.5,117.1h.4Z" class="g1_1" />
<path d="M335.3,119.8l-1.1,-3.4l-.7,.7Z" class="g1_1" />
<path d="M335.3,119.8l.8,-.3l-1.9,-3.1Z" class="g1_1" />
<path d="M335.3,119.8h.8Z" class="g1_1" />
<path d="M337.5,122.4l-1.4,-2.9l-.8,.3Z" class="g1_1" />
<path d="M337.5,122.4l.8,-.7l-2.2,-2.2Z" class="g1_1" />
<path d="M337.5,122.4h.4Z" class="g1_1" />
<path d="M339.4,125l-1.1,-3.3l-.8,.7Z" class="g1_1" />
<path d="M339.4,125l.7,-.8l-1.8,-2.5Z" class="g1_1" />
<path d="M339.4,125l.7,-.4Z" class="g1_1" />
<path d="M341.6,127.2l-1.5,-3l-.7,.8Z" class="g1_1" />
<path d="M341.6,127.2l.7,-.8l-2.2,-2.2Z" class="g1_1" />
<path d="M341.6,127.2h.3Z" class="g1_1" />
<path d="M343.4,129.7l-1.1,-3.3l-.7,.8Z" class="g1_1" />
<path d="M343.4,129.7l.7,-.7l-1.8,-2.6Z" class="g1_1" />
<path d="M343.4,129.7v0l.7,-.3Z" class="g1_1" />
<path d="M343.4,129.7v0Z" class="g1_1" />
<path d="M345.6,131.9L344.1,129l-.7,.7Z" class="g1_1" />
<path d="M345.6,131.9l.7,-.7L344.1,129Z" class="g1_1" />
<path d="M345.6,131.9l.3,-.3Z" class="g1_1" />
<path d="M347.4,133.8l-1.1,-2.6l-.7,.7Z" class="g1_1" />
<path d="M347.4,133.8l.7,-.8l-1.8,-1.8Z" class="g1_1" />
<path d="M347.4,134.1v-.3h.7Z" class="g1_1" />
<path d="M347.4,134.1v-.3Z" class="g1_1" />
<path d="M349.6,136l-1.5,-3l-.7,1.1Z" class="g1_1" />
<path d="M349.6,136l.7,-.8L348.1,133Z" class="g1_1" />
<path d="M349.6,136l.4,-.4Z" class="g1_1" />
<path d="M351.4,137.8l-1.1,-2.6l-.7,.8Z" class="g1_1" />
<path d="M351.4,137.8l.8,-.7l-1.9,-1.9Z" class="g1_1" />
<path d="M351.4,137.8h.8Z" class="g1_1" />
<path d="M353.8,140l-1.6,-2.9l-.8,.7Z" class="g1_1" />
<path d="M353.8,140l.8,-1.1l-2.4,-1.8Z" class="g1_1" />
<path d="M353.8,140l.4,-.4Z" class="g1_1" />
<path d="M355.7,141.5l-1.1,-2.6l-.8,1.1Z" class="g1_1" />
<path d="M355.7,141.5l.7,-.8l-1.8,-1.8Z" class="g1_1" />
<path d="M355.7,141.8v-.3h.7Z" class="g1_1" />
<path d="M355.7,141.8v-.3Z" class="g1_1" />
<path d="M357.9,143.5l-1.5,-2.8l-.7,1.1Z" class="g1_1" />
<path d="M357.9,143.5l.7,-.7l-2.2,-2.1Z" class="g1_1" />
<path d="M357.9,143.5v0l.3,-.4Z" class="g1_1" />
<path d="M357.9,143.5v0Z" class="g1_1" />
<path d="M359.7,145.3l-1.1,-2.5l-.7,.7Z" class="g1_1" />
<path d="M359.7,145.3l.7,-1.1l-1.8,-1.4Z" class="g1_1" />
<path d="M359.7,145.3l.7,-.3Z" class="g1_1" />
<path d="M361.9,146.8l-1.5,-2.6l-.7,1.1Z" class="g1_1" />
<path d="M361.9,146.8l.7,-.7l-2.2,-1.9Z" class="g1_1" />
<path d="M361.9,146.8l.4,-.4Z" class="g1_1" />
<path d="M363.7,148.3l-1.1,-2.2l-.7,.7Z" class="g1_1" />
<path d="M363.7,148.3l.8,-.8l-1.9,-1.4Z" class="g1_1" />
<path d="M363.7,148.3v0l.8,-.4Z" class="g1_1" />
<path d="M363.7,148.3v0Z" class="g1_1" />
<path d="M365.9,149.7l-1.4,-2.2l-.8,.8Z" class="g1_1" />
<path d="M365.9,149.7l.8,-1.1l-2.2,-1.1Z" class="g1_1" />
<path d="M365.9,149.7l.4,-.3Z" class="g1_1" />
<path d="M367.8,150.8l-1.1,-2.2l-.8,1.1Z" class="g1_1" />
<path d="M367.8,150.8l.7,-.7l-1.8,-1.5Z" class="g1_1" />
<path d="M367.8,150.8v0l.7,-.3Z" class="g1_1" />
<path d="M367.8,150.8v0Z" class="g1_1" />
<path d="M370,152.3l-1.5,-2.2l-.7,.7Z" class="g1_1" />
<path d="M370,152.3l.7,-1.1l-2.2,-1.1Z" class="g1_1" />
<path d="M370,152.3l.3,-.4Z" class="g1_1" />
<path d="M372.2,153.4l-1.9,-2.2l-.3,1.1Z" class="g1_1" />
<path d="M372.2,153.4l.3,-1.1l-2.2,-1.1Z" class="g1_1" />
<path d="M372.2,153.4l.3,-.4Z" class="g1_1" />
<path d="M374.2,154.5l-1.7,-2.2l-.3,1.1Z" class="g1_1" />
<path d="M374.2,154.5l.3,-1.1l-2,-1.1Z" class="g1_1" />
<path d="M374.2,154.5l.3,-.4Z" class="g1_1" />
<path d="M376.4,155.6l-1.9,-2.2l-.3,1.1Z" class="g1_1" />
<path d="M376.4,155.6l.3,-1.1l-2.2,-1.1Z" class="g1_1" />
<path d="M376.4,155.6l.3,-.7Z" class="g1_1" />
<path d="M378.2,156.3l-1.5,-1.8l-.3,1.1Z" class="g1_1" />
<path d="M378.2,156.3l.4,-1.1l-1.9,-.7Z" class="g1_1" />
<path d="M378.2,156.3l.4,-.3Z" class="g1_1" />
<path d="M380.4,157.1l-1.8,-1.9l-.4,1.1Z" class="g1_1" />
<path d="M380.4,157.1l.4,-.8l-2.2,-1.1Z" class="g1_1" />
<path d="M380.4,157.1l.4,-.4Z" class="g1_1" />
<path d="M382.2,157.8l-1.4,-1.5l-.4,.8Z" class="g1_1" />
<path d="M382.2,157.8l.4,-.7l-1.8,-.8Z" class="g1_1" />
<path d="M382.2,157.8l.4,-.4Z" class="g1_1" />
<path d="M384.5,158.5l-1.9,-1.4l-.4,.7Z" class="g1_1" />
<path d="M384.5,158.5l.3,-1.1l-2.2,-.3Z" class="g1_1" />
<path d="M384.5,158.5l.3,-.3Z" class="g1_1" />
<path d="M386.3,159.3l-1.5,-1.9l-.3,1.1Z" class="g1_1" />
<path d="M386.3,159.3l.4,-1.1l-1.9,-.8Z" class="g1_1" />
<path d="M386.3,159.3l.4,-.4Z" class="g1_1" />
<path d="M388.5,159.6l-1.8,-1.4l-.4,1.1Z" class="g1_1" />
<path d="M388.5,159.6l.4,-1.1l-2.2,-.3Z" class="g1_1" />
<path d="M388.5,159.6v0l.4,-.3Z" class="g1_1" />
<path d="M388.5,159.6v0Z" class="g1_1" />
<path d="M390.3,160l-1.4,-1.5l-.4,1.1Z" class="g1_1" />
<path d="M390.3,160l.4,-1.1l-1.8,-.4Z" class="g1_1" />
<path d="M390.7,160h-.4l.4,-.4Z" class="g1_1" />
<path d="M390.7,160h-.4Z" class="g1_1" />
<path d="M392.5,160.4l-1.8,-1.5V160Z" class="g1_1" />
<path d="M392.5,160.4l.4,-1.1l-2.2,-.4Z" class="g1_1" />
<path d="M392.5,160.4l.4,-.4Z" class="g1_1" />
<path d="M394.9,160.7l-2.4,-1.4v1.1Z" class="g1_1" />
<path d="M394.9,160.7v-1.1l-2.4,-.3Z" class="g1_1" />
<path d="M394.9,160.7v-.3Z" class="g1_1" />
<path d="M396.7,161.1l-1.8,-1.5v1.1Z" class="g1_1" />
<path d="M396.7,161.1V160l-1.8,-.4Z" class="g1_1" />
<path d="M396.7,161.1l.4,-.7Z" class="g1_1" />
<path d="M398.9,161.1L396.7,160v1.1Z" class="g1_1" />
<path d="M398.9,161.1V160h-2.2Z" class="g1_1" />
<path d="M398.9,161.1v-.7Z" class="g1_1" />
<path d="M400.8,161.1L398.9,160v1.1Z" class="g1_1" />
<path d="M398.9,160h1.9v1.1Z" class="g1_1" />
<path d="M400.8,161.1l.3,-.7Z" class="g1_1" />
<path d="M403,161.1L400.8,160v1.1Z" class="g1_1" />
<path d="M403,161.1V160h-2.2Z" class="g1_1" />
<path d="M403,161.1v-.7Z" class="g1_1" />
<path d="M404.8,160.7L403,160v1.1Z" class="g1_1" />
<path d="M404.8,160.7v-1.1L403,160Z" class="g1_1" />
<path d="M404.8,160.7l.4,-.3Z" class="g1_1" />
<path d="M407,160.7l-2.2,-1.1v1.1Z" class="g1_1" />
<path d="M407,160.7v-1.1h-2.2Z" class="g1_1" />
<path d="M407,160.7V160Z" class="g1_1" />
<path d="M408.8,160.4l-1.8,-.8v1.1Z" class="g1_1" />
<path d="M408.8,160.4v-1.1l-1.8,.3Z" class="g1_1" />
<path d="M409.2,160.4h-.4l.4,-.8Z" class="g1_1" />
<path d="M409.2,160.4h-.4Z" class="g1_1" />
<path d="M411,160l-2.2,-.7l.4,1.1Z" class="g1_1" />
<path d="M411,160l-.3,-1.1l-1.9,.4Z" class="g1_1" />
<path d="M411,160v0v-.7Z" class="g1_1" />
<path d="M411,160v0Z" class="g1_1" />
<path d="M413.4,159.3l-2.7,-.4l.3,1.1Z" class="g1_1" />
<path d="M413.4,159.3l-.5,-.8l-2.2,.4Z" class="g1_1" />
<path d="M413.4,159.3v-.4Z" class="g1_1" />
<path d="M415.3,158.9l-2.4,-.4l.5,.8Z" class="g1_1" />
<path d="M415.3,158.9l-.4,-1.1l-2,.7Z" class="g1_1" />
<path d="M415.3,158.9v-.7Z" class="g1_1" />
<path d="M417.5,158.2l-2.6,-.4l.4,1.1Z" class="g1_1" />
<path d="M417.5,158.2l-.4,-1.1l-2.2,.7Z" class="g1_1" />
<path d="M417.5,158.2v-.4Z" class="g1_1" />
<path d="M419.3,157.4l-2.2,-.3l.4,1.1Z" class="g1_1" />
<path d="M419.3,157.4l-.4,-1.1l-1.8,.8Z" class="g1_1" />
<path d="M419.3,157.4v0v-.3Z" class="g1_1" />
<path d="M419.3,157.4v0Z" class="g1_1" />
<path d="M421.5,156.7l-2.6,-.4l.4,1.1Z" class="g1_1" />
<path d="M421.5,156.7l-.4,-1.1l-2.2,.7Z" class="g1_1" />
<path d="M421.5,156.7V156Z" class="g1_1" />
<path d="M423.3,156l-2.2,-.4l.4,1.1Z" class="g1_1" />
<path d="M423.3,156l-.3,-1.1l-1.9,.7Z" class="g1_1" />
<path d="M423.3,156v-.8Z" class="g1_1" />
<path d="M425.5,154.9H423l.3,1.1Z" class="g1_1" />
<path d="M425.5,154.9l-.3,-1.1l-2.2,1.1Z" class="g1_1" />
<path d="M425.5,154.9v-.8Z" class="g1_1" />
<path d="M427.3,153.8h-2.1l.3,1.1Z" class="g1_1" />
<path d="M427.3,153.8L427,153l-1.8,.8Z" class="g1_1" />
<path d="M427.3,153.8v-.4Z" class="g1_1" />
<path d="M429.5,152.7L427,153l.3,.8Z" class="g1_1" />
<path d="M429.5,152.7l-.3,-.8L427,153Z" class="g1_1" />
<text x="432" y="179" class="s2_1">k</text>
<text x="415" y="148" dx="0,0,0.1" class="s2_1">MSE</text>
<text x="465" y="27" class="s1_1">(c) </text>
<path d="M706.8,203.6L465.1,32.6v171Z" class="g0_1" />
<path d="M465.1,32.6H706.8v171Z" class="g0_1" />
<path d="M706.8,203.6L465.1,32.6v171Z" class="g0_1" />
<path d="M465.1,32.6H706.8v171Z" class="g0_1" />
<path d="M659.1,167.1L518.8,165.9v1.2Z" class="g1_1" />
<path d="M518.8,165.9H659.1v1.2Z" class="g1_1" />
<path d="M519.6,165.9h-1.1L519.6,42.8Z" class="g1_1" />
<path d="M519.6,42.8h-1.1V165.9Z" class="g1_1" />
<path d="M520.7,59.5l-.4,-4.7l-1.1,.3Z" class="g1_1" />
<path d="M520.7,59.5l1.1,-.3l-1.5,-4.4Z" class="g1_1" />
<path d="M520.7,59.5h.3Z" class="g1_1" />
<path d="M521.8,63.6V59.2l-1.1,.3Z" class="g1_1" />
<path d="M521.8,63.6l1.1,-.4l-1.1,-4Z" class="g1_1" />
<path d="M521.8,63.6v0h.7Z" class="g1_1" />
<path d="M521.8,63.6v0Z" class="g1_1" />
<path d="M523.2,67.6l-.3,-4.4l-1.1,.4Z" class="g1_1" />
<path d="M523.2,67.6l1.1,-.4l-1.4,-4Z" class="g1_1" />
<path d="M523.2,67.6h.8Z" class="g1_1" />
<path d="M524.7,71.8l-.4,-4.6l-1.1,.4Z" class="g1_1" />
<path d="M524.7,71.8l.7,-.4l-1.1,-4.2Z" class="g1_1" />
<path d="M524.7,71.8h.4Z" class="g1_1" />
<path d="M525.8,75.5l-.4,-4.1l-.7,.4Z" class="g1_1" />
<path d="M525.8,75.5l1.1,-.4l-1.5,-3.7Z" class="g1_1" />
<path d="M525.8,75.5h.7Z" class="g1_1" />
<path d="M527.3,78.8l-.4,-3.7l-1.1,.4Z" class="g1_1" />
<path d="M527.3,78.8l1.1,-.4l-1.5,-3.3Z" class="g1_1" />
<path d="M527.3,78.8h.3Z" class="g1_1" />
<path d="M528.4,82.4v-4l-1.1,.4Z" class="g1_1" />
<path d="M528.4,82.4l1.1,-.3l-1.1,-3.7Z" class="g1_1" />
<path d="M528.4,82.4h.7Z" class="g1_1" />
<path d="M528.4,82.4h.7Z" class="g1_1" />
<path d="M529.8,85.7l-.3,-3.6l-1.1,.3Z" class="g1_1" />
<path d="M529.8,85.7l1.1,-.3l-1.4,-3.3Z" class="g1_1" />
<path d="M529.8,85.7h.8Z" class="g1_1" />
<path d="M531.3,88.7l-.4,-3.3l-1.1,.3Z" class="g1_1" />
<path d="M531.3,88.7l.7,-.4l-1.1,-2.9Z" class="g1_1" />
<path d="M531.3,88.7v0h.4Z" class="g1_1" />
<path d="M531.3,88.7v0Z" class="g1_1" />
<path d="M532.4,92L532,88.3l-.7,.4Z" class="g1_1" />
<path d="M532.4,92l1.1,-.8L532,88.3Z" class="g1_1" />
<path d="M532.4,92h.7Z" class="g1_1" />
<path d="M533.9,95.1l-.4,-3.9l-1.1,.8Z" class="g1_1" />
<path d="M533.9,95.1l.7,-.7l-1.1,-3.2Z" class="g1_1" />
<path d="M533.9,95.1l.3,-.4Z" class="g1_1" />
<path d="M535,97.7l-.4,-3.3l-.7,.7Z" class="g1_1" />
<path d="M535,97.7l1.2,-.4l-1.6,-2.9Z" class="g1_1" />
<path d="M535,97.7v0h.9Z" class="g1_1" />
<path d="M535,97.7v0Z" class="g1_1" />
<path d="M536.6,100.6l-.4,-3.3l-1.2,.4Z" class="g1_1" />
<path d="M536.6,100.6l1.1,-.7l-1.5,-2.6Z" class="g1_1" />
<path d="M536.6,100.6l.4,-.4Z" class="g1_1" />
<path d="M537.7,103.2V99.9l-1.1,.7Z" class="g1_1" />
<path d="M537.7,103.2l1.1,-.8l-1.1,-2.5Z" class="g1_1" />
<path d="M537.7,103.2l.7,-.4Z" class="g1_1" />
<path d="M539.2,105.7l-.4,-3.3l-1.1,.8Z" class="g1_1" />
<path d="M539.2,105.7l1.1,-.7l-1.5,-2.6Z" class="g1_1" />
<path d="M539.2,105.7l.7,-.3Z" class="g1_1" />
<path d="M540.6,107.9l-.3,-2.9l-1.1,.7Z" class="g1_1" />
<path d="M540.6,107.9l.8,-.3L540.3,105Z" class="g1_1" />
<path d="M540.6,107.9h.4Z" class="g1_1" />
<path d="M541.7,110.1l-.3,-2.5l-.8,.3Z" class="g1_1" />
<path d="M541.7,110.1l1.1,-.3l-1.4,-2.2Z" class="g1_1" />
<path d="M541.7,110.1h.8Z" class="g1_1" />
<path d="M543.2,112.3l-.4,-2.5l-1.1,.3Z" class="g1_1" />
<path d="M543.2,112.3l.7,-.3l-1.1,-2.2Z" class="g1_1" />
<path d="M543.2,112.3h.4Z" class="g1_1" />
<path d="M544.3,114.5l-.4,-2.5l-.7,.3Z" class="g1_1" />
<path d="M544.3,114.5l1.1,-.3L543.9,112Z" class="g1_1" />
<path d="M544.3,114.5h.7Z" class="g1_1" />
<path d="M545.8,116.7l-.4,-2.5l-1.1,.3Z" class="g1_1" />
<path d="M545.8,116.7l1.1,-.7l-1.5,-1.8Z" class="g1_1" />
<path d="M545.8,116.7l.7,-.3Z" class="g1_1" />
<path d="M547.3,118.7l-.8,-2.7l-.7,.7Z" class="g1_1" />
<path d="M547.3,118.7l.7,-.7l-1.5,-2Z" class="g1_1" />
<path d="M547.3,118.7v0h.3Z" class="g1_1" />
<path d="M547.3,118.7v0Z" class="g1_1" />
<path d="M547.3,118.7l.7,-.7l.4,2.6Z" class="g1_1" />
<path d="M548.4,120.6l1.1,-.8L548,118Z" class="g1_1" />
<path d="M549.1,120.6h-.7Z" class="g1_1" />
<path d="M548.4,120.6v0Z" class="g1_1" />
<path d="M548.4,120.6l1.1,-.8l.3,2.6Z" class="g1_1" />
<path d="M549.8,122.4l.8,-.7l-1.1,-1.9Z" class="g1_1" />
<path d="M549.8,122.4h.4Z" class="g1_1" />
<path d="M549.8,122.4l.8,-.7l.3,2.5Z" class="g1_1" />
<path d="M550.9,124.2l1.1,-.7l-1.4,-1.8Z" class="g1_1" />
<path d="M550.9,124.2l.8,-.3Z" class="g1_1" />
<path d="M552.4,125.7l-.4,-2.2l-1.1,.7Z" class="g1_1" />
<path d="M552.4,125.7l.7,-.4L552,123.5Z" class="g1_1" />
<path d="M552.4,125.7h.4Z" class="g1_1" />
<path d="M553.9,127.5l-.8,-2.2l-.7,.4Z" class="g1_1" />
<path d="M553.9,127.5l.7,-.7l-1.5,-1.5Z" class="g1_1" />
<path d="M553.9,127.5v0l.3,-.3Z" class="g1_1" />
<path d="M553.9,127.5v0Z" class="g1_1" />
<path d="M555,129l-.4,-2.2l-.7,.7Z" class="g1_1" />
<path d="M555,129l.9,-.7l-1.3,-1.5Z" class="g1_1" />
<path d="M555,129l.9,-.4Z" class="g1_1" />
<path d="M556.6,130.5l-.7,-2.2l-.9,.7Z" class="g1_1" />
<path d="M556.6,130.5l.7,-.8l-1.4,-1.4Z" class="g1_1" />
<path d="M556.6,130.5l.4,-.4Z" class="g1_1" />
<path d="M557.7,131.9l-.4,-2.2l-.7,.8Z" class="g1_1" />
<path d="M557.7,131.9l1.1,-.7l-1.5,-1.5Z" class="g1_1" />
<path d="M557.7,131.9l.7,-.3Z" class="g1_1" />
<path d="M559.2,133.4l-.4,-2.2l-1.1,.7Z" class="g1_1" />
<path d="M559.2,133.4l.7,-.7l-1.1,-1.5Z" class="g1_1" />
<path d="M559.2,133.4l.3,-.4Z" class="g1_1" />
<path d="M560.6,134.5l-.7,-1.8l-.7,.7Z" class="g1_1" />
<path d="M560.6,134.5l.8,-.7l-1.5,-1.1Z" class="g1_1" />
<path d="M560.6,134.5v0h.4Z" class="g1_1" />
<path d="M560.6,134.5v0Z" class="g1_1" />
<path d="M561.7,136l-.3,-2.2l-.8,.7Z" class="g1_1" />
<path d="M561.7,136l.8,-.8l-1.1,-1.4Z" class="g1_1" />
<path d="M561.7,136l.8,-.4Z" class="g1_1" />
<path d="M563.2,137.1l-.7,-1.9l-.8,.8Z" class="g1_1" />
<path d="M563.2,137.1l.7,-.8l-1.4,-1.1Z" class="g1_1" />
<path d="M563.2,137.1v0l.4,-.4Z" class="g1_1" />
<path d="M563.2,137.1v0Z" class="g1_1" />
<path d="M564.3,138.2l-.4,-1.9l-.7,.8Z" class="g1_1" />
<path d="M564.3,138.2l.7,-.8l-1.1,-1.1Z" class="g1_1" />
<path d="M564.3,138.2l.7,-.4Z" class="g1_1" />
<path d="M565.8,139.3l-.8,-1.9l-.7,.8Z" class="g1_1" />
<path d="M565.8,139.3l.7,-.8L565,137.4Z" class="g1_1" />
<path d="M565.8,139.3v0l.3,-.4Z" class="g1_1" />
<path d="M565.8,139.3v0Z" class="g1_1" />
<path d="M566.9,140.4l-.4,-1.9l-.7,.8Z" class="g1_1" />
<path d="M566.9,140.4l.7,-.8l-1.1,-1.1Z" class="g1_1" />
<path d="M567.2,140.4h-.3l.7,-.4Z" class="g1_1" />
<path d="M567.2,140.4h-.3Z" class="g1_1" />
<path d="M568.3,141.5l-.7,-1.9l-.4,.8Z" class="g1_1" />
<path d="M568.3,141.5l.8,-.8l-1.5,-1.1Z" class="g1_1" />
<path d="M568.3,141.5v0l.4,-.4Z" class="g1_1" />
<path d="M568.3,141.5v0Z" class="g1_1" />
<path d="M569.8,142.8l-.7,-2.1l-.8,.8Z" class="g1_1" />
<path d="M569.8,142.8l.7,-1.3l-1.4,-.8Z" class="g1_1" />
<path d="M569.8,142.8l.4,-.4Z" class="g1_1" />
<path d="M570.9,143.5l-.7,-2l-.4,1.3Z" class="g1_1" />
<path d="M570.9,143.5l.7,-.7l-1.4,-1.3Z" class="g1_1" />
<path d="M570.9,143.5v0l.7,-.4Z" class="g1_1" />
<path d="M570.9,143.5v0Z" class="g1_1" />
<path d="M572.4,144.6l-.8,-1.8l-.7,.7Z" class="g1_1" />
<path d="M572.4,144.6l.7,-1.1l-1.5,-.7Z" class="g1_1" />
<path d="M572.4,144.6l.3,-.4Z" class="g1_1" />
<path d="M573.5,145.3l-.4,-1.8l-.7,1.1Z" class="g1_1" />
<path d="M573.5,145.3l.7,-.7l-1.1,-1.1Z" class="g1_1" />
<path d="M573.8,145.3h-.3l.7,-.3Z" class="g1_1" />
<path d="M573.8,145.3h-.3Z" class="g1_1" />
<path d="M574.9,146.4l-.7,-1.8l-.4,.7Z" class="g1_1" />
<path d="M574.9,146.4l1,-1.1l-1.7,-.7Z" class="g1_1" />
<path d="M574.9,146.4l.4,-.3Z" class="g1_1" />
<path d="M576.6,147.2l-.7,-1.9l-1,1.1Z" class="g1_1" />
<path d="M576.6,147.2l.4,-1.1l-1.1,-.8Z" class="g1_1" />
<path d="M576.6,147.2l.4,-.4Z" class="g1_1" />
<path d="M577.7,147.9l-.7,-1.8l-.4,1.1Z" class="g1_1" />
<path d="M577.7,147.9l.7,-1.1l-1.4,-.7Z" class="g1_1" />
<path d="M577.7,147.9l.4,-.4Z" class="g1_1" />
<path d="M579.2,148.6l-.8,-1.8l-.7,1.1Z" class="g1_1" />
<path d="M579.2,148.6l.3,-1.1l-1.1,-.7Z" class="g1_1" />
<path d="M579.2,148.6l.3,-.3Z" class="g1_1" />
<path d="M580.3,149.4l-.8,-1.9l-.3,1.1Z" class="g1_1" />
<path d="M580.3,149.4l.7,-1.1l-1.5,-.8Z" class="g1_1" />
<path d="M580.6,149.4h-.3l.7,-.4Z" class="g1_1" />
<path d="M580.6,149.4h-.3Z" class="g1_1" />
<path d="M581.7,150.1l-.7,-1.8l-.4,1.1Z" class="g1_1" />
<path d="M581.7,150.1l.4,-1.1l-1.1,-.7Z" class="g1_1" />
<path d="M581.7,150.1l.4,-.4Z" class="g1_1" />
<path d="M583.2,150.8L582.1,149l-.4,1.1Z" class="g1_1" />
<path d="M583.2,150.8l.4,-1.1l-1.5,-.7Z" class="g1_1" />
<path d="M583.2,150.8v0l.4,-.3Z" class="g1_1" />
<path d="M583.2,150.8v0Z" class="g1_1" />
<path d="M584.3,151.2l-.7,-1.5l-.4,1.1Z" class="g1_1" />
<path d="M584.3,151.2l.7,-.7l-1.4,-.8Z" class="g1_1" />
<path d="M584.3,151.2l.4,-.4Z" class="g1_1" />
<path d="M585.8,151.9l-.8,-1.4l-.7,.7Z" class="g1_1" />
<path d="M585.8,151.9l.3,-1.1l-1.1,-.3Z" class="g1_1" />
<path d="M585.8,151.9l.3,-.3Z" class="g1_1" />
<path d="M586.9,152.7l-.8,-1.9l-.3,1.1Z" class="g1_1" />
<path d="M586.9,152.7l.7,-1.1l-1.5,-.8Z" class="g1_1" />
<path d="M586.9,152.7v0l.7,-.4Z" class="g1_1" />
<path d="M586.9,152.7v0Z" class="g1_1" />
<path d="M588.3,153l-.7,-1.4l-.7,1.1Z" class="g1_1" />
<path d="M588.3,153l.4,-1.1l-1.1,-.3Z" class="g1_1" />
<path d="M588.3,153v0l.4,-.3Z" class="g1_1" />
<path d="M588.3,153v0Z" class="g1_1" />
<path d="M589.8,153.8l-1.1,-1.9l-.4,1.1Z" class="g1_1" />
<path d="M589.8,153.8l.4,-1.1l-1.5,-.8Z" class="g1_1" />
<path d="M589.8,153.8l.4,-.4Z" class="g1_1" />
<path d="M590.9,154.1l-.7,-1.4l-.4,1.1Z" class="g1_1" />
<path d="M590.9,154.1l.3,-1.1l-1,-.3Z" class="g1_1" />
<path d="M590.9,154.1l.3,-.3Z" class="g1_1" />
<path d="M592.3,154.9L591.2,153l-.3,1.1Z" class="g1_1" />
<path d="M592.3,154.9l.4,-1.1l-1.5,-.8Z" class="g1_1" />
<path d="M592.3,154.9l.4,-.8Z" class="g1_1" />
<path d="M593.4,155.2l-.7,-1.4l-.4,1.1Z" class="g1_1" />
<path d="M593.4,155.2l.4,-1.1l-1.1,-.3Z" class="g1_1" />
<path d="M593.4,155.2v0l.4,-.3Z" class="g1_1" />
<path d="M593.4,155.2v0Z" class="g1_1" />
<path d="M594.9,155.6l-1.1,-1.5l-.4,1.1Z" class="g1_1" />
<path d="M594.9,155.6l.4,-1.1l-1.5,-.4Z" class="g1_1" />
<path d="M594.9,155.6l.4,-.4Z" class="g1_1" />
<path d="M596.6,156l-1.3,-1.5l-.4,1.1Z" class="g1_1" />
<path d="M596.6,156l.3,-1.1l-1.6,-.4Z" class="g1_1" />
<path d="M596.6,156l.3,-.4Z" class="g1_1" />
<path d="M597.7,156.7l-.8,-1.8l-.3,1.1Z" class="g1_1" />
<path d="M597.7,156.7l.3,-1.1l-1.1,-.7Z" class="g1_1" />
<path d="M597.7,156.7l.3,-.7Z" class="g1_1" />
<path d="M599.1,157.1L598,155.6l-.3,1.1Z" class="g1_1" />
<path d="M599.1,157.1l.4,-1.1l-1.5,-.4Z" class="g1_1" />
<path d="M599.1,157.1l.4,-.8Z" class="g1_1" />
<path d="M600.2,157.4l-.7,-1.4l-.4,1.1Z" class="g1_1" />
<path d="M600.2,157.4l.4,-1.1l-1.1,-.3Z" class="g1_1" />
<path d="M600.2,157.4v0l.4,-.7Z" class="g1_1" />
<path d="M600.2,157.4v0Z" class="g1_1" />
<path d="M601.7,157.8l-1.1,-1.5l-.4,1.1Z" class="g1_1" />
<path d="M601.7,157.8l.4,-1.1l-1.5,-.4Z" class="g1_1" />
<path d="M601.7,157.8l.4,-.7Z" class="g1_1" />
<path d="M603.2,158.2l-1.1,-1.5l-.4,1.1Z" class="g1_1" />
<path d="M603.2,158.2v-1.1l-1.1,-.4Z" class="g1_1" />
<path d="M603.2,158.2v-.8Z" class="g1_1" />
<path d="M604.3,158.5l-1.1,-1.4v1.1Z" class="g1_1" />
<path d="M604.3,158.5l.3,-1.1l-1.4,-.3Z" class="g1_1" />
<path d="M604.3,158.5l.3,-.7Z" class="g1_1" />
<path d="M605.7,158.9l-1.1,-1.5l-.3,1.1Z" class="g1_1" />
<path d="M605.7,158.9l.4,-1.1l-1.5,-.4Z" class="g1_1" />
<path d="M605.7,158.9l.4,-.7Z" class="g1_1" />
<path d="M606.8,159.3l-1.1,-1.5v1.1Z" class="g1_1" />
<path d="M606.8,159.3l.4,-1.1l-1.5,-.4Z" class="g1_1" />
<path d="M606.8,159.3l.4,-.8Z" class="g1_1" />
<path d="M608.3,159.3l-1.1,-1.1l-.4,1.1Z" class="g1_1" />
<path d="M608.3,159.3l.4,-1.1h-1.5Z" class="g1_1" />
<path d="M608.3,159.3l.4,-.4Z" class="g1_1" />
<path d="M609.8,159.6l-1.1,-1.4l-.4,1.1Z" class="g1_1" />
<path d="M609.8,159.6v-1.1l-1.1,-.3Z" class="g1_1" />
<path d="M609.8,159.6v0v-.3Z" class="g1_1" />
<path d="M609.8,159.6v0Z" class="g1_1" />
<path d="M610.9,160l-1.1,-1.5v1.1Z" class="g1_1" />
<path d="M610.9,160l.3,-1.1l-1.4,-.4Z" class="g1_1" />
<path d="M610.9,160v0l.3,-.4Z" class="g1_1" />
<path d="M610.9,160v0l.3,-.4Z" class="g1_1" />
<path d="M612.3,160.4l-1.1,-1.5l-.3,1.1Z" class="g1_1" />
<path d="M612.3,160.4v-1.1l-1.1,-.4Z" class="g1_1" />
<path d="M612.3,160.4v-.8Z" class="g1_1" />
<path d="M612.3,160.4v-.8Z" class="g1_1" />
<path d="M613.4,160.4l-1.1,-1.1v1.1Z" class="g1_1" />
<path d="M613.4,160.4l.4,-1.1h-1.5Z" class="g1_1" />
<path d="M613.4,160.4l.4,-.4Z" class="g1_1" />
<path d="M614.9,160.7l-1.1,-1.4l-.4,1.1Z" class="g1_1" />
<path d="M614.9,160.7v-1.1l-1.1,-.3Z" class="g1_1" />
<path d="M614.9,160.7l.4,-.3Z" class="g1_1" />
<path d="M616.2,161.1l-1.3,-1.5v1.1Z" class="g1_1" />
<path d="M616.2,161.1l.4,-1.1l-1.7,-.4Z" class="g1_1" />
<path d="M616.2,161.1l.4,-.7Z" class="g1_1" />
<path d="M616.2,161.1l.4,-.7Z" class="g1_1" />
<path d="M617.7,161.1L616.6,160l-.4,1.1Z" class="g1_1" />
<path d="M617.7,161.1L618,160h-1.4Z" class="g1_1" />
<path d="M617.7,161.1l.3,-.4Z" class="g1_1" />
<path d="M617.7,161.1l.3,-.4Z" class="g1_1" />
<path d="M619.1,161.5L618,160l-.3,1.1Z" class="g1_1" />
<path d="M619.1,161.5v-1.1L618,160Z" class="g1_1" />
<path d="M619.1,161.5v-.4Z" class="g1_1" />
<path d="M620.2,161.8l-1.1,-1.4v1.1Z" class="g1_1" />
<path d="M620.2,161.8l.4,-1.1l-1.5,-.3Z" class="g1_1" />
<path d="M620.2,161.8v0l.4,-.7Z" class="g1_1" />
<path d="M620.2,161.8v0l.4,-.7Z" class="g1_1" />
<path d="M621.7,161.8l-1.1,-1.1l-.4,1.1Z" class="g1_1" />
<path d="M621.7,161.8v-1.1h-1.1Z" class="g1_1" />
<path d="M621.7,161.8v0l.3,-.3Z" class="g1_1" />
<path d="M621.7,161.8v0Z" class="g1_1" />
<path d="M622.8,162.2l-1.1,-1.5v1.1Z" class="g1_1" />
<path d="M622.8,162.2l.3,-1.1l-1.4,-.4Z" class="g1_1" />
<path d="M622.8,162.2v0l.3,-.7Z" class="g1_1" />
<path d="M622.8,162.2v0Z" class="g1_1" />
<path d="M624.2,162.2l-1.1,-1.1l-.3,1.1Z" class="g1_1" />
<path d="M624.2,162.2v-1.1h-1.1Z" class="g1_1" />
<path d="M624.2,162.2v0l.4,-.4Z" class="g1_1" />
<path d="M624.2,162.2v0l.4,-.4Z" class="g1_1" />
<path d="M625.7,162.6l-1.5,-1.5v1.1Z" class="g1_1" />
<path d="M625.7,162.6v-1.1l-1.5,-.4Z" class="g1_1" />
<path d="M625.7,162.6v-.8Z" class="g1_1" />
<path d="M625.7,162.6v-.8Z" class="g1_1" />
<path d="M626.8,162.6l-1.1,-1.1v1.1Z" class="g1_1" />
<path d="M626.8,162.6l.4,-1.1h-1.5Z" class="g1_1" />
<path d="M626.8,162.6l.4,-.4Z" class="g1_1" />
<path d="M626.8,162.6l.4,-.4Z" class="g1_1" />
<path d="M628.3,162.9l-1.1,-1.4l-.4,1.1Z" class="g1_1" />
<path d="M628.3,162.9v-1.1l-1.1,-.3Z" class="g1_1" />
<path d="M628.3,162.9v-.7Z" class="g1_1" />
<path d="M629.4,162.9l-1.1,-1.1v1.1Z" class="g1_1" />
<path d="M629.4,162.9l.4,-1.1h-1.5Z" class="g1_1" />
<path d="M629.4,162.9l.4,-.3Z" class="g1_1" />
<path d="M630.9,163.3l-1.1,-1.5l-.4,1.1Z" class="g1_1" />
<path d="M630.9,163.3v-1.1l-1.1,-.4Z" class="g1_1" />
<path d="M630.9,163.3l.3,-.7Z" class="g1_1" />
<path d="M632,163.3l-1.1,-1.1v1.1Z" class="g1_1" />
<path d="M632,163.3l.3,-1.1h-1.4Z" class="g1_1" />
<path d="M632,163.3l.3,-.4Z" class="g1_1" />
<path d="M632,163.3l.3,-.4Z" class="g1_1" />
<path d="M633.4,163.3l-1.1,-1.1l-.3,1.1Z" class="g1_1" />
<path d="M633.4,163.3v-1.1h-1.1Z" class="g1_1" />
<path d="M633.4,163.3l.4,-.4Z" class="g1_1" />
<path d="M633.4,163.3l.4,-.4Z" class="g1_1" />
<path d="M634.9,163.7l-1.5,-1.5v1.1Z" class="g1_1" />
<path d="M634.9,163.7v-1.1l-1.5,-.4Z" class="g1_1" />
<path d="M634.9,163.7v-.8Z" class="g1_1" />
<path d="M634.9,163.7v-.8Z" class="g1_1" />
<path d="M636.2,163.7l-1.3,-1.1v1.1Z" class="g1_1" />
<path d="M636.2,163.7l.3,-1.1h-1.6Z" class="g1_1" />
<path d="M636.2,163.7l.3,-.4Z" class="g1_1" />
<path d="M636.2,163.7l.3,-.4Z" class="g1_1" />
<path d="M637.6,164l-1.1,-1.4l-.3,1.1Z" class="g1_1" />
<path d="M637.6,164v-1.1l-1.1,-.3Z" class="g1_1" />
<path d="M637.6,164v-.7Z" class="g1_1" />
<path d="M638.7,164l-1.1,-1.1V164Z" class="g1_1" />
<path d="M638.7,164l.4,-1.1h-1.5Z" class="g1_1" />
<path d="M638.7,164l.4,-.7Z" class="g1_1" />
<path d="M638.7,164l.4,-.7Z" class="g1_1" />
<path d="M640.2,164l-1.1,-1.1l-.4,1.1Z" class="g1_1" />
<path d="M640.2,164v-1.1h-1.1Z" class="g1_1" />
<path d="M640.2,164l.4,-.3Z" class="g1_1" />
<path d="M640.2,164l.4,-.3Z" class="g1_1" />
<path d="M641.7,164l-1.5,-1.1V164Z" class="g1_1" />
<path d="M641.7,164v-1.1h-1.5Z" class="g1_1" />
<path d="M641.7,164v-.3Z" class="g1_1" />
<path d="M642.8,164.4l-1.1,-1.5V164Z" class="g1_1" />
<path d="M642.8,164.4v-1.1l-1.1,-.4Z" class="g1_1" />
<path d="M642.8,164.4v0l.3,-.7Z" class="g1_1" />
<path d="M642.8,164.4v0Z" class="g1_1" />
<path d="M644.2,164.4l-1.4,-1.1v1.1Z" class="g1_1" />
<path d="M644.2,164.4v-1.1h-1.4Z" class="g1_1" />
<path d="M644.2,164.4v0V164Z" class="g1_1" />
<path d="M644.2,164.4v0Z" class="g1_1" />
<path d="M645.3,164.4l-1.1,-1.1v1.1Z" class="g1_1" />
<path d="M645.3,164.4l.4,-1.1h-1.5Z" class="g1_1" />
<path d="M645.3,164.4v0l.4,-.4Z" class="g1_1" />
<path d="M645.3,164.4v0l.4,-.4Z" class="g1_1" />
<path d="M646.8,164.8l-1.1,-1.5l-.4,1.1Z" class="g1_1" />
<path d="M646.8,164.8v-1.1l-1.1,-.4Z" class="g1_1" />
<path d="M646.8,164.8V164Z" class="g1_1" />
<path d="M647.9,164.8l-1.1,-1.1v1.1Z" class="g1_1" />
<path d="M647.9,164.8l.4,-1.1h-1.5Z" class="g1_1" />
<path d="M647.9,164.8l.4,-.8Z" class="g1_1" />
<path d="M649.4,164.8l-1.1,-1.1l-.4,1.1Z" class="g1_1" />
<path d="M649.4,164.8v-1.1h-1.1Z" class="g1_1" />
<path d="M649.4,164.8l.3,-.4Z" class="g1_1" />
<path d="M650.8,164.8l-1.4,-1.1v1.1Z" class="g1_1" />
<path d="M650.8,164.8v-1.1h-1.4Z" class="g1_1" />
<path d="M650.8,164.8v-.4Z" class="g1_1" />
<path d="M650.8,164.8v-.4Z" class="g1_1" />
<path d="M651.9,165.1l-1.1,-1.4v1.1Z" class="g1_1" />
<path d="M651.9,165.1V164l-1.1,-.3Z" class="g1_1" />
<path d="M521.8,160l-2.6,4l1.1,.4Z" class="g1_1" />
<path d="M521.8,160l-1.1,-.4l-1.5,4.4Z" class="g1_1" />
<path d="M520.7,159.6v0h.3Z" class="g1_1" />
<path d="M520.7,159.6v0Z" class="g1_1" />
<path d="M522.9,156l-2.2,3.6l1.1,.4Z" class="g1_1" />
<path d="M522.9,156l-1.1,-.4l-1.1,4Z" class="g1_1" />
<path d="M521.8,155.6h.7Z" class="g1_1" />
<path d="M524.3,151.9l-2.5,3.7l1.1,.4Z" class="g1_1" />
<path d="M524.3,151.9l-1.1,-.3l-1.4,4Z" class="g1_1" />
<path d="M523.2,151.6h.8Z" class="g1_1" />
<path d="M525.4,147.9l-2.2,3.7l1.1,.3Z" class="g1_1" />
<path d="M525.4,147.9l-.7,-.4l-1.5,4.1Z" class="g1_1" />
<path d="M524.7,147.5h.4Z" class="g1_1" />
<path d="M526.9,144.2l-2.2,3.3l.7,.4Z" class="g1_1" />
<path d="M524.7,147.5l1.1,-3.6l1.1,.3Z" class="g1_1" />
<path d="M526.5,143.9h-.7Z" class="g1_1" />
<path d="M525.8,143.9v0Z" class="g1_1" />
<path d="M528.4,140.7l-2.6,3.2l1.1,.3Z" class="g1_1" />
<path d="M528.4,140.7l-1.1,-.3l-1.5,3.5Z" class="g1_1" />
<path d="M527.6,140.4h-.3Z" class="g1_1" />
<path d="M528.4,140.7l-1.1,-.3l2.2,-3.3Z" class="g1_1" />
<path d="M529.5,137.1l-1.1,-.4l-1.1,3.7Z" class="g1_1" />
<path d="M528.4,136.7h.7h-.7Z" class="g1_1" />
<path d="M528.4,136.7h.7h-.7Z" class="g1_1" />
<path d="M530.9,133.8l-2.5,2.9l1.1,.4Z" class="g1_1" />
<path d="M530.9,133.8l-1.1,-.4l-1.4,3.3Z" class="g1_1" />
<path d="M529.8,133.4h.8Z" class="g1_1" />
<path d="M532,130.8l-2.2,2.6l1.1,.4Z" class="g1_1" />
<path d="M532,130.8l-.7,-.3l-1.5,2.9Z" class="g1_1" />
<path d="M531.3,130.5h.4Z" class="g1_1" />
<path d="M533.5,127.5l-2.2,3l.7,.3Z" class="g1_1" />
<path d="M533.5,127.5l-1.1,-.3l-1.1,3.3Z" class="g1_1" />
<path d="M532.4,127.2h.7Z" class="g1_1" />
<path d="M534.6,125l-2.2,2.2l1.1,.7Z" class="g1_1" />
<path d="M534.6,125l-.7,-.8l-1.5,3Z" class="g1_1" />
<path d="M533.9,124.2l.3,.4Z" class="g1_1" />
<path d="M536.2,122l-2.3,2.2l.7,.8Z" class="g1_1" />
<path d="M536.2,122l-1.2,-.3l-1.1,2.5Z" class="g1_1" />
<path d="M535,121.7h.9Z" class="g1_1" />
<path d="M537.7,119.5l-2.7,2.2l1.2,.3Z" class="g1_1" />
<path d="M537.7,119.5l-1.1,-.8l-1.6,3Z" class="g1_1" />
<path d="M536.6,118.7v0l.4,.4Z" class="g1_1" />
<path d="M536.6,118.7v0Z" class="g1_1" />
<path d="M538.8,116.7l-2.2,2l1.1,.8Z" class="g1_1" />
<path d="M538.8,116.7l-1.1,-.7l-1.1,2.7Z" class="g1_1" />
<path d="M537.7,116v0l.7,.4Z" class="g1_1" />
<path d="M537.7,116v0Z" class="g1_1" />
<path d="M540.3,114.2l-2.6,1.8l1.1,.7Z" class="g1_1" />
<path d="M540.3,114.2l-1.1,-.8l-1.5,2.6Z" class="g1_1" />
<path d="M539.2,113.4l.7,.4Z" class="g1_1" />
<path d="M541.4,111.6l-2.2,1.8l1.1,.8Z" class="g1_1" />
<path d="M541.4,111.6l-.8,-.4l-1.4,2.2Z" class="g1_1" />
<path d="M540.6,111.2h.4Z" class="g1_1" />
<path d="M542.8,109.4l-2.2,1.8l.8,.4Z" class="g1_1" />
<path d="M542.8,109.4l-1.1,-.4l-1.1,2.2Z" class="g1_1" />
<path d="M541.7,109v0h.8Z" class="g1_1" />
<path d="M541.7,109v0Z" class="g1_1" />
<path d="M543.9,107.2l-2.2,1.8l1.1,.4Z" class="g1_1" />
<path d="M543.9,107.2l-.7,-.4l-1.5,2.2Z" class="g1_1" />
<path d="M543.2,106.8v0h.4Z" class="g1_1" />
<path d="M543.2,106.8v0Z" class="g1_1" />
<path d="M545.4,105l-2.2,1.8l.7,.4Z" class="g1_1" />
<path d="M545.4,105l-1.1,-.4l-1.1,2.2Z" class="g1_1" />
<path d="M544.3,104.6v0h.7Z" class="g1_1" />
<path d="M544.3,104.6v0Z" class="g1_1" />
<path d="M546.9,103.2l-2.6,1.4l1.1,.4Z" class="g1_1" />
<path d="M546.9,103.2l-1.1,-.8l-1.5,2.2Z" class="g1_1" />
<path d="M545.8,102.4v0l.7,.4Z" class="g1_1" />
<path d="M545.8,102.4v0Z" class="g1_1" />
<path d="M548,101.3l-2.2,1.1l.7,.8Z" class="g1_1" />
<path d="M548,101.3l-.7,-.7l-1.5,1.8Z" class="g1_1" />
<path d="M547.3,100.6h.3Z" class="g1_1" />
<path d="M549.5,99.5l-2.2,1.1l.7,.7Z" class="g1_1" />
<path d="M549.5,99.5l-1.1,-.7l-1.1,1.8Z" class="g1_1" />
<path d="M548.4,98.8h.7Z" class="g1_1" />
<path d="M550.6,97.7l-2.2,1.1l1.1,.7Z" class="g1_1" />
<path d="M550.6,97.7l-.8,-.8l-1.4,1.9Z" class="g1_1" />
<path d="M549.8,96.9h.4Z" class="g1_1" />
<path d="M552,95.8l-2.2,1.1l.8,.8Z" class="g1_1" />
<path d="M552,95.8l-1.1,-.7l-1.1,1.8Z" class="g1_1" />
<path d="M550.9,95.1l.8,.4Z" class="g1_1" />
<path d="M553.1,94l-2.2,1.1l1.1,.7Z" class="g1_1" />
<path d="M553.1,94l-.7,-.4l-1.5,1.5Z" class="g1_1" />
<path d="M552.4,93.6h.4Z" class="g1_1" />
<path d="M554.6,92.3l-2.2,1.3l.7,.4Z" class="g1_1" />
<path d="M554.6,92.3l-.7,-.7l-1.5,2Z" class="g1_1" />
<path d="M553.9,91.6l.3,.4Z" class="g1_1" />
<path d="M555.9,90.9l-2,.7l.7,.7Z" class="g1_1" />
<path d="M555.9,90.9l-.9,-.8l-1.1,1.5Z" class="g1_1" />
<path d="M555,90.1l.9,.4Z" class="g1_1" />
<path d="M557.3,89.4l-2.3,.7l.9,.8Z" class="g1_1" />
<path d="M557.3,89.4l-.7,-.7L555,90.1Z" class="g1_1" />
<path d="M556.6,88.7v0l.4,.3Z" class="g1_1" />
<path d="M556.6,88.7v0Z" class="g1_1" />
<path d="M558.8,87.9l-2.2,.8l.7,.7Z" class="g1_1" />
<path d="M558.8,87.9l-1.1,-.7l-1.1,1.5Z" class="g1_1" />
<path d="M557.7,87.2l.7,.4Z" class="g1_1" />
<path d="M559.9,86.5l-2.2,.7l1.1,.7Z" class="g1_1" />
<path d="M559.9,86.5l-.7,-.8l-1.5,1.5Z" class="g1_1" />
<path d="M559.2,85.7l.3,.4Z" class="g1_1" />
<path d="M561.4,85.4l-2.2,.3l.7,.8Z" class="g1_1" />
<path d="M561.4,85.4l-.8,-.8l-1.4,1.1Z" class="g1_1" />
<path d="M560.6,84.6h.4Z" class="g1_1" />
<path d="M562.5,83.9l-1.9,.7l.8,.8Z" class="g1_1" />
<path d="M562.5,83.9l-.8,-.7l-1.1,1.4Z" class="g1_1" />
<path d="M561.7,83.2l.8,.3Z" class="g1_1" />
<path d="M563.9,82.8l-2.2,.4l.8,.7Z" class="g1_1" />
<path d="M563.9,82.8l-.7,-.7l-1.5,1.1Z" class="g1_1" />
<path d="M563.2,82.1v0l.4,.3Z" class="g1_1" />
<path d="M563.2,82.1v0Z" class="g1_1" />
<path d="M565,81.7l-1.8,.4l.7,.7Z" class="g1_1" />
<path d="M565,81.7l-.7,-.7l-1.1,1.1Z" class="g1_1" />
<path d="M564.3,81l.7,.3Z" class="g1_1" />
<path d="M566.5,80.6l-2.2,.4l.7,.7Z" class="g1_1" />
<path d="M566.5,80.6l-.7,-.7L564.3,81Z" class="g1_1" />
<path d="M565.8,79.9l.3,.3Z" class="g1_1" />
<path d="M567.6,79.5l-1.8,.4l.7,.7Z" class="g1_1" />
<path d="M567.6,79.5l-.7,-.7l-1.1,1.1Z" class="g1_1" />
<path d="M567.2,78.8h-.3l.7,.3Z" class="g1_1" />
<path d="M567.2,78.8h-.3Z" class="g1_1" />
<path d="M569.1,78.4l-1.9,.4l.4,.7Z" class="g1_1" />
<path d="M569.1,78.4l-.8,-.7l-1.1,1.1Z" class="g1_1" />
<path d="M568.3,77.7l.4,.3Z" class="g1_1" />
<path d="M570.5,77.7h-2.2l.8,.7Z" class="g1_1" />
<path d="M570.5,77.7l-.7,-1.1l-1.5,1.1Z" class="g1_1" />
<path d="M569.8,76.6l.4,.3Z" class="g1_1" />
<path d="M571.6,76.6h-1.8l.4,1.1Z" class="g1_1" />
<path d="M571.6,76.6l-.7,-.8l-1.1,.8Z" class="g1_1" />
<path d="M570.9,75.8l.7,.4Z" class="g1_1" />
<path d="M573.1,75.8h-2.2l.7,.8Z" class="g1_1" />
<path d="M573.1,75.8l-.7,-1.1l-1.5,1.1Z" class="g1_1" />
<path d="M572.4,74.7v0l.3,.4Z" class="g1_1" />
<path d="M572.4,74.7v0Z" class="g1_1" />
<path d="M574.2,74.7h-1.8l.7,1.1Z" class="g1_1" />
<path d="M574.2,74.7l-.7,-.7l-1.1,.7Z" class="g1_1" />
<path d="M573.8,74h-.3l.7,.4Z" class="g1_1" />
<path d="M573.8,74h-.3Z" class="g1_1" />
<path d="M575.9,74h-2.1l.4,.7Z" class="g1_1" />
<path d="M575.9,74l-1,-1.1L573.8,74Z" class="g1_1" />
<path d="M574.9,72.9v0l.4,.4Z" class="g1_1" />
<path d="M574.9,72.9v0Z" class="g1_1" />
<path d="M577,73.3l-2.1,-.4l1,1.1Z" class="g1_1" />
<path d="M577,73.3l-.4,-1.1l-1.7,.7Z" class="g1_1" />
<path d="M576.6,72.2l.4,.3Z" class="g1_1" />
<path d="M578.4,72.5l-1.8,-.3l.4,1.1Z" class="g1_1" />
<path d="M578.4,72.5l-.7,-1.1l-1.1,.8Z" class="g1_1" />
<path d="M577.7,71.4l.4,.4Z" class="g1_1" />
<path d="M579.5,71.8l-1.8,-.4l.7,1.1Z" class="g1_1" />
<path d="M579.5,71.8l-.3,-1.1l-1.5,.7Z" class="g1_1" />
<path d="M579.2,70.7l.3,.4Z" class="g1_1" />
<path d="M581,71.1l-1.8,-.4l.3,1.1Z" class="g1_1" />
<path d="M581,71.1L580.3,70l-1.1,.7Z" class="g1_1" />
<path d="M580.6,70h-.3l.7,.3Z" class="g1_1" />
<path d="M580.6,70h-.3Z" class="g1_1" />
<path d="M582.1,70.3L580.6,70l.4,1.1Z" class="g1_1" />
<path d="M582.1,70.3l-.4,-1.1l-1.1,.8Z" class="g1_1" />
<path d="M581.7,69.2l.4,.4Z" class="g1_1" />
<path d="M583.6,69.6l-1.9,-.4l.4,1.1Z" class="g1_1" />
<path d="M583.6,69.6l-.4,-1.3l-1.5,.9Z" class="g1_1" />
<path d="M583.2,68.3v0l.4,.6Z" class="g1_1" />
<path d="M583.2,68.3v0Z" class="g1_1" />
<path d="M585,68.9l-1.8,-.6l.4,1.3Z" class="g1_1" />
<path d="M585,68.9l-.7,-.9l-1.1,.3Z" class="g1_1" />
<path d="M584.3,68v0l.4,.3Z" class="g1_1" />
<path d="M584.3,68v0Z" class="g1_1" />
<path d="M586.1,68.3L584.3,68l.7,.9Z" class="g1_1" />
<path d="M586.1,68.3l-.3,-1.1l-1.5,.8Z" class="g1_1" />
<path d="M585.8,67.2l.3,.4l-.3,-.4Z" class="g1_1" />
<path d="M585.8,67.2l.3,.4l-.3,-.4Z" class="g1_1" />
<path d="M587.6,67.6l-1.8,-.4l.3,1.1Z" class="g1_1" />
<path d="M587.6,67.6l-.7,-1.1l-1.1,.7Z" class="g1_1" />
<path d="M586.9,66.5l.7,.4Z" class="g1_1" />
<path d="M588.7,67.2l-1.8,-.7l.7,1.1Z" class="g1_1" />
<path d="M588.7,67.2l-.4,-1.1l-1.4,.4Z" class="g1_1" />
<path d="M588.3,66.1l.4,.4Z" class="g1_1" />
<path d="M590.2,66.5l-1.9,-.4l.4,1.1Z" class="g1_1" />
<path d="M590.2,66.5l-.4,-1.1l-1.5,.7Z" class="g1_1" />
<path d="M589.8,65.4l.4,.4Z" class="g1_1" />
<path d="M591.2,66.1l-1.4,-.7l.4,1.1Z" class="g1_1" />
<path d="M591.2,66.1L590.9,65l-1.1,.4Z" class="g1_1" />
<path d="M590.9,65l.3,.4l-.3,-.4Z" class="g1_1" />
<path d="M590.9,65l.3,.4l-.3,-.4Z" class="g1_1" />
<path d="M592.7,65.4L590.9,65l.3,1.1Z" class="g1_1" />
<path d="M592.7,65.4l-.4,-1.1l-1.4,.7Z" class="g1_1" />
<path d="M592.3,64.3l.4,.7Z" class="g1_1" />
<path d="M593.8,65l-1.5,-.7l.4,1.1Z" class="g1_1" />
<path d="M593.8,65l-.4,-1.1l-1.1,.4Z" class="g1_1" />
<path d="M593.4,63.9l.4,.4l-.4,-.4Z" class="g1_1" />
<path d="M593.4,63.9l.4,.4l-.4,-.4Z" class="g1_1" />
<path d="M595.3,64.7l-1.9,-.8l.4,1.1Z" class="g1_1" />
<path d="M595.3,64.7l-.4,-1.1l-1.5,.3Z" class="g1_1" />
<path d="M594.9,63.6v0l.4,.3Z" class="g1_1" />
<path d="M594.9,63.6v0Z" class="g1_1" />
<path d="M596.9,63.9l-2,-.3l.4,1.1Z" class="g1_1" />
<path d="M596.9,63.9l-.3,-.7l-1.7,.4Z" class="g1_1" />
<path d="M596.6,63.2v0l.3,.4Z" class="g1_1" />
<path d="M596.6,63.2v0Z" class="g1_1" />
<path d="M598,63.6l-1.4,-.4l.3,1.1Z" class="g1_1" />
<path d="M598,63.6l-.3,-1.1l-1.1,.7Z" class="g1_1" />
<path d="M597.7,62.5l.3,.7l-.3,-.7Z" class="g1_1" />
<path d="M597.7,62.5l.3,.7l-.3,-.7Z" class="g1_1" />
<path d="M599.5,63.2l-1.8,-.7l.3,1.1Z" class="g1_1" />
<path d="M599.5,63.2l-.4,-1.1l-1.4,.4Z" class="g1_1" />
<path d="M599.1,62.1l.4,.7l-.4,-.7Z" class="g1_1" />
<path d="M599.1,62.1l.4,.7l-.4,-.7Z" class="g1_1" />
<path d="M600.6,62.8l-1.5,-.7l.4,1.1Z" class="g1_1" />
<path d="M600.6,62.8l-.4,-1.1l-1.1,.4Z" class="g1_1" />
<path d="M600.2,61.7l.4,.8Z" class="g1_1" />
<path d="M602.1,62.5l-1.9,-.8l.4,1.1Z" class="g1_1" />
<path d="M602.1,62.5l-.4,-1.1l-1.5,.3Z" class="g1_1" />
<path d="M601.7,61.4v0l.4,.7Z" class="g1_1" />
<path d="M601.7,61.4v0Z" class="g1_1" />
<path d="M603.2,62.1l-1.5,-.7l.4,1.1Z" class="g1_1" />
<path d="M603.2,62.1V61l-1.5,.4Z" class="g1_1" />
<path d="M603.2,61v.7V61Z" class="g1_1" />
<path d="M603.2,61v.7V61Z" class="g1_1" />
<path d="M604.6,61.7L603.2,61v1.1Z" class="g1_1" />
<path d="M604.6,61.7l-.3,-1.1l-1.1,.4Z" class="g1_1" />
<path d="M604.3,60.6l.3,.8Z" class="g1_1" />
<path d="M606.1,61.4l-1.8,-.8l.3,1.1Z" class="g1_1" />
<path d="M604.3,60.6l1.4,-.3l.4,1.1Z" class="g1_1" />
<path d="M605.7,60.3l.4,.7l-.4,-.7Z" class="g1_1" />
<path d="M605.7,60.3l.4,.7l-.4,-.7Z" class="g1_1" />
<path d="M607.2,61l-1.5,-.7v1.1Z" class="g1_1" />
<path d="M605.7,60.3l1.1,-.4l.4,1.1Z" class="g1_1" />
<path d="M606.8,59.9l.4,.7l-.4,-.7Z" class="g1_1" />
<path d="M606.8,59.9l.4,.7l-.4,-.7Z" class="g1_1" />
<path d="M608.7,61l-1.9,-1.1l.4,1.1Z" class="g1_1" />
<path d="M606.8,59.9h1.5l.4,1.1Z" class="g1_1" />
<path d="M608.3,59.9l.4,.4Z" class="g1_1" />
<path d="M609.8,60.6l-1.5,-.7l.4,1.1Z" class="g1_1" />
<path d="M608.3,59.9l1.5,-.4v1.1Z" class="g1_1" />
<path d="M609.8,59.5v.4v-.4Z" class="g1_1" />
<path d="M609.8,59.5v.4v-.4Z" class="g1_1" />
<path d="M611.2,60.3l-1.4,-.8v1.1Z" class="g1_1" />
<path d="M609.8,59.5l1.1,-.3l.3,1.1Z" class="g1_1" />
<path d="M610.9,59.2v0l.3,.3Z" class="g1_1" />
<path d="M610.9,59.2v0Z" class="g1_1" />
<path d="M612.3,59.9l-1.4,-.7l.3,1.1Z" class="g1_1" />
<path d="M610.9,59.2l1.4,-.4v1.1Z" class="g1_1" />
<path d="M612.3,58.8v.7v-.7Z" class="g1_1" />
<path d="M612.3,58.8v.7v-.7Z" class="g1_1" />
<path d="M613.8,59.9l-1.5,-1.1v1.1Z" class="g1_1" />
<path d="M612.3,58.8h1.1l.4,1.1Z" class="g1_1" />
<path d="M613.4,58.8v0l.4,.4Z" class="g1_1" />
<path d="M613.4,58.8v0Z" class="g1_1" />
<path d="M614.9,59.5l-1.5,-.7l.4,1.1Z" class="g1_1" />
<path d="M613.4,58.8l1.5,-.4v1.1Z" class="g1_1" />
<path d="M614.9,58.4l.4,.4Z" class="g1_1" />
<path d="M616.6,59.2l-1.7,-.8v1.1Z" class="g1_1" />
<path d="M614.9,58.4l1.3,-.3l.4,1.1Z" class="g1_1" />
<path d="M616.2,58.1l.4,.7Z" class="g1_1" />
<path d="M618,59.2l-1.8,-1.1l.4,1.1Z" class="g1_1" />
<path d="M616.2,58.1h1.5l.3,1.1Z" class="g1_1" />
<path d="M617.7,58.1l.3,.3Z" class="g1_1" />
<path d="M619.1,58.8l-1.4,-.7l.3,1.1Z" class="g1_1" />
<path d="M617.7,58.1l1.4,-.4v1.1Z" class="g1_1" />
<path d="M619.1,57.7v.4Z" class="g1_1" />
<path d="M620.6,58.4l-1.5,-.7v1.1Z" class="g1_1" />
<path d="M619.1,57.7l1.1,-.4l.4,1.1Z" class="g1_1" />
<path d="M620.2,57.3l.4,.8l-.4,-.8Z" class="g1_1" />
<path d="M620.2,57.3l.4,.8l-.4,-.8Z" class="g1_1" />
<path d="M621.7,58.4l-1.5,-1.1l.4,1.1Z" class="g1_1" />
<path d="M621.7,58.4V57.3h-1.5Z" class="g1_1" />
<path d="M621.7,57.3l.3,.4Z" class="g1_1" />
<path d="M623.1,58.1l-1.4,-.8v1.1Z" class="g1_1" />
<path d="M623.1,58.1L622.8,57l-1.1,.3Z" class="g1_1" />
<path d="M622.8,57l.3,.7l-.3,-.7Z" class="g1_1" />
<path d="M622.8,57l.3,.7l-.3,-.7Z" class="g1_1" />
<path d="M624.2,58.1L622.8,57l.3,1.1Z" class="g1_1" />
<path d="M624.2,58.1V57h-1.4Z" class="g1_1" />
<path d="M624.2,57l.4,.3Z" class="g1_1" />
<path d="M625.7,57.7L624.2,57v1.1Z" class="g1_1" />
<path d="M625.7,57.7V56.6l-1.5,.4Z" class="g1_1" />
<path d="M625.7,56.6v.7Z" class="g1_1" />
<path d="M625.7,56.6v0Z" class="g1_1" />
<path d="M627.2,57.7l-1.5,-1.1v1.1Z" class="g1_1" />
<path d="M627.2,57.7l-.4,-1.1h-1.1Z" class="g1_1" />
<path d="M626.8,56.6l.4,.4l-.4,-.4Z" class="g1_1" />
<path d="M626.8,56.6l.4,.4l-.4,-.4Z" class="g1_1" />
<path d="M628.3,57.3l-1.5,-.7l.4,1.1Z" class="g1_1" />
<path d="M628.3,57.3V56.2l-1.5,.4Z" class="g1_1" />
<path d="M628.3,56.2V57Z" class="g1_1" />
<path d="M629.8,57.3l-1.5,-1.1v1.1Z" class="g1_1" />
<path d="M629.8,57.3l-.4,-1.1h-1.1Z" class="g1_1" />
<path d="M629.4,56.2l.4,.4Z" class="g1_1" />
<path d="M630.9,57l-1.5,-.8l.4,1.1Z" class="g1_1" />
<path d="M630.9,57V55.9l-1.5,.3Z" class="g1_1" />
<path d="M630.9,55.9l.3,.7Z" class="g1_1" />
<path d="M632.3,57l-1.4,-1.1V57Z" class="g1_1" />
<path d="M632.3,57L632,55.9h-1.1Z" class="g1_1" />
<path d="M632,55.9l.3,.3Z" class="g1_1" />
<path d="M632,55.9l.3,.3l-.3,-.3Z" class="g1_1" />
<path d="M633.4,57L632,55.9l.3,1.1Z" class="g1_1" />
<path d="M633.4,57V55.9H632Z" class="g1_1" />
<path d="M633.4,55.9l.4,.3Z" class="g1_1" />
<path d="M634.9,56.6l-1.5,-.7V57Z" class="g1_1" />
<path d="M634.9,56.6V55.5l-1.5,.4Z" class="g1_1" />
<path d="M634.9,55.5v.7Z" class="g1_1" />
<path d="M634.9,55.5v.7v-.7Z" class="g1_1" />
<path d="M636.5,56.6l-1.6,-1.1v1.1Z" class="g1_1" />
<path d="M636.5,56.6l-.3,-1.1h-1.3Z" class="g1_1" />
<path d="M636.2,55.5l.3,.4Z" class="g1_1" />
<path d="M636.2,55.5l.3,.4l-.3,-.4Z" class="g1_1" />
<path d="M637.6,56.2l-1.4,-.7l.3,1.1Z" class="g1_1" />
<path d="M637.6,56.2V55.1l-1.4,.4Z" class="g1_1" />
<path d="M637.6,55.1v.8Z" class="g1_1" />
<path d="M639.1,56.2l-1.5,-1.1v1.1Z" class="g1_1" />
<path d="M639.1,56.2l-.4,-1.1h-1.1Z" class="g1_1" />
<path d="M638.7,55.1l.4,.8Z" class="g1_1" />
<path d="M640.2,56.2l-1.5,-1.1l.4,1.1Z" class="g1_1" />
<path d="M640.2,56.2V55.1h-1.5Z" class="g1_1" />
<path d="M640.2,55.1l.4,.4Z" class="g1_1" />
<path d="M640.2,55.1l.4,.4l-.4,-.4Z" class="g1_1" />
<path d="M641.7,56.2l-1.5,-1.1v1.1Z" class="g1_1" />
<path d="M641.7,56.2V55.1h-1.5Z" class="g1_1" />
<path d="M641.7,55.1v.4Z" class="g1_1" />
<path d="M641.7,55.1v.4v-.4Z" class="g1_1" />
<path d="M642.8,55.9l-1.1,-.8v1.1Z" class="g1_1" />
<path d="M642.8,55.9V54.8l-1.1,.3Z" class="g1_1" />
<path d="M642.8,54.8l.3,.7Z" class="g1_1" />
<path d="M642.8,54.8l.3,.7l-.3,-.7Z" class="g1_1" />
<path d="M644.2,55.9l-1.4,-1.1v1.1Z" class="g1_1" />
<path d="M644.2,55.9V54.8h-1.4Z" class="g1_1" />
<path d="M644.2,54.8v.3Z" class="g1_1" />
<path d="M645.7,55.9l-1.5,-1.1v1.1Z" class="g1_1" />
<path d="M645.7,55.9l-.4,-1.1h-1.1Z" class="g1_1" />
<path d="M645.3,54.8l.4,.3Z" class="g1_1" />
<path d="M646.8,55.5l-1.5,-.7l.4,1.1Z" class="g1_1" />
<path d="M646.8,55.5V54.4l-1.5,.4Z" class="g1_1" />
<path d="M646.8,54.4v.7Z" class="g1_1" />
<path d="M646.8,54.4v.7v-.7Z" class="g1_1" />
<path d="M648.3,55.5l-1.5,-1.1v1.1Z" class="g1_1" />
<path d="M648.3,55.5l-.4,-1.1h-1.1Z" class="g1_1" />
<path d="M647.9,54.4v0l.4,.7Z" class="g1_1" />
<path d="M647.9,54.4l.4,.7l-.4,-.7Z" class="g1_1" />
<path d="M649.4,55.5l-1.5,-1.1l.4,1.1Z" class="g1_1" />
<path d="M649.4,55.5V54.4h-1.5Z" class="g1_1" />
<path d="M649.4,54.4v0l.3,.4Z" class="g1_1" />
<path d="M649.4,54.4l.3,.4l-.3,-.4Z" class="g1_1" />
<path d="M650.8,55.5l-1.4,-1.1v1.1Z" class="g1_1" />
<path d="M650.8,55.5V54.4h-1.4Z" class="g1_1" />
<path d="M650.8,54.4v.4Z" class="g1_1" />
<path d="M650.8,54.4v.4v-.4Z" class="g1_1" />
<path d="M651.9,55.1l-1.1,-.7v1.1Z" class="g1_1" />
<path d="M651.9,55.1V54l-1.1,.4Z" class="g1_1" />
<path d="M658.4,52.9L519.2,52.2v.7Z" class="g1_1" />
<path d="M519.2,52.2H658.4v.7Z" class="g1_1" />
<text x="632" y="68" dx="0,0.2,0.1" class="s2_1">SSR</text>
<text x="635" y="158" dx="0,0.2,0.1" class="s2_1">SSE</text>
<text x="655" y="177" class="s2_1">k</text>
<text x="518" y="177" class="s2_1">0</text>
<path d="M3.1,5.1h.8V4.3H3.1v.8Z" class="g1_1" />
<path d="M3.1,5.1h.8V4.3H3.1v.8Z" class="g1_1" />
<path d="M3.8,5.1H233.6V4.3H3.8v.8Z" class="g1_1" />
<path d="M233.6,5.1h.7V4.3h-.7v.8Z" class="g1_1" />
<path d="M234.3,5.1h222V4.3h-222v.8Z" class="g1_1" />
<path d="M456.3,5.1h.8V4.3h-.8v.8Z" class="g1_1" />
<path d="M457,5.1H712.6V4.3H457v.8Z" class="g1_1" />
<path d="M712.6,5.1h.7V4.3h-.7v.8Z" class="g1_1" />
<path d="M712.6,5.1h.7V4.3h-.7v.8Z" class="g1_1" />
<path d="M3.1,204h.8V5.1H3.1V204Z" class="g1_1" />
<path d="M3.1,204.7h.8V204H3.1v.7Z" class="g1_1" />
<path d="M3.1,204.7h.8V204H3.1v.7Z" class="g1_1" />
<path d="M3.8,204.7H234.1V204H3.8v.7Z" class="g1_1" />
<path d="M233,204.7h.8V204H233v.7Z" class="g1_1" />
<path d="M233.8,204.7H456.9V204H233.8v.7Z" class="g1_1" />
<path d="M455.8,204.7h.7V204h-.7v.7Z" class="g1_1" />
<path d="M456.5,204.7H712.6V204H456.5v.7Z" class="g1_1" />
<path d="M712.6,204h.7V5.1h-.7V204Z" class="g1_1" />
<path d="M712.6,204.7h.7V204h-.7v.7Z" class="g1_1" />
<path d="M712.6,204.7h.7V204h-.7v.7Z" class="g1_1" />


<!-- Any embedded fonts defined here -->
<style type="text/css" ><![CDATA[

@font-face {
	font-family: Arial_a;
	src: url("fonts/Arial_a.woff") format("woff");
}

@font-face {
	font-family: CourierNew-Bold_6;
	src: url("fonts/CourierNew-Bold_6.woff") format("woff");
}

]]></style>

</svg>
